<svg width="64" height="64" viewBox="0 0 64 64" fill="none" xmlns="http://www.w3.org/2000/svg">
<path d="M32.0175 64C49.6809 64 63.9922 49.6731 63.9825 32C63.9728 14.3269 49.6459 0 31.9825 0C14.319 0 0.00784312 14.3269 0.0175181 32C0.0271931 49.6731 14.3541 64 32.0175 64Z" fill="#6970F3"/>
<path d="M38.133 5.90035L38.5331 6.22786L39.0424 6.14295L44.0376 5.34238C45.9411 5.03913 47.8082 6.10656 48.4872 7.91391L50.2937 12.6446L50.4756 13.1298L50.9606 13.3117L55.689 15.1191C57.4955 15.8105 58.5625 17.6663 58.2594 19.5707L57.4592 24.5682L57.3743 25.0777L57.7017 25.478L60.9025 29.408C62.1149 30.9121 62.1149 33.0591 60.9025 34.5511L57.7017 38.4812L57.3743 38.8815L57.4592 39.3909L58.2594 44.3884C58.5625 46.2928 57.4955 48.1608 55.689 48.8401L50.9606 50.6474L50.4756 50.8294L50.2937 51.3146L48.4872 56.0452C47.7961 57.8526 45.9411 58.92 44.0376 58.6167L39.0424 57.8162L38.5331 57.7313L38.133 58.0588L34.2048 61.2611C32.7013 62.474 30.5553 62.474 29.0641 61.2611L25.1358 58.0588L24.7357 57.7313L24.2265 57.8162L19.2313 58.6167C17.3277 58.92 15.4606 57.8526 14.7816 56.0452L12.9751 51.3146L12.7933 50.8294L12.3083 50.6474L7.5798 48.8401C5.77328 48.1487 4.70634 46.2928 5.00945 44.3884L5.80965 39.3909L5.89453 38.8815L5.56717 38.4812L2.36635 34.5511C1.15392 33.047 1.15392 30.9 2.36635 29.408L5.56717 25.478L5.89453 25.0777L5.80965 24.5682L5.00945 19.5707C4.70634 17.6663 5.77328 15.7983 7.5798 15.1191L12.3083 13.3117L12.7933 13.1298L12.9751 12.6446L14.7816 7.91391C15.4727 6.10656 17.3277 5.03913 19.2313 5.34238L24.2265 6.14295L24.7357 6.22786L25.1358 5.90035L29.0641 2.69807C30.5675 1.48508 32.7135 1.48508 34.2048 2.69807L38.133 5.90035Z" fill="#E3F389"/>
<path d="M18.7545 16.3705L19.6079 17.7937L19.1455 18.0712L19.9159 19.3561L18.3113 20.3192L16.2536 16.8877C15.8553 16.2235 15.7269 15.5999 15.8682 15.0169C16.0105 14.4297 16.4098 13.9392 17.0659 13.5454C17.6983 13.1659 18.2663 13.0525 18.7701 13.2054C19.2722 13.3556 19.7319 13.7786 20.1491 14.4744L22.24 17.9613L20.6353 18.9244L18.6084 15.5442C18.482 15.3334 18.3693 15.2021 18.2702 15.1505C18.1711 15.0988 18.0571 15.1117 17.928 15.1892C17.6776 15.3395 17.6647 15.6017 17.8891 15.976L18.2921 16.648L18.7545 16.3705Z" fill="#6970F3"/>
<path d="M26.1739 13.47L28.0758 12.9978C28.221 14.0098 28.09 14.8588 27.6831 15.5449C27.2791 16.2303 26.6328 16.6955 25.744 16.9408C24.8405 17.1901 24.0003 17.0968 23.2234 16.6608C22.4487 16.2211 21.9376 15.5524 21.6901 14.6547C21.441 13.7511 21.5411 12.9058 21.9903 12.1187C22.4426 11.3308 23.1234 10.8114 24.0328 10.5605C24.9275 10.3136 25.7573 10.4098 26.5223 10.849C27.0522 11.1523 27.506 11.6535 27.8836 12.3526L25.9862 13.0149C25.587 12.411 25.0852 12.1924 24.4809 12.3591C24.0958 12.4654 23.8141 12.6866 23.6358 13.0227C23.4605 13.358 23.4296 13.7316 23.5431 14.1434C23.6526 14.5404 23.8662 14.8353 24.1839 15.0281C24.5008 15.218 24.8474 15.2611 25.2236 15.1572C25.6058 15.0518 25.878 14.8539 26.0402 14.5637C26.2055 14.2726 26.25 13.9081 26.1739 13.47Z" fill="#6970F3"/>
<path d="M31.3463 11.3731L31.323 15.9735L29.4515 15.964L29.4834 9.67191L31.885 9.68408C32.6163 9.68778 33.1824 9.87196 33.5831 10.2366C34.0298 10.6445 34.2515 11.1604 34.2483 11.7842C34.2451 12.4204 33.9643 12.9552 33.4059 13.3888L34.4714 15.9894L32.5077 15.9795L31.6099 13.9467L31.618 12.3287L31.7656 12.3294C32.1589 12.3314 32.3564 12.1634 32.3581 11.8254C32.3597 11.5273 32.133 11.3771 31.6782 11.3748L31.3463 11.3731Z" fill="#6970F3"/>
<path d="M39.3732 10.6002C40.2305 10.8437 40.8766 11.3643 41.3115 12.1619C41.7493 12.9603 41.8449 13.7941 41.5983 14.6633C41.3474 15.5473 40.8254 16.2104 40.0322 16.6528C39.239 17.0952 38.4005 17.1909 37.5166 16.9398C36.6386 16.6904 35.9773 16.1671 35.5327 15.37C35.0881 14.5728 34.9904 13.7352 35.2396 12.8571C35.4913 11.9702 36.0162 11.3079 36.8145 10.8702C37.6157 10.4332 38.4686 10.3433 39.3732 10.6002ZM38.8141 12.3678C38.4446 12.2628 38.0911 12.3094 37.7538 12.5075C37.4165 12.7056 37.1933 12.9968 37.0842 13.3811C36.9752 13.7654 37.0121 14.1305 37.1951 14.4764C37.381 14.8231 37.6572 15.0485 38.0238 15.1527C38.3963 15.2585 38.7493 15.2134 39.0828 15.0174C39.4201 14.8193 39.6437 14.5266 39.7536 14.1393C39.8635 13.7521 39.8266 13.387 39.6428 13.044C39.4628 12.699 39.1866 12.4736 38.8141 12.3678Z" fill="#6970F3"/>
<path d="M41.1223 17.9884L43.2537 14.5045C43.6274 13.8937 44.1087 13.5164 44.6975 13.3725C45.2889 13.2301 45.8886 13.3451 46.4967 13.7175C47.1021 14.0882 47.4556 14.5497 47.5572 15.102C47.6614 15.6559 47.5091 16.2671 47.1001 16.9356L45.0024 20.3644L43.4063 19.387L45.5041 15.9582C45.7045 15.6305 45.6881 15.3953 45.4549 15.2525C45.2295 15.1144 45.0166 15.2093 44.8161 15.5369L42.7184 18.9658L41.1223 17.9884Z" fill="#6970F3"/>
<path d="M13.9205 40.6782L14.5701 42.5479C13.5658 42.7872 12.7 42.7339 11.9726 42.3879C11.2464 42.0447 10.7191 41.4375 10.3909 40.5662C10.0572 39.6803 10.0739 38.8265 10.4409 38.0048C10.812 37.185 11.4375 36.6091 12.3174 36.2774C13.2032 35.9434 14.0624 35.966 14.8951 36.3453C15.729 36.7275 16.3138 37.3644 16.6497 38.2561C16.9801 39.1332 16.9596 39.9768 16.5882 40.7869C16.3319 41.3479 15.8695 41.8506 15.2012 42.295L14.3609 40.4475C14.9316 39.9902 15.1053 39.4653 14.8821 38.8728C14.7399 38.4952 14.4916 38.2322 14.1372 38.0839C13.7839 37.9385 13.4055 37.9419 13.0018 38.0941C12.6126 38.2408 12.3357 38.4829 12.1709 38.8203C12.0091 39.1566 11.9976 39.5092 12.1366 39.8781C12.2777 40.2528 12.5017 40.5083 12.8085 40.6448C13.1163 40.7841 13.487 40.7952 13.9205 40.6782Z" fill="#6970F3"/>
<path d="M20.1831 43.9255C20.8044 44.5766 21.1001 45.3608 21.07 46.2779C21.0421 47.1973 20.6982 47.9721 20.0383 48.6023C19.3672 49.2432 18.5732 49.5531 17.6563 49.5318C16.7394 49.5105 15.9606 49.1641 15.32 48.4927C14.6837 47.8258 14.3762 47.0315 14.3976 46.1098C14.419 45.1881 14.763 44.4089 15.4296 43.7723C16.1029 43.1292 16.8991 42.8216 17.818 42.8495C18.7391 42.8797 19.5275 43.2383 20.1831 43.9255ZM18.7911 45.1776C18.5233 44.897 18.1918 44.7564 17.7968 44.756C17.4018 44.7556 17.0584 44.8948 16.7666 45.1735C16.4748 45.4521 16.3199 45.7889 16.302 46.1837C16.2862 46.5807 16.4111 46.9185 16.6768 47.1969C16.9468 47.4799 17.2771 47.6215 17.6677 47.6217C18.0628 47.6221 18.4073 47.4819 18.7013 47.2011C18.9954 46.9203 19.1502 46.5836 19.1659 46.1909C19.186 45.7983 19.0611 45.4606 18.7911 45.1776Z" fill="#6970F3"/>
<path d="M22.9622 46.5169L24.6086 47.4454L22.7552 50.7348C22.6104 50.9917 22.5542 51.1862 22.5866 51.3185C22.6232 51.4496 22.7631 51.5837 23.0064 51.721L23.0916 51.769L22.1866 53.3752L21.7486 53.1282C21.1485 52.7897 20.7791 52.3515 20.6404 51.8137C20.5032 51.2731 20.6098 50.6919 20.9603 50.0699L22.9622 46.5169Z" fill="#6970F3"/>
<path d="M25.5967 47.9354L27.3866 48.5426L26.1747 52.1185C26.0801 52.3977 26.0609 52.5993 26.1172 52.7233C26.1774 52.8453 26.3398 52.9512 26.6044 53.0409L26.6969 53.0723L26.1052 54.8184L25.629 54.6569C24.9765 54.4355 24.5323 54.0734 24.2964 53.5706C24.0614 53.0649 24.0585 52.4739 24.2876 51.7979L25.5967 47.9354Z" fill="#6970F3"/>
<path d="M31.6696 51.6961L31.5343 53.1049L30.3063 52.9869C30.1394 52.9708 30.0181 52.9841 29.9423 53.0267C29.8696 53.0696 29.8276 53.1497 29.8163 53.2671C29.8035 53.4 29.8306 53.4914 29.8975 53.5415C29.9647 53.5885 30.108 53.6226 30.3273 53.6437L31.5925 53.7653L31.4188 55.5726L29.9405 55.4305C29.2454 55.3637 28.7299 55.1473 28.394 54.7813C28.0584 54.4123 27.9208 53.9142 27.981 53.2871L28.2192 50.8078C28.2774 50.2023 28.4955 49.7493 28.8736 49.4489C29.2547 49.1488 29.7604 49.0291 30.3907 49.0897L32.0265 49.247L31.852 51.0636L30.6518 50.9482C30.3274 50.917 30.1551 51.0064 30.1349 51.2165C30.123 51.3401 30.1533 51.4303 30.2258 51.4872C30.2986 51.5409 30.4339 51.5773 30.6316 51.5963L31.6696 51.6961Z" fill="#6970F3"/>
<path d="M37.71 51.521L39.6411 51.0871C39.7648 52.1122 39.6135 52.9665 39.1871 53.6501C38.7638 54.3329 38.1006 54.7881 37.1978 55.0157C36.2799 55.247 35.4336 55.1339 34.659 54.6761C33.8867 54.2146 33.3857 53.5279 33.1561 52.616C32.9249 51.698 33.045 50.8467 33.5164 50.0622C33.9908 49.2769 34.6899 48.7678 35.6139 48.5349C36.5227 48.3058 37.3585 48.4217 38.121 48.8824C38.6492 49.2006 39.0961 49.7169 39.4616 50.4314L37.5308 51.0572C37.1414 50.4384 36.6397 50.2064 36.0257 50.3611C35.6345 50.4598 35.345 50.6767 35.1574 51.0121C34.9729 51.3467 34.9332 51.7232 35.0386 52.1415C35.1401 52.5448 35.3491 52.8474 35.6656 53.0493C35.9814 53.2482 36.3303 53.2995 36.7125 53.2031C37.1008 53.1053 37.3801 52.9117 37.5505 52.6223C37.7238 52.3321 37.777 51.965 37.71 51.521Z" fill="#6970F3"/>
<path d="M42.6165 47.3537L45.1802 51.0882L43.6223 52.1586L41.0587 48.424L39.8653 49.2439L38.8325 47.7394L42.7732 45.0318L43.806 46.5364L42.6165 47.3537Z" fill="#6970F3"/>
<path d="M47.1208 43.6684L48.2042 44.579L47.4109 45.5238C47.3032 45.6522 47.2453 45.7596 47.2375 45.8463C47.2316 45.9305 47.2738 46.0106 47.3641 46.0864C47.4662 46.1723 47.5569 46.2019 47.6361 46.1752C47.7129 46.1464 47.8221 46.0477 47.9638 45.8789L48.781 44.9056L50.171 46.0737L49.2161 47.2111C48.7671 47.7459 48.2967 48.0479 47.8049 48.1171C47.3108 48.1843 46.8226 48.0152 46.3403 47.6099L44.4335 46.0075C43.9678 45.6161 43.7184 45.1795 43.6853 44.6976C43.6542 44.2134 43.8422 43.7288 44.2493 43.2439L45.3061 41.9853L46.7032 43.1594L45.9278 44.0828C45.7183 44.3324 45.6943 44.5251 45.8559 44.6609C45.9509 44.7408 46.0424 44.767 46.1303 44.7395C46.2158 44.71 46.3225 44.6192 46.4502 44.4671L47.1208 43.6684Z" fill="#6970F3"/>
<path d="M48.2397 40.3541L52.4553 42.012L51.764 43.7712L45.8502 41.4453L46.7508 39.1532C47.1458 38.1479 47.6833 37.4505 48.3632 37.0609C49.1747 36.5996 50.0484 36.553 50.9842 36.9211C51.8796 37.2732 52.4968 37.8495 52.8359 38.6498C53.175 39.4502 53.1658 40.3054 52.8083 41.2153C52.7663 41.3222 52.6919 41.4947 52.585 41.7328L50.8476 41.0495L50.9583 40.7679C51.3612 39.7424 51.1338 39.061 50.2759 38.7236C49.4701 38.4067 48.8691 38.7523 48.473 39.7604L48.2397 40.3541Z" fill="#6970F3"/>
<path d="M12.5629 23.889L13.2782 25.8176C13.2782 25.8176 13.3267 25.9025 13.3752 25.9146L15.303 26.6303C15.4485 26.691 15.4485 26.8972 15.303 26.9457L13.3752 27.6613C13.3752 27.6613 13.2903 27.7099 13.2782 27.7584L12.5629 29.687C12.5023 29.8326 12.2961 29.8326 12.2476 29.687L11.5323 27.7584C11.5323 27.7584 11.4838 27.6735 11.4353 27.6613L9.50756 26.9457C9.36206 26.885 9.36206 26.6788 9.50756 26.6303L11.4353 25.9146C11.4353 25.9146 11.5202 25.8661 11.5323 25.8176L12.2476 23.889C12.3083 23.7434 12.5144 23.7434 12.5629 23.889Z" fill="#ED5E11"/>
<path d="M51.0575 23.889L51.7728 25.8176C51.7728 25.8176 51.8213 25.9025 51.8698 25.9146L53.7976 26.6303C53.9431 26.691 53.9431 26.8972 53.7976 26.9457L51.8698 27.6613C51.8698 27.6613 51.785 27.7099 51.7728 27.7584L51.0575 29.687C50.9969 29.8326 50.7908 29.8326 50.7423 29.687L50.0269 27.7584C50.0269 27.7584 49.9784 27.6735 49.9299 27.6613L48.0022 26.9457C47.8567 26.885 47.8567 26.6788 48.0022 26.6303L49.9299 25.9146C49.9299 25.9146 50.0148 25.8661 50.0269 25.8176L50.7423 23.889C50.8029 23.7434 51.009 23.7434 51.0575 23.889Z" fill="#ED5E11"/>
<path d="M34.1137 45.0269C41.3049 43.8591 46.1882 37.0801 45.0209 29.8856C43.8536 22.6911 37.0777 17.8055 29.8865 18.9733C22.6953 20.1412 17.812 26.9202 18.9793 34.1147C20.1466 41.3092 26.9225 46.1947 34.1137 45.0269Z" fill="white"/>
<path d="M27.694 38.8088L27.4758 39.2333C27.2818 39.6093 27.4758 40.0945 27.8759 40.3007C28.2881 40.5191 28.7852 40.3735 28.9792 39.9975L29.1974 39.5729L27.6819 38.7966L27.694 38.8088Z" fill="#975415"/>
<path d="M38.1813 33.5809L32.7375 30.8031L27.2937 28.0254C27.2937 28.0254 24.2263 32.659 25.8267 36.0796C25.8267 36.0796 26.6511 38.1781 27.9606 39.0878C27.9606 39.0878 28.0091 39.2698 28.3364 39.4396C28.6638 39.6094 28.8335 39.5488 28.8335 39.5488C30.3369 40.0825 32.5193 39.5124 32.5193 39.5124C36.2293 38.7967 38.1813 33.593 38.1813 33.593V33.5809Z" fill="#975415"/>
<path d="M36.5446 23.331L36.1809 23.1491C35.9384 23.0278 35.6595 23.1006 35.5504 23.331L34.8957 24.6289C34.8957 24.6289 31.2948 24.0588 28.8214 24.9807C26.3481 25.9026 27.2453 28.0738 27.2453 28.0738C28.9912 29.5415 30.7613 30.6817 32.3739 31.5308C34.0228 32.3435 35.9748 33.1077 38.1935 33.6535C38.1935 33.6535 40.485 33.0956 39.7697 30.5604C39.0543 28.0253 36.484 25.4295 36.484 25.4295L37.1387 24.1316C37.2478 23.9133 37.1387 23.6343 36.9083 23.513L36.5446 23.331Z" fill="#492A1A"/>
<path d="M31.1696 32.2179L31.5433 33.3274C31.5849 33.4595 31.7094 33.5519 31.8617 33.5519H33.0797C33.3981 33.5519 33.5365 33.9482 33.2735 34.1331L32.2769 34.8199C32.1662 34.8991 32.1108 35.0444 32.1524 35.1765L32.5261 36.286C32.623 36.5765 32.2769 36.8275 32.014 36.6426L31.0174 35.9558C30.9066 35.8765 30.7405 35.8765 30.6298 35.9558L29.6332 36.6426C29.3702 36.8275 29.0242 36.5765 29.1211 36.286L29.4948 35.1765C29.5363 35.0444 29.4948 34.8991 29.3702 34.8199L28.3737 34.1331C28.1107 33.9482 28.2491 33.5519 28.5674 33.5519H29.7855C29.9239 33.5519 30.0623 33.4595 30.1038 33.3274L30.4776 32.2179C30.5744 31.9274 31.0174 31.9274 31.1143 32.2179H31.1696Z" fill="#FFAF33"/>
</svg>
