<svg width="110" height="110" viewBox="0 0 110 110" fill="none" xmlns="http://www.w3.org/2000/svg">
<rect width="110" height="110" rx="55" fill="#F3F3F3"/>
<path d="M66 54.5V57.6C66 59.8402 66 60.9603 65.564 61.816C65.1805 62.5686 64.5686 63.1805 63.816 63.564C62.9603 64 61.8402 64 59.6 64H52.4C50.1598 64 49.0397 64 48.184 63.564C47.4314 63.1805 46.8195 62.5686 46.436 61.816C46 60.9603 46 59.8402 46 57.6V52.4C46 50.1598 46 49.0397 46.436 48.184C46.8195 47.4314 47.4314 46.8195 48.184 46.436C49.0397 46 50.1598 46 52.4 46H56.5M63 51V45M60 48H66M60 55C60 57.2091 58.2091 59 56 59C53.7909 59 52 57.2091 52 55C52 52.7909 53.7909 51 56 51C58.2091 51 60 52.7909 60 55Z" stroke="#7F7F7F" stroke-width="1.5" stroke-linecap="round" stroke-linejoin="round"/>
</svg>
