<svg width="16" height="17" viewBox="0 0 16 17" fill="none" xmlns="http://www.w3.org/2000/svg">
<path fill-rule="evenodd" clip-rule="evenodd" d="M14.5272 1.70724C14.5925 1.77246 14.6374 1.85525 14.6565 1.94553C14.6756 2.03582 14.6681 2.12971 14.6348 2.21578L9.87352 14.596C9.83982 14.6836 9.78098 14.7593 9.7044 14.8136C9.62782 14.8678 9.5369 14.8983 9.44309 14.901C9.34927 14.9037 9.25674 14.8787 9.17711 14.829C9.09748 14.7793 9.03431 14.7072 8.99554 14.6217L7.00437 10.241L9.93352 7.31073C10.0597 7.17533 10.1284 6.99625 10.1251 6.81121C10.1218 6.62617 10.0469 6.44963 9.91602 6.31877C9.78516 6.1879 9.60863 6.11294 9.4236 6.10968C9.23858 6.10641 9.05951 6.1751 8.92412 6.30126L5.99403 9.23062L1.61365 7.24026C1.52791 7.20153 1.45557 7.13828 1.40575 7.05848C1.35593 6.97867 1.33086 6.8859 1.33372 6.79186C1.33657 6.69782 1.36721 6.60674 1.42178 6.5301C1.47634 6.45347 1.55239 6.39472 1.64031 6.36126L14.0197 1.59963C14.1056 1.56656 14.1993 1.55912 14.2894 1.57822C14.3795 1.59732 14.4621 1.64214 14.5272 1.70724Z" fill="#6970F3"/>
</svg>
