<svg width="48" height="64" viewBox="0 0 48 64" fill="none" xmlns="http://www.w3.org/2000/svg">
<path d="M21.9612 64C33.7849 64 43.37 60.5903 43.37 56.3843C43.37 52.1782 33.7849 48.7686 21.9612 48.7686C10.1375 48.7686 0.55249 52.1782 0.55249 56.3843C0.55249 60.5903 10.1375 64 21.9612 64Z" fill="#A8A8A8"/>
<path d="M45.1261 41.6116L24.4675 45.2165L9.01541 31.0352C9.01541 31.0352 6.89307 31.2867 4.24124 40.1776C4.07357 40.7467 4.07799 41.3556 4.27654 41.9116C5.07959 44.1619 8.40651 49.7568 22.001 53.6308C35.5336 57.699 41.3535 54.7824 43.2464 53.3219C43.7141 52.9601 44.0495 52.4483 44.2127 51.8791C46.7763 42.9617 45.1261 41.6072 45.1261 41.6072V41.6116Z" fill="url(#paint0_linear_3218_59712)"/>
<path d="M45.4662 44.0182C46.5605 40.281 38.9331 34.7583 28.4301 31.6831C17.9271 28.6078 8.52559 29.1444 7.43134 32.8816C6.33708 36.6188 13.9644 42.1414 24.4675 45.2167C34.9705 48.292 44.372 47.7554 45.4662 44.0182Z" fill="url(#paint1_linear_3218_59712)"/>
<path d="M46.6262 9.51178C46.6262 9.51178 46.2997 5.99073 42.1962 2.91532C39.3767 0.810625 35.8689 -0.217453 32.3567 0.0384633C27.2428 0.413513 25.0675 3.20212 25.0675 3.20212C18.7711 9.10143 21.6479 17.5599 21.6479 17.5599C24.7895 24.8491 19.7991 31.9354 18.7269 33.3297C18.546 33.5679 18.4313 33.8547 18.4137 34.1504C18.2504 37.3581 26.0779 39.6967 26.0779 39.6967C26.0779 39.6967 33.9319 41.9514 35.5248 39.1628C35.6748 38.9025 35.7321 38.598 35.7057 38.3024C35.5556 36.5463 35.1762 27.8892 41.755 23.446C41.755 23.446 48.7442 17.8776 46.6218 9.51178H46.6262Z" fill="url(#paint2_linear_3218_59712)"/>
<path d="M35.7082 34.6929C34.7199 35.5621 31.4239 35.4739 27.7528 34.3972C23.5787 33.175 20.5033 31.1453 20.8783 29.8658C20.8916 29.8216 20.918 29.7775 20.9401 29.7378H20.9225C20.0665 31.5204 19.1355 32.8088 18.7383 33.325C18.5574 33.5633 18.4427 33.8501 18.4251 34.1457C18.2618 37.3535 26.0893 39.6921 26.0893 39.6921C26.0893 39.6921 33.9433 41.9468 35.5362 39.1582C35.6862 38.8978 35.7435 38.5934 35.7171 38.2978C35.6685 37.7197 35.5935 36.3916 35.7524 34.7061L35.7038 34.6885L35.7082 34.6929Z" fill="url(#paint3_linear_3218_59712)"/>
<defs>
<linearGradient id="paint0_linear_3218_59712" x1="17.6171" y1="31.0352" x2="32.1529" y2="55.706" gradientUnits="userSpaceOnUse">
<stop stop-color="#6970F3"/>
<stop offset="1" stop-color="#4C51B0"/>
</linearGradient>
<linearGradient id="paint1_linear_3218_59712" x1="44.5616" y1="47.1078" x2="11.403" y2="51.7411" gradientUnits="userSpaceOnUse">
<stop stop-color="white"/>
<stop offset="1" stop-color="#6970F3"/>
</linearGradient>
<linearGradient id="paint2_linear_3218_59712" x1="18.4111" y1="5.03048" x2="47.023" y2="35.527" gradientUnits="userSpaceOnUse">
<stop stop-color="#DEE0FF"/>
<stop offset="0.570771" stop-color="#6970F3"/>
<stop offset="1" stop-color="#4C51B0"/>
</linearGradient>
<linearGradient id="paint3_linear_3218_59712" x1="18.9599" y1="29.7378" x2="53.2801" y2="51.4025" gradientUnits="userSpaceOnUse">
<stop stop-color="#E3F389"/>
<stop offset="1" stop-color="#848D4F"/>
</linearGradient>
</defs>
</svg>
