<svg width="16" height="16" viewBox="0 0 16 16" fill="none" xmlns="http://www.w3.org/2000/svg">
<g clip-path="url(#clip0_2799_3474)">
<path fill-rule="evenodd" clip-rule="evenodd" d="M7.78667 0.35223C7.21221 0.35223 6.66128 0.580433 6.25507 0.986637C5.84887 1.39284 5.62067 1.94377 5.62067 2.51823C5.62067 3.09269 5.84887 3.64362 6.25507 4.04982C6.66128 4.45603 7.21221 4.68423 7.78667 4.68423C8.36113 4.68423 8.91206 4.45603 9.31826 4.04982C9.72446 3.64362 9.95267 3.09269 9.95267 2.51823C9.95267 1.94377 9.72446 1.39284 9.31826 0.986637C8.91206 0.580433 8.36113 0.35223 7.78667 0.35223ZM11.1387 6.5189L10.5867 6.79556L12.4487 10.7256C12.5173 10.8636 12.7247 11.0016 12.862 10.9322L14.7287 10.4496C15.28 10.3116 15.832 10.6562 15.9693 11.2082C16.1073 11.7596 15.7627 12.3116 15.2113 12.4496L13.3447 12.9322C13.138 13.0009 12.9313 13.0009 12.7247 13.0009C11.69 13.0009 10.794 12.3809 10.4493 11.4149L10.3113 11.0016L8.656 12.1049C8.6203 12.1071 8.58664 12.1223 8.56135 12.1476C8.53605 12.1729 8.52087 12.2065 8.51867 12.2422L7.55333 15.0262C7.34667 15.4396 7.00133 15.6469 6.588 15.6469C6.45 15.6469 6.312 15.6469 6.17467 15.5782C5.62267 15.3022 5.41533 14.7509 5.62267 14.1989L6.588 11.4149C6.79467 11.0016 7.07067 10.6569 7.484 10.3809L9.484 9.0709L8.72533 7.69156L7.76 8.17423C6.86333 8.58756 5.76 8.45023 5.002 7.69156L3.73067 6.40756C3.31733 5.99423 3.31733 5.3729 3.73067 4.95956C4.144 4.54623 4.76467 4.54623 5.17867 4.95956L6.45 6.24356C6.588 6.38156 6.72533 6.38156 6.86333 6.3129L8.72533 5.34756L10.242 4.5889C10.8627 4.3129 11.4833 4.24423 12.104 4.4509C12.724 4.65756 13.2073 5.14023 13.4827 5.69223L14.448 7.52356C14.6547 8.00623 14.448 8.6269 13.9653 8.9029C13.45 9.16023 12.89 8.9949 12.5867 8.4889L11.6213 6.65756C11.4833 6.51956 11.2767 6.45023 11.1387 6.5189ZM5.236 12.1049L5.536 11.9049L5.80067 11.1429C5.81222 11.1091 5.82622 11.0758 5.84267 11.0429C6.104 10.5196 6.47 10.0562 7.022 9.68823L7.02733 9.68423L8.178 8.9309L8.16467 8.90423L8.13267 8.92023L8.11933 8.9269L8.10933 8.93156C7.43386 9.24362 6.67301 9.31924 5.94933 9.14623L4.064 10.3816C3.65 10.6576 3.374 11.0016 3.16733 11.4156L2.202 14.1996C1.99533 14.7516 2.202 15.3029 2.75333 15.5789C2.89133 15.6476 3.02933 15.6476 3.16733 15.6476C3.58067 15.6476 3.926 15.4409 4.13267 15.0276L5.098 12.2429C5.098 12.1742 5.16667 12.1049 5.236 12.1049ZM1.758 4.95956L2.59133 5.8009C2.61867 6.23223 2.802 6.65623 3.14 6.9949L4.31733 8.18423C3.42467 8.58556 2.33333 8.44423 1.58133 7.69156L0.31 6.40756C-0.103333 5.99423 -0.103333 5.3729 0.31 4.95956C0.724 4.54623 1.34467 4.54623 1.758 4.95956ZM5.44733 0.640897C5.0192 1.17283 4.78626 1.83541 4.78733 2.51823C4.78733 3.0389 4.92 3.5289 5.154 3.95623C4.49933 3.6829 3.734 3.80823 3.18067 4.33156C2.70351 4.02528 2.36548 3.54411 2.23916 2.99136C2.11283 2.43862 2.20828 1.85837 2.50502 1.37522C2.80175 0.892071 3.2761 0.544536 3.82623 0.40724C4.37635 0.269944 4.95837 0.353834 5.44733 0.640897Z" fill="#6970F3"/>
</g>
<defs>
<clipPath id="clip0_2799_3474">
<rect width="16" height="16" fill="white"/>
</clipPath>
</defs>
</svg>
