<svg width="16" height="17" viewBox="0 0 16 17" fill="none" xmlns="http://www.w3.org/2000/svg">
<path fill-rule="evenodd" clip-rule="evenodd" d="M14.527 1.70724C14.5923 1.77246 14.6372 1.85525 14.6563 1.94553C14.6755 2.03582 14.6679 2.12971 14.6346 2.21578L9.87336 14.596C9.83965 14.6836 9.78082 14.7593 9.70423 14.8136C9.62765 14.8678 9.53674 14.8983 9.44292 14.901C9.3491 14.9037 9.25657 14.8787 9.17694 14.829C9.09731 14.7793 9.03415 14.7072 8.99538 14.6217L7.00421 10.241L9.93335 7.31073C10.0595 7.17533 10.1282 6.99625 10.1249 6.81121C10.1217 6.62617 10.0467 6.44963 9.91585 6.31877C9.785 6.1879 9.60846 6.11294 9.42344 6.10968C9.23841 6.10641 9.05934 6.1751 8.92396 6.30126L5.99386 9.23062L1.61348 7.24026C1.52775 7.20153 1.4554 7.13828 1.40558 7.05848C1.35576 6.97867 1.33069 6.8859 1.33355 6.79186C1.3364 6.69782 1.36704 6.60674 1.42161 6.5301C1.47618 6.45347 1.55222 6.39472 1.64014 6.36126L14.0195 1.59963C14.1054 1.56656 14.1991 1.55912 14.2892 1.57822C14.3793 1.59732 14.4619 1.64214 14.527 1.70724Z" fill="white"/>
</svg>
