<svg width="16" height="16" viewBox="0 0 16 16" fill="none" xmlns="http://www.w3.org/2000/svg">
<path d="M2.66665 14.6666C2.66665 14.4898 2.73688 14.3202 2.86191 14.1952C2.98693 14.0702 3.1565 13.9999 3.33331 13.9999H12.6666C12.8435 13.9999 13.013 14.0702 13.1381 14.1952C13.2631 14.3202 13.3333 14.4898 13.3333 14.6666C13.3333 14.8434 13.2631 15.013 13.1381 15.138C13.013 15.263 12.8435 15.3333 12.6666 15.3333H3.33331C3.1565 15.3333 2.98693 15.263 2.86191 15.138C2.73688 15.013 2.66665 14.8434 2.66665 14.6666ZM4.99998 3.6666C5.00004 3.17806 5.11942 2.69693 5.34772 2.26502C5.57603 1.83311 5.90636 1.46349 6.31001 1.18829C6.71365 0.91308 7.1784 0.740616 7.66387 0.685881C8.14933 0.631146 8.64081 0.695798 9.09561 0.874216C9.5504 1.05264 9.95474 1.33942 10.2735 1.70965C10.5922 2.07989 10.8157 2.52236 10.9246 2.99862C11.0334 3.47488 11.0243 3.97051 10.898 4.44245C10.7717 4.91438 10.5321 5.34834 10.2 5.7066C10.0826 6.1386 9.99998 6.58927 9.99998 6.99993C9.99998 7.56927 10.0533 8.15993 10.116 8.6666H11.6666C12.4623 8.6666 13.2254 8.98267 13.788 9.54528C14.3506 10.1079 14.6666 10.871 14.6666 11.6666C14.6666 11.9318 14.5613 12.1862 14.3738 12.3737C14.1862 12.5612 13.9319 12.6666 13.6666 12.6666H2.33331C2.0681 12.6666 1.81374 12.5612 1.62621 12.3737C1.43867 12.1862 1.33331 11.9318 1.33331 11.6666C1.33331 10.871 1.64938 10.1079 2.21199 9.54528C2.7746 8.98267 3.53766 8.6666 4.33331 8.6666H5.88398C5.94665 8.15993 5.99998 7.56927 5.99998 6.99993C5.99998 6.58927 5.91731 6.1386 5.79998 5.7066C5.28448 5.15252 4.99855 4.4234 4.99998 3.6666Z" fill="#6970F3"/>
</svg>
