<svg width="16" height="16" viewBox="0 0 16 16" fill="none" xmlns="http://www.w3.org/2000/svg">
<path fill-rule="evenodd" clip-rule="evenodd" d="M1.67999 5.21525C1.33333 5.84659 1.33333 6.60992 1.33333 8.13525V9.14992C1.33333 11.7499 1.33333 13.0506 2.11466 13.8586C2.89599 14.6666 4.15266 14.6666 6.66666 14.6666H9.33333C11.8473 14.6666 13.1047 14.6666 13.8853 13.8586C14.666 13.0506 14.6667 11.7506 14.6667 9.14992V8.13592C14.6667 6.60992 14.6667 5.84725 14.32 5.21525C13.9747 4.58259 13.342 4.19059 12.0773 3.40525L10.744 2.57792C9.40733 1.74792 8.73866 1.33325 8 1.33325C7.26133 1.33325 6.59333 1.74792 5.25599 2.57792L3.92266 3.40525C2.65799 4.19059 2.02599 4.58259 1.67999 5.21525ZM7.5 11.9999C7.5 12.1325 7.55267 12.2597 7.64644 12.3535C7.74021 12.4472 7.86739 12.4999 8 12.4999C8.1326 12.4999 8.25978 12.4472 8.35355 12.3535C8.44732 12.2597 8.5 12.1325 8.5 11.9999V9.99992C8.5 9.86731 8.44732 9.74013 8.35355 9.64637C8.25978 9.5526 8.1326 9.49992 8 9.49992C7.86739 9.49992 7.74021 9.5526 7.64644 9.64637C7.55267 9.74013 7.5 9.86731 7.5 9.99992V11.9999Z" fill="#6970F3"/>
</svg>
