<svg width="16" height="16" viewBox="0 0 16 16" fill="none" xmlns="http://www.w3.org/2000/svg">
<path fill-rule="evenodd" clip-rule="evenodd" d="M1.67998 5.21501C1.33331 5.84634 1.33331 6.60967 1.33331 8.13501V9.14967C1.33331 11.7497 1.33331 13.0503 2.11465 13.8583C2.89598 14.6663 4.15265 14.6663 6.66665 14.6663H9.33331C11.8473 14.6663 13.1046 14.6663 13.8853 13.8583C14.666 13.0503 14.6666 11.7503 14.6666 9.14967V8.13567C14.6666 6.60967 14.6666 5.84701 14.32 5.21501C13.9746 4.58234 13.342 4.19034 12.0773 3.40501L10.744 2.57767C9.40731 1.74767 8.73865 1.33301 7.99998 1.33301C7.26131 1.33301 6.59331 1.74767 5.25598 2.57767L3.92265 3.40501C2.65798 4.19034 2.02598 4.58234 1.67998 5.21501ZM7.49998 11.9997C7.49998 12.1323 7.55266 12.2595 7.64643 12.3532C7.74019 12.447 7.86737 12.4997 7.99998 12.4997C8.13259 12.4997 8.25976 12.447 8.35353 12.3532C8.4473 12.2595 8.49998 12.1323 8.49998 11.9997V9.99967C8.49998 9.86707 8.4473 9.73989 8.35353 9.64612C8.25976 9.55235 8.13259 9.49967 7.99998 9.49967C7.86737 9.49967 7.74019 9.55235 7.64643 9.64612C7.55266 9.73989 7.49998 9.86707 7.49998 9.99967V11.9997Z" fill="white"/>
</svg>
