<svg width="16" height="16" viewBox="0 0 16 16" fill="none" xmlns="http://www.w3.org/2000/svg">
<path fill-rule="evenodd" clip-rule="evenodd" d="M4 1.33301C3.46957 1.33301 2.96086 1.54372 2.58579 1.91879C2.21071 2.29387 2 2.80257 2 3.33301V12.6663C2 13.1968 2.21071 13.7055 2.58579 14.0806C2.96086 14.4556 3.46957 14.6663 4 14.6663H8C8.53043 14.6663 9.03914 14.4556 9.41421 14.0806C9.78929 13.7055 10 13.1968 10 12.6663V3.33301C10 2.80257 9.78929 2.29387 9.41421 1.91879C9.03914 1.54372 8.53043 1.33301 8 1.33301H4ZM10.862 4.86167C10.987 4.73669 11.1566 4.66648 11.3333 4.66648C11.5101 4.66648 11.6796 4.73669 11.8047 4.86167L14.4713 7.52834C14.5963 7.65336 14.6665 7.8229 14.6665 7.99967C14.6665 8.17645 14.5963 8.34599 14.4713 8.47101L11.8047 11.1377C11.6789 11.2591 11.5105 11.3263 11.3357 11.3248C11.1609 11.3233 10.9937 11.2532 10.8701 11.1296C10.7465 11.0059 10.6764 10.8387 10.6749 10.6639C10.6734 10.4891 10.7406 10.3207 10.862 10.195L12.3907 8.66634H6.66667C6.48986 8.66634 6.32029 8.5961 6.19526 8.47108C6.07024 8.34606 6 8.17649 6 7.99967C6 7.82286 6.07024 7.65329 6.19526 7.52827C6.32029 7.40325 6.48986 7.33301 6.66667 7.33301H12.3907L10.862 5.80434C10.737 5.67932 10.6668 5.50978 10.6668 5.33301C10.6668 5.15623 10.737 4.98669 10.862 4.86167Z" fill="white"/>
</svg>
