<svg width="149" height="152" viewBox="0 0 149 152" fill="none" xmlns="http://www.w3.org/2000/svg">
<g clip-path="url(#clip0_4788_13617)">
<path d="M79.93 140.6C79.93 140.6 94.8 147.64 108.61 135.67C108.61 135.67 119.22 125.25 120.96 116.27C120.96 116.27 131.2 119.93 139.31 112.79C139.31 112.79 152.25 101.54 147.93 86.1599C143.61 70.7799 125.5 62.1699 110.5 69.1099C109.31 69.6599 108.11 70.2999 106.87 71.0399C106.87 71.0399 84.54 82.0099 81.18 109.9L79.95 140.59L79.93 140.6Z" fill="url(#paint0_linear_4788_13617)"/>
<path d="M83.04 138.94C83.04 138.94 90 138.32 97.72 118.99C97.72 118.99 125.58 58.79 147.04 83.6C147.04 83.6 141.6 66.09 117.41 65.71C97.18 66.8 94.6 82.87 94.6 82.87C94.6 82.87 88.13 116.89 84.57 120.52L81.22 138.92H83.04V138.94Z" fill="#687E07"/>
<path d="M81.2699 132.49C84.8699 129.45 87.0299 124.27 87.0299 115.45C87.0299 103.66 75.39 94.0999 61.05 94.0999C46.7 94.0999 35.07 103.66 35.07 115.45C35.07 122.73 36.6 127.54 39.23 130.71C39.23 130.71 37.55 138.53 37.01 143.99L33.59 145.31C32.77 145.63 32.78 146.8 33.62 147.08C37.34 148.37 44.86 150.58 51.74 150.12C52.37 150.08 52.92 149.68 53.15 149.1L57.88 136.77C58.92 136.79 59.99 136.8 61.07 136.8H62.45C63.19 139.5 64.4699 143.92 65.7399 147.25L63.25 149.94C62.65 150.58 63.1899 151.62 64.0599 151.51C67.95 151.03 75.6499 149.69 81.5999 146.28C82.1899 145.94 82.5299 145.3 82.4599 144.62L81.29 132.48L81.2699 132.49Z" fill="url(#paint1_radial_4788_13617)"/>
<path d="M73.14 128.91L74.19 137.09C74.77 141.6 79.03 144.87 83.82 144.48L91.5 143.86C91.5 143.86 104.53 143.31 98.6 126.57C98.21 125.48 97.22 124.67 96.01 124.48C92.55 123.94 84.77 123.22 75.57 125.51C73.98 125.91 72.94 127.37 73.14 128.91Z" fill="#6D6D6D"/>
<path d="M81.07 135.26C81.24 135.26 81.41 135.26 81.58 135.24L93 134.33C95.02 134.17 96.82 133.09 97.96 131.37L98.4 130.7C98.55 130.47 98.49 130.16 98.26 130.01C98.03 129.86 97.72 129.92 97.57 130.15L97.13 130.82C96.17 132.28 94.64 133.19 92.93 133.33L81.51 134.24C79.95 134.37 78.4 133.81 77.26 132.71L75.64 131.16C75.44 130.97 75.12 130.98 74.93 131.18C74.74 131.38 74.75 131.7 74.95 131.89L76.57 133.44C77.79 134.61 79.41 135.26 81.08 135.26H81.07Z" fill="#EAEAEA"/>
<path d="M90.84 124.03C90.84 124.03 89.98 118.95 84.85 119.61C84.85 119.61 81.72 120.1 81.46 124.33" stroke="#6D6D6D" stroke-miterlimit="10"/>
<path d="M43.05 119.02C43.05 119.02 27.12 113.71 19.99 106.79L21.67 96.2698L44.85 105.15L43.04 119.02H43.05Z" fill="url(#paint2_linear_4788_13617)"/>
<path d="M46.11 101.69C46.11 101.69 36.53 118.74 49.52 128.03C49.52 128.03 57.6 134.25 66.97 128.48C66.97 128.48 78.89 121.74 71.82 103.11L46.11 101.68V101.69Z" fill="#F4FFB7"/>
<path d="M81.19 100.61L71.9 104.66C76.09 109.36 79.9 120.74 79.9 120.74L79.42 122.11C79.24 122.61 79.8 123.06 80.32 122.83L82.49 121.86L83.81 124.11C84.06 124.54 84.73 124.53 84.96 124.09L86.34 121.46L88.3 122.44C88.75 122.67 89.3 122.34 89.26 121.86L89 118.89L91.09 117.54C91.48 117.29 91.45 116.74 91.03 116.52L88.41 115.21C88.41 115.21 84.91 103.71 81.2 100.59L81.19 100.61Z" fill="url(#paint3_linear_4788_13617)"/>
<path d="M36.11 22.1099C36.11 22.1099 14.72 26.1099 10.3 54.2899C10.3 54.2899 2.06998 58.3399 0.0399782 72.9199C-0.560022 83.1199 4.76998 91.5799 12.79 97.0999C20.76 101.96 32 107.74 54.75 106.83C99.09 105.06 120.5 88.5699 121.13 65.0299C121.76 41.4899 101.23 25.9999 101.23 25.9999C101.23 25.9999 106.95 19.6099 105.45 10.7799C104.88 7.44989 103.09 4.37989 100.23 2.58989C97.68 0.98989 94 0.15989 89.46 3.20989C89.46 3.20989 82.09 7.73989 81.33 17.9999C81.33 17.9999 68.61 14.2199 54.06 17.0499C54.06 17.0499 56.71 11.9299 55.3 5.92989C54.75 3.60989 53.18 1.60989 50.98 0.67989C48.33 -0.45011 44.26 -0.740111 39.51 3.82989C31.07 11.9499 36.11 22.0799 36.11 22.0799V22.1099Z" fill="url(#paint4_linear_4788_13617)"/>
<path d="M16 53.2799C11.92 52.8799 8.94 54.4999 6.33 57.6599C3.36 61.2699 -0.0500001 67.1799 0.0499999 75.2599C0.31 84.3399 5.08 91.4099 12.56 97.1199C18.97 101.08 28.77 106.19 44.06 106.8C77.44 108.15 99.97 99.1698 109.33 90.1698C111.98 87.6198 113.43 84.6699 114.15 81.7599C116.79 71.0899 110.58 60.0099 100.25 56.8099C94.97 55.1799 87.77 54.8799 78.14 57.8699C56.84 64.4799 45.42 62.8799 41.48 61.8799C40.64 61.6699 39.83 61.3399 39.06 60.9499C36.07 59.4199 25.35 54.2099 16.01 53.2899L16 53.2799Z" fill="url(#paint5_linear_4788_13617)"/>
<path d="M49.57 48.4599C50.54 41.9699 46.78 36.0399 41.19 35.2099C35.59 34.3799 30.27 38.9599 29.3 45.4399C28.33 51.9299 32.09 57.8599 37.69 58.6899C43.29 59.5199 48.61 54.9399 49.58 48.4599H49.57Z" fill="white"/>
<path d="M77.83 49.6699C78.8 43.1799 75.04 37.2499 69.45 36.4199C63.85 35.5899 58.53 40.1699 57.56 46.6499C56.59 53.1399 60.35 59.0699 65.94 59.8999C71.54 60.7299 76.86 56.1499 77.83 49.6699Z" fill="white"/>
<path d="M56.52 16.1798C56.52 16.1798 50.81 29.6098 53.5 34.4798C56.19 39.3498 59.97 33.8098 59.97 33.8098C59.97 33.8098 71.17 16.5798 74.36 16.5798C74.36 16.5798 66.12 14.9998 56.53 16.1798H56.52Z" fill="#687E07"/>
<path d="M62.43 38.0699C62.43 38.0699 62.53 38.0699 62.58 38.0699L76.79 36.8999C77.52 36.8399 78.05 36.3399 77.97 35.7999C77.89 35.2499 77.22 34.8599 76.49 34.9199L62.28 36.0899C61.55 36.1499 61.02 36.6499 61.1 37.1899C61.18 37.6999 61.75 38.0799 62.43 38.0799V38.0699Z" fill="#2E1A10"/>
<path d="M65.93 56.9799C68.29 56.9799 70.2 55.0699 70.2 52.7099C70.2 50.3499 68.29 48.4399 65.93 48.4399C63.57 48.4399 61.66 50.3499 61.66 52.7099C61.66 55.0699 63.57 56.9799 65.93 56.9799Z" fill="#2E1A10"/>
<path d="M64.64 54.7499C65.35 54.7499 65.93 54.1699 65.93 53.4599C65.93 52.7499 65.35 52.1699 64.64 52.1699C63.93 52.1699 63.35 52.7499 63.35 53.4599C63.35 54.1699 63.93 54.7499 64.64 54.7499Z" fill="white"/>
<path d="M45.21 37.5399C45.86 37.5399 46.41 37.1599 46.48 36.6499C46.56 36.0999 46.05 35.6099 45.34 35.5499L31.7 34.3799C31 34.3299 30.36 34.7099 30.28 35.2599C30.2 35.8099 30.71 36.2999 31.42 36.3599L45.06 37.5299C45.06 37.5299 45.16 37.5299 45.2 37.5299L45.21 37.5399Z" fill="#2E1A10"/>
<path d="M43.76 52.0798C43.76 54.4398 41.85 56.3498 39.49 56.3498C37.13 56.3498 35.22 54.4398 35.22 52.0798C35.22 49.7198 37.13 47.8098 39.49 47.8098C41.85 47.8098 43.76 49.7198 43.76 52.0798Z" fill="#2E1A10"/>
<path d="M38.54 54.1198C39.25 54.1198 39.83 53.5398 39.83 52.8298C39.83 52.1198 39.25 51.5398 38.54 51.5398C37.83 51.5398 37.25 52.1198 37.25 52.8298C37.25 53.5398 37.83 54.1198 38.54 54.1198Z" fill="white"/>
<path d="M91.44 20.8999C91.54 20.8999 91.65 20.8799 91.75 20.8499C92.27 20.6799 92.56 20.1199 92.39 19.5899C92.29 19.2899 90.21 12.4999 96.6 9.9399C97.11 9.7299 97.36 9.1499 97.16 8.6399C96.95 8.1299 96.37 7.8799 95.86 8.0799C89.35 10.6999 89.5 17.1599 90.5 20.2099C90.64 20.6299 91.03 20.8999 91.45 20.8999H91.44Z" fill="#687E07"/>
<path d="M45.07 18.7398C45.23 18.7398 45.39 18.6998 45.54 18.6198C46.03 18.3598 46.21 17.7498 45.95 17.2698C44.41 14.4098 45.51 10.6898 45.52 10.6498C45.68 10.1198 45.38 9.55979 44.85 9.39979C44.32 9.23979 43.76 9.53979 43.6 10.0598C43.54 10.2398 42.24 14.6098 44.18 18.2098C44.36 18.5498 44.71 18.7398 45.06 18.7398H45.07Z" fill="#687E07"/>
<path d="M27.45 51.81V46.82C27.45 44.97 28.9499 43.47 30.7999 43.47H43.83C45.68 43.47 47.18 44.97 47.18 46.82V51.81C47.18 55.75 43.9699 58.96 40.0299 58.96H34.5999C30.6599 58.96 27.45 55.75 27.45 51.81ZM30.7999 45.47C30.0499 45.47 29.45 46.08 29.45 46.82V51.81C29.45 54.65 31.7599 56.96 34.5999 56.96H40.0299C42.8699 56.96 45.18 54.65 45.18 51.81V46.82C45.18 46.07 44.57 45.47 43.83 45.47H30.7999Z" fill="#903912"/>
<path d="M56.46 52.3998V47.4098C56.46 45.5598 57.96 44.0598 59.81 44.0598H74.56C76.41 44.0598 77.91 45.5598 77.91 47.4098V52.3998C77.91 56.3398 74.7 59.5498 70.76 59.5498H63.61C59.67 59.5498 56.46 56.3398 56.46 52.3998ZM59.81 46.0598C59.06 46.0598 58.46 46.6698 58.46 47.4098V52.3998C58.46 55.2398 60.77 57.5498 63.61 57.5498H70.76C73.6 57.5498 75.91 55.2398 75.91 52.3998V47.4098C75.91 46.6598 75.3 46.0598 74.56 46.0598H59.81Z" fill="#903912"/>
<path d="M56.93 51.9799L57.41 51.1099C57.1 50.9399 49.82 46.9899 46.11 50.8899L46.83 51.5799C50.01 48.2299 56.85 51.9499 56.92 51.9799H56.93Z" fill="#903912"/>
<path d="M49.87 65.2199C53.93 65.2199 57.22 62.6399 57.22 59.4499C57.22 56.2599 53.93 53.6799 49.87 53.6799C45.81 53.6799 42.52 56.2599 42.52 59.4499C42.52 62.6399 45.81 65.2199 49.87 65.2199Z" fill="#2A170C"/>
<path d="M52.79 107.2L54.64 108.63C55.19 109.06 55.23 109.82 54.73 110.3L52.79 112.13C52.29 112.6 51.47 112.59 50.99 112.11L49.39 110.52C48.95 110.08 48.95 109.41 49.39 108.98L51.07 107.31C51.52 106.86 52.27 106.82 52.78 107.21L52.79 107.2Z" fill="#6D6D6D"/>
<path d="M52.55 111.96L54.28 112.73C54.65 112.9 54.89 113.28 54.88 113.71L54.68 122.86C54.68 123.14 54.56 123.41 54.36 123.6L53.35 124.57C52.96 124.95 52.35 124.93 51.99 124.52L50.9 123.32C50.75 123.15 50.65 122.93 50.63 122.69L49.85 113.51C49.81 113.04 50.07 112.6 50.49 112.44L51.84 111.92C52.07 111.83 52.33 111.84 52.55 111.94V111.96Z" fill="#6D6D6D"/>
<path d="M44.11 87.1198L52.04 119.89C52.33 121.08 51.37 122.2 50.15 122.1L22.36 119.79C21.59 119.73 20.94 119.17 20.76 118.42L12.92 85.6598C12.64 84.4698 13.6 83.3498 14.82 83.4498L42.53 85.7498C43.3 85.8098 43.95 86.3698 44.13 87.1198H44.11Z" fill="#B7B7B7"/>
<path d="M41.64 90.0798L52.25 122.08C52.64 123.24 51.77 124.44 50.54 124.44H22.65C21.87 124.44 21.19 123.94 20.94 123.2L10.42 91.1998C10.04 90.0398 10.9 88.8398 12.13 88.8398H39.93C40.7 88.8398 41.39 89.3398 41.64 90.0698V90.0798Z" fill="#E5E5E5"/>
<path d="M41.19 92.7198L46.71 122.71C46.91 123.8 45.99 124.77 44.89 124.61L19.9 121.14C19.2 121.04 18.65 120.51 18.52 119.82L13.07 89.8398C12.87 88.7498 13.8 87.7898 14.89 87.9398L39.8 91.3998C40.49 91.4998 41.05 92.0298 41.17 92.7198H41.19Z" fill="#F4F4F4"/>
<path d="M12.2699 96.9399C12.4599 96.9299 12.6499 96.9999 12.7799 97.1799L14.2399 99.1999L17.1899 98.7799C17.6599 98.7099 18.0199 99.2399 17.8099 99.6999L16.9399 101.71L19.6399 102.95C20.0899 103.16 20.1399 103.83 19.7199 104.1L17.5399 105.53L18.6199 107.65C18.8799 108.15 18.4599 108.73 17.9499 108.58L16.5599 108.17C16.5599 108.17 16.2399 108.3 15.6999 108.52C9.58995 104.16 12.2799 96.9199 12.2799 96.9199L12.2699 96.9399Z" fill="url(#paint6_linear_4788_13617)"/>
<path d="M21.49 88.15C21.88 88.11 22.18 87.86 22.23 87.57C22.41 86.5 23.56 85.59 25.04 85.42C26.52 85.25 27.84 85.88 28.26 86.88C28.37 87.15 28.73 87.32 29.11 87.27L30.4 87.12C30.85 87.07 31.25 87.3 31.29 87.63L31.54 89.8C31.58 90.13 31.24 90.45 30.79 90.5L20.58 91.67C20.13 91.72 19.73 91.49 19.69 91.16L19.44 88.99C19.4 88.66 19.74 88.34 20.19 88.29L21.48 88.14L21.49 88.15Z" fill="#9B9B9B"/>
<path d="M38.54 96.5298C38.79 96.5298 39.01 96.3398 39.04 96.0898C39.07 95.8198 38.88 95.5698 38.6 95.5398L16.85 92.9998C16.56 92.9698 16.33 93.1698 16.3 93.4398C16.27 93.7098 16.46 93.9598 16.74 93.9898L38.49 96.5298C38.49 96.5298 38.53 96.5298 38.55 96.5298H38.54Z" fill="#D3D3D3"/>
<path d="M39.05 99.0298C39.3 99.0298 39.52 98.8398 39.55 98.5898C39.58 98.3198 39.39 98.0698 39.11 98.0398L22.24 96.0698C21.95 96.0298 21.72 96.2398 21.69 96.5098C21.66 96.7798 21.85 97.0298 22.13 97.0598L39 99.0298C39 99.0298 39.04 99.0298 39.06 99.0298H39.05Z" fill="#D3D3D3"/>
<path d="M40.4 106.16C40.65 106.16 40.87 105.97 40.9 105.72C40.93 105.45 40.74 105.2 40.46 105.17L23.59 103.2C23.3 103.17 23.07 103.37 23.04 103.64C23.01 103.91 23.2 104.16 23.48 104.19L40.35 106.16C40.35 106.16 40.39 106.16 40.41 106.16H40.4Z" fill="#D3D3D3"/>
<path d="M45.19 73.3298C45.19 73.3298 45.38 78.0998 45.73 80.5298C45.85 81.3598 46.43 82.0498 47.24 82.3098C48.42 82.6898 50.31 83.1098 52.12 82.7098C52.64 82.5998 53.1 82.3098 53.43 81.8898C54.23 80.8698 55.62 78.4398 55.79 73.7798L45.19 73.3198V73.3298Z" fill="white"/>
<path d="M66.8399 78.0998C67.2499 78.0998 67.63 77.8498 67.78 77.4498C67.97 76.9298 67.71 76.3598 67.19 76.1698C66.52 75.9198 50.58 70.1298 37.66 74.6198C37.14 74.7998 36.86 75.3698 37.04 75.8898C37.22 76.4098 37.79 76.6898 38.31 76.5098C50.57 72.2598 66.34 77.9898 66.49 78.0498C66.6 78.0898 66.7199 78.1098 66.8399 78.1098V78.0998Z" fill="#2A170C"/>
</g>
<defs>
<linearGradient id="paint0_linear_4788_13617" x1="136.77" y1="71.8999" x2="86.37" y2="135.48" gradientUnits="userSpaceOnUse">
<stop stop-color="#E3F389"/>
<stop offset="1" stop-color="#9AB71A"/>
</linearGradient>
<radialGradient id="paint1_radial_4788_13617" cx="0" cy="0" r="1" gradientUnits="userSpaceOnUse" gradientTransform="translate(61.0584 118.115) rotate(90) scale(33.5 31.54)">
<stop stop-color="#E3F389"/>
<stop offset="1" stop-color="#9AB71A"/>
</radialGradient>
<linearGradient id="paint2_linear_4788_13617" x1="20.33" y1="99.5398" x2="45.53" y2="114.02" gradientUnits="userSpaceOnUse">
<stop stop-color="#E3F389"/>
<stop offset="1" stop-color="#9AB71A"/>
</linearGradient>
<linearGradient id="paint3_linear_4788_13617" x1="87.02" y1="124.48" x2="77.41" y2="100.09" gradientUnits="userSpaceOnUse">
<stop stop-color="#E3F389"/>
<stop offset="1" stop-color="#9AB71A"/>
</linearGradient>
<linearGradient id="paint4_linear_4788_13617" x1="60.17" y1="-0.0801105" x2="60.65" y2="81.2499" gradientUnits="userSpaceOnUse">
<stop stop-color="#E3FD73"/>
<stop offset="1" stop-color="#9AB71A"/>
</linearGradient>
<linearGradient id="paint5_linear_4788_13617" x1="57.4" y1="53.2199" x2="57.4" y2="124.44" gradientUnits="userSpaceOnUse">
<stop stop-color="#F4FFB7"/>
<stop offset="1" stop-color="#E5FF53"/>
</linearGradient>
<linearGradient id="paint6_linear_4788_13617" x1="17.937" y1="98.6495" x2="12.4501" y2="107.365" gradientUnits="userSpaceOnUse">
<stop stop-color="#E3F389"/>
<stop offset="1" stop-color="#9AB71A"/>
</linearGradient>
<clipPath id="clip0_4788_13617">
<rect width="148.8" height="151.52" fill="white"/>
</clipPath>
</defs>
</svg>
