<svg width="16" height="16" viewBox="0 0 16 16" fill="none" xmlns="http://www.w3.org/2000/svg">
<path d="M12.6663 2.66699C13.1765 2.66696 13.6674 2.86188 14.0385 3.21185C14.4097 3.56182 14.6331 4.0404 14.663 4.54966L14.6663 4.66699V5.87833C14.6648 6.05838 14.6163 6.23492 14.5256 6.39044C14.4348 6.54597 14.305 6.67508 14.149 6.76499L14.0777 6.80366C13.862 6.90953 13.6789 7.07171 13.5478 7.27306C13.4167 7.47441 13.3425 7.70744 13.3329 7.94752C13.3233 8.1876 13.3788 8.4258 13.4935 8.63694C13.6082 8.84808 13.7778 9.02431 13.9843 9.14699L14.0777 9.19699C14.3663 9.33966 14.6243 9.63433 14.6617 10.0237L14.6663 10.1223V11.3337C14.6664 11.8438 14.4715 12.3347 14.1215 12.7058C13.7715 13.077 13.2929 13.3004 12.7837 13.3303L12.6663 13.3337H3.33301C2.82287 13.3337 2.332 13.1388 1.96083 12.7888C1.58967 12.4388 1.36627 11.9603 1.33634 11.451L1.33301 11.3337V10.1223C1.33301 9.71833 1.56767 9.40366 1.85034 9.23566L1.92167 9.19699C2.13736 9.09113 2.32044 8.92894 2.45154 8.72759C2.58264 8.52624 2.6569 8.29321 2.66646 8.05313C2.67602 7.81305 2.62053 7.57485 2.50586 7.36371C2.39119 7.15257 2.22159 6.97635 2.01501 6.85366L1.92167 6.80366C1.63301 6.66099 1.37501 6.36633 1.33767 5.97699L1.33301 5.87899V4.66699C1.33298 4.15685 1.52789 3.66598 1.87786 3.29482C2.22784 2.92365 2.70641 2.70025 3.21567 2.67033L3.33301 2.66699H12.6663ZM6.66634 6.00033C6.48953 6.00033 6.31996 6.07056 6.19494 6.19559C6.06991 6.32061 5.99967 6.49018 5.99967 6.66699V9.33366C5.99967 9.51047 6.06991 9.68004 6.19494 9.80506C6.31996 9.93009 6.48953 10.0003 6.66634 10.0003C6.84315 10.0003 7.01272 9.93009 7.13775 9.80506C7.26277 9.68004 7.33301 9.51047 7.33301 9.33366V6.66699C7.33301 6.49018 7.26277 6.32061 7.13775 6.19559C7.01272 6.07056 6.84315 6.00033 6.66634 6.00033Z" fill="#6970F3"/>
</svg>
