<svg width="16" height="16" viewBox="0 0 16 16" fill="none" xmlns="http://www.w3.org/2000/svg">
<path d="M12.6665 2.6665C13.1766 2.66648 13.6675 2.86139 14.0387 3.21136C14.4098 3.56133 14.6332 4.03991 14.6632 4.54917L14.6665 4.6665V5.87784C14.665 6.05789 14.6165 6.23443 14.5257 6.38996C14.435 6.54548 14.3052 6.6746 14.1492 6.7645L14.0778 6.80317C13.8621 6.90904 13.6791 7.07122 13.548 7.27257C13.4169 7.47392 13.3426 7.70695 13.333 7.94703C13.3235 8.18711 13.379 8.42531 13.4936 8.63645C13.6083 8.84759 13.7779 9.02382 13.9845 9.1465L14.0778 9.1965C14.3665 9.33917 14.6245 9.63384 14.6618 10.0232L14.6665 10.1218V11.3332C14.6665 11.8433 14.4716 12.3342 14.1216 12.7053C13.7717 13.0765 13.2931 13.2999 12.7838 13.3298L12.6665 13.3332H3.33316C2.82302 13.3332 2.33215 13.1383 1.96099 12.7883C1.58982 12.4383 1.36642 11.9598 1.33649 11.4505L1.33316 11.3332V10.1218C1.33316 9.71784 1.56783 9.40317 1.85049 9.23517L1.92183 9.1965C2.13751 9.09064 2.32059 8.92845 2.45169 8.72711C2.58279 8.52576 2.65705 8.29272 2.66661 8.05264C2.67617 7.81256 2.62068 7.57436 2.50601 7.36322C2.39134 7.15209 2.22175 6.97586 2.01516 6.85317L1.92183 6.80317C1.63316 6.6605 1.37516 6.36584 1.33783 5.9765L1.33316 5.8785V4.6665C1.33313 4.15636 1.52804 3.66549 1.87802 3.29433C2.22799 2.92317 2.70657 2.69977 3.21583 2.66984L3.33316 2.6665H12.6665ZM6.66649 5.99984C6.48968 5.99984 6.32011 6.07008 6.19509 6.1951C6.07007 6.32012 5.99983 6.48969 5.99983 6.6665V9.33317C5.99983 9.50998 6.07007 9.67955 6.19509 9.80457C6.32011 9.9296 6.48968 9.99984 6.66649 9.99984C6.84331 9.99984 7.01287 9.9296 7.1379 9.80457C7.26292 9.67955 7.33316 9.50998 7.33316 9.33317V6.6665C7.33316 6.48969 7.26292 6.32012 7.1379 6.1951C7.01287 6.07008 6.84331 5.99984 6.66649 5.99984Z" fill="white"/>
</svg>
