<svg width="149" height="161" viewBox="0 0 149 161" fill="none" xmlns="http://www.w3.org/2000/svg">
<path d="M79.9258 149.403C79.9258 149.403 94.7959 156.883 108.606 144.166C108.606 144.166 119.216 133.095 120.956 123.555C120.956 123.555 131.196 127.443 139.306 119.858C139.306 119.858 152.246 107.906 147.926 91.5657C143.606 75.2258 125.496 66.0784 110.496 73.4515C109.306 74.0359 108.106 74.7158 106.866 75.502C106.866 75.502 84.5359 87.1567 81.1758 116.787L79.9459 149.393L79.9258 149.403Z" fill="url(#paint0_linear_3218_59885)"/>
<path d="M83.0459 147.64C83.0459 147.64 90.0059 146.981 97.7259 126.445C97.7259 126.445 125.586 62.4875 147.046 88.8459C147.046 88.8459 141.606 70.2431 117.416 69.8394C97.1859 70.9974 94.6059 88.0704 94.6059 88.0704C94.6059 88.0704 88.1359 124.214 84.5759 128.07L81.2259 147.619H83.0459V147.64Z" fill="#687E07"/>
<path d="M81.2659 140.788C84.8659 137.558 87.0259 132.054 87.0259 122.684C87.0259 110.158 75.3859 100.001 61.0459 100.001C46.7059 100.001 35.0659 110.158 35.0659 122.684C35.0659 130.418 36.5959 135.529 39.2259 138.896C39.2259 138.896 37.5459 147.204 37.0059 153.005L33.5859 154.408C32.7659 154.748 32.7759 155.991 33.6159 156.288C37.3359 157.659 44.8559 160.007 51.7359 159.518C52.3659 159.475 52.9159 159.05 53.1459 158.434L57.8759 145.335C58.9159 145.356 59.9859 145.367 61.0659 145.367H62.4459C63.1859 148.235 64.4659 152.931 65.7359 156.469L63.2459 159.327C62.6459 160.007 63.1859 161.111 64.0559 160.995C67.9459 160.485 75.6459 159.061 81.5959 155.438C82.1859 155.077 82.5259 154.397 82.4559 153.675L81.2859 140.777L81.2659 140.788Z" fill="url(#paint1_radial_3218_59885)"/>
<path d="M73.1358 136.984L74.1858 145.675C74.7658 150.466 79.0258 153.94 83.8158 153.526L91.4958 152.867C91.4958 152.867 104.526 152.283 98.5958 134.498C98.2058 133.34 97.2158 132.48 96.0058 132.278C92.5458 131.704 84.7658 130.939 75.5658 133.372C73.9758 133.797 72.9358 135.348 73.1358 136.984Z" fill="#6D6D6D"/>
<path d="M81.0659 143.731C81.2359 143.731 81.4059 143.731 81.5759 143.709L92.9959 142.742C95.0159 142.572 96.8159 141.425 97.9559 139.598L98.3959 138.886C98.5459 138.642 98.4859 138.312 98.2559 138.153C98.0259 137.993 97.7159 138.057 97.5659 138.302L97.1259 139.013C96.1659 140.565 94.6359 141.531 92.9259 141.68L81.5059 142.647C79.9459 142.785 78.3959 142.19 77.2559 141.021L75.6359 139.375C75.4359 139.173 75.1159 139.183 74.9259 139.396C74.7359 139.608 74.7459 139.948 74.9459 140.15L76.5659 141.797C77.7859 143.04 79.4059 143.731 81.0759 143.731H81.0659Z" fill="#EAEAEA"/>
<path d="M90.8459 131.799C90.8459 131.799 89.9859 126.402 84.8559 127.103C84.8559 127.103 81.7259 127.624 81.4659 132.118" stroke="#6D6D6D" stroke-miterlimit="10"/>
<path d="M43.056 126.477C43.056 126.477 27.126 120.835 19.996 113.483L21.676 102.307L44.856 111.741L43.046 126.477H43.056Z" fill="url(#paint2_linear_3218_59885)"/>
<path d="M46.1059 108.065C46.1059 108.065 36.5259 126.179 49.5159 136.049C49.5159 136.049 57.5959 142.657 66.9659 136.527C66.9659 136.527 78.8859 129.367 71.8159 109.574L46.1059 108.055V108.065Z" fill="#F4FFB7"/>
<path d="M81.1859 106.917L71.8959 111.22C76.0859 116.213 79.8959 128.304 79.8959 128.304L79.4159 129.759C79.2359 130.29 79.7959 130.768 80.3159 130.524L82.4859 129.494L83.8059 131.884C84.0559 132.341 84.7259 132.33 84.9559 131.863L86.3359 129.069L88.2959 130.11C88.7459 130.354 89.2959 130.003 89.2559 129.494L88.9959 126.338L91.0859 124.904C91.4759 124.638 91.4459 124.054 91.0259 123.82L88.4059 122.428C88.4059 122.428 84.9059 110.211 81.1959 106.896L81.1859 106.917Z" fill="url(#paint3_linear_3218_59885)"/>
<path d="M36.1159 23.5179C36.1159 23.5179 14.7259 27.7675 10.3059 57.7063C10.3059 57.7063 2.07594 62.0091 0.0459366 77.4991C-0.554062 88.3357 4.77594 97.3237 12.7959 103.188C20.7659 108.352 32.0059 114.492 54.7559 113.526C99.0959 111.645 120.506 94.1258 121.136 69.1166C121.766 44.1074 101.236 27.6506 101.236 27.6506C101.236 27.6506 106.956 20.8618 105.456 11.4807C104.886 7.94287 103.096 4.68127 100.236 2.77955C97.6859 1.07968 94.0059 0.197882 89.4659 3.43824C89.4659 3.43824 82.0959 8.25097 81.3359 19.1513C81.3359 19.1513 68.6159 15.1354 54.0659 18.142C54.0659 18.142 56.7159 12.7025 55.3059 6.32801C54.7559 3.86321 53.1859 1.73838 50.9859 0.750337C48.3359 -0.45019 44.2659 -0.758291 39.5159 4.09694C31.0759 12.7237 36.1159 23.486 36.1159 23.486V23.5179Z" fill="url(#paint4_linear_3218_59885)"/>
<path d="M16.0059 56.6339C11.9259 56.209 8.94593 57.9301 6.33593 61.2873C3.35593 65.1226 -0.0540619 71.4015 0.0459366 79.9858C0.305939 89.6325 5.07593 97.1438 12.5559 103.21C18.9659 107.417 28.7659 112.846 44.0559 113.494C77.4359 114.929 99.9659 105.388 109.326 95.8264C111.976 93.1172 113.426 89.9831 114.146 86.8915C116.786 75.5555 110.576 63.784 100.246 60.3843C94.9659 58.6525 87.7659 58.3338 78.1359 61.5104C56.8359 68.533 45.4159 66.8331 41.4759 65.7707C40.6359 65.5476 39.8259 65.197 39.0559 64.7826C36.0659 63.1572 25.3459 57.622 16.0059 56.6446V56.6339Z" fill="url(#paint5_linear_3218_59885)"/>
<path d="M49.5659 51.5127C50.5359 44.6176 46.7759 38.3175 41.1859 37.4357C35.5859 36.5539 30.2659 41.4198 29.2959 48.3042C28.3259 55.1993 32.0859 61.4994 37.6859 62.3812C43.2859 63.263 48.6059 58.3971 49.5759 51.5127H49.5659Z" fill="white"/>
<path d="M77.8259 52.7984C78.7959 45.9033 75.0359 39.6032 69.4459 38.7214C63.8459 37.8396 58.5259 42.7054 57.5559 49.5899C56.5859 56.4849 60.3459 62.785 65.9359 63.6668C71.5359 64.5486 76.8559 59.6828 77.8259 52.7984Z" fill="white"/>
<path d="M56.516 17.2179C56.516 17.2179 50.806 31.4861 53.496 36.66C56.186 41.834 59.966 35.9482 59.966 35.9482C59.966 35.9482 71.166 17.6428 74.356 17.6428C74.356 17.6428 66.116 15.9642 56.526 17.2179H56.516Z" fill="#687E07"/>
<path d="M62.4259 40.4747C62.4259 40.4747 62.5259 40.4747 62.5759 40.4747L76.7859 39.2316C77.5159 39.1679 78.0459 38.6367 77.9659 38.063C77.8859 37.4786 77.2159 37.0643 76.4859 37.1281L62.2759 38.3711C61.5459 38.4348 61.0159 38.966 61.0959 39.5397C61.1759 40.0816 61.7459 40.4853 62.4259 40.4853V40.4747Z" fill="#2E1A10"/>
<path d="M65.9259 60.5647C68.2859 60.5647 70.1959 58.5355 70.1959 56.0282C70.1959 53.5209 68.2859 51.4917 65.9259 51.4917C63.5659 51.4917 61.6559 53.5209 61.6559 56.0282C61.6559 58.5355 63.5659 60.5647 65.9259 60.5647Z" fill="#2E1A10"/>
<path d="M64.6359 58.1951C65.3459 58.1951 65.9259 57.5789 65.9259 56.8246C65.9259 56.0703 65.3459 55.4541 64.6359 55.4541C63.9259 55.4541 63.3459 56.0703 63.3459 56.8246C63.3459 57.5789 63.9259 58.1951 64.6359 58.1951Z" fill="white"/>
<path d="M45.2159 39.9112C45.8659 39.9112 46.4159 39.5075 46.4859 38.9657C46.5659 38.3814 46.0559 37.8608 45.3459 37.797L31.7059 36.554C31.0059 36.5009 30.3659 36.9046 30.2859 37.4889C30.2059 38.0733 30.7159 38.5938 31.4259 38.6576L45.0659 39.9006C45.0659 39.9006 45.1659 39.9006 45.2059 39.9006L45.2159 39.9112Z" fill="#2E1A10"/>
<path d="M43.7559 55.3588C43.7559 57.8661 41.8459 59.8953 39.4859 59.8953C37.1259 59.8953 35.2159 57.8661 35.2159 55.3588C35.2159 52.8515 37.1259 50.8223 39.4859 50.8223C41.8459 50.8223 43.7559 52.8515 43.7559 55.3588Z" fill="#2E1A10"/>
<path d="M38.5459 57.5262C39.2559 57.5262 39.8359 56.91 39.8359 56.1557C39.8359 55.4014 39.2559 54.7852 38.5459 54.7852C37.8359 54.7852 37.2559 55.4014 37.2559 56.1557C37.2559 56.91 37.8359 57.5262 38.5459 57.5262Z" fill="white"/>
<path d="M91.446 22.2329C91.546 22.2329 91.6559 22.2117 91.7559 22.1798C92.2759 21.9992 92.5659 21.4042 92.3959 20.8411C92.2959 20.5224 90.216 13.3086 96.606 10.5889C97.116 10.3657 97.3659 9.74955 97.1659 9.20772C96.9559 8.66589 96.3759 8.40028 95.8659 8.61277C89.3559 11.3963 89.5059 18.2595 90.5059 21.4998C90.6459 21.9461 91.0359 22.2329 91.4559 22.2329H91.446Z" fill="#687E07"/>
<path d="M45.0659 19.938C45.2259 19.938 45.3859 19.8955 45.5359 19.8105C46.0259 19.5342 46.2059 18.8862 45.9459 18.3762C44.4059 15.3377 45.5059 11.3855 45.5159 11.343C45.6759 10.78 45.3759 10.185 44.8459 10.015C44.3159 9.84504 43.7559 10.1638 43.5959 10.7162C43.5359 10.9075 42.2359 15.5502 44.1759 19.3749C44.3559 19.7361 44.7059 19.938 45.0559 19.938H45.0659Z" fill="#687E07"/>
<path d="M34.5959 62.679H40.0259C43.9659 62.679 47.1759 59.2686 47.1759 55.0827V49.7813C47.1759 47.8158 45.6759 46.2222 43.8259 46.2222H30.7959C28.9459 46.2222 27.4459 47.8158 27.4459 49.7813V55.0827C27.4459 59.2686 30.6559 62.679 34.5959 62.679ZM43.8259 48.347C44.5759 48.347 45.1759 48.9951 45.1759 49.7813V55.0827C45.1759 58.0999 42.8659 60.5541 40.0259 60.5541H34.5959C31.7559 60.5541 29.4459 58.0999 29.4459 55.0827V49.7813C29.4459 48.9844 30.0559 48.347 30.7959 48.347H43.8259Z" fill="#903912"/>
<path d="M63.6159 63.2952H70.7659C74.7059 63.2952 77.9159 59.8848 77.9159 55.6989V50.3975C77.9159 48.432 76.4159 46.8384 74.5659 46.8384H59.8159C57.9659 46.8384 56.4659 48.432 56.4659 50.3975V55.6989C56.4659 59.8848 59.6759 63.2952 63.6159 63.2952ZM74.5659 48.9632C75.3159 48.9632 75.9159 49.6113 75.9159 50.3975V55.6989C75.9159 58.7162 73.6059 61.1703 70.7659 61.1703H63.6159C60.7759 61.1703 58.4659 58.7162 58.4659 55.6989V50.3975C58.4659 49.6007 59.0759 48.9632 59.8159 48.9632H74.5659Z" fill="#903912"/>
<path d="M56.9259 55.2523L57.4059 54.3173C57.0959 54.1367 49.8159 49.9402 46.1059 54.0836L46.8259 54.8167C50.0059 51.2576 56.8459 55.2098 56.9159 55.2416L56.9259 55.2523Z" fill="#903912"/>
<path d="M49.8659 69.3188C53.9259 69.3188 57.2159 66.5778 57.2159 63.1887C57.2159 59.7996 53.9259 57.0586 49.8659 57.0586C45.8059 57.0586 42.5159 59.7996 42.5159 63.1887C42.5159 66.5778 45.8059 69.3188 49.8659 69.3188Z" fill="#2A170C"/>
<path d="M52.7959 113.919L54.6459 115.438C55.1959 115.895 55.2359 116.703 54.7359 117.213L52.7959 119.157C52.2959 119.656 51.4759 119.646 50.9959 119.136L49.3959 117.446C48.9559 116.979 48.9559 116.267 49.3959 115.81L51.0759 114.036C51.5259 113.558 52.2759 113.516 52.7859 113.93L52.7959 113.919Z" fill="#6D6D6D"/>
<path d="M52.5459 118.976L54.2759 119.794C54.6459 119.975 54.8859 120.379 54.8759 120.835L54.6759 130.557C54.6759 130.854 54.5559 131.141 54.3559 131.343L53.3459 132.373C52.9559 132.777 52.3459 132.756 51.9859 132.32L50.8959 131.045C50.7459 130.865 50.6459 130.631 50.6259 130.376L49.8459 120.623C49.8059 120.124 50.0659 119.656 50.4859 119.486L51.8359 118.934C52.0659 118.838 52.3259 118.849 52.5459 118.955V118.976Z" fill="#6D6D6D"/>
<path d="M44.1059 92.5859L52.0359 127.401C52.3259 128.665 51.3659 129.855 50.1459 129.749L22.3559 127.295C21.5859 127.231 20.9359 126.636 20.7559 125.839L12.9159 91.0347C12.6359 89.7705 13.5959 88.5806 14.8159 88.6868L42.5259 91.1303C43.2959 91.1941 43.9459 91.789 44.1259 92.5859H44.1059Z" fill="#B7B7B7"/>
<path d="M41.6359 95.7305L52.2459 129.728C52.6359 130.96 51.7659 132.235 50.5359 132.235H22.6459C21.8659 132.235 21.1859 131.704 20.9359 130.918L10.4159 96.9204C10.0359 95.688 10.8959 94.4131 12.1259 94.4131H39.9259C40.6959 94.4131 41.3859 94.9443 41.6359 95.7199V95.7305Z" fill="#E5E5E5"/>
<path d="M41.1859 98.5353L46.7059 130.397C46.9059 131.555 45.9859 132.586 44.8859 132.416L19.8959 128.729C19.1959 128.623 18.6459 128.06 18.5159 127.327L13.0659 95.4755C12.8659 94.3175 13.7959 93.2976 14.8859 93.4569L39.7959 97.1329C40.4859 97.2391 41.0459 97.8022 41.1659 98.5353H41.1859Z" fill="#F4F4F4"/>
<path d="M12.2658 103.018C12.4558 103.008 12.6458 103.082 12.7758 103.273L14.2358 105.419L17.1858 104.973C17.6558 104.899 18.0158 105.462 17.8058 105.951L16.9358 108.086L19.6358 109.403C20.0858 109.627 20.1358 110.338 19.7158 110.625L17.5358 112.144L18.6158 114.397C18.8758 114.928 18.4558 115.544 17.9458 115.385L16.5558 114.949C16.5558 114.949 16.2358 115.087 15.6958 115.321C9.58583 110.689 12.2758 102.997 12.2758 102.997L12.2658 103.018Z" fill="url(#paint6_linear_3218_59885)"/>
<path d="M21.4959 93.6802C21.8859 93.6377 22.1859 93.3721 22.2359 93.064C22.4159 91.9273 23.5659 90.9605 25.0459 90.7798C26.5259 90.5992 27.8459 91.2686 28.2659 92.331C28.3759 92.6178 28.7359 92.7984 29.1159 92.7453L30.4059 92.586C30.8559 92.5328 31.2559 92.7772 31.2959 93.1278L31.5459 95.4332C31.5859 95.7838 31.2459 96.1238 30.7959 96.1769L20.5859 97.4199C20.1359 97.473 19.7359 97.2287 19.6959 96.8781L19.4459 94.5727C19.4059 94.2221 19.7459 93.8821 20.1959 93.829L21.4859 93.6696L21.4959 93.6802Z" fill="#9B9B9B"/>
<path d="M38.546 102.583C38.796 102.583 39.016 102.381 39.046 102.116C39.076 101.829 38.886 101.563 38.606 101.531L16.856 98.8328C16.566 98.8009 16.336 99.0134 16.306 99.3002C16.276 99.5871 16.466 99.8527 16.746 99.8845L38.496 102.583C38.496 102.583 38.536 102.583 38.556 102.583H38.546Z" fill="#D3D3D3"/>
<path d="M39.046 105.239C39.296 105.239 39.516 105.037 39.546 104.771C39.576 104.485 39.386 104.219 39.106 104.187L22.236 102.094C21.946 102.052 21.716 102.275 21.686 102.562C21.656 102.848 21.846 103.114 22.126 103.146L38.996 105.239C38.996 105.239 39.036 105.239 39.056 105.239H39.046Z" fill="#D3D3D3"/>
<path d="M40.3959 112.814C40.6459 112.814 40.8659 112.613 40.8959 112.347C40.9259 112.06 40.7359 111.794 40.4559 111.763L23.5859 109.67C23.2959 109.638 23.0659 109.85 23.0359 110.137C23.0059 110.424 23.1959 110.69 23.4759 110.721L40.3459 112.814C40.3459 112.814 40.3859 112.814 40.4059 112.814H40.3959Z" fill="#D3D3D3"/>
<path d="M45.1859 77.9349C45.1859 77.9349 45.3759 83.0027 45.7259 85.5843C45.8459 86.4661 46.4259 87.1992 47.2359 87.4754C48.4159 87.8791 50.3059 88.3253 52.1159 87.9004C52.6359 87.7835 53.0959 87.4754 53.4259 87.0292C54.2259 85.9455 55.6159 83.3639 55.7859 78.413L45.1859 77.9243V77.9349Z" fill="white"/>
<path d="M66.8359 83.003C67.2459 83.003 67.6259 82.7374 67.7759 82.3124C67.9659 81.76 67.7059 81.1544 67.1859 80.9526C66.5159 80.687 50.5759 74.5356 37.6559 79.3058C37.1359 79.4971 36.8559 80.1026 37.0359 80.6551C37.2159 81.2075 37.7859 81.505 38.3059 81.3138C50.5659 76.7985 66.3359 82.8862 66.4859 82.9499C66.5959 82.9924 66.7159 83.0136 66.8359 83.0136V83.003Z" fill="#2A170C"/>
<defs>
<linearGradient id="paint0_linear_3218_59885" x1="136.766" y1="76.4157" x2="82.5703" y2="140.767" gradientUnits="userSpaceOnUse">
<stop stop-color="#E3F389"/>
<stop offset="1" stop-color="#9AB71A"/>
</linearGradient>
<radialGradient id="paint1_radial_3218_59885" cx="0" cy="0" r="1" gradientUnits="userSpaceOnUse" gradientTransform="translate(61.0543 125.515) rotate(90) scale(35.5908 31.54)">
<stop stop-color="#E3F389"/>
<stop offset="1" stop-color="#9AB71A"/>
</radialGradient>
<linearGradient id="paint2_linear_3218_59885" x1="20.326" y1="105.781" x2="46.2601" y2="119.807" gradientUnits="userSpaceOnUse">
<stop stop-color="#E3F389"/>
<stop offset="1" stop-color="#9AB71A"/>
</linearGradient>
<linearGradient id="paint3_linear_3218_59885" x1="87.0159" y1="132.277" x2="76.3533" y2="106.805" gradientUnits="userSpaceOnUse">
<stop stop-color="#E3F389"/>
<stop offset="1" stop-color="#9AB71A"/>
</linearGradient>
<linearGradient id="paint4_linear_3218_59885" x1="60.1659" y1="-0.0570976" x2="60.7077" y2="86.3486" gradientUnits="userSpaceOnUse">
<stop stop-color="#E3FD73"/>
<stop offset="1" stop-color="#9AB71A"/>
</linearGradient>
<linearGradient id="paint5_linear_3218_59885" x1="57.3959" y1="56.5702" x2="57.3959" y2="132.235" gradientUnits="userSpaceOnUse">
<stop stop-color="#F4FFB7"/>
<stop offset="1" stop-color="#E5FF53"/>
</linearGradient>
<linearGradient id="paint6_linear_3218_59885" x1="17.9329" y1="104.835" x2="11.958" y2="113.768" gradientUnits="userSpaceOnUse">
<stop stop-color="#E3F389"/>
<stop offset="1" stop-color="#9AB71A"/>
</linearGradient>
</defs>
</svg>
