<svg width="16" height="16" viewBox="0 0 16 16" fill="none" xmlns="http://www.w3.org/2000/svg">
<g clip-path="url(#clip0_2799_2261)">
<path fill-rule="evenodd" clip-rule="evenodd" d="M7.78667 0.352475C7.21221 0.352475 6.66128 0.580677 6.25507 0.986881C5.84887 1.39309 5.62067 1.94402 5.62067 2.51847C5.62067 3.09293 5.84887 3.64386 6.25507 4.05007C6.66128 4.45627 7.21221 4.68447 7.78667 4.68447C8.36113 4.68447 8.91206 4.45627 9.31826 4.05007C9.72446 3.64386 9.95267 3.09293 9.95267 2.51847C9.95267 1.94402 9.72446 1.39309 9.31826 0.986881C8.91206 0.580677 8.36113 0.352475 7.78667 0.352475ZM11.1387 6.51914L10.5867 6.79581L12.4487 10.7258C12.5173 10.8638 12.7247 11.0018 12.862 10.9325L14.7287 10.4498C15.28 10.3118 15.832 10.6565 15.9693 11.2085C16.1073 11.7598 15.7627 12.3118 15.2113 12.4498L13.3447 12.9325C13.138 13.0011 12.9313 13.0011 12.7247 13.0011C11.69 13.0011 10.794 12.3811 10.4493 11.4151L10.3113 11.0018L8.656 12.1051C8.6203 12.1074 8.58664 12.1225 8.56135 12.1478C8.53605 12.1731 8.52087 12.2068 8.51867 12.2425L7.55333 15.0265C7.34667 15.4398 7.00133 15.6471 6.588 15.6471C6.45 15.6471 6.312 15.6471 6.17467 15.5785C5.62267 15.3025 5.41533 14.7511 5.62267 14.1991L6.588 11.4151C6.79467 11.0018 7.07067 10.6571 7.484 10.3811L9.484 9.07114L8.72533 7.69181L7.76 8.17447C6.86333 8.58781 5.76 8.45047 5.002 7.69181L3.73067 6.40781C3.31733 5.99448 3.31733 5.37314 3.73067 4.95981C4.144 4.54647 4.76467 4.54647 5.17867 4.95981L6.45 6.24381C6.588 6.38181 6.72533 6.38181 6.86333 6.31314L8.72533 5.34781L10.242 4.58914C10.8627 4.31314 11.4833 4.24447 12.104 4.45114C12.724 4.65781 13.2073 5.14047 13.4827 5.69247L14.448 7.52381C14.6547 8.00647 14.448 8.62714 13.9653 8.90314C13.45 9.16047 12.89 8.99514 12.5867 8.48914L11.6213 6.65781C11.4833 6.51981 11.2767 6.45048 11.1387 6.51914ZM5.236 12.1051L5.536 11.9051L5.80067 11.1431C5.81222 11.1094 5.82622 11.076 5.84267 11.0431C6.104 10.5198 6.47 10.0565 7.022 9.68847L7.02733 9.68447L8.178 8.93114L8.16467 8.90448L8.13267 8.92048L8.11933 8.92714L8.10933 8.93181C7.43386 9.24387 6.67301 9.31948 5.94933 9.14647L4.064 10.3818C3.65 10.6578 3.374 11.0018 3.16733 11.4158L2.202 14.1998C1.99533 14.7518 2.202 15.3031 2.75333 15.5791C2.89133 15.6478 3.02933 15.6478 3.16733 15.6478C3.58067 15.6478 3.926 15.4411 4.13267 15.0278L5.098 12.2431C5.098 12.1745 5.16667 12.1051 5.236 12.1051ZM1.758 4.95981L2.59133 5.80114C2.61867 6.23247 2.802 6.65648 3.14 6.99514L4.31733 8.18447C3.42467 8.58581 2.33333 8.44448 1.58133 7.69181L0.31 6.40781C-0.103333 5.99448 -0.103333 5.37314 0.31 4.95981C0.724 4.54647 1.34467 4.54647 1.758 4.95981ZM5.44733 0.641141C5.0192 1.17307 4.78626 1.83565 4.78733 2.51847C4.78733 3.03914 4.92 3.52914 5.154 3.95647C4.49933 3.68314 3.734 3.80847 3.18067 4.33181C2.70351 4.02552 2.36548 3.54435 2.23916 2.9916C2.11283 2.43886 2.20828 1.85862 2.50502 1.37547C2.80175 0.892315 3.2761 0.54478 3.82623 0.407484C4.37635 0.270188 4.95837 0.354078 5.44733 0.641141Z" fill="white"/>
</g>
<defs>
<clipPath id="clip0_2799_2261">
<rect width="16" height="16" fill="white"/>
</clipPath>
</defs>
</svg>
