<svg width="48" height="64" viewBox="0 0 48 64" fill="none" xmlns="http://www.w3.org/2000/svg">
<path d="M21.9612 64C33.7849 64 43.37 60.5903 43.37 56.3843C43.37 52.1782 33.7849 48.7686 21.9612 48.7686C10.1375 48.7686 0.55249 52.1782 0.55249 56.3843C0.55249 60.5903 10.1375 64 21.9612 64Z" fill="#7F7F7F"/>
<path d="M45.1261 41.6116L24.4675 45.2165L9.01541 31.0352C9.01541 31.0352 6.89307 31.2867 4.24124 40.1776C4.07357 40.7467 4.07799 41.3556 4.27654 41.9116C5.07959 44.1619 8.40651 49.7568 22.001 53.6308C35.5336 57.699 41.3535 54.7824 43.2464 53.3219C43.7141 52.9601 44.0495 52.4483 44.2127 51.8791C46.7763 42.9617 45.1261 41.6072 45.1261 41.6072V41.6116Z" fill="url(#paint0_linear_3614_29954)"/>
<path d="M45.4662 44.0182C46.5605 40.281 38.9331 34.7583 28.4301 31.6831C17.9271 28.6078 8.52559 29.1444 7.43134 32.8816C6.33708 36.6188 13.9644 42.1414 24.4675 45.2167C34.9705 48.292 44.372 47.7554 45.4662 44.0182Z" fill="url(#paint1_linear_3614_29954)"/>
<path d="M46.6263 9.51178C46.6263 9.51178 46.2998 5.99073 42.1963 2.91532C39.3768 0.810625 35.869 -0.217453 32.3567 0.0384633C27.2428 0.413513 25.0675 3.20212 25.0675 3.20212C18.7711 9.10143 21.648 17.5599 21.648 17.5599C24.7896 24.8491 19.7992 31.9354 18.727 33.3297C18.5461 33.5679 18.4314 33.8547 18.4137 34.1504C18.2505 37.3581 26.078 39.6967 26.078 39.6967C26.078 39.6967 33.932 41.9514 35.5248 39.1628C35.6748 38.9025 35.7322 38.598 35.7057 38.3024C35.5557 36.5463 35.1762 27.8892 41.7551 23.446C41.7551 23.446 48.7442 17.8776 46.6219 9.51178H46.6263Z" fill="url(#paint2_linear_3614_29954)"/>
<path d="M35.7082 34.6934C34.7199 35.5626 31.4239 35.4743 27.7528 34.3977C23.5787 33.1755 20.5033 31.1458 20.8783 29.8662C20.8916 29.8221 20.918 29.778 20.9401 29.7383H20.9225C20.0665 31.5209 19.1355 32.8093 18.7383 33.3255C18.5574 33.5638 18.4427 33.8506 18.4251 34.1462C18.2618 37.354 26.0893 39.6925 26.0893 39.6925C26.0893 39.6925 33.9433 41.9473 35.5362 39.1587C35.6862 38.8983 35.7435 38.5939 35.7171 38.2982C35.6685 37.7202 35.5935 36.3921 35.7524 34.7066L35.7038 34.6889L35.7082 34.6934Z" fill="url(#paint3_linear_3614_29954)"/>
<defs>
<linearGradient id="paint0_linear_3614_29954" x1="17.6171" y1="31.0352" x2="32.1529" y2="55.706" gradientUnits="userSpaceOnUse">
<stop stop-color="#6970F3"/>
<stop offset="1" stop-color="#4C51B0"/>
</linearGradient>
<linearGradient id="paint1_linear_3614_29954" x1="7.78076" y1="31.6882" x2="17.7058" y2="56.2761" gradientUnits="userSpaceOnUse">
<stop stop-color="white"/>
<stop offset="1" stop-color="#6970F3"/>
</linearGradient>
<linearGradient id="paint2_linear_3614_29954" x1="18.4112" y1="5.03048" x2="47.0231" y2="35.527" gradientUnits="userSpaceOnUse">
<stop stop-color="#DEE0FF"/>
<stop offset="0.570771" stop-color="#6970F3"/>
<stop offset="1" stop-color="#4C51B0"/>
</linearGradient>
<linearGradient id="paint3_linear_3614_29954" x1="18.9599" y1="29.7383" x2="53.2801" y2="51.403" gradientUnits="userSpaceOnUse">
<stop stop-color="#E3F389"/>
<stop offset="1" stop-color="#848D4F"/>
</linearGradient>
</defs>
</svg>
