<svg width="16" height="16" viewBox="0 0 16 16" fill="none" xmlns="http://www.w3.org/2000/svg">
<path d="M2.66666 14.6668C2.66666 14.49 2.7369 14.3205 2.86192 14.1954C2.98695 14.0704 3.15652 14.0002 3.33333 14.0002H12.6667C12.8435 14.0002 13.013 14.0704 13.1381 14.1954C13.2631 14.3205 13.3333 14.49 13.3333 14.6668C13.3333 14.8437 13.2631 15.0132 13.1381 15.1383C13.013 15.2633 12.8435 15.3335 12.6667 15.3335H3.33333C3.15652 15.3335 2.98695 15.2633 2.86192 15.1383C2.7369 15.0132 2.66666 14.8437 2.66666 14.6668ZM4.99999 3.66684C5.00006 3.17831 5.11943 2.69718 5.34774 2.26526C5.57604 1.83335 5.90637 1.46374 6.31002 1.18853C6.71367 0.913324 7.17842 0.74086 7.66388 0.686125C8.14935 0.63139 8.64083 0.696042 9.09562 0.874461C9.55042 1.05288 9.95475 1.33967 10.2735 1.7099C10.5922 2.08013 10.8158 2.5226 10.9246 2.99886C11.0334 3.47512 11.0243 3.97076 10.898 4.44269C10.7718 4.91463 10.5321 5.34858 10.2 5.70684C10.0827 6.13884 10 6.58951 10 7.00018C10 7.56951 10.0533 8.16018 10.116 8.66684H11.6667C12.4623 8.66684 13.2254 8.98292 13.788 9.54552C14.3506 10.1081 14.6667 10.8712 14.6667 11.6668C14.6667 11.9321 14.5613 12.1864 14.3738 12.374C14.1862 12.5615 13.9319 12.6668 13.6667 12.6668H2.33333C2.06811 12.6668 1.81376 12.5615 1.62622 12.374C1.43869 12.1864 1.33333 11.9321 1.33333 11.6668C1.33333 10.8712 1.6494 10.1081 2.21201 9.54552C2.77462 8.98292 3.53768 8.66684 4.33333 8.66684H5.884C5.94666 8.16018 6 7.56951 6 7.00018C6 6.58951 5.91733 6.13884 5.79999 5.70684C5.2845 5.15276 4.99857 4.42364 4.99999 3.66684Z" fill="white"/>
</svg>
