<svg width="16" height="16" viewBox="0 0 16 16" fill="none" xmlns="http://www.w3.org/2000/svg">
<g clip-path="url(#clip0_2387_13319)">
<path d="M8 0.666992C8.35362 0.666992 8.69233 0.807569 8.94238 1.05762C9.19243 1.30767 9.33301 1.64638 9.33301 2V2.05957C9.33386 2.27409 9.39815 2.48423 9.5166 2.66309C9.63502 2.84179 9.80296 2.98193 10 3.06641C10.2011 3.15515 10.4244 3.18179 10.6406 3.14258C10.8567 3.10335 11.0559 3.00019 11.2129 2.84668L11.2529 2.80664C11.3768 2.68267 11.5247 2.58468 11.6865 2.51758C11.8482 2.4506 12.0213 2.41607 12.1963 2.41602C12.3715 2.41602 12.5452 2.4505 12.707 2.51758C12.8688 2.58464 13.0159 2.68276 13.1396 2.80664C13.2636 2.93046 13.3626 3.07741 13.4297 3.23926C13.4968 3.40112 13.5312 3.57478 13.5312 3.75C13.5312 3.92522 13.4968 4.09888 13.4297 4.26074C13.3626 4.42259 13.2636 4.56954 13.1396 4.69336L13.0996 4.7334C12.946 4.89048 12.8429 5.09048 12.8037 5.30664C12.7646 5.52265 12.7913 5.74543 12.8799 5.94629V6C12.9643 6.19699 13.1046 6.36497 13.2832 6.4834C13.4621 6.60185 13.6722 6.66614 13.8867 6.66699H14C14.3536 6.66699 14.6923 6.80757 14.9424 7.05762C15.1924 7.30767 15.333 7.64638 15.333 8C15.333 8.35362 15.1924 8.69233 14.9424 8.94238C14.6923 9.19243 14.3536 9.33301 14 9.33301H13.9404C13.7259 9.33386 13.5158 9.39815 13.3369 9.5166C13.1582 9.63502 13.0181 9.80296 12.9336 10C12.8449 10.2011 12.8182 10.4244 12.8574 10.6406C12.8966 10.8567 12.9998 11.0559 13.1533 11.2129L13.1934 11.2529C13.3173 11.3768 13.4153 11.5247 13.4824 11.6865C13.5494 11.8482 13.5839 12.0213 13.584 12.1963C13.584 12.3715 13.5495 12.5452 13.4824 12.707C13.4154 12.8688 13.3172 13.0159 13.1934 13.1396C13.0695 13.2636 12.9226 13.3626 12.7607 13.4297C12.5989 13.4968 12.4252 13.5312 12.25 13.5312C12.0748 13.5312 11.9011 13.4968 11.7393 13.4297C11.5774 13.3626 11.4305 13.2636 11.3066 13.1396L11.2666 13.0996C11.1095 12.946 10.9095 12.8429 10.6934 12.8037C10.4774 12.7646 10.2546 12.7913 10.0537 12.8799C9.85662 12.9644 9.68778 13.1045 9.56934 13.2832C9.45089 13.4621 9.38757 13.6722 9.38672 13.8867V14C9.38672 14.3535 9.24602 14.6924 8.99609 14.9424C8.74613 15.1923 8.4072 15.3329 8.05371 15.333C7.70009 15.333 7.3604 15.1924 7.11035 14.9424C6.86049 14.6924 6.71973 14.3535 6.71973 14V13.9404C6.71457 13.7198 6.64302 13.5057 6.51465 13.3262C6.38626 13.1467 6.20712 13.0098 6 12.9336C5.79892 12.8449 5.57564 12.8182 5.35938 12.8574C5.14331 12.8966 4.94413 12.9998 4.78711 13.1533L4.74707 13.1934C4.62324 13.3173 4.47534 13.4153 4.31348 13.4824C4.1518 13.5494 3.97871 13.5839 3.80371 13.584C3.62852 13.584 3.45481 13.5495 3.29297 13.4824C3.13119 13.4154 2.98414 13.3172 2.86035 13.1934C2.73639 13.0695 2.63741 12.9226 2.57031 12.7607C2.50321 12.5989 2.46875 12.4252 2.46875 12.25C2.46875 12.0748 2.50321 11.9011 2.57031 11.7393C2.63741 11.5774 2.73639 11.4305 2.86035 11.3066L2.90039 11.2666C3.05396 11.1095 3.1571 10.9095 3.19629 10.6934C3.23537 10.4774 3.20868 10.2546 3.12012 10.0537C3.03565 9.85662 2.89554 9.68778 2.7168 9.56934C2.53794 9.45089 2.32781 9.38757 2.11328 9.38672H2C1.64647 9.38672 1.30765 9.24602 1.05762 8.99609C0.807658 8.74613 0.667092 8.4072 0.666992 8.05371C0.666992 7.70009 0.807569 7.3604 1.05762 7.11035C1.30764 6.86049 1.64652 6.71973 2 6.71973H2.05957C2.2802 6.71457 2.49431 6.64302 2.67383 6.51465C2.85333 6.38626 2.99021 6.20712 3.06641 6C3.15515 5.79892 3.18179 5.57564 3.14258 5.35938C3.10335 5.14331 3.00019 4.94413 2.84668 4.78711L2.80664 4.74707C2.68267 4.62324 2.58468 4.47534 2.51758 4.31348C2.4506 4.1518 2.41607 3.97871 2.41602 3.80371C2.41602 3.62852 2.4505 3.45481 2.51758 3.29297C2.58464 3.13119 2.68276 2.98414 2.80664 2.86035C2.93046 2.73639 3.07741 2.63741 3.23926 2.57031C3.40112 2.50321 3.57478 2.46875 3.75 2.46875C3.92522 2.46875 4.09888 2.50321 4.26074 2.57031C4.42259 2.63741 4.56954 2.73639 4.69336 2.86035L4.7334 2.90039C4.89048 3.05396 5.09048 3.1571 5.30664 3.19629C5.52265 3.23537 5.74543 3.20868 5.94629 3.12012H6C6.19699 3.03569 6.36497 2.89541 6.4834 2.7168C6.60185 2.53794 6.66614 2.32781 6.66699 2.11328V2C6.66699 1.64638 6.80757 1.30767 7.05762 1.05762C7.30767 0.807569 7.64638 0.666992 8 0.666992ZM8 5.7998C6.78497 5.7998 5.7998 6.78497 5.7998 8C5.7998 9.21503 6.78497 10.2002 8 10.2002C9.21503 10.2002 10.2002 9.21503 10.2002 8C10.2002 6.78497 9.21503 5.7998 8 5.7998Z" fill="white"/>
</g>
<defs>
<clipPath id="clip0_2387_13319">
<rect width="16" height="16" fill="white"/>
</clipPath>
</defs>
</svg>
