<svg width="60" height="64" viewBox="0 0 60 64" fill="none" xmlns="http://www.w3.org/2000/svg">
<path d="M6.10532 15.6644C6.10532 15.6644 0.970338 14.064 0.0774445 17.1908C0.0774445 17.1908 -0.704258 20.1289 2.71906 20.9106L6.10532 21.2812V15.6644Z" fill="url(#paint0_linear_4783_13706)"/>
<path d="M8.98975 16.5945L32.0769 29.506C32.0769 29.506 34.5332 29.8767 33.8627 25.7491C33.8627 25.7491 32.6733 19.199 32.7474 16.0014C32.7474 16.0014 30.6651 7.36902 36.5043 8.00247C36.5043 8.00247 37.3972 7.70596 38.1048 11.4629C38.1048 11.4629 41.3057 24.115 43.5363 27.5383C43.5363 27.5383 46.5923 33.3438 45.9083 46.6732C45.8544 47.7514 46.1846 48.8161 46.8552 49.6652L59.6946 63.997H31.4893C31.4893 63.997 31.3289 64.1132 29.9542 62.9205C29.9542 62.9205 29.5532 62.3679 27.508 61.9231C25.8267 61.5558 24.1925 60.9831 22.6898 60.1407C20.3615 58.8334 17.2852 56.6298 15.2164 53.321L8.98975 16.3215" fill="url(#paint1_linear_4783_13706)"/>
<path d="M27.8414 0.505859H9.95659C7.90033 0.505859 6.2334 2.17279 6.2334 4.22906V49.6487C6.2334 51.7049 7.90033 53.3719 9.95659 53.3719H27.8414C29.8977 53.3719 31.5646 51.7049 31.5646 49.6487V4.22906C31.5646 2.17279 29.8977 0.505859 27.8414 0.505859Z" fill="#F0F1FE"/>
<path d="M27.8415 1.01082C29.6171 1.01082 31.0592 2.4563 31.0592 4.22861V49.6482C31.0592 51.4239 29.6138 52.866 27.8415 52.866H9.95664C8.18096 52.866 6.73885 51.4205 6.73885 49.6482V4.22861C6.73885 2.45293 8.18433 1.01082 9.95664 1.01082H27.8415ZM27.8415 0H9.95664C7.62164 0 5.72803 1.89361 5.72803 4.22861V49.6482C5.72803 51.9832 7.62164 53.8768 9.95664 53.8768H27.8415C30.1765 53.8768 32.0701 51.9832 32.0701 49.6482V4.22861C32.0701 1.89361 30.1765 0 27.8415 0Z" fill="#6970F3"/>
<path d="M21.5541 1.70166H16.1092C15.3667 1.70166 14.7648 2.30357 14.7648 3.04605C14.7648 3.78854 15.3667 4.39045 16.1092 4.39045H21.5541C22.2966 4.39045 22.8985 3.78854 22.8985 3.04605C22.8985 2.30357 22.2966 1.70166 21.5541 1.70166Z" fill="#4C51B0"/>
<path d="M27.6521 6.29199H9.49438V9.07175H27.6521V6.29199Z" fill="#6970F3"/>
<path d="M27.6521 42.8618H9.49438V45.6416H27.6521V42.8618Z" fill="#6970F3"/>
<path d="M27.6521 46.0884H9.49438V48.8681H27.6521V46.0884Z" fill="#6970F3"/>
<path d="M9 16.6955V14H11.6989" stroke="#6970F3" stroke-width="0.336941" stroke-linecap="round" stroke-linejoin="round"/>
<path d="M29.0379 16.6955V14H26.3424" stroke="#6970F3" stroke-width="0.336941" stroke-linecap="round" stroke-linejoin="round"/>
<path d="M9 31.0894V33.7849H11.6989" stroke="#6970F3" stroke-width="0.336941" stroke-linecap="round" stroke-linejoin="round"/>
<path d="M29.0379 31.0894V33.7849H26.3424" stroke="#6970F3" stroke-width="0.336941" stroke-linecap="round" stroke-linejoin="round"/>
<path d="M16.8978 43.9597C16.8768 43.9274 16.8526 43.9 16.8058 43.8725C16.7203 43.8161 16.63 43.808 16.5542 43.8161C16.4928 43.8241 16.4267 43.8435 16.3928 43.9177C16.3686 43.9693 16.3815 44.0323 16.4106 44.0694C16.4283 44.0887 16.4444 44.1033 16.4719 44.1226C16.5009 44.1436 16.5283 44.1565 16.5735 44.1694L16.6526 44.192C16.8607 44.2517 16.943 44.3001 16.9865 44.3469C17.043 44.4066 17.093 44.526 17.0398 44.6615C17.0075 44.7292 16.9462 44.7873 16.8768 44.826C16.8284 44.847 16.7623 44.8744 16.7074 44.8777C16.5784 44.8954 16.4638 44.868 16.346 44.797C16.2315 44.7276 16.1734 44.6244 16.1557 44.5792L16.3154 44.5211C16.3267 44.5518 16.3589 44.6115 16.4332 44.6583C16.5251 44.7131 16.5929 44.7292 16.6897 44.7163C16.7171 44.7131 16.7591 44.7002 16.7962 44.6808C16.8349 44.6599 16.8639 44.6357 16.8817 44.6002C16.9107 44.5421 16.8897 44.4889 16.8639 44.4598C16.8365 44.4275 16.7833 44.4017 16.6106 44.3501L16.53 44.3259C16.4686 44.3082 16.4186 44.284 16.3783 44.2581C16.3283 44.2243 16.2944 44.1888 16.2831 44.1759C16.225 44.1065 16.1863 43.9726 16.2379 43.8548C16.2976 43.7177 16.438 43.666 16.5332 43.6547C16.6284 43.6434 16.7687 43.6531 16.893 43.7322C16.9623 43.7741 17.0091 43.8241 17.0382 43.8725L16.8978 43.9597ZM17.8079 44.8728C17.4497 44.8728 17.2222 44.5986 17.2222 44.2662C17.2222 43.9339 17.4497 43.658 17.8079 43.6596C17.9708 43.6596 18.1176 43.729 18.2225 43.8371L18.1096 43.9597C18.0354 43.8838 17.9208 43.8387 17.8079 43.8387C17.5497 43.8371 17.3916 44.0274 17.3916 44.2662C17.3916 44.5066 17.5497 44.6954 17.8079 44.6954C17.9208 44.6954 18.0354 44.6486 18.1096 44.5727L18.2225 44.6954C18.1176 44.8035 17.9708 44.8728 17.8079 44.8728ZM19.0056 43.6725L19.5009 44.8599H19.3218L19.1895 44.5389H18.6393L18.507 44.8599H18.328L18.8233 43.6725H19.0056ZM18.7136 44.3614H19.1153L18.9152 43.879L18.7136 44.3614ZM20.7323 43.6725V44.8599H20.5258L19.8498 43.9161V44.8599H19.6804V43.6725H19.882L20.5645 44.6147V43.6725H20.7323Z" fill="white"/>
<path d="M15.6447 48.0725C15.2865 48.0725 15.0591 47.7983 15.0591 47.4659C15.0591 47.1336 15.2865 46.8577 15.6447 46.8593C15.8077 46.8593 15.9545 46.9287 16.0593 47.0368L15.9464 47.1594C15.8722 47.0835 15.7576 47.0384 15.6447 47.0384C15.3866 47.0368 15.2285 47.2271 15.2285 47.4659C15.2285 47.7063 15.3866 47.8951 15.6447 47.8951C15.7576 47.8951 15.8722 47.8483 15.9464 47.7725L16.0593 47.8951C15.9545 48.0032 15.8077 48.0725 15.6447 48.0725ZM16.8424 46.8722L17.3377 48.0596H17.1586L17.0263 47.7386H16.4762L16.3439 48.0596H16.1648L16.6601 46.8722H16.8424ZM16.5504 47.5611H16.9521L16.7521 47.0787L16.5504 47.5611ZM18.5691 46.8722V48.0596H18.3626L17.6866 47.1158V48.0596H17.5172V46.8722H17.7189L18.4013 47.8144V46.8722H18.5691ZM19.3473 48.0725C18.9891 48.0725 18.7616 47.7983 18.7616 47.4659C18.7616 47.1336 18.9891 46.8577 19.3473 46.8593C19.5102 46.8593 19.657 46.9287 19.7619 47.0368L19.649 47.1594C19.5747 47.0835 19.4602 47.0384 19.3473 47.0384C19.0891 47.0368 18.931 47.2271 18.931 47.4659C18.931 47.7063 19.0891 47.8951 19.3473 47.8951C19.4602 47.8951 19.5747 47.8483 19.649 47.7725L19.7619 47.8951C19.657 48.0032 19.5102 48.0725 19.3473 48.0725ZM20.7402 46.8722V47.0351H20.1094V47.3659H20.6886V47.5321H20.1094V47.8951H20.7402V48.0596H19.9416V46.8722H20.7402ZM21.115 46.8722V47.8951H21.7039V48.0596H20.9472V46.8722H21.115Z" fill="white"/>
<path d="M13.1222 7.07239V8.25983H12.9528V7.34989L12.5947 7.99685H12.4398L12.0784 7.34989V8.25983H11.9106V7.07239H12.1236L12.5172 7.78066L12.9061 7.07239H13.1222ZM14.1662 7.07239V7.23534H13.5354V7.56608H14.1146V7.73226H13.5354V8.09527H14.1662V8.25983H13.3676V7.07239H14.1662ZM15.5864 7.07239V8.25983H15.417V7.34989L15.0588 7.99685H14.904L14.5426 7.34989V8.25983H14.3748V7.07239H14.5877L14.9814 7.78066L15.3702 7.07239H15.5864ZM15.8495 7.07239H16.3625C16.5432 7.07239 16.6884 7.21275 16.6884 7.39506C16.6884 7.49671 16.6384 7.57899 16.5642 7.63868C16.6546 7.69515 16.7159 7.80486 16.7159 7.92909C16.7159 8.11301 16.5691 8.25983 16.3884 8.25983H15.8495V7.07239ZM16.0189 8.0872H16.3722C16.4658 8.0872 16.5416 8.01298 16.5416 7.91457C16.5416 7.81131 16.4658 7.73226 16.3722 7.73226H16.0189V8.0872ZM16.0189 7.56608H16.3577C16.4497 7.56285 16.5207 7.49671 16.5207 7.40474C16.5207 7.30956 16.4432 7.23857 16.3496 7.23857H16.0189V7.56608ZM17.6923 7.07239V7.23534H17.0615V7.56608H17.6407V7.73226H17.0615V8.09527H17.6923V8.25983H16.8937V7.07239H17.6923ZM18.3865 7.6774C18.5075 7.6774 18.6043 7.57737 18.6043 7.45637C18.6043 7.33698 18.5075 7.24018 18.3865 7.24018H18.067V7.6774H18.3865ZM17.9025 8.25983V7.07239H18.3994C18.6027 7.07239 18.7672 7.23695 18.7672 7.45476C18.7624 7.63868 18.6495 7.76937 18.5027 7.82099L18.8237 8.25983H18.6188L18.3123 7.84358H18.067V8.25983H17.9025ZM19.7173 7.35957C19.6963 7.3273 19.6721 7.29988 19.6253 7.27245C19.5398 7.21598 19.4495 7.20791 19.3736 7.21598C19.3123 7.22405 19.2462 7.24341 19.2123 7.31762C19.1881 7.36925 19.201 7.43217 19.23 7.46928C19.2478 7.48864 19.2639 7.50316 19.2913 7.52252C19.3204 7.54349 19.3478 7.5564 19.393 7.56931L19.472 7.59189C19.6802 7.65159 19.7625 7.69999 19.806 7.74678C19.8625 7.80647 19.9125 7.92586 19.8593 8.06138C19.827 8.12915 19.7657 8.18723 19.6963 8.22595C19.6479 8.24692 19.5818 8.27435 19.5269 8.27758C19.3978 8.29532 19.2833 8.2679 19.1655 8.19691C19.051 8.12753 18.9929 8.02428 18.9751 7.9791L19.1349 7.92102C19.1461 7.95168 19.1784 8.01137 19.2526 8.05816C19.3446 8.11301 19.4124 8.12915 19.5092 8.11624C19.5366 8.11301 19.5785 8.10011 19.6156 8.08074C19.6544 8.05977 19.6834 8.03557 19.7011 8.00008C19.7302 7.942 19.7092 7.88875 19.6834 7.85971C19.656 7.82745 19.6027 7.80163 19.4301 7.75L19.3494 7.7258C19.2881 7.70806 19.2381 7.68386 19.1978 7.65804C19.1478 7.62416 19.1139 7.58867 19.1026 7.57576C19.0445 7.50639 19.0058 7.37248 19.0574 7.2547C19.1171 7.11756 19.2575 7.06594 19.3527 7.05464C19.4478 7.04335 19.5882 7.05303 19.7124 7.13208C19.7818 7.17403 19.8286 7.22405 19.8576 7.27245L19.7173 7.35957ZM21.0283 7.07239V8.25983H20.8605V7.73387H20.2588V8.25983H20.0893V7.07239H20.2588V7.56769H20.8605V7.07239H21.0283ZM21.2742 7.07239H21.442V8.25983H21.2742V7.07239ZM22.171 7.67418C22.2904 7.67418 22.3888 7.57415 22.3888 7.45637C22.3888 7.33698 22.2904 7.24018 22.171 7.24018H21.8548V7.67418H22.171ZM21.6853 8.25983V7.07239H22.1694C22.3823 7.07239 22.5517 7.24341 22.5517 7.45637C22.5517 7.66772 22.3823 7.84197 22.1694 7.84197H21.8548V8.25983H21.6853ZM24.0818 7.90005C24.1238 7.83067 24.1431 7.76291 24.1447 7.66772C24.1447 7.42249 23.9737 7.22889 23.7204 7.22889C23.4671 7.22889 23.2961 7.42249 23.2961 7.66772C23.2961 7.91134 23.4671 8.10495 23.7204 8.10495C23.8398 8.10333 23.8995 8.0759 23.9689 8.02428L23.8156 7.86133L23.9382 7.74516L24.0818 7.90005ZM23.1283 7.66772C23.1283 7.33376 23.3719 7.0611 23.7204 7.0611C24.0689 7.0611 24.3109 7.33376 24.3109 7.66772C24.3093 7.80647 24.2706 7.92102 24.1996 8.02589L24.3271 8.1598L24.2077 8.27596L24.0851 8.14367C23.9834 8.22756 23.8866 8.27274 23.7204 8.27274C23.3719 8.27274 23.1283 8.00008 23.1283 7.66772ZM24.9739 7.6774C25.0949 7.6774 25.1917 7.57737 25.1917 7.45637C25.1917 7.33698 25.0949 7.24018 24.9739 7.24018H24.6544V7.6774H24.9739ZM24.4899 8.25983V7.07239H24.9868C25.1901 7.07239 25.3546 7.23695 25.3546 7.45476C25.3498 7.63868 25.2369 7.76937 25.09 7.82099L25.4111 8.25983H25.2062L24.8997 7.84358H24.6544V8.25983H24.4899Z" fill="white"/>
<path d="M5.64666 27.5347C5.64666 27.5347 1.81564 29.4687 0.363429 32.9662C0.363429 32.9662 -0.566528 34.9002 0.548746 36.1671C0.548746 36.1671 2.78266 40.1868 5.98023 39.2568C5.98023 39.2568 8.95542 38.9603 7.16963 34.6071C7.16963 34.6071 6.41152 33.293 5.64329 32.6966V27.538L5.64666 27.5347Z" fill="url(#paint2_linear_4783_13706)"/>
<path d="M5.6409 20.3917C5.6409 20.3917 2.43996 19.0137 0.17235 24.1486C0.17235 24.1486 -0.535225 25.9715 0.91699 27.4978C0.91699 27.4978 2.85103 31.8511 6.61129 30.1765C6.61129 30.1765 9.14172 28.5693 7.17061 25.392L5.64427 22.9963V20.3917H5.6409Z" fill="url(#paint3_linear_4783_13706)"/>
<path d="M6.25368 40.7295C6.25368 40.7295 3.84792 39.3144 2.35865 40.2814C2.35865 40.2814 1.38826 40.6689 0.990666 41.7909C0.502101 43.1791 1.32761 44.6717 2.70906 45.1738C2.95166 45.2614 3.22795 45.3456 3.53794 45.4164C3.53794 45.4164 7.76655 46.4339 8.85486 44.7223C8.85486 44.7223 9.87243 42.613 6.25031 40.7295H6.25368Z" fill="url(#paint4_linear_4783_13706)"/>
<rect x="11" y="16" width="16" height="16" fill="white"/>
<path d="M23.752 23.6343C23.748 23.5323 23.7419 23.4303 23.7407 23.3283C23.7387 23.1745 23.7401 23.0207 23.7401 22.8609H22.2982V23.6337C22.2568 23.6337 22.2249 23.6337 22.193 23.6337C21.7727 23.6337 21.3524 23.6341 20.932 23.6334C20.8851 23.6334 20.839 23.6285 20.839 23.6966C20.8392 23.9189 20.839 24.1413 20.839 24.3698H22.2881V27.9505H21.5528V28.7217H20.8226C20.8226 28.9507 20.8233 29.1701 20.8223 29.3895C20.8219 29.4458 20.8536 29.4502 20.8983 29.4498C21.0844 29.4482 21.2707 29.4491 21.4567 29.4491C21.4861 29.4491 21.5155 29.4491 21.542 29.4491V30.2094C21.3139 30.2094 21.0986 30.211 20.8835 30.2061C20.8668 30.2058 20.8374 30.1583 20.837 30.1322C20.8333 29.9152 20.8349 29.698 20.8349 29.4741H20.0813V30.2076H19.3787V31H17.9992C17.9992 30.8592 17.9976 30.7159 17.9997 30.5728C18.0015 30.4534 18.0076 30.334 18.0116 30.2145C18.2411 30.2145 18.4708 30.2145 18.7023 30.2145V29.4734H18.0046C18.0046 29.5723 18.0035 29.6654 18.0048 29.7583C18.0071 29.9114 18.0109 30.0643 18.0141 30.2174C17.7893 30.215 17.5645 30.2125 17.3397 30.2101C17.2831 30.2096 17.2265 30.2101 17.1642 30.2101V27.294H17.9842V26.5373H17.146V25.8671H17.9974V26.527C18.246 26.527 18.4789 26.527 18.7118 26.527C18.7118 26.9926 18.7118 27.4582 18.7118 27.9344H19.369V26.5408C19.333 26.5408 19.3034 26.5413 19.2739 26.5408C19.0856 26.5373 18.8974 26.5335 18.7091 26.5299C18.7079 26.314 18.7052 26.098 18.7055 25.8821C18.7059 25.621 18.7084 25.36 18.71 25.0991L18.7081 25.1022C18.7403 25.1037 18.7725 25.1062 18.8048 25.1062C18.9925 25.1066 19.1802 25.1064 19.3773 25.1064V25.8375H20.0534V24.3756H18.69L18.6918 24.3774C18.6888 24.1696 18.6857 23.9618 18.6828 23.754C18.6823 23.7156 18.6828 23.6772 18.6828 23.6321H17.9916V22.1519H17.1658V18.4459H18.0049V17.0068H20.0595V17.744L20.062 17.7412H18.7315V18.4626H18.0136V19.2228H18.7072V19.9528H19.3867V21.4026H18.7041V23.6278H20.8338V22.8684H21.563V22.1399H24.5807V22.8521H25.9992V24.3575H25.3269V25.1075H26.0001V27.2152H25.32V25.8174H24.6018V25.1109H23.0181V23.6308C23.2656 23.6308 23.5106 23.6308 23.7554 23.6308C23.7554 23.8758 23.7554 24.1205 23.7554 24.3593H25.2968V23.6341H23.7522L23.752 23.6343ZM21.5322 27.9417V26.5257H20.0586C20.0698 27.0035 20.039 27.4723 20.0844 27.9417H21.5321H21.5322ZM18.0028 28.6859H18.7003V27.9511H18.0028V28.6859ZM20.8412 25.1147V25.8368H21.5331V25.1147H20.8412ZM18.0022 20.6854V21.3984H18.6837V20.6854H18.0022ZM20.0572 29.4503V28.7304H19.3827V29.4503H20.0572Z" fill="black"/>
<path d="M21.5671 17H25.9991V21.4344H21.5671V17ZM22.2978 20.7302H25.3011V17.7145H22.2978V20.73V20.7302Z" fill="black"/>
<path d="M16.4284 26.5381V30.9884H12V26.5381H16.4284ZM15.7157 27.2564H12.6968V30.2761H15.7157V27.2564Z" fill="black"/>
<path d="M16.4312 21.4232H12.0005V17.0029H16.431V21.4232H16.4312ZM12.6955 20.7272H15.7137V17.7151H12.6953V20.727L12.6955 20.7272Z" fill="black"/>
<path d="M17.1492 24.3469C17.1166 24.3496 17.084 24.3545 17.0512 24.3547C16.6428 24.3552 16.2346 24.3551 15.8262 24.3552C15.794 24.3552 15.7617 24.3552 15.725 24.3552V25.1016H16.4394V25.8284H14.9829V25.1175H14.1885V25.8125H13.4184V25.102H14.1827V24.379H13.4178V23.6375H14.1817V22.8868H13.3831V22.1426H16.4373V22.8522H14.9712V23.6152H16.4355V22.8708H17.1413C17.1413 22.8906 17.1413 22.9223 17.1413 22.9542C17.1413 23.3859 17.1413 23.8177 17.1417 24.2494C17.1417 24.2822 17.1462 24.315 17.1485 24.3478L17.1489 24.3473L17.1492 24.3469Z" fill="black"/>
<path d="M23.0232 29.4569C22.9856 29.4516 22.9481 29.4422 22.9105 29.4418C22.7098 29.4404 22.5089 29.4411 22.301 29.4411V27.9649H23.0108V25.8506H23.7417V27.2727H24.5671V27.9605H25.2753V28.6848H24.5813V30.2306H25.2762V30.9944H22.301V30.2455C22.4853 30.2455 22.6703 30.2464 22.8553 30.2453C23.0395 30.244 23.0126 30.2663 23.0148 30.0882C23.0175 29.8773 23.0196 29.6663 23.022 29.4553C23.2695 29.4553 23.517 29.4553 23.7647 29.4553V27.9795H23.0195C23.0175 28.0002 23.0151 28.0145 23.0151 28.029C23.0148 28.4939 23.0146 28.9585 23.0151 29.4234C23.0151 29.4346 23.0207 29.4458 23.0238 29.4569H23.0232Z" fill="black"/>
<path d="M20.0592 17.7439C20.1003 17.7456 20.1416 17.7485 20.1826 17.7485C20.4015 17.749 20.6202 17.7486 20.8459 17.7486V18.4392H20.0825V19.1749H20.8396V19.9394H19.3999V18.4724C19.6175 18.4633 19.8346 18.4541 20.0618 18.4446C20.0618 18.2091 20.0618 17.9753 20.0618 17.7412L20.0592 17.7437V17.7439Z" fill="black"/>
<path d="M20.1244 21.416C20.1269 21.6055 20.1298 21.795 20.1321 21.9843C20.1327 22.0291 20.1321 22.0738 20.1321 22.1314H20.8351V22.8499H19.3986V21.4178H20.1264L20.1242 21.416H20.1244Z" fill="black"/>
<path d="M18.71 25.0986C18.6867 25.1026 18.6635 25.1098 18.6402 25.11C18.1609 25.1106 17.6815 25.1102 17.2023 25.1098C17.1848 25.1098 17.1672 25.1073 17.1492 25.1059C17.1492 24.8504 17.1492 24.5988 17.1492 24.3472C17.1492 24.3472 17.1488 24.3479 17.149 24.3477C17.1812 24.3551 17.2133 24.3693 17.2455 24.3694C17.7276 24.3731 18.2097 24.3749 18.6918 24.3772L18.69 24.3754C18.6959 24.6176 18.7018 24.8597 18.708 25.1019L18.71 25.0988V25.0986Z" fill="black"/>
<path d="M12.0112 25.094V23.6377H12.6792V25.094H12.0112Z" fill="black"/>
<path d="M25.3093 29.4756H25.9802V30.1944H25.3093V29.4756Z" fill="black"/>
<path d="M12.7049 22.8509H12.0126V22.1587H12.7049V22.8509Z" fill="black"/>
<path d="M20.1265 21.4176V20.7241H20.8374V21.3988C20.8157 21.4015 20.8015 21.4045 20.7871 21.4051C20.5927 21.4114 20.3983 21.4178 20.2038 21.423C20.1775 21.4238 20.151 21.4185 20.1245 21.4158L20.1265 21.4176Z" fill="black"/>
<path d="M24.6141 18.4214V20.0415H22.9717V18.4214H24.6141Z" fill="black"/>
<path d="M15.029 29.5733H13.3882V27.9536H15.029V29.5733Z" fill="black"/>
<path d="M13.3949 20.0404V18.4229H15.0269V20.0404H13.3949Z" fill="black"/>
<rect x="10.4453" y="24.2598" width="16.847" height="8.76046" fill="url(#paint5_linear_4783_13706)"/>
<path d="M9.77136 24.2598H27.9662" stroke="#FF4B4B" stroke-width="0.336941" stroke-linecap="round"/>
<defs>
<linearGradient id="paint0_linear_4783_13706" x1="3.05296" y1="15.2549" x2="3.05296" y2="21.2812" gradientUnits="userSpaceOnUse">
<stop stop-color="#FFD9C0"/>
<stop offset="1" stop-color="#F3C29F"/>
</linearGradient>
<linearGradient id="paint1_linear_4783_13706" x1="27.2765" y1="58.1176" x2="59.3473" y2="49.5" gradientUnits="userSpaceOnUse">
<stop stop-color="#FFD9C0"/>
<stop offset="1" stop-color="#E7B08A"/>
</linearGradient>
<linearGradient id="paint2_linear_4783_13706" x1="3.8702" y1="27.5347" x2="3.8702" y2="39.3965" gradientUnits="userSpaceOnUse">
<stop stop-color="#FFD9C0"/>
<stop offset="1" stop-color="#F3C29F"/>
</linearGradient>
<linearGradient id="paint3_linear_4783_13706" x1="3.96097" y1="20.2236" x2="3.96097" y2="30.5599" gradientUnits="userSpaceOnUse">
<stop stop-color="#FFD9C0"/>
<stop offset="1" stop-color="#F3C29F"/>
</linearGradient>
<linearGradient id="paint4_linear_4783_13706" x1="4.91783" y1="39.9434" x2="4.91783" y2="45.7166" gradientUnits="userSpaceOnUse">
<stop stop-color="#FFD9C0"/>
<stop offset="1" stop-color="#F3C29F"/>
</linearGradient>
<linearGradient id="paint5_linear_4783_13706" x1="18.8688" y1="24.2598" x2="18.8688" y2="33.0202" gradientUnits="userSpaceOnUse">
<stop stop-color="white"/>
<stop offset="1" stop-color="white" stop-opacity="0"/>
</linearGradient>
</defs>
</svg>
