<svg width="85" height="85" viewBox="0 0 85 85" fill="none" xmlns="http://www.w3.org/2000/svg">
<path d="M50.9033 8.76953L51.4248 9.19336L52.0879 9.08691L62.7832 7.36816L66.6426 17.4902L66.8818 18.1182L67.5098 18.3574L77.6309 22.2158L75.9131 32.9121L75.8066 33.5752L76.2305 34.0967L83.0654 42.5L76.2305 50.9033L75.8066 51.4248L75.9131 52.0879L77.6309 62.7832L67.5098 66.6426L66.8818 66.8818L66.6426 67.5098L62.7832 77.6309L52.0879 75.9131L51.4248 75.8066L50.9033 76.2305L42.5 83.0654L34.0967 76.2305L33.5752 75.8066L32.9121 75.9131L22.2158 77.6309L18.3574 67.5098L18.1182 66.8818L17.4902 66.6426L7.36816 62.7832L9.08691 52.0879L9.19336 51.4248L8.76953 50.9033L1.93359 42.5L8.76953 34.0967L9.19336 33.5752L9.08691 32.9121L7.36816 22.2158L17.4902 18.3574L18.1182 18.1182L18.3574 17.4902L22.2158 7.36816L32.9121 9.08691L33.5752 9.19336L34.0967 8.76953L42.5 1.93359L50.9033 8.76953Z" fill="white" stroke="#6970F3" stroke-width="3"/>
<path d="M49.9941 13.7412L50.168 13.8828L50.3896 13.8467L59.9277 12.3135L63.3701 21.3408L63.4492 21.5508L63.6592 21.6299L72.6855 25.0713L71.1533 34.6104L71.1172 34.832L71.2588 35.0059L77.3555 42.5L71.2588 49.9941L71.1172 50.168L71.1533 50.3896L72.6855 59.9277L63.6592 63.3701L63.4492 63.4492L63.3701 63.6592L59.9277 72.6855L50.3896 71.1533L50.168 71.1172L49.9941 71.2588L42.5 77.3555L35.0059 71.2588L34.832 71.1172L34.6104 71.1533L25.0713 72.6855L21.6299 63.6592L21.5508 63.4492L21.3408 63.3701L12.3135 59.9277L13.8467 50.3896L13.8828 50.168L13.7412 49.9941L7.64355 42.5L13.7412 35.0059L13.8828 34.832L13.8467 34.6104L12.3135 25.0713L21.3408 21.6299L21.5508 21.5508L21.6299 21.3408L25.0713 12.3135L34.6104 13.8467L34.832 13.8828L35.0059 13.7412L42.5 7.64355L49.9941 13.7412Z" stroke="#6970F3"/>
<path d="M28.586 39.2504L29.5413 42.2205L24.1722 43.9475L24.9316 46.3084L28.8917 45.0346L29.8042 47.8715L25.844 49.1452L27.5342 54.4001L23.8025 55.6004L19.4851 42.1776L28.586 39.2504ZM41.272 49.9814L37.0143 45.8885L36.6145 46.0171L38.2067 50.9674L34.475 52.1677L30.1576 38.7449L36.0408 36.8526C37.1197 36.5056 38.0948 36.402 38.9662 36.5419C39.8334 36.6692 40.5636 37.0016 41.1567 37.5391C41.7457 38.064 42.1708 38.7326 42.4321 39.5449C42.7261 40.4588 42.7315 41.3465 42.4483 42.2079C42.1737 43.0525 41.6011 43.7759 40.7303 44.3782L45.4416 48.6403L41.272 49.9814ZM35.7939 43.4659L37.6407 42.8718C38.1484 42.7085 38.4904 42.4655 38.6667 42.1427C38.843 41.8198 38.8576 41.43 38.7107 40.973C38.5718 40.5415 38.3304 40.248 37.9863 40.0925C37.6508 39.9203 37.2355 39.9138 36.7405 40.073L34.8936 40.6671L35.7939 43.4659ZM47.4383 36.4851L48.1426 38.6746L52.4264 37.2967L53.3389 40.1336L49.055 41.5115L49.8328 43.9295L54.6878 42.3679L55.6493 45.3571L47.0625 48.1189L42.7452 34.6962L51.3319 31.9343L52.2934 34.9235L47.4383 36.4851ZM57.8691 33.1301L58.5733 35.3196L62.8572 33.9418L63.7697 36.7786L59.4858 38.1565L60.2635 40.5745L65.1186 39.0129L66.08 42.0021L57.4933 44.764L53.1759 31.3412L61.7627 28.5793L62.7241 31.5685L57.8691 33.1301Z" fill="#FF4A4A"/>
</svg>
