<svg width="12" height="12" viewBox="0 0 12 12" fill="none" xmlns="http://www.w3.org/2000/svg">
<path d="M8.99989 4V1M7.49989 2.5H10.4999M6.49989 1.04195C6.33575 1.0142 6.16855 1 5.99989 1C5.20424 1 4.44118 1.31607 3.87857 1.87868C3.31596 2.44129 2.99989 3.20435 2.99989 4C2.99989 5.54509 2.61012 6.60298 2.17472 7.30271C1.80745 7.89294 1.62382 8.18805 1.63055 8.27038C1.63801 8.36154 1.65732 8.3963 1.73078 8.45079C1.79712 8.5 2.09618 8.5 2.69431 8.5H9.30546C9.90357 8.5 10.2026 8.5 10.269 8.45079C10.3424 8.3963 10.3617 8.36154 10.3692 8.27038C10.3759 8.18806 10.1923 7.89289 9.82498 7.30259C9.57896 6.90718 9.34751 6.39741 9.19273 5.75" stroke="#252525" stroke-linecap="round" stroke-linejoin="round"/>
<path d="M7 10.5H5" stroke="#252525" stroke-width="0.75" stroke-linecap="round" stroke-linejoin="round"/>
</svg>
