<svg width="12" height="12" viewBox="0 0 12 12" fill="none" xmlns="http://www.w3.org/2000/svg">
<path d="M9.00038 4C9.00038 3.20435 8.68431 2.44129 8.1217 1.87868C7.55909 1.31607 6.79602 1 6.00038 1C5.20473 1 4.44166 1.31607 3.87906 1.87868C3.31645 2.44129 3.00038 3.20435 3.00038 4C3.00038 5.54509 2.61061 6.60298 2.17521 7.30271C1.80794 7.89294 1.6243 8.18805 1.63104 8.27038C1.63849 8.36154 1.65781 8.3963 1.73126 8.45079C1.79761 8.5 2.09667 8.5 2.6948 8.5H9.30595C9.90408 8.5 10.2031 8.5 10.2695 8.45079C10.3429 8.3963 10.3623 8.36154 10.3697 8.27038C10.3764 8.18805 10.1928 7.89294 9.82554 7.30271C9.39014 6.60298 9.00038 5.54509 9.00038 4Z" stroke="#6970F3" stroke-width="0.75" stroke-linecap="round" stroke-linejoin="round"/>
<path d="M9.00015 4C9.00015 3.20435 8.68408 2.44129 8.12147 1.87868C7.55886 1.31607 6.7958 1 6.00015 1C5.2045 1 4.44144 1.31607 3.87883 1.87868C3.31622 2.44129 3.00015 3.20435 3.00015 4C3.00015 5.54509 2.61038 6.60298 2.17498 7.30271C1.80771 7.89294 1.62408 8.18805 1.63081 8.27038C1.63827 8.36154 1.65758 8.3963 1.73104 8.45079C1.79738 8.5 2.09644 8.5 2.69458 8.5H9.30572C9.90385 8.5 10.2029 8.5 10.2693 8.45079C10.3427 8.3963 10.362 8.36154 10.3695 8.27038C10.3762 8.18805 10.1926 7.89294 9.82532 7.30271C9.38991 6.60298 9.00015 5.54509 9.00015 4Z" fill="#6970F3"/>
<path d="M7.00015 10.5H5.00015M1.14707 2.90995C1.1399 2.18427 1.53114 1.50662 2.16318 1.15M10.8513 2.90995C10.8584 2.18428 10.4672 1.50663 9.83515 1.15M9.00015 4C9.00015 3.20435 8.68408 2.44129 8.12147 1.87868C7.55886 1.31607 6.7958 1 6.00015 1C5.2045 1 4.44144 1.31607 3.87883 1.87868C3.31622 2.44129 3.00015 3.20435 3.00015 4C3.00015 5.54509 2.61038 6.60298 2.17498 7.30271C1.80771 7.89294 1.62408 8.18805 1.63081 8.27038C1.63827 8.36154 1.65758 8.3963 1.73104 8.45079C1.79738 8.5 2.09644 8.5 2.69458 8.5H9.30572C9.90385 8.5 10.2029 8.5 10.2693 8.45079C10.3427 8.3963 10.362 8.36154 10.3695 8.27038C10.3762 8.18805 10.1926 7.89294 9.82532 7.30271C9.38991 6.60298 9.00015 5.54509 9.00015 4Z" stroke="#6970F3" stroke-width="0.75" stroke-linecap="round" stroke-linejoin="round"/>
<path d="M7.00015 10.4999H5.00015M1.14707 2.90985C1.1399 2.18418 1.53114 1.50653 2.16318 1.1499M10.8513 2.90985C10.8584 2.18418 10.4672 1.50653 9.83515 1.14991" stroke="#6970F3" stroke-width="0.75" stroke-linecap="round" stroke-linejoin="round"/>
</svg>
