<svg width="135" height="42" viewBox="0 0 135 42" fill="none" xmlns="http://www.w3.org/2000/svg">
<path d="M8.70699 0.844482V26.2475H19.0871V33.9921H0.171753V3.48007C2.68569 1.8379 5.60511 0.925577 8.60562 0.844482H8.70699Z" fill="#6970F3"/>
<path d="M34.6761 34.7619C32.7907 34.7619 31.0472 34.4173 29.405 33.7685C27.7831 33.0995 26.3639 32.1669 25.1678 30.9505C23.9716 29.734 23.039 28.3149 22.37 26.693C21.701 25.0711 21.3766 23.3073 21.3766 21.3813C21.3766 19.4553 21.701 17.6914 22.37 16.0695C23.039 14.4476 23.9716 13.0285 25.1678 11.8323C26.3639 10.6362 27.7831 9.70358 29.405 9.03455C31.0269 8.36552 32.7907 8.04114 34.6761 8.04114C36.5616 8.04114 38.366 8.36552 39.9676 9.03455C41.5692 9.70358 42.9884 10.6362 44.1845 11.8323C45.3807 13.0285 46.3133 14.4476 46.9823 16.0695C47.6513 17.6914 47.9757 19.4553 47.9757 21.3813C47.9757 23.3073 47.6513 25.0711 46.9823 26.693C46.3133 28.3149 45.3807 29.734 44.1845 30.9505C42.9884 32.1669 41.5692 33.1198 39.9676 33.7685C38.366 34.4375 36.6022 34.7619 34.6761 34.7619ZM34.6761 27.5039C36.2778 27.5039 37.5347 26.9363 38.5079 25.7807C39.4607 24.6251 39.9473 23.1653 39.9473 21.361C39.9473 19.5566 39.4607 18.0766 38.5079 16.9413C37.555 15.806 36.2778 15.2586 34.6761 15.2586C33.0745 15.2586 31.8176 15.8263 30.8444 16.9413C29.8713 18.0564 29.405 19.5363 29.405 21.361C29.405 23.1856 29.8916 24.6251 30.8444 25.7807C31.7973 26.9363 33.0745 27.5039 34.6761 27.5039Z" fill="#6970F3"/>
<path d="M63.9119 34.7619C62.0264 34.7619 60.2829 34.4173 58.6407 33.7685C57.0188 33.0995 55.5996 32.1669 54.4035 30.9505C53.2073 29.734 52.2748 28.3149 51.6057 26.693C50.9367 25.0711 50.6123 23.3073 50.6123 21.3813C50.6123 19.4553 50.9367 17.6914 51.6057 16.0695C52.2748 14.4476 53.2073 13.0285 54.4035 11.8323C55.5996 10.6362 57.0188 9.70358 58.6407 9.03455C60.2626 8.36552 62.0264 8.04114 63.9119 8.04114C65.7973 8.04114 67.6017 8.36552 69.2033 9.03455C70.8049 9.70358 72.2241 10.6362 73.4202 11.8323C74.6164 13.0285 75.549 14.4476 76.218 16.0695C76.887 17.6914 77.2114 19.4553 77.2114 21.3813C77.2114 23.3073 76.887 25.0711 76.218 26.693C75.549 28.3149 74.6164 29.734 73.4202 30.9505C72.2241 32.1669 70.8049 33.1198 69.2033 33.7685C67.6017 34.4375 65.8379 34.7619 63.9119 34.7619ZM63.9119 27.5039C65.5135 27.5039 66.7705 26.9363 67.7436 25.7807C68.6965 24.6251 69.183 23.1653 69.183 21.361C69.183 19.5566 68.6965 18.0766 67.7436 16.9413C66.7907 15.806 65.5135 15.2586 63.9119 15.2586C62.3102 15.2586 61.0533 15.8263 60.0801 16.9413C59.107 18.0564 58.6407 19.5363 58.6407 21.361C58.6407 23.1856 59.1273 24.6251 60.0801 25.7807C61.033 26.9363 62.3102 27.5039 63.9119 27.5039Z" fill="#6970F3"/>
<path d="M89.2749 6.09509V10.2107C90.0858 9.5619 91.0184 9.05506 92.0524 8.66986C93.0863 8.30493 94.2014 8.10219 95.357 8.10219C96.9789 8.10219 98.5197 8.42657 99.9794 9.05506C101.439 9.68355 102.737 10.5959 103.852 11.7515C104.967 12.9273 105.859 14.3262 106.487 15.9481C107.116 17.57 107.44 19.3744 107.44 21.3612C107.44 23.348 107.116 25.0916 106.487 26.7135C105.859 28.3354 104.967 29.7545 103.852 30.9304C102.737 32.1266 101.439 33.0389 99.9794 33.6877C98.5197 34.3364 96.9586 34.6608 95.2962 34.6608C94.1203 34.6608 93.0255 34.4783 92.0118 34.0931C90.9981 33.7282 90.0655 33.1808 89.2546 32.5118V41.7769H81.2059V8.44685L81.7128 8.10219C83.9226 6.56139 86.5582 6.27756 89.2546 6.27756V6.09509H89.2749ZM94.2419 27.565C95.8233 27.565 97.1005 26.9973 98.0128 25.8823C98.9454 24.7672 99.4117 23.267 99.4117 21.3815C99.4117 19.496 98.9454 17.9958 98.0128 16.901C97.0803 15.8062 95.8233 15.2386 94.2419 15.2386C92.6606 15.2386 91.4239 15.8062 90.4913 16.9213C89.5587 18.0363 89.0721 19.5366 89.0721 21.3815C89.0721 23.2264 89.5384 24.7267 90.4913 25.862C91.4239 26.9973 92.6809 27.565 94.2419 27.565Z" fill="#6970F3"/>
<path d="M113.298 41.7773C113.947 40.054 114.616 38.3307 115.325 36.5872C116.035 34.8436 116.704 33.1406 117.353 31.4377C115.832 27.7073 114.271 23.9161 112.69 20.1046C111.108 16.2932 109.568 12.502 108.027 8.77161H116.562C117.414 10.8598 118.265 12.9683 119.117 15.097C119.968 17.246 120.84 19.3748 121.671 21.4832C122.441 19.3748 123.252 17.246 124.063 15.097C124.874 12.948 125.665 10.8395 126.456 8.77161H134.829C132.659 14.205 130.47 19.6992 128.28 25.2744C126.091 30.8497 123.901 36.3439 121.732 41.7773H113.298Z" fill="#6970F3"/>
</svg>
