<svg width="75" height="74" viewBox="0 0 75 74" fill="none" xmlns="http://www.w3.org/2000/svg">
<path d="M54.0199 45.2949C54.0199 45.2949 60.5547 46.476 46.2376 56.6322L31.4229 59.5223L39.4184 60.5456C39.4184 60.5456 79.9974 47.4883 73.8699 35.5523C73.5144 34.8556 72.8421 33.9521 71.9308 33.5439L66.5788 31.394L51.3375 41.4305L54.0199 45.2949Z" fill="#6970F3"/>
<path d="M23.521 39.353C23.521 39.353 13.9535 56.5154 23.521 56.2764C23.521 56.2764 26.9103 56.0373 30.9 52.1148C30.9 52.1148 59.1764 19.7186 73.1984 34.5178C73.1984 34.5178 62.74 31.8394 51.6231 49.2354C51.6231 49.2354 42.0685 64.4365 35.0123 69.6521C35.0123 69.6521 27.3557 75.286 16.8521 73.7267L4.09546 55.5158L12.7914 38.0383L23.521 39.353Z" fill="url(#paint0_linear_2519_9582)"/>
<path d="M21.5829 5.22989C21.5829 5.22989 -6.0406 39.0996 1.95127 61.4638C3.99436 67.1812 9.12462 71.8443 15.9564 73.4313C18.3282 73.9802 21.0415 74.2084 24.0063 73.7682C24.0063 73.7682 10.7681 70.0236 21.2993 44.9474C31.8306 19.8713 59.7312 0.186394 59.7312 0.186394C59.7312 0.186394 39.8031 -1.49296 21.5829 5.22989Z" fill="#6970F3"/>
<defs>
<linearGradient id="paint0_linear_2519_9582" x1="38.6469" y1="30.646" x2="38.6469" y2="103.389" gradientUnits="userSpaceOnUse">
<stop stop-color="white"/>
<stop offset="1" stop-color="#6970F3"/>
</linearGradient>
</defs>
</svg>
