<svg width="16" height="18" viewBox="0 0 16 18" fill="none" xmlns="http://www.w3.org/2000/svg">
<path d="M15.5 7.33366H0.5M11.3333 0.666992V4.00033M4.66667 0.666992V4.00033M4.5 17.3337H11.5C12.9001 17.3337 13.6002 17.3337 14.135 17.0612C14.6054 16.8215 14.9878 16.439 15.2275 15.9686C15.5 15.4339 15.5 14.7338 15.5 13.3337V6.33366C15.5 4.93353 15.5 4.23346 15.2275 3.69868C14.9878 3.22828 14.6054 2.84583 14.135 2.60614C13.6002 2.33366 12.9001 2.33366 11.5 2.33366H4.5C3.09987 2.33366 2.3998 2.33366 1.86502 2.60614C1.39462 2.84583 1.01217 3.22828 0.772484 3.69868C0.5 4.23346 0.5 4.93353 0.5 6.33366V13.3337C0.5 14.7338 0.5 15.4339 0.772484 15.9686C1.01217 16.439 1.39462 16.8215 1.86502 17.0612C2.3998 17.3337 3.09987 17.3337 4.5 17.3337Z" stroke="#7F7F7F" stroke-linecap="round" stroke-linejoin="round"/>
</svg>
