<svg width="30" height="30" viewBox="0 0 30 30" fill="none" xmlns="http://www.w3.org/2000/svg">
<path d="M27.5 14.375V18.25C27.5 21.0503 27.5 22.4504 26.955 23.52C26.4757 24.4608 25.7108 25.2257 24.77 25.705C23.7004 26.25 22.3003 26.25 19.5 26.25H10.5C7.69974 26.25 6.29961 26.25 5.23005 25.705C4.28924 25.2257 3.52433 24.4608 3.04497 23.52C2.5 22.4504 2.5 21.0503 2.5 18.25V11.75C2.5 8.94974 2.5 7.54961 3.04497 6.48005C3.52433 5.53924 4.28924 4.77433 5.23005 4.29497C6.29961 3.75 7.69974 3.75 10.5 3.75H15.625M23.75 10V2.5M20 6.25H27.5M20 15C20 17.7614 17.7614 20 15 20C12.2386 20 10 17.7614 10 15C10 12.2386 12.2386 10 15 10C17.7614 10 20 12.2386 20 15Z" stroke="#7F7F7F" stroke-width="1.8" stroke-linecap="round" stroke-linejoin="round"/>
</svg>
