<svg width="16" height="16" viewBox="0 0 16 16" fill="none" xmlns="http://www.w3.org/2000/svg">
<path d="M10.5 3.00012C11.3284 3.00012 12 2.32853 12 1.50006C12 0.671589 11.3284 0 10.5 0C9.67156 0 9 0.671589 9 1.50006C9 2.32853 9.67156 3.00012 10.5 3.00012ZM5.55281 9.92133L5.09031 11.0001H3C2.44781 11.0001 2 11.4479 2 12.0002C2 12.5524 2.44781 13.0002 3 13.0002H5.42031C6.02187 13.0002 6.56344 12.6427 6.79875 12.0911L7.07344 11.4498L6.74 11.2529C6.19875 10.9332 5.80063 10.4601 5.55281 9.92133ZM14 6.99996H12.6241L11.8097 5.33583C11.4191 4.53736 10.7019 3.95359 9.87906 3.7439L7.65781 3.08325C6.77344 2.87074 5.8525 3.06606 5.13156 3.61889L3.89188 4.56924C3.45344 4.90519 3.37031 5.53272 3.70687 5.97117C4.04344 6.40963 4.67063 6.49182 5.10875 6.15618L6.34906 5.20583C6.58875 5.02176 6.89406 4.95582 7.13875 5.01395L7.59812 5.15051L6.4275 7.88156C6.03312 8.80284 6.38656 9.88195 7.24937 10.3913L9.905 11.9592L9.04656 14.7009C8.88156 15.2278 9.175 15.7887 9.70188 15.9537C9.80156 15.985 9.90219 16 10.0013 16C10.4266 16 10.8209 15.7259 10.955 15.2984L11.9438 12.1402C12.1284 11.4911 11.8534 10.7939 11.2675 10.4404L9.35375 9.31099L10.3322 6.86464L10.9656 8.15938C11.2156 8.67003 11.7444 8.99973 12.3128 8.99973H14C14.5522 8.99973 15 8.5519 15 7.99969C15 7.44748 14.5522 6.99996 14 6.99996Z" fill="#6970F3"/>
</svg>
