<svg width="72" height="68" viewBox="0 0 72 68" fill="none" xmlns="http://www.w3.org/2000/svg">
<path d="M21.4639 13.9767C21.4639 13.9767 8.75169 16.5023 6.12487 34.2949C6.12487 34.2949 1.23376 36.8521 0.0273132 46.0578C-0.329262 52.498 2.83837 57.8396 7.60469 61.3249C12.3413 64.3934 19.0213 68.0429 32.5417 67.4683C58.8931 66.3508 71.6171 55.9391 71.9916 41.0761C72.366 26.2131 60.1649 16.4328 60.1649 16.4328C60.1649 16.4328 63.5643 12.3982 62.6729 6.823C62.3341 4.72046 61.2703 2.78208 59.5706 1.65189C58.0551 0.641658 55.8681 0.117601 53.17 2.04335C53.17 2.04335 48.7899 4.90356 48.3383 11.3817C48.3383 11.3817 40.7787 8.99499 32.1316 10.7818C32.1316 10.7818 33.7065 7.5491 32.8685 3.76074C32.5417 2.29591 31.6086 1.03312 30.3012 0.445926C28.7262 -0.267549 26.3074 -0.450653 23.4845 2.43481C18.4686 7.56173 21.4639 13.9577 21.4639 13.9577V13.9767Z" fill="url(#paint0_linear_3877_22575)"/>
<path d="M9.51183 33.6589C7.08707 33.4063 5.31604 34.4292 3.76491 36.4244C1.99388 38.7037 -0.0326843 42.4353 0.026741 47.5369C0.181259 53.27 3.01609 57.7339 7.46148 61.3392C11.271 63.8395 17.0951 67.0659 26.1821 67.4511C46.0199 68.3035 59.4096 62.6335 64.9723 56.951C66.5472 55.3409 67.4089 53.4783 67.8368 51.641C69.4058 44.904 65.7151 37.9082 59.576 35.8877C56.4381 34.8586 52.1591 34.6691 46.4359 36.557C33.7772 40.7305 26.9903 39.7203 24.6487 39.0889C24.1495 38.9563 23.6681 38.7479 23.2105 38.5017C21.4336 37.5357 15.0626 34.2461 9.51183 33.6652V33.6589Z" fill="url(#paint1_linear_3877_22575)"/>
<path d="M29.4567 30.6148C30.0332 26.5171 27.7986 22.7729 24.4765 22.2488C21.1484 21.7248 17.9867 24.6166 17.4102 28.708C16.8337 32.8057 19.0683 36.5499 22.3964 37.074C25.7245 37.598 28.8862 34.7062 29.4627 30.6148H29.4567Z" fill="white"/>
<path d="M46.2522 31.3785C46.8286 27.2807 44.5941 23.5366 41.2719 23.0125C37.9438 22.4885 34.7821 25.3802 34.2056 29.4717C33.6291 33.5694 35.8637 37.3136 39.1859 37.8376C42.514 38.3617 45.6757 35.4699 46.2522 31.3785Z" fill="white"/>
<path d="M33.5876 10.2333C33.5876 10.2333 30.1941 18.713 31.7928 21.7878C33.3914 24.8627 35.6379 21.3648 35.6379 21.3648C35.6379 21.3648 42.2941 10.4859 44.1899 10.4859C44.1899 10.4859 39.2929 9.4883 33.5935 10.2333H33.5876Z" fill="#687E07"/>
<path d="M37.0996 24.0543C37.0996 24.0543 37.159 24.0543 37.1888 24.0543L45.6338 23.3155C46.0677 23.2776 46.3826 22.9619 46.3351 22.621C46.2876 22.2737 45.8894 22.0275 45.4555 22.0654L37.0105 22.8041C36.5766 22.842 36.2617 23.1577 36.3092 23.4986C36.3567 23.8206 36.6955 24.0606 37.0996 24.0606V24.0543Z" fill="#2E1A10"/>
<path d="M39.1801 35.9937C40.5827 35.9937 41.7178 34.7877 41.7178 33.2976C41.7178 31.8075 40.5827 30.6016 39.1801 30.6016C37.7775 30.6016 36.6424 31.8075 36.6424 33.2976C36.6424 34.7877 37.7775 35.9937 39.1801 35.9937Z" fill="#2E1A10"/>
<path d="M38.413 34.586C38.835 34.586 39.1797 34.2198 39.1797 33.7715C39.1797 33.3232 38.835 32.957 38.413 32.957C37.9911 32.957 37.6464 33.3232 37.6464 33.7715C37.6464 34.2198 37.9911 34.586 38.413 34.586Z" fill="white"/>
<path d="M26.8717 23.7187C27.258 23.7187 27.5848 23.4788 27.6264 23.1568C27.674 22.8095 27.3709 22.5001 26.9489 22.4622L18.8426 21.7235C18.4266 21.6919 18.0463 21.9318 17.9987 22.2791C17.9512 22.6264 18.2543 22.9358 18.6762 22.9736L26.7825 23.7124C26.7825 23.7124 26.842 23.7124 26.8657 23.7124L26.8717 23.7187Z" fill="#2E1A10"/>
<path d="M26.0039 32.9002C26.0039 34.3902 24.8688 35.5962 23.4662 35.5962C22.0637 35.5962 20.9286 34.3902 20.9286 32.9002C20.9286 31.4101 22.0637 30.2041 23.4662 30.2041C24.8688 30.2041 26.0039 31.4101 26.0039 32.9002Z" fill="#2E1A10"/>
<path d="M22.9082 34.1876C23.3301 34.1876 23.6748 33.8214 23.6748 33.3731C23.6748 32.9248 23.3301 32.5586 22.9082 32.5586C22.4862 32.5586 22.1415 32.9248 22.1415 33.3731C22.1415 33.8214 22.4862 34.1876 22.9082 34.1876Z" fill="white"/>
<path d="M54.3462 13.2132C54.4057 13.2132 54.4711 13.2005 54.5305 13.1816C54.8395 13.0743 55.0119 12.7207 54.9108 12.386C54.8514 12.1966 53.6153 7.90947 57.4129 6.2931C57.716 6.16051 57.8645 5.7943 57.7457 5.47229C57.6209 5.15028 57.2762 4.99243 56.9731 5.11871C53.1042 6.77296 53.1933 10.8518 53.7876 12.7775C53.8708 13.0427 54.1026 13.2132 54.3522 13.2132H54.3462Z" fill="#687E07"/>
<path d="M26.7824 11.8492C26.8775 11.8492 26.9725 11.824 27.0617 11.7735C27.3529 11.6093 27.4599 11.2242 27.3054 10.9211C26.3901 9.1153 27.0439 6.76651 27.0498 6.74126C27.1449 6.40662 26.9666 6.05304 26.6516 5.95202C26.3366 5.85099 26.0038 6.04041 25.9087 6.36874C25.8731 6.48239 25.1005 9.24157 26.2534 11.5146C26.3604 11.7293 26.5684 11.8492 26.7764 11.8492H26.7824Z" fill="#687E07"/>
<path d="M20.5598 37.25H23.7869C26.1284 37.25 28.0361 35.2232 28.0361 32.7355V29.5849C28.0361 28.4168 27.1447 27.4697 26.0452 27.4697H18.3014C17.202 27.4697 16.3105 28.4168 16.3105 29.5849V32.7355C16.3105 35.2232 18.2182 37.25 20.5598 37.25ZM26.0452 28.7325C26.4909 28.7325 26.8475 29.1177 26.8475 29.5849V32.7355C26.8475 34.5287 25.4747 35.9872 23.7869 35.9872H20.5598C18.872 35.9872 17.4991 34.5287 17.4991 32.7355V29.5849C17.4991 29.1114 17.8617 28.7325 18.3014 28.7325H26.0452Z" fill="#903912"/>
<path d="M37.8071 37.6172H42.0564C44.3979 37.6172 46.3057 35.5904 46.3057 33.1027V29.9521C46.3057 28.784 45.4142 27.8369 44.3147 27.8369H35.5488C34.4493 27.8369 33.5578 28.784 33.5578 29.9521V33.1027C33.5578 35.5904 35.4656 37.6172 37.8071 37.6172ZM44.3147 29.0997C44.7605 29.0997 45.1171 29.4848 45.1171 29.9521V33.1027C45.1171 34.8959 43.7442 36.3544 42.0564 36.3544H37.8071C36.1193 36.3544 34.7465 34.8959 34.7465 33.1027V29.9521C34.7465 29.4785 35.109 29.0997 35.5488 29.0997H44.3147Z" fill="#903912"/>
<path d="M33.8309 32.8375L34.1162 32.2819C33.932 32.1746 29.6054 29.6806 27.4006 32.143L27.8285 32.5787C29.7184 30.4635 33.7834 32.8123 33.825 32.8312L33.8309 32.8375Z" fill="#903912"/>
<path d="M29.6348 41.1964C32.0477 41.1964 34.0029 39.5674 34.0029 37.5533C34.0029 35.5392 32.0477 33.9102 29.6348 33.9102C27.2219 33.9102 25.2667 35.5392 25.2667 37.5533C25.2667 39.5674 27.2219 41.1964 29.6348 41.1964Z" fill="#2A170C"/>
<path d="M26.8542 46.3169C26.8542 46.3169 26.9671 49.3286 27.1751 50.8629C27.2464 51.3869 27.5911 51.8226 28.0725 51.9868C28.7738 52.2267 29.897 52.4919 30.9727 52.2393C31.2818 52.1699 31.5551 51.9868 31.7513 51.7216C32.2267 51.0776 33.0528 49.5433 33.1538 46.601L26.8542 46.3105V46.3169Z" fill="white"/>
<path d="M39.7204 49.328C39.964 49.328 40.1899 49.1701 40.279 48.9176C40.3919 48.5892 40.2374 48.2293 39.9284 48.1094C39.5302 47.9515 30.057 44.2958 22.3786 47.1307C22.0695 47.2444 21.9031 47.6043 22.0101 47.9326C22.1171 48.2609 22.4558 48.4377 22.7649 48.324C30.0511 45.6406 39.4232 49.2585 39.5124 49.2964C39.5777 49.3216 39.6491 49.3343 39.7204 49.3343V49.328Z" fill="#2A170C"/>
<defs>
<linearGradient id="paint0_linear_3877_22575" x1="35.7569" y1="-0.0339332" x2="36.0788" y2="51.3171" gradientUnits="userSpaceOnUse">
<stop stop-color="#E3FD73"/>
<stop offset="1" stop-color="#9AB71A"/>
</linearGradient>
<linearGradient id="paint1_linear_3877_22575" x1="34.1101" y1="33.621" x2="34.1101" y2="78.5889" gradientUnits="userSpaceOnUse">
<stop stop-color="#F4FFB7"/>
<stop offset="1" stop-color="#E5FF53"/>
</linearGradient>
</defs>
</svg>
