<svg width="24" height="24" viewBox="0 0 24 24" fill="none" xmlns="http://www.w3.org/2000/svg">
<path d="M17.077 9C17.64 9 18 9.47 18 10V15V17C18 18.0609 17.5786 19.0783 16.8284 19.8284C16.0783 20.5786 15.0609 21 14 21H8C6.93913 21 5.92172 20.5786 5.17157 19.8284C4.42143 19.0783 4 18.0609 4 17V9.923C4 9.80179 4.02387 9.68177 4.07026 9.56978C4.11664 9.4578 4.18463 9.35605 4.27034 9.27034C4.35605 9.18463 4.4578 9.11664 4.56978 9.07026C4.68177 9.02387 4.80179 9 4.923 9H17.077Z" fill="#6970F3" stroke="#6970F3" stroke-width="1.5" stroke-linecap="round" stroke-linejoin="round"/>
<path d="M17 3L15 6M13 3L11 6M9 3L7 6M18 10H19.5C20.163 10 20.7989 10.2634 21.2678 10.7322C21.7366 11.2011 22 11.837 22 12.5C22 13.163 21.7366 13.7989 21.2678 14.2678C20.7989 14.7366 20.163 15 19.5 15H18V10Z" stroke="#6970F3" stroke-width="1.5" stroke-linecap="round" stroke-linejoin="round"/>
</svg>
