<svg width="24" height="24" viewBox="0 0 24 24" fill="none" xmlns="http://www.w3.org/2000/svg">
<path d="M18 10H19.5C20.163 10 20.7989 10.2634 21.2678 10.7322C21.7366 11.2011 22 11.837 22 12.5C22 13.163 21.7366 13.7989 21.2678 14.2678C20.7989 14.7366 20.163 15 19.5 15H18M18 10C18 9.47 17.64 9 17.077 9H4.923C4.80179 9 4.68177 9.02387 4.56978 9.07026C4.4578 9.11664 4.35605 9.18463 4.27034 9.27034C4.18463 9.35605 4.11664 9.4578 4.07026 9.56978C4.02387 9.68177 4 9.80179 4 9.923V17C4 18.0609 4.42143 19.0783 5.17157 19.8284C5.92172 20.5786 6.93913 21 8 21H14C15.0609 21 16.0783 20.5786 16.8284 19.8284C17.5786 19.0783 18 18.0609 18 17V15M18 10V15M17 3L15 6M13 3L11 6M9 3L7 6" stroke="#7F7F7F" stroke-width="1.5" stroke-linecap="round" stroke-linejoin="round"/>
</svg>
