<svg width="72" height="72" viewBox="0 0 72 72" fill="none" xmlns="http://www.w3.org/2000/svg">
<path d="M62.8754 28.0657C62.8263 28.9876 62.0311 29.6758 61.1204 29.8272C57.6623 30.402 54.9438 33.3144 54.7499 36.9599C54.5561 40.6053 56.9503 43.7896 60.3279 44.7281C61.2174 44.9752 61.9351 45.7439 61.8861 46.6658L61.5056 53.8202C61.4565 54.7422 60.6694 55.4498 59.7475 55.4007L9.66937 52.7373C8.74745 52.6882 8.03984 51.9011 8.08887 50.9792L8.46939 43.8248C8.51843 42.9029 9.3137 42.2147 10.2244 42.0633C13.6825 41.4885 16.4009 38.576 16.5948 34.9305C16.812 30.8478 13.7834 27.3435 9.76237 26.9245C9.54405 26.9075 9.37917 26.7194 9.3908 26.5007L9.83919 18.0702C9.88823 17.1482 10.6753 16.4406 11.5973 16.4897L61.6754 19.1532C62.5973 19.2022 63.3049 19.9893 63.2559 20.9112L62.8754 28.0657Z" fill="#4C52B0"/>
<path d="M63.9996 28.1625C63.9996 29.0856 63.2421 29.8151 62.3408 30.0147C58.9181 30.7725 56.358 33.825 56.358 37.4756C56.3581 41.1261 58.9182 44.1779 62.3408 44.9356C63.2421 45.1351 63.9996 45.8645 63.9996 46.7877V53.9534C63.9996 54.8766 63.2512 55.625 62.328 55.625H12.1791C11.2559 55.625 10.5074 54.8766 10.5074 53.9534V46.7888C10.5074 45.8656 11.265 45.1361 12.1664 44.9366C15.5891 44.1789 18.149 41.1262 18.149 37.4756C18.149 33.3871 14.9386 30.0485 10.901 29.8438C10.6821 29.8383 10.5074 29.6593 10.5074 29.4403V20.9978C10.5074 20.0746 11.2559 19.3262 12.1791 19.3262H62.328C63.2512 19.3262 63.9996 20.0746 63.9996 20.9978V28.1625Z" fill="url(#paint0_linear_3529_4115)"/>
<path d="M20.0049 27.2867C20.0049 26.7596 20.1122 26.2999 20.3267 25.9076C20.5413 25.5092 20.8385 25.2028 21.2186 24.9882C21.5986 24.7676 22.0338 24.6573 22.5241 24.6573C23.1554 24.6573 23.6764 24.8166 24.0871 25.1353C24.5039 25.4479 24.7828 25.8893 24.9237 26.4593H23.5354C23.4619 26.2386 23.3362 26.067 23.1585 25.9444C22.9869 25.8157 22.7723 25.7513 22.5149 25.7513C22.1472 25.7513 21.856 25.8862 21.6415 26.1559C21.427 26.4194 21.3197 26.7964 21.3197 27.2867C21.3197 27.771 21.427 28.1479 21.6415 28.4176C21.856 28.6812 22.1472 28.813 22.5149 28.813C23.0359 28.813 23.3761 28.58 23.5354 28.1142H24.9237C24.7828 28.6659 24.5039 29.1041 24.0871 29.429C23.6703 29.7538 23.1493 29.9162 22.5241 29.9162C22.0338 29.9162 21.5986 29.809 21.2186 29.5945C20.8385 29.3738 20.5413 29.0673 20.3267 28.675C20.1122 28.2766 20.0049 27.8139 20.0049 27.2867ZM28.1284 29.9162C27.6381 29.9162 27.1968 29.809 26.8045 29.5945C26.4122 29.3738 26.1027 29.0643 25.8759 28.6659C25.6552 28.2674 25.5449 27.8077 25.5449 27.2867C25.5449 26.7658 25.6583 26.3061 25.8851 25.9076C26.118 25.5092 26.4337 25.2028 26.8321 24.9882C27.2305 24.7676 27.6749 24.6573 28.1652 24.6573C28.6556 24.6573 29.0999 24.7676 29.4984 24.9882C29.8968 25.2028 30.2094 25.5092 30.4361 25.9076C30.6691 26.3061 30.7855 26.7658 30.7855 27.2867C30.7855 27.8077 30.666 28.2674 30.4269 28.6659C30.194 29.0643 29.8753 29.3738 29.4708 29.5945C29.0724 29.809 28.6249 29.9162 28.1284 29.9162ZM28.1284 28.7946C28.3614 28.7946 28.5789 28.7394 28.7812 28.6291C28.9896 28.5126 29.1551 28.341 29.2777 28.1142C29.4003 27.8874 29.4616 27.6116 29.4616 27.2867C29.4616 26.8025 29.3329 26.4317 29.0754 26.1743C28.8241 25.9107 28.5146 25.7789 28.1468 25.7789C27.7791 25.7789 27.4695 25.9107 27.2182 26.1743C26.9731 26.4317 26.8505 26.8025 26.8505 27.2867C26.8505 27.771 26.97 28.1449 27.209 28.4084C27.4542 28.6659 27.7607 28.7946 28.1284 28.7946ZM36.5382 24.74V29.8335H35.2418V29.1899C35.0763 29.4106 34.8587 29.5853 34.589 29.714C34.3255 29.8366 34.0374 29.8979 33.7248 29.8979C33.3264 29.8979 32.974 29.8151 32.6675 29.6496C32.361 29.478 32.1189 29.2298 31.9412 28.9049C31.7695 28.5739 31.6837 28.1816 31.6837 27.7281V24.74H32.9709V27.5442C32.9709 27.9487 33.072 28.2613 33.2743 28.482C33.4766 28.6965 33.7524 28.8038 34.1018 28.8038C34.4573 28.8038 34.7361 28.6965 34.9384 28.482C35.1407 28.2613 35.2418 27.9487 35.2418 27.5442V24.74H36.5382ZM39.0953 25.4755C39.2608 25.2426 39.4876 25.0495 39.7757 24.8963C40.0699 24.7369 40.404 24.6573 40.7778 24.6573C41.213 24.6573 41.6053 24.7645 41.9547 24.979C42.3102 25.1936 42.5891 25.5 42.7913 25.8985C42.9997 26.2907 43.1039 26.7474 43.1039 27.2684C43.1039 27.7894 42.9997 28.2521 42.7913 28.6567C42.5891 29.0551 42.3102 29.3646 41.9547 29.5853C41.6053 29.8059 41.213 29.9162 40.7778 29.9162C40.404 29.9162 40.073 29.8396 39.7849 29.6864C39.5029 29.5332 39.2731 29.3401 39.0953 29.1072V32.2607H37.8082V24.74H39.0953V25.4755ZM41.7892 27.2684C41.7892 26.9619 41.7248 26.6983 41.5961 26.4777C41.4735 26.2509 41.308 26.0793 41.0996 25.9628C40.8974 25.8464 40.6767 25.7881 40.4377 25.7881C40.2048 25.7881 39.9841 25.8494 39.7757 25.972C39.5734 26.0885 39.4079 26.2601 39.2792 26.4869C39.1566 26.7137 39.0953 26.9803 39.0953 27.2867C39.0953 27.5932 39.1566 27.8598 39.2792 28.0866C39.4079 28.3134 39.5734 28.4881 39.7757 28.6107C39.9841 28.7271 40.2048 28.7854 40.4377 28.7854C40.6767 28.7854 40.8974 28.7241 41.0996 28.6015C41.308 28.4789 41.4735 28.3042 41.5961 28.0774C41.7248 27.8506 41.7892 27.581 41.7892 27.2684ZM46.301 29.9162C45.8107 29.9162 45.3694 29.809 44.9771 29.5945C44.5848 29.3738 44.2753 29.0643 44.0485 28.6659C43.8278 28.2674 43.7175 27.8077 43.7175 27.2867C43.7175 26.7658 43.8309 26.3061 44.0577 25.9076C44.2906 25.5092 44.6063 25.2028 45.0047 24.9882C45.4031 24.7676 45.8474 24.6573 46.3378 24.6573C46.8281 24.6573 47.2725 24.7676 47.6709 24.9882C48.0693 25.2028 48.3819 25.5092 48.6087 25.9076C48.8416 26.3061 48.9581 26.7658 48.9581 27.2867C48.9581 27.8077 48.8386 28.2674 48.5995 28.6659C48.3666 29.0643 48.0479 29.3738 47.6433 29.5945C47.2449 29.809 46.7975 29.9162 46.301 29.9162ZM46.301 28.7946C46.5339 28.7946 46.7515 28.7394 46.9538 28.6291C47.1622 28.5126 47.3277 28.341 47.4503 28.1142C47.5729 27.8874 47.6342 27.6116 47.6342 27.2867C47.6342 26.8025 47.5054 26.4317 47.248 26.1743C46.9967 25.9107 46.6872 25.7789 46.3194 25.7789C45.9516 25.7789 45.6421 25.9107 45.3908 26.1743C45.1456 26.4317 45.023 26.8025 45.023 27.2867C45.023 27.771 45.1426 28.1449 45.3816 28.4084C45.6268 28.6659 45.9333 28.7946 46.301 28.7946ZM52.7248 24.6665C53.3317 24.6665 53.822 24.8595 54.1959 25.2457C54.5698 25.6257 54.7567 26.1589 54.7567 26.8454V29.8335H53.4696V27.0201C53.4696 26.6156 53.3684 26.3061 53.1662 26.0915C52.9639 25.8709 52.6881 25.7605 52.3387 25.7605C51.9832 25.7605 51.7012 25.8709 51.4928 26.0915C51.2906 26.3061 51.1894 26.6156 51.1894 27.0201V29.8335H49.9023V24.74H51.1894V25.3744C51.3611 25.1537 51.5787 24.9821 51.8422 24.8595C52.1119 24.7308 52.4061 24.6665 52.7248 24.6665Z" fill="#4C51B0"/>
<path d="M29.6376 38.6664C29.6376 37.65 29.9318 36.8543 30.5202 36.2793C31.122 35.7042 31.891 35.4167 32.8271 35.4167C33.7632 35.4167 34.5255 35.7042 35.1139 36.2793C35.7157 36.8543 36.0166 37.65 36.0166 38.6664C36.0166 39.6961 35.7157 40.4985 35.1139 41.0735C34.5255 41.6486 33.7632 41.9361 32.8271 41.9361C31.891 41.9361 31.122 41.6486 30.5202 41.0735C29.9318 40.4985 29.6376 39.6961 29.6376 38.6664ZM42.5159 35.6574L34.6325 49.6992H31.9043L39.7677 35.6574H42.5159ZM32.807 37.1017C32.0715 37.1017 31.7037 37.6233 31.7037 38.6664C31.7037 39.7229 32.0715 40.2511 32.807 40.2511C33.1681 40.2511 33.4489 40.1241 33.6495 39.87C33.8501 39.6025 33.9504 39.2013 33.9504 38.6664C33.9504 37.6233 33.5693 37.1017 32.807 37.1017ZM38.4438 46.6702C38.4438 45.6405 38.738 44.8448 39.3264 44.2831C39.9282 43.7081 40.6972 43.4205 41.6333 43.4205C42.5694 43.4205 43.325 43.7081 43.9 44.2831C44.4885 44.8448 44.7827 45.6405 44.7827 46.6702C44.7827 47.6999 44.4885 48.5023 43.9 49.0774C43.325 49.6524 42.5694 49.9399 41.6333 49.9399C40.6838 49.9399 39.9148 49.6524 39.3264 49.0774C38.738 48.5023 38.4438 47.6999 38.4438 46.6702ZM41.6132 45.1055C40.851 45.1055 40.4698 45.6271 40.4698 46.6702C40.4698 47.7267 40.851 48.2549 41.6132 48.2549C42.3621 48.2549 42.7366 47.7267 42.7366 46.6702C42.7366 45.6271 42.3621 45.1055 41.6132 45.1055Z" fill="#4C51B0"/>
<defs>
<linearGradient id="paint0_linear_3529_4115" x1="1.73138" y1="37.4756" x2="96.1785" y2="37.4756" gradientUnits="userSpaceOnUse">
<stop stop-color="#6970F3"/>
<stop offset="1" stop-color="#F0F1FE"/>
</linearGradient>
</defs>
</svg>
