<svg width="44" height="31" viewBox="0 0 44 31" fill="none" xmlns="http://www.w3.org/2000/svg">
<path d="M42.9044 9.51779C42.8662 10.2348 42.2477 10.7701 41.5394 10.8878C38.8498 11.3349 36.7356 13.6001 36.5847 16.4354C36.4158 19.611 38.7714 22.3374 41.8991 22.663C42.0686 22.6758 42.1968 22.8217 42.1878 22.9914L41.839 29.549C41.8008 30.2661 41.1887 30.8165 40.4716 30.7783L1.52152 28.7067C0.80447 28.6686 0.254104 28.0564 0.292241 27.3393L0.588206 21.7747C0.626344 21.0576 1.24489 20.5223 1.95323 20.4046C4.6428 19.9575 6.75696 17.6923 6.90789 14.857C7.0587 12.0216 5.19673 9.54423 2.56968 8.81423C1.87783 8.62198 1.31955 8.02413 1.35769 7.30708L1.6536 1.7434C1.69174 1.02635 2.30394 0.475985 3.02099 0.514122L41.9711 2.58575C42.6881 2.62388 43.2385 3.23608 43.2003 3.95313L42.9044 9.51779Z" fill="#4C52B0"/>
<path d="M43.7793 9.59253C43.7793 10.3106 43.1901 10.878 42.489 11.0331C39.8269 11.6224 37.8359 13.9966 37.8359 16.8361C37.836 20.0161 40.333 22.6126 43.4736 22.7716C43.6437 22.776 43.7793 22.9151 43.7793 23.0852V29.6521C43.7793 30.3702 43.1972 30.9523 42.4791 30.9523H3.47399C2.75593 30.9523 2.17383 30.3702 2.17383 29.6521V24.0796C2.17383 23.3615 2.76307 22.7942 3.46416 22.639C6.12624 22.0497 8.11715 19.6755 8.11719 16.8361C8.11719 13.656 5.62009 11.0595 2.47949 10.9005C2.30943 10.8962 2.17383 10.7571 2.17383 10.5869V4.02001C2.17383 3.30195 2.75593 2.71985 3.47399 2.71985H42.4791C43.1972 2.71985 43.7793 3.30195 43.7793 4.02001V9.59253Z" fill="url(#paint0_linear_4585_554)"/>
<path d="M9.5602 8.68949C9.5602 8.2795 9.64363 7.92195 9.81048 7.61685C9.97734 7.30698 10.2085 7.06861 10.5041 6.90176C10.7997 6.73014 11.1382 6.64432 11.5195 6.64432C12.0106 6.64432 12.4158 6.76827 12.7352 7.01617C13.0594 7.2593 13.2763 7.60255 13.3859 8.0459H12.3061C12.2489 7.87428 12.1512 7.7408 12.013 7.64545C11.8795 7.54534 11.7126 7.49528 11.5124 7.49528C11.2264 7.49528 10.9999 7.60016 10.8331 7.80992C10.6662 8.01492 10.5828 8.3081 10.5828 8.68949C10.5828 9.0661 10.6662 9.35929 10.8331 9.56905C10.9999 9.77404 11.2264 9.87654 11.5124 9.87654C11.9176 9.87654 12.1822 9.69538 12.3061 9.33307H13.3859C13.2763 9.76212 13.0594 10.103 12.7352 10.3556C12.411 10.6083 12.0058 10.7346 11.5195 10.7346C11.1382 10.7346 10.7997 10.6512 10.5041 10.4844C10.2085 10.3127 9.97734 10.0744 9.81048 9.76927C9.64363 9.4594 9.5602 9.09947 9.5602 8.68949ZM15.8785 10.7346C15.4971 10.7346 15.1539 10.6512 14.8487 10.4844C14.5436 10.3127 14.3029 10.072 14.1265 9.76212C13.9549 9.45225 13.8691 9.0947 13.8691 8.68949C13.8691 8.28427 13.9573 7.92672 14.1337 7.61685C14.3148 7.30698 14.5603 7.06861 14.8702 6.90176C15.1801 6.73014 15.5257 6.64432 15.9071 6.64432C16.2885 6.64432 16.6341 6.73014 16.944 6.90176C17.2538 7.06861 17.497 7.30698 17.6734 7.61685C17.8545 7.92672 17.9451 8.28427 17.9451 8.68949C17.9451 9.0947 17.8521 9.45225 17.6662 9.76212C17.485 10.072 17.2372 10.3127 16.9225 10.4844C16.6126 10.6512 16.2646 10.7346 15.8785 10.7346ZM15.8785 9.86223C16.0596 9.86223 16.2289 9.81933 16.3862 9.73352C16.5483 9.64294 16.677 9.50946 16.7723 9.33307C16.8677 9.15668 16.9154 8.94215 16.9154 8.68949C16.9154 8.31287 16.8152 8.02445 16.615 7.82422C16.4196 7.61923 16.1788 7.51674 15.8928 7.51674C15.6067 7.51674 15.366 7.61923 15.1705 7.82422C14.9798 8.02445 14.8845 8.31287 14.8845 8.68949C14.8845 9.0661 14.9775 9.3569 15.1634 9.5619C15.3541 9.76212 15.5924 9.86223 15.8785 9.86223ZM22.4194 6.70868V10.6703H21.4111V10.1697C21.2824 10.3413 21.1131 10.4772 20.9034 10.5773C20.6984 10.6727 20.4743 10.7203 20.2312 10.7203C19.9213 10.7203 19.6472 10.656 19.4088 10.5273C19.1705 10.3938 18.9822 10.2007 18.8439 9.94805C18.7104 9.69061 18.6437 9.38551 18.6437 9.03273V6.70868H19.6448V8.88971C19.6448 9.20435 19.7235 9.44748 19.8808 9.6191C20.0381 9.78596 20.2527 9.86939 20.5244 9.86939C20.8009 9.86939 21.0178 9.78596 21.1751 9.6191C21.3324 9.44748 21.4111 9.20435 21.4111 8.88971V6.70868H22.4194ZM24.4083 7.28076C24.537 7.0996 24.7134 6.94943 24.9375 6.83025C25.1663 6.7063 25.4261 6.64432 25.7169 6.64432C26.0554 6.64432 26.3605 6.72775 26.6322 6.89461C26.9087 7.06146 27.1256 7.29982 27.283 7.6097C27.445 7.9148 27.5261 8.26996 27.5261 8.67518C27.5261 9.0804 27.445 9.44033 27.283 9.75497C27.1256 10.0648 26.9087 10.3056 26.6322 10.4772C26.3605 10.6488 26.0554 10.7346 25.7169 10.7346C25.4261 10.7346 25.1687 10.6751 24.9446 10.5559C24.7253 10.4367 24.5465 10.2865 24.4083 10.1054V12.5581H23.4072V6.70868H24.4083V7.28076ZM26.5035 8.67518C26.5035 8.43682 26.4534 8.23183 26.3533 8.0602C26.258 7.88382 26.1293 7.75033 25.9672 7.65975C25.8099 7.56918 25.6382 7.52389 25.4523 7.52389C25.2712 7.52389 25.0995 7.57156 24.9375 7.6669C24.7801 7.75748 24.6514 7.89097 24.5513 8.06736C24.456 8.24374 24.4083 8.45112 24.4083 8.68949C24.4083 8.92785 24.456 9.13523 24.5513 9.31161C24.6514 9.488 24.7801 9.62387 24.9375 9.71922C25.0995 9.80979 25.2712 9.85508 25.4523 9.85508C25.6382 9.85508 25.8099 9.80741 25.9672 9.71207C26.1293 9.61672 26.258 9.48085 26.3533 9.30446C26.4534 9.12807 26.5035 8.91831 26.5035 8.67518ZM30.0127 10.7346C29.6313 10.7346 29.2881 10.6512 28.983 10.4844C28.6779 10.3127 28.4371 10.072 28.2607 9.76212C28.0891 9.45225 28.0033 9.0947 28.0033 8.68949C28.0033 8.28427 28.0915 7.92672 28.2679 7.61685C28.449 7.30698 28.6946 7.06861 29.0044 6.90176C29.3143 6.73014 29.6599 6.64432 30.0413 6.64432C30.4227 6.64432 30.7683 6.73014 31.0782 6.90176C31.3881 7.06861 31.6312 7.30698 31.8076 7.61685C31.9887 7.92672 32.0793 8.28427 32.0793 8.68949C32.0793 9.0947 31.9864 9.45225 31.8004 9.76212C31.6193 10.072 31.3714 10.3127 31.0567 10.4844C30.7469 10.6512 30.3989 10.7346 30.0127 10.7346ZM30.0127 9.86223C30.1939 9.86223 30.3631 9.81933 30.5204 9.73352C30.6825 9.64294 30.8112 9.50946 30.9066 9.33307C31.0019 9.15668 31.0496 8.94215 31.0496 8.68949C31.0496 8.31287 30.9495 8.02445 30.7492 7.82422C30.5538 7.61923 30.313 7.51674 30.027 7.51674C29.741 7.51674 29.5002 7.61923 29.3048 7.82422C29.1141 8.02445 29.0187 8.31287 29.0187 8.68949C29.0187 9.0661 29.1117 9.3569 29.2976 9.5619C29.4883 9.76212 29.7267 9.86223 30.0127 9.86223ZM35.009 6.65147C35.481 6.65147 35.8624 6.80164 36.1532 7.10198C36.444 7.39755 36.5894 7.81231 36.5894 8.34624V10.6703H35.5882V8.48211C35.5882 8.16747 35.5096 7.92672 35.3523 7.75987C35.1949 7.58824 34.9804 7.50243 34.7087 7.50243C34.4322 7.50243 34.2129 7.58824 34.0508 7.75987C33.8935 7.92672 33.8148 8.16747 33.8148 8.48211V10.6703H32.8137V6.70868H33.8148V7.2021C33.9483 7.03047 34.1175 6.89699 34.3225 6.80164C34.5323 6.70153 34.7611 6.65147 35.009 6.65147Z" fill="#4C51B0"/>
<path d="M17.0519 17.54C17.0519 16.7495 17.2807 16.1306 17.7384 15.6834C18.2064 15.2361 18.8045 15.0125 19.5326 15.0125C20.2607 15.0125 20.8536 15.2361 21.3112 15.6834C21.7793 16.1306 22.0133 16.7495 22.0133 17.54C22.0133 18.3409 21.7793 18.965 21.3112 19.4122C20.8536 19.8595 20.2607 20.0831 19.5326 20.0831C18.8045 20.0831 18.2064 19.8595 17.7384 19.4122C17.2807 18.965 17.0519 18.3409 17.0519 17.54ZM27.0684 15.1997L20.9368 26.1211H18.8149L24.9309 15.1997H27.0684ZM19.517 16.323C18.9449 16.323 18.6589 16.7287 18.6589 17.54C18.6589 18.3617 18.9449 18.7726 19.517 18.7726C19.7978 18.7726 20.0163 18.6737 20.1723 18.4761C20.3283 18.2681 20.4063 17.9561 20.4063 17.54C20.4063 16.7287 20.1099 16.323 19.517 16.323ZM23.9012 23.7652C23.9012 22.9643 24.13 22.3454 24.5876 21.9086C25.0557 21.4613 25.6538 21.2377 26.3819 21.2377C27.11 21.2377 27.6976 21.4613 28.1449 21.9086C28.6026 22.3454 28.8314 22.9643 28.8314 23.7652C28.8314 24.5661 28.6026 25.1902 28.1449 25.6374C27.6976 26.0847 27.11 26.3083 26.3819 26.3083C25.6434 26.3083 25.0453 26.0847 24.5876 25.6374C24.13 25.1902 23.9012 24.5661 23.9012 23.7652ZM26.3663 22.5482C25.7734 22.5482 25.477 22.9539 25.477 23.7652C25.477 24.5869 25.7734 24.9978 26.3663 24.9978C26.9487 24.9978 27.24 24.5869 27.24 23.7652C27.24 22.9539 26.9487 22.5482 26.3663 22.5482Z" fill="#4C51B0"/>
<defs>
<linearGradient id="paint0_linear_4585_554" x1="-4.65207" y1="16.8361" x2="68.8076" y2="16.8361" gradientUnits="userSpaceOnUse">
<stop stop-color="#6970F3"/>
<stop offset="1" stop-color="#F0F1FE"/>
</linearGradient>
</defs>
</svg>
