<svg width="20" height="20" viewBox="0 0 20 20" fill="none" xmlns="http://www.w3.org/2000/svg">
<path d="M15.9372 10.2567L15.7847 11.6775L17.0263 11.8108L17.1797 10.3908L15.9372 10.2567ZM10.9063 16.875H9.09301V18.125H10.9063V16.875ZM4.21467 11.6775L4.06217 10.2567L2.81967 10.39L2.97217 11.8108L4.21467 11.6775ZM7.84551 9.41583L9.33717 6.7425L8.24551 6.13333L6.75384 8.8075L7.84551 9.41583ZM10.6622 6.7425L12.1538 9.41583L13.2455 8.8075L11.7538 6.13333L10.6622 6.7425ZM12.1538 9.41583C12.2888 9.6575 12.4122 9.8825 12.533 10.0533C12.6572 10.2292 12.8247 10.4242 13.0838 10.5383L13.588 9.39417C13.6347 9.41417 13.6263 9.43583 13.5555 9.335C13.4442 9.164 13.3407 8.98799 13.2455 8.8075L12.1538 9.41583ZM14.1172 8.92833C13.9022 9.14333 13.7738 9.27 13.673 9.35083C13.5772 9.42833 13.5755 9.40583 13.6255 9.39917L13.7963 10.6375C14.0763 10.5983 14.2922 10.4575 14.4597 10.3225C14.6222 10.1908 14.803 10.0092 14.9997 9.81417L14.1172 8.92833ZM13.0838 10.5383C13.308 10.6367 13.5547 10.6708 13.7963 10.6375L13.6255 9.39917C13.6128 9.4004 13.6 9.39869 13.588 9.39417L13.0838 10.5383ZM5.00051 9.81333C5.19634 10.0092 5.37717 10.1908 5.53967 10.3217C5.70717 10.4583 5.92301 10.5983 6.20301 10.6375L6.37384 9.39917C6.42384 9.40583 6.42217 9.42833 6.32634 9.35083C6.17189 9.21688 6.02367 9.0759 5.88217 8.92833L5.00051 9.81333ZM6.75384 8.8075C6.65836 8.988 6.55464 9.16402 6.44301 9.335C6.37301 9.435 6.36467 9.41417 6.41134 9.39333L6.91467 10.5383C7.17301 10.4242 7.34301 10.23 7.46634 10.0533C7.58634 9.88167 7.71051 9.6575 7.84551 9.41583L6.75384 8.8075ZM6.20301 10.6375C6.44467 10.6708 6.69134 10.6375 6.91467 10.5383L6.41134 9.39333C6.39939 9.39785 6.38656 9.4004 6.37384 9.39917L6.20301 10.6375ZM9.09301 16.875C7.89467 16.875 7.05551 16.8742 6.41551 16.7917C5.79217 16.7125 5.44051 16.5642 5.17634 16.3283L4.34301 17.26C4.86801 17.73 5.50134 17.935 6.25634 18.0317C6.99467 18.1258 7.92801 18.125 9.09301 18.125V16.875ZM2.97217 11.8108C3.09551 12.9592 3.19384 14.0833 3.36051 14.995C3.44467 15.455 3.55134 15.8883 3.69801 16.2642C3.84384 16.6375 4.04551 16.9933 4.34301 17.26L5.17634 16.3283C5.07967 16.2417 4.96967 16.0833 4.86217 15.8092C4.75662 15.5381 4.66606 15.1917 4.59051 14.77C4.43384 13.9183 4.34217 12.87 4.21467 11.6775L2.97217 11.8108ZM15.7847 11.6775C15.6563 12.87 15.5647 13.9183 15.4097 14.7692C15.333 15.1914 15.2422 15.5381 15.1372 15.8092C15.0297 16.0833 14.9197 16.2425 14.823 16.3283L15.6563 17.26C15.9538 16.9933 16.1555 16.6375 16.3013 16.2642C16.448 15.8883 16.5547 15.455 16.6388 14.995C16.8055 14.0833 16.9038 12.9583 17.0272 11.8108L15.7847 11.6775ZM10.9063 18.125C12.0713 18.125 13.0047 18.1258 13.743 18.0317C14.4988 17.935 15.1313 17.73 15.6563 17.26L14.823 16.3283C14.5588 16.5642 14.2072 16.7117 13.5838 16.7917C12.9438 16.8742 12.1047 16.875 10.9063 16.875V18.125ZM8.95801 4.16667C8.95801 3.59167 9.42467 3.125 9.99967 3.125V1.875C9.39189 1.875 8.80899 2.11644 8.37922 2.54621C7.94945 2.97598 7.70801 3.55888 7.70801 4.16667H8.95801ZM9.99967 3.125C10.5747 3.125 11.0413 3.59167 11.0413 4.16667H12.2913C12.2913 3.55888 12.0499 2.97598 11.6201 2.54621C11.1904 2.11644 10.6075 1.875 9.99967 1.875V3.125ZM17.2913 7.5C17.2913 7.66576 17.2255 7.82473 17.1083 7.94194C16.9911 8.05915 16.8321 8.125 16.6663 8.125V9.375C17.1636 9.375 17.6405 9.17746 17.9922 8.82582C18.3438 8.47419 18.5413 7.99728 18.5413 7.5H17.2913ZM16.0413 7.5C16.0413 7.33424 16.1072 7.17527 16.2244 7.05806C16.3416 6.94085 16.5006 6.875 16.6663 6.875V5.625C16.1691 5.625 15.6921 5.82254 15.3405 6.17417C14.9889 6.52581 14.7913 7.00272 14.7913 7.5H16.0413ZM16.6663 6.875C16.8321 6.875 16.9911 6.94085 17.1083 7.05806C17.2255 7.17527 17.2913 7.33424 17.2913 7.5H18.5413C18.5413 7.00272 18.3438 6.52581 17.9922 6.17417C17.6405 5.82254 17.1636 5.625 16.6663 5.625V6.875ZM3.33301 8.125C3.16725 8.125 3.00828 8.05915 2.89107 7.94194C2.77386 7.82473 2.70801 7.66576 2.70801 7.5H1.45801C1.45801 7.99728 1.65555 8.47419 2.00718 8.82582C2.35881 9.17746 2.83573 9.375 3.33301 9.375V8.125ZM2.70801 7.5C2.70801 7.33424 2.77386 7.17527 2.89107 7.05806C3.00828 6.94085 3.16725 6.875 3.33301 6.875V5.625C2.83573 5.625 2.35881 5.82254 2.00718 6.17417C1.65555 6.52581 1.45801 7.00272 1.45801 7.5H2.70801ZM3.33301 6.875C3.49877 6.875 3.65774 6.94085 3.77495 7.05806C3.89216 7.17527 3.95801 7.33424 3.95801 7.5H5.20801C5.20801 7.00272 5.01046 6.52581 4.65883 6.17417C4.3072 5.82254 3.83029 5.625 3.33301 5.625V6.875ZM16.6663 8.125H16.6588L16.6447 9.375H16.6663V8.125ZM17.1797 10.3908C17.2205 10.0158 17.2555 9.68833 17.2747 9.415C17.298 9.16604 17.2969 8.9154 17.2713 8.66667L16.0322 8.83333C16.0447 8.925 16.0455 9.075 16.028 9.32667C16.0113 9.57167 15.9788 9.87417 15.9372 10.2567L17.1797 10.3908ZM16.6588 8.125C16.5703 8.12395 16.4829 8.1041 16.4026 8.06674C16.3223 8.02939 16.2509 7.97539 16.193 7.90833L15.2472 8.725C15.5855 9.11667 16.0855 9.36833 16.6447 9.375L16.6588 8.125ZM16.193 7.90833C16.0945 7.7952 16.0405 7.65003 16.0413 7.5H14.7913C14.7913 7.9675 14.9638 8.39667 15.2472 8.725L16.193 7.90833ZM14.9997 9.81417C15.5638 9.25167 15.8547 8.96833 16.048 8.84833L15.3922 7.785C15.0422 8.00167 14.6222 8.425 14.1172 8.92833L14.9997 9.81417ZM3.95801 7.5C3.95881 7.65003 3.90489 7.7952 3.80634 7.90833L4.75217 8.725C5.03551 8.39667 5.20801 7.9675 5.20801 7.5H3.95801ZM5.88217 8.92833C5.37717 8.425 4.95717 8.00083 4.60717 7.785L3.95134 8.84833C4.14467 8.96833 4.43467 9.25167 4.99967 9.81417L5.88217 8.92833ZM3.80634 7.90833C3.74848 7.97539 3.67703 8.02939 3.59672 8.06674C3.51641 8.1041 3.42907 8.12395 3.34051 8.125L3.35467 9.375C3.62037 9.37187 3.88237 9.31229 4.1233 9.20023C4.36423 9.08817 4.57859 8.92618 4.75217 8.725L3.80634 7.90833ZM3.34051 8.125H3.33301V9.375H3.35467L3.34051 8.125ZM4.06217 10.2567C4.02663 9.9472 3.99635 9.63716 3.97134 9.32667C3.95369 9.16276 3.95229 8.99751 3.96717 8.83333L2.72801 8.66667C2.70249 8.9154 2.70138 9.16604 2.72467 9.415C2.74384 9.68833 2.77884 10.015 2.81967 10.39L4.06217 10.2567ZM11.0413 4.16667C11.0413 4.57083 10.8113 4.9225 10.4722 5.09583L11.0397 6.20917C11.4164 6.0173 11.7327 5.72496 11.9536 5.36448C12.1745 5.00401 12.2914 4.58945 12.2913 4.16667H11.0413ZM10.4722 5.09583C10.3305 5.1675 10.1713 5.20833 9.99967 5.20833V6.45833C10.3615 6.45865 10.7183 6.37296 11.0405 6.20833L10.4722 5.09583ZM11.7538 6.13333C11.5822 5.825 11.428 5.5475 11.2863 5.32083L10.2263 5.98333C10.348 6.17833 10.4847 6.42583 10.6622 6.7425L11.7538 6.13333ZM9.99967 5.20833C9.82801 5.20833 9.66801 5.16667 9.52717 5.09583L8.95967 6.20917C9.27217 6.36833 9.62634 6.45833 9.99967 6.45833V5.20833ZM9.52717 5.09583C9.35577 5.00859 9.21187 4.87561 9.11141 4.71161C9.01095 4.5476 8.95785 4.35899 8.95801 4.16667H7.70801C7.70809 4.5893 7.82504 5.00369 8.04593 5.364C8.26683 5.72432 8.58306 6.01653 8.95967 6.20833L9.52717 5.09583ZM9.33717 6.7425C9.51384 6.42417 9.65134 6.17833 9.77301 5.98417L8.71301 5.32083C8.57134 5.5475 8.41717 5.825 8.24551 6.13333L9.33717 6.7425Z" fill="#6970F3"/>
<path d="M4.16699 14.5834H15.8337" stroke="#6970F3" stroke-width="1.5" stroke-linecap="round"/>
</svg>
