<svg width="85" height="86" viewBox="0 0 85 86" fill="none" xmlns="http://www.w3.org/2000/svg">
<path d="M51.3022 7.59454L51.8439 8.03635L52.5423 7.92234L63.7464 6.12656L67.7947 16.7302L68.0513 17.3858L68.707 17.6423L79.3124 21.6899L77.5163 32.8922L77.4023 33.5905L77.8442 34.1321L85 42.9399L77.8442 51.7478L77.4023 52.2894L77.5163 52.9877L79.3124 64.1899L68.707 68.2376L68.0513 68.4941L67.7947 69.1497L63.7464 79.7533L52.5423 77.9576L51.8439 77.8435L51.3022 78.2853L42.4929 85.4399L33.6835 78.2853L33.1419 77.8435L32.4434 77.9576L21.2393 79.7533L17.191 69.1497L16.9344 68.4941L16.2787 68.2376L5.67332 64.1899L7.46939 52.9877L7.58343 52.2894L7.14154 51.7478L0 42.9399L7.15579 34.1321L7.59769 33.5905L7.48365 32.8922L5.68757 21.6899L16.293 17.6423L16.9487 17.3858L17.2053 16.7302L21.2536 6.12656L32.4577 7.92234L33.1561 8.03635L33.6978 7.59454L42.5071 0.439941L51.3165 7.59454H51.3022Z" fill="#6970F3"/>
<path d="M42.5071 76.1483C60.4408 76.1483 74.979 61.6125 74.979 43.6818C74.979 25.7511 60.4408 11.2153 42.5071 11.2153C24.5733 11.2153 10.0352 25.7511 10.0352 43.6818C10.0352 61.6125 24.5733 76.1483 42.5071 76.1483Z" fill="#E3F389"/>
<path d="M42.5071 62.3658C52.828 62.3658 61.1948 54.0004 61.1948 43.6812C61.1948 33.362 52.828 24.9966 42.5071 24.9966C32.1861 24.9966 23.8193 33.362 23.8193 43.6812C23.8193 54.0004 32.1861 62.3658 42.5071 62.3658Z" fill="#ED5E11"/>
<path d="M22.5071 58.3529L20.7391 59.3392L20.4185 58.7646L18.8224 59.655L17.7098 57.6613L21.9726 55.2832C22.7976 54.8229 23.5629 54.6901 24.2682 54.8847C24.9787 55.0808 25.5614 55.5864 26.0164 56.4016C26.4548 57.1873 26.5712 57.8844 26.3655 58.4928C26.1631 59.0995 25.6297 59.6439 24.7653 60.1261L20.4338 62.5425L19.3212 60.5488L23.5201 58.2063C23.782 58.0602 23.9464 57.9277 24.0132 57.8089C24.08 57.6901 24.0686 57.5504 23.9791 57.39C23.8055 57.079 23.4863 57.0532 23.0214 57.3126L22.1865 57.7783L22.5071 58.3529Z" fill="#ED5E11"/>
<path d="M28.9657 65.8846L30.7484 67.4778C29.8278 68.3193 28.882 68.7706 27.9107 68.8317C26.9423 68.8952 26.0292 68.5631 25.1715 67.8356C24.2995 67.0959 23.8164 66.1847 23.7223 65.102C23.6334 64.0188 23.9565 63.0441 24.6914 62.178C25.4312 61.3061 26.3522 60.8262 27.4542 60.7385C28.5592 60.6532 29.5505 60.9828 30.4282 61.7273C31.2917 62.4597 31.7647 63.3624 31.8474 64.4354C31.9057 65.178 31.7121 65.9798 31.2667 66.8409L29.2956 65.3828C29.6303 64.5654 29.506 63.9094 28.9227 63.4147C28.551 63.0994 28.1345 62.9673 27.6732 63.0185C27.2147 63.0721 26.8169 63.2975 26.4798 63.6949C26.1547 64.0779 26.0041 64.4959 26.028 64.9487C26.0543 65.3987 26.249 65.7777 26.6121 66.0857C26.9809 66.3985 27.3673 66.5371 27.7714 66.5013C28.1783 66.4679 28.5764 66.2623 28.9657 65.8846Z" fill="#ED5E11"/>
<path d="M35.7485 68.0667L35.088 69.9804L34.4873 69.7732L33.5387 72.5214L31.3804 71.7767L33.8849 64.5206L36.0432 65.2653L35.1478 67.8595L35.7485 68.0667ZM39.1691 66.3439L36.6645 73.6L34.5062 72.8553L37.0108 65.5992L39.1691 66.3439Z" fill="#ED5E11"/>
<path d="M42.5583 66.5145L42.0347 74.1728L39.7569 74.0171L40.2804 66.3588L42.5583 66.5145Z" fill="#ED5E11"/>
<path d="M48.2469 68.8476L48.5217 70.5349L47.0509 70.7744C46.851 70.807 46.7134 70.8598 46.6379 70.9328C46.5662 71.0053 46.5417 71.1118 46.5646 71.2524C46.5906 71.4116 46.6503 71.5101 46.7438 71.548C46.8368 71.5823 47.0146 71.578 47.2773 71.5352L48.7926 71.2885L49.1452 73.4532L47.3746 73.7415C46.542 73.8771 45.8733 73.7827 45.3685 73.4585C44.8631 73.1306 44.5492 72.591 44.4268 71.8399L43.9431 68.8704C43.825 68.1451 43.9406 67.5489 44.2899 67.0818C44.643 66.6141 45.1969 66.3188 45.9518 66.1958L47.9111 65.8768L48.2655 68.0526L46.828 68.2867C46.4394 68.3499 46.2656 68.5074 46.3066 68.759C46.3307 68.907 46.3939 69.0031 46.496 69.0472C46.5976 69.0877 46.7668 69.0886 47.0036 69.05L48.2469 68.8476Z" fill="#ED5E11"/>
<path d="M53.6936 63.2901L54.12 72.057L47.6581 66.1284L50.0499 65.0036L51.7058 66.8723L51.3883 64.3742L53.6936 63.2901Z" fill="#ED5E11"/>
<path d="M58.6811 62.6658L59.8102 63.9494L58.6911 64.9335C58.5391 65.0672 58.4505 65.185 58.4253 65.287C58.403 65.3865 58.4389 65.4897 58.533 65.5967C58.6395 65.7178 58.7424 65.7695 58.8418 65.752C58.9388 65.7316 59.0872 65.6336 59.2871 65.4578L60.44 64.444L61.8885 66.0908L60.5413 67.2754C59.9079 67.8324 59.2911 68.1077 58.6912 68.101C58.0887 68.0916 57.5361 67.8012 57.0335 67.2297L55.0464 64.9707C54.5611 64.4189 54.3424 63.8524 54.3903 63.2711C54.441 62.6873 54.7536 62.1429 55.3279 61.6379L56.8187 60.3271L58.2747 61.9823L57.1809 62.9441C56.8852 63.204 56.8216 63.4297 56.99 63.6211C57.089 63.7337 57.1936 63.7816 57.3036 63.7648C57.4111 63.7451 57.555 63.656 57.7351 63.4976L58.6811 62.6658Z" fill="#ED5E11"/>
<path d="M60.5095 58.9534L65.2641 61.6616L64.1337 63.6454L57.4637 59.8461L58.9364 57.2614C59.5823 56.1278 60.3455 55.3867 61.2258 55.0382C62.2758 54.6267 63.3286 54.7215 64.384 55.3227C65.3939 55.898 66.0325 56.6932 66.2998 57.7083C66.5671 58.7235 66.4084 59.7441 65.8238 60.7702C65.7551 60.8907 65.6363 61.0841 65.4673 61.3503L63.5079 60.2342L63.6888 59.9166C64.3477 58.7602 64.1934 57.9065 63.2259 57.3553C62.317 56.8376 61.5387 57.1472 60.8909 58.284L60.5095 58.9534Z" fill="#ED5E11"/>
<path d="M17.0017 29.7997L18.7601 30.8316C18.6371 30.9376 18.5543 31.0268 18.5119 31.0991C18.4305 31.2377 18.4119 31.3868 18.456 31.5464C18.5 31.7059 18.5944 31.8282 18.7391 31.913C18.8626 31.9855 19.0511 32.0233 19.3047 32.0262L19.631 32.0293C20.2196 32.0344 20.7188 32.1572 21.1286 32.3977C21.7283 32.7496 22.1105 33.2615 22.2751 33.9334C22.4416 34.6023 22.3444 35.2441 21.9835 35.8588C21.8102 36.1541 21.5708 36.4066 21.2654 36.6163L19.4799 35.5685C19.694 35.4592 19.8409 35.3367 19.9205 35.2011C20.0142 35.0414 20.0468 34.8823 20.0183 34.7238C19.9886 34.5605 19.9044 34.4382 19.7658 34.3569C19.6754 34.3038 19.4276 34.2738 19.0224 34.267C18.3793 34.2583 17.8167 34.1124 17.3345 33.8295C16.7529 33.4882 16.3738 32.9882 16.1973 32.3296C16.0195 31.6662 16.0995 31.0467 16.4374 30.4712C16.586 30.2181 16.7741 29.9942 17.0017 29.7997Z" fill="#ED5E11"/>
<path d="M21.6756 27.274L25.5315 30.6113L24.1387 32.22L20.2828 28.8828L19.2159 30.1151L17.6624 28.7706L21.1855 24.7012L22.739 26.0457L21.6756 27.274Z" fill="#ED5E11"/>
<path d="M26.6613 24.9015L27.7753 26.4243L27.2803 26.7863L28.2859 28.1611L26.5683 29.4171L23.8824 25.7453C23.3626 25.0346 23.1525 24.342 23.2522 23.6675C23.3526 22.9881 23.754 22.3916 24.4563 21.878C25.1332 21.3831 25.7648 21.1961 26.3511 21.3171C26.9354 21.4352 27.4998 21.8665 28.0444 22.6111L30.7735 26.3421L29.0559 27.598L26.4103 23.9813C26.2453 23.7557 26.104 23.6187 25.9864 23.5705C25.8689 23.5223 25.741 23.5487 25.6028 23.6497C25.3349 23.8456 25.3474 24.1438 25.6403 24.5443L26.1663 25.2634L26.6613 24.9015Z" fill="#ED5E11"/>
<path d="M31.0151 26.0247L29.2696 21.1719C29.0532 20.5702 29.0589 20.0131 29.2867 19.5005C29.5144 18.9879 29.9193 18.6269 30.5013 18.4177C31.1918 18.1694 31.8369 18.2957 32.4367 18.7967C32.5405 18.3732 32.6963 18.0424 32.904 17.8043C33.1106 17.563 33.4045 17.3738 33.7859 17.2366C34.3909 17.0191 34.9231 17.0431 35.3825 17.3086C35.8419 17.5741 36.2005 18.0653 36.4583 18.782L38.1417 23.4622L36.1394 24.1822L34.5642 19.8028C34.4861 19.5858 34.4166 19.4493 34.3556 19.3933C34.2967 19.3328 34.2146 19.3214 34.1094 19.3593C33.9121 19.4302 33.8738 19.6333 33.9944 19.9687L35.5821 24.3826L33.5797 25.1026L32.0045 20.7232C31.9276 20.5095 31.8581 20.373 31.7959 20.3137C31.7337 20.2543 31.65 20.2436 31.5448 20.2814C31.3475 20.3523 31.3134 20.567 31.4423 20.9254L33.0175 25.3048L31.0151 26.0247Z" fill="#ED5E11"/>
<path d="M40.8026 20.9369L40.6763 19.0648C41.1051 19.0359 41.3084 18.8576 41.2863 18.5299C41.2661 18.2301 41.0921 18.0912 40.7644 18.1133C40.4332 18.1357 40.2815 18.3525 40.3093 18.7639L40.624 23.4283L38.501 23.5715L38.201 19.1267C38.17 18.6666 38.1899 18.287 38.2608 17.9881C38.3349 17.6854 38.4749 17.3993 38.6809 17.1298C38.9128 16.8304 39.2115 16.5862 39.577 16.3969C39.9424 16.2077 40.3256 16.0995 40.7265 16.0725C41.4516 16.0236 42.0764 16.2266 42.6009 16.6815C43.1288 17.1361 43.4172 17.7243 43.4659 18.4459C43.5131 19.1466 43.3301 19.7298 42.9168 20.1954C42.5395 20.6236 41.9429 20.8652 41.1272 20.9202L40.8026 20.9369Z" fill="#ED5E11"/>
<path d="M50.3796 20.4977L52.3315 21.0492C52.6045 21.6891 52.6593 22.2982 52.4958 22.8765C52.3057 23.549 51.8989 24.044 51.2754 24.3617C50.6553 24.6802 49.9854 24.7379 49.2659 24.5346C48.3311 24.2704 47.6379 23.6915 47.1861 22.7978C46.7343 21.904 46.6524 20.9477 46.9403 19.929C47.2292 18.9068 47.8008 18.1497 48.6552 17.6577C49.5129 17.1666 50.4394 17.0617 51.4347 17.3429C51.7743 17.4388 52.1314 17.6142 52.506 17.8689L51.9273 19.9165C51.6472 19.674 51.3744 19.5152 51.1088 19.4402C50.628 19.3043 50.1923 19.3428 49.8017 19.5556C49.4145 19.7693 49.1534 20.1149 49.0185 20.5924C48.8807 21.0799 48.9126 21.5065 49.1143 21.8721C49.316 22.2377 49.6572 22.4884 50.138 22.6243C50.444 22.7107 50.6222 22.6648 50.6725 22.4866C50.7106 22.3522 50.6287 22.2564 50.4269 22.1994L49.9377 22.0612L50.3796 20.4977Z" fill="#ED5E11"/>
<path d="M58.6963 20.6513C59.5588 21.1831 60.1044 21.9525 60.333 22.9596C60.5646 23.9685 60.4108 24.9101 59.8716 25.7845C59.3232 26.6737 58.5465 27.2374 57.5415 27.4757C56.5366 27.714 55.5895 27.559 54.7002 27.0108C53.8169 26.4661 53.2555 25.689 53.0161 24.6794C52.7767 23.6698 52.9294 22.7234 53.4741 21.8401C54.0244 20.948 54.804 20.3861 55.8131 20.1544C56.8251 19.9246 57.7862 20.0902 58.6963 20.6513ZM57.5367 22.4116C57.165 22.1824 56.7638 22.1239 56.3334 22.2361C55.9029 22.3484 55.5684 22.5978 55.33 22.9844C55.0916 23.371 55.0188 23.7818 55.1118 24.2167C55.2078 24.6535 55.4401 24.9856 55.8089 25.213C56.1837 25.4441 56.5839 25.504 57.0096 25.393C57.44 25.2807 57.7754 25.0298 58.0157 24.6402C58.256 24.2507 58.3287 23.8399 58.2339 23.4079C58.1439 22.9747 57.9115 22.6426 57.5367 22.4116Z" fill="#ED5E11"/>
<path d="M62.4263 28.5494L61.0396 29.8288L60.6237 29.3782L59.3718 30.5333L57.9286 28.9696L61.2722 25.8848C61.9193 25.2877 62.5837 25.0004 63.2653 25.0228C63.9519 25.0454 64.5902 25.3764 65.1802 26.0158C65.749 26.632 66.0065 27.2382 65.9529 27.8344C65.9019 28.4282 65.5374 29.0378 64.8594 29.6633L61.4619 32.7979L60.0187 31.2342L63.3122 28.1956C63.5177 28.0061 63.6377 27.8502 63.6723 27.7279C63.7068 27.6057 63.6661 27.4817 63.55 27.3559C63.3248 27.1119 63.0299 27.1582 62.6653 27.4946L62.0104 28.0988L62.4263 28.5494Z" fill="#ED5E11"/>
<path d="M67.7957 29.5758L68.9178 31.3838L65.3059 33.6246C65.0239 33.7996 64.863 33.9611 64.8232 34.1091C64.7883 34.2582 64.8537 34.4664 65.0196 34.7336L65.0776 34.8271L63.314 35.9212L63.0155 35.4403C62.6065 34.7812 62.4792 34.1488 62.6338 33.5431C62.7913 32.9355 63.2115 32.4198 63.8944 31.9962L67.7957 29.5758Z" fill="#ED5E11"/>
<path d="M34.439 40.062L34.2964 40.3328C34.1681 40.5752 34.2964 40.8745 34.553 41.0171C34.8238 41.1454 35.1374 41.0741 35.2515 40.8318L35.394 40.5609L34.439 40.0763V40.062Z" fill="#975415"/>
<path d="M41.1104 36.7411L37.6466 34.9738L34.1827 33.2065C34.1827 33.2065 32.2298 36.1425 33.2561 38.3231C33.2561 38.3231 33.7836 39.6628 34.6103 40.2329C34.6103 40.2329 34.6388 40.3469 34.8527 40.4467C35.0522 40.5607 35.1663 40.5179 35.1663 40.5179C36.1213 40.86 37.504 40.5037 37.504 40.5037C39.856 40.0476 41.0962 36.7553 41.0962 36.7553L41.1104 36.7411Z" fill="#975415"/>
<path d="M40.0699 30.2275L39.8418 30.1134C39.685 30.0422 39.5139 30.0849 39.4427 30.2275L39.0293 31.0541C39.0293 31.0541 36.7343 30.6978 35.1663 31.2679C33.5983 31.838 34.1685 33.2347 34.1685 33.2347C35.2803 34.1753 36.3922 34.8879 37.4328 35.4295C38.4733 35.9426 39.7135 36.4272 41.1247 36.7835C41.1247 36.7835 42.5787 36.4272 42.1225 34.8167C41.6664 33.2062 40.0414 31.5672 40.0414 31.5672L40.4547 30.7405C40.526 30.598 40.4547 30.427 40.3122 30.3557L40.0841 30.2417L40.0699 30.2275Z" fill="#492A1A"/>
<path d="M40.4692 40.062L40.3267 40.3328C40.1984 40.5752 40.3267 40.8745 40.5833 41.0171C40.8541 41.1454 41.1677 41.0741 41.2818 40.8318L41.4243 40.5609L40.4692 40.0763V40.062Z" fill="#975415"/>
<path d="M47.1402 36.7411L43.6763 34.9738L40.2125 33.2065C40.2125 33.2065 38.2596 36.1425 39.2859 38.3231C39.2859 38.3231 39.8133 39.6628 40.6401 40.2329C40.6401 40.2329 40.6686 40.3469 40.8824 40.4467C41.082 40.5607 41.196 40.5179 41.196 40.5179C42.1511 40.86 43.5338 40.5037 43.5338 40.5037C45.8858 40.0476 47.1259 36.7553 47.1259 36.7553L47.1402 36.7411Z" fill="#975415"/>
<path d="M46.0996 30.2275L45.8716 30.1134C45.7148 30.0422 45.5437 30.0849 45.4724 30.2275L45.0591 31.0541C45.0591 31.0541 42.7641 30.6978 41.1961 31.2679C39.6281 31.838 40.1983 33.2347 40.1983 33.2347C41.3101 34.1753 42.422 34.8879 43.4625 35.4295C44.5031 35.9426 45.7433 36.4272 47.1545 36.7835C47.1545 36.7835 48.6084 36.4272 48.1523 34.8167C47.6962 33.2062 46.0711 31.5672 46.0711 31.5672L46.4845 30.7405C46.5558 30.598 46.4845 30.427 46.342 30.3557L46.1139 30.2417L46.0996 30.2275Z" fill="#492A1A"/>
<path d="M45.7437 40.062L45.6011 40.3328C45.4728 40.5752 45.6011 40.8745 45.8577 41.0171C46.1285 41.1454 46.4421 41.0741 46.5562 40.8318L46.6987 40.5609L45.7437 40.0763V40.062Z" fill="#975415"/>
<path d="M52.4004 36.7411L48.9366 34.9738L45.4727 33.2065C45.4727 33.2065 43.5199 36.1425 44.5462 38.3231C44.5462 38.3231 45.0736 39.6628 45.9004 40.2329C45.9004 40.2329 45.9289 40.3469 46.1427 40.4467C46.3423 40.5607 46.4563 40.5179 46.4563 40.5179C47.4114 40.86 48.794 40.5037 48.794 40.5037C51.146 40.0476 52.3862 36.7553 52.3862 36.7553L52.4004 36.7411Z" fill="#975415"/>
<path d="M51.3599 30.2275L51.1318 30.1134C50.975 30.0422 50.804 30.0849 50.7327 30.2275L50.3193 31.0541C50.3193 31.0541 48.0243 30.6978 46.4563 31.2679C44.8883 31.838 45.4585 33.2347 45.4585 33.2347C46.5704 34.1753 47.6822 34.8879 48.7228 35.4295C49.7634 35.9426 51.0035 36.4272 52.4147 36.7835C52.4147 36.7835 53.8687 36.4272 53.4126 34.8167C52.9564 33.2062 51.3314 31.5672 51.3314 31.5672L51.7448 30.7405C51.816 30.598 51.7448 30.427 51.6022 30.3557L51.3742 30.2417L51.3599 30.2275Z" fill="#492A1A"/>
<path d="M55.7216 39.4342C54.9803 38.6504 53.7544 38.7359 53.1985 38.8214C53.1842 37.4817 52.9847 36.6123 52.9847 36.6123H32.6149C32.6149 36.6123 32.4153 37.4817 32.4011 38.8214C31.8452 38.7359 30.6335 38.6504 29.878 39.4342C29.3221 40.0186 29.1938 40.8737 29.5074 41.9711C29.5787 42.2419 31.3462 48.5556 37.3902 49.539L37.7323 49.596C38.4735 50.0806 39.2718 50.5082 40.0843 50.8645C40.9538 51.2493 41.8804 51.7766 41.8946 52.3467V53.6579C41.8946 53.6579 38.2455 54.8836 37.661 57.1639H47.9386C47.3541 54.8836 43.705 53.6579 43.705 53.6579V52.3467C43.7192 51.7766 44.6458 51.2493 45.5153 50.8645C46.3278 50.5082 47.1261 50.0949 47.8673 49.596L48.2094 49.539C54.2533 48.5556 56.0209 42.2419 56.0922 41.9854C56.4058 40.8737 56.2775 40.0186 55.7216 39.4342ZM30.9471 41.5863C30.7903 41.0447 30.8046 40.6314 30.9614 40.4604C31.1039 40.3036 31.4318 40.2466 31.7596 40.2466C31.8594 40.2466 31.9592 40.2466 32.0447 40.2609L32.6006 41.287C32.8857 43.0828 33.5985 45.1636 35.1094 47.1304C32.0305 45.2776 30.9756 41.6433 30.9614 41.5863H30.9471ZM54.6667 41.5863C54.6667 41.5863 53.5976 45.2776 50.5186 47.1162C52.0296 45.1494 52.7281 43.0685 53.0274 41.2728L53.5834 40.2466C53.9825 40.2039 54.4671 40.2466 54.6667 40.4461C54.8235 40.6172 54.8378 41.0305 54.6667 41.5721V41.5863Z" fill="#E3F389"/>
<path d="M43.2203 39.5189L43.705 41.0296C43.762 41.2149 43.9331 41.3289 44.1184 41.3289H45.7149C46.1283 41.3289 46.3136 41.8705 45.9715 42.1128L44.6886 43.0534C44.5318 43.1675 44.4747 43.3527 44.5318 43.538L45.0164 45.0487C45.1447 45.4478 44.6886 45.7756 44.3465 45.5333L43.0635 44.5927C42.9067 44.4787 42.7072 44.4787 42.5504 44.5927L41.2675 45.5333C40.9254 45.7756 40.4692 45.4478 40.5975 45.0487L41.0822 43.538C41.1392 43.3527 41.0822 43.1675 40.9254 43.0534L39.6424 42.1128C39.3003 41.8705 39.4714 41.3289 39.899 41.3289H41.4955C41.6808 41.3289 41.8519 41.2149 41.9089 41.0296L42.3936 39.5189C42.5219 39.1198 43.092 39.1198 43.2203 39.5189Z" fill="#FFAF33"/>
<path d="M42.5069 8.40678C43.4043 8.40678 44.1319 7.67923 44.1319 6.78176C44.1319 5.88428 43.4043 5.15674 42.5069 5.15674C41.6094 5.15674 40.8818 5.88428 40.8818 6.78176C40.8818 7.67923 41.6094 8.40678 42.5069 8.40678Z" fill="#E3F389"/>
<path d="M23.9619 12.4986C24.8594 12.4986 25.587 11.771 25.587 10.8736C25.587 9.97608 24.8594 9.24854 23.9619 9.24854C23.0645 9.24854 22.3369 9.97608 22.3369 10.8736C22.3369 11.771 23.0645 12.4986 23.9619 12.4986Z" fill="#E3F389"/>
<path d="M61.1953 12.4986C62.0928 12.4986 62.8204 11.771 62.8204 10.8736C62.8204 9.97608 62.0928 9.24854 61.1953 9.24854C60.2979 9.24854 59.5703 9.97608 59.5703 10.8736C59.5703 11.771 60.2979 12.4986 61.1953 12.4986Z" fill="#E3F389"/>
<path d="M23.9619 77.4303C24.8594 77.4303 25.587 76.7028 25.587 75.8053C25.587 74.9078 24.8594 74.1803 23.9619 74.1803C23.0645 74.1803 22.3369 74.9078 22.3369 75.8053C22.3369 76.7028 23.0645 77.4303 23.9619 77.4303Z" fill="#E3F389"/>
<path d="M61.1953 77.4302C62.0928 77.4302 62.8204 76.7027 62.8204 75.8052C62.8204 74.9077 62.0928 74.1802 61.1953 74.1802C60.2979 74.1802 59.5703 74.9077 59.5703 75.8052C59.5703 76.7027 60.2979 77.4302 61.1953 77.4302Z" fill="#E3F389"/>
<path d="M10.5772 26.1939C11.4746 26.1939 12.2022 25.4663 12.2022 24.5689C12.2022 23.6714 11.4746 22.9438 10.5772 22.9438C9.67969 22.9438 8.95215 23.6714 8.95215 24.5689C8.95215 25.4663 9.67969 26.1939 10.5772 26.1939Z" fill="#E3F389"/>
<path d="M75.1787 26.1938C76.0762 26.1938 76.8038 25.4662 76.8038 24.5687C76.8038 23.6713 76.0762 22.9437 75.1787 22.9437C74.2813 22.9437 73.5537 23.6713 73.5537 24.5687C73.5537 25.4662 74.2813 26.1938 75.1787 26.1938Z" fill="#E3F389"/>
<path d="M42.5069 82.2193C43.4043 82.2193 44.1319 81.4917 44.1319 80.5943C44.1319 79.6968 43.4043 78.9692 42.5069 78.9692C41.6094 78.9692 40.8818 79.6968 40.8818 80.5943C40.8818 81.4917 41.6094 82.2193 42.5069 82.2193Z" fill="#E3F389"/>
<path d="M79.6543 45.3072C80.5518 45.3072 81.2793 44.5796 81.2793 43.6821C81.2793 42.7847 80.5518 42.0571 79.6543 42.0571C78.7568 42.0571 78.0293 42.7847 78.0293 43.6821C78.0293 44.5796 78.7568 45.3072 79.6543 45.3072Z" fill="#E3F389"/>
<path d="M75.1787 63.3345C76.0762 63.3345 76.8038 62.607 76.8038 61.7095C76.8038 60.812 76.0762 60.0845 75.1787 60.0845C74.2813 60.0845 73.5537 60.812 73.5537 61.7095C73.5537 62.607 74.2813 63.3345 75.1787 63.3345Z" fill="#E3F389"/>
<path d="M5.74416 45.3072C6.64164 45.3072 7.36918 44.5796 7.36918 43.6821C7.36918 42.7847 6.64164 42.0571 5.74416 42.0571C4.84669 42.0571 4.11914 42.7847 4.11914 43.6821C4.11914 44.5796 4.84669 45.3072 5.74416 45.3072Z" fill="#E3F389"/>
<path d="M10.5772 63.1353C11.4746 63.1353 12.2022 62.4077 12.2022 61.5103C12.2022 60.6128 11.4746 59.8853 10.5772 59.8853C9.67969 59.8853 8.95215 60.6128 8.95215 61.5103C8.95215 62.4077 9.67969 63.1353 10.5772 63.1353Z" fill="#E3F389"/>
</svg>
