<svg width="20" height="21" viewBox="0 0 20 21" fill="none" xmlns="http://www.w3.org/2000/svg">
<path fill-rule="evenodd" clip-rule="evenodd" d="M2.8865 3.65555C1.6665 4.87721 1.6665 6.84055 1.6665 10.7689C1.6665 14.6972 1.6665 16.6614 2.8865 17.8814C4.10817 19.1022 6.0715 19.1022 9.99984 19.1022C13.9282 19.1022 15.8923 19.1022 17.1123 17.8814C18.3332 16.6622 18.3332 14.6972 18.3332 10.7689C18.3332 6.84055 18.3332 4.87638 17.1123 3.65555C15.8932 2.43555 13.9282 2.43555 9.99984 2.43555C6.0715 2.43555 4.10734 2.43555 2.8865 3.65555ZM14.6465 9.50221C14.7479 9.3744 14.7953 9.21199 14.7786 9.04969C14.7619 8.88738 14.6824 8.73805 14.557 8.6336C14.4317 8.52914 14.2704 8.47785 14.1078 8.49067C13.9451 8.50349 13.7939 8.57941 13.6865 8.70221L12.189 10.4989C11.8807 10.8697 11.6898 11.0955 11.534 11.2364C11.4932 11.2759 11.4476 11.3101 11.3982 11.338L11.389 11.3422L11.3823 11.3389L11.3798 11.338C11.3301 11.3101 11.2842 11.276 11.2432 11.2364C11.0873 11.0947 10.8973 10.8697 10.5882 10.4989L10.3448 10.2072C10.0715 9.87805 9.824 9.58221 9.594 9.37388C9.34317 9.14721 9.02734 8.94555 8.61067 8.94555C8.194 8.94555 7.879 9.14721 7.62734 9.37388C7.39734 9.58221 7.15067 9.87805 6.87734 10.2072L5.35234 12.0355C5.29981 12.0986 5.26022 12.1715 5.23583 12.2498C5.21145 12.3282 5.20274 12.4107 5.21021 12.4924C5.22529 12.6575 5.30534 12.8099 5.43275 12.916C5.56017 13.022 5.72451 13.0732 5.88962 13.0581C6.05473 13.043 6.20708 12.963 6.31317 12.8355L7.81067 11.0389C8.119 10.668 8.30984 10.4422 8.46567 10.3014C8.50643 10.2618 8.55208 10.2277 8.6015 10.1997L8.60734 10.1972L8.61067 10.1955L8.61984 10.1997C8.66955 10.2276 8.71548 10.2618 8.7565 10.3014C8.91234 10.443 9.10234 10.668 9.4115 11.0389L9.65484 11.3305C9.929 11.6597 10.1757 11.9555 10.4057 12.1639C10.6565 12.3905 10.9723 12.5922 11.389 12.5922C11.8057 12.5922 12.1207 12.3905 12.3723 12.1639C12.6023 11.9555 12.849 11.6597 13.1223 11.3305L14.6465 9.50221Z" fill="#E3F389"/>
</svg>
