<svg width="72" height="72" viewBox="0 0 72 72" fill="none" xmlns="http://www.w3.org/2000/svg">
<g clip-path="url(#clip0_4001_19738)">
<path d="M49.7402 18.1121C49.7402 18.1121 62.4923 20.2011 65.4901 36.8474C65.4901 36.8474 70.4265 39.1369 71.8247 47.7518C72.3179 53.7869 69.2638 58.8721 64.5807 62.2519C59.9132 65.2332 53.3188 68.8076 39.8001 68.5678C13.4625 68.0951 0.531772 58.6072 -0.157798 44.6628C-0.84148 30.7193 11.1362 21.2737 11.1362 21.2737C11.1362 21.2737 6.50072 16.3395 9.12216 9.78762C9.12216 9.78762 12.3599 4.11655 17.8279 7.61654C17.8279 7.61654 22.2644 10.2058 22.8487 16.2766C22.8487 16.2766 30.3514 13.8719 39.0259 15.3607C39.0259 15.3607 37.3847 12.3627 38.141 8.79073C38.4342 7.40618 39.3445 6.20322 40.6352 5.62334C42.1937 4.9168 44.6059 4.69149 47.4845 7.33587C52.6048 12.04 49.7468 18.107 49.7468 18.107L49.7402 18.1121Z" fill="url(#paint0_linear_4001_19738)"/>
<path d="M62.0972 36.324C64.5119 36.0333 66.3027 36.9527 67.8908 38.7903C69.7082 40.8907 71.8106 44.349 71.8607 49.1372C71.8271 54.5242 69.0853 58.7712 64.7301 62.2533C60.9783 64.6839 55.2282 67.8417 46.1619 68.4061C26.3628 69.6415 12.8714 64.6175 7.19502 59.399C5.58995 57.9239 4.6886 56.1932 4.21656 54.4764C2.50485 48.1878 6.04289 41.5395 12.1372 39.5141C15.2474 38.4767 19.515 38.2109 25.2717 39.8536C38.0082 43.4946 44.7606 42.3973 47.09 41.7488C47.587 41.61 48.0621 41.4086 48.5132 41.1622C50.265 40.2118 56.5567 36.9867 62.0972 36.324Z" fill="url(#paint1_linear_4001_19738)"/>
<path d="M42.1013 33.9057C41.4424 30.0726 43.5929 26.5081 46.9 25.9385C50.2129 25.3697 53.4324 28.0164 54.0913 31.8494C54.7501 35.6825 52.5996 39.2471 49.2926 39.8166C45.9796 40.3855 42.7601 37.7387 42.1013 33.9057Z" fill="white"/>
<path d="M25.3451 34.9916C24.6863 31.1585 26.8309 27.5932 30.1438 27.0244C33.4568 26.4556 36.6763 29.1023 37.3351 32.9353C37.9939 36.7684 35.8494 40.3337 32.5364 40.9025C29.2235 41.4714 26.0039 38.8246 25.3451 34.9916Z" fill="white"/>
<path d="M42.1491 43.8399C39.7413 43.8925 37.7548 42.4037 37.7121 40.5154C37.6694 38.6271 39.5859 37.0524 41.9937 36.9999C44.4015 36.9473 46.388 38.4361 46.4307 40.3244C46.4734 42.2127 44.5569 43.7874 42.1491 43.8399Z" fill="#2A170C"/>
<path d="M37.5518 14.8648C37.5518 14.8648 41.1221 22.7511 39.5887 25.6665C38.0604 28.5885 35.7434 25.3534 35.7434 25.3534C35.7434 25.3534 28.8624 15.2927 26.9709 15.3345C26.9709 15.3345 31.8429 14.2863 37.5518 14.8648Z" fill="#687E07"/>
<path d="M16.867 17.5276C16.867 17.5276 18.2948 12.7934 13.8809 11.1395" stroke="#687E07" stroke-width="2" stroke-miterlimit="10" stroke-linecap="round"/>
<path d="M30.7491 23.0952C30.7491 23.0952 26.0064 21.6676 24.3516 26.0735" stroke="#2E1A10" stroke-width="1.3846" stroke-miterlimit="10" stroke-linecap="round"/>
<path d="M51.5482 24.8614C51.5482 24.8614 49.0345 20.6027 44.8208 22.7164" stroke="#2E1A10" stroke-width="1.3846" stroke-miterlimit="10" stroke-linecap="round"/>
<path d="M44.5696 11.2556C44.5696 11.2556 45.3701 13.6725 44.3725 15.6412" stroke="#687E07" stroke-width="2" stroke-miterlimit="10" stroke-linecap="round"/>
<path d="M47.4322 46.1325C47.4322 46.1325 42.1706 49.9095 33.6647 46.3804C33.6647 46.3804 32.3934 52.7247 36.2677 55.7253C38.9285 57.7855 42.7958 57.2826 44.8958 54.6618C46.1945 53.049 47.3084 50.414 47.4263 46.1317L47.4322 46.1325Z" fill="#2A170C"/>
<mask id="mask0_4001_19738" style="mask-type:luminance" maskUnits="userSpaceOnUse" x="33" y="46" width="15" height="11">
<path d="M47.4322 46.1325C47.4322 46.1325 42.1706 49.9095 33.6647 46.3804C33.6647 46.3804 32.3934 52.7247 36.2677 55.7253C38.9285 57.7855 42.7958 57.2826 44.8958 54.6618C46.1945 53.049 47.3084 50.414 47.4263 46.1317L47.4322 46.1325Z" fill="white"/>
</mask>
<g mask="url(#mask0_4001_19738)">
<path d="M43.8913 46.4268C43.8913 46.4268 43.5809 49.2376 43.2706 50.6618C43.1654 51.1502 42.7926 51.5323 42.3045 51.6483C41.5871 51.8243 40.4515 51.9939 39.396 51.6838C39.0959 51.5971 38.8338 51.4017 38.6574 51.1458C38.2249 50.5099 37.5029 49.0117 37.5907 46.2557L43.8913 46.4268Z" fill="white"/>
</g>
<path d="M49.7105 31.9273L50.0381 33.6493C50.0605 33.7538 50.1205 33.8453 50.2043 33.892L51.5972 34.6941C51.8705 34.8491 51.8111 35.3076 51.5073 35.3878L49.9559 35.8083C49.863 35.8322 49.7817 35.9053 49.7334 36.0007L48.9776 37.5823C48.8297 37.8918 48.4234 37.8392 48.3593 37.5021L48.0316 35.7801C48.0092 35.6756 47.9492 35.5841 47.8655 35.5374L46.4726 34.7353C46.1993 34.5803 46.2587 34.1218 46.5625 34.0416L48.1138 33.6211C48.2067 33.5972 48.2881 33.5241 48.3363 33.4287L49.0922 31.8471C49.2401 31.5376 49.6464 31.5902 49.7105 31.9273Z" fill="#FFAF33"/>
<path d="M33.0037 33.2766L33.3314 34.9987C33.3537 35.1032 33.4137 35.1946 33.4975 35.2413L34.8904 36.0435C35.1637 36.1985 35.1043 36.657 34.8005 36.7371L33.2491 37.1577C33.1562 37.1815 33.0749 37.2547 33.0266 37.35L32.2708 38.9316C32.1229 39.2412 31.7166 39.1885 31.6525 38.8515L31.3248 37.1295C31.3024 37.0249 31.2424 36.9335 31.1587 36.8868L29.7658 36.0846C29.4925 35.9297 29.5519 35.4712 29.8557 35.391L31.407 34.9704C31.4999 34.9466 31.5813 34.8735 31.6296 34.7781L32.3854 33.1965C32.5333 32.8869 32.9396 32.9396 33.0037 33.2766Z" fill="#FFAF33"/>
</g>
<defs>
<linearGradient id="paint0_linear_4001_19738" x1="35.158" y1="5.27737" x2="35.9406" y2="53.4823" gradientUnits="userSpaceOnUse">
<stop stop-color="#E3FD73"/>
<stop offset="1" stop-color="#9AB71A"/>
</linearGradient>
<linearGradient id="paint1_linear_4001_19738" x1="37.5138" y1="36.8283" x2="38.4427" y2="79.0357" gradientUnits="userSpaceOnUse">
<stop stop-color="#F4FFB7"/>
<stop offset="1" stop-color="#E5FF53"/>
</linearGradient>
<clipPath id="clip0_4001_19738">
<rect width="72" height="72" fill="white"/>
</clipPath>
</defs>
</svg>
