<svg width="169" height="160" viewBox="0 0 169 160" fill="none" xmlns="http://www.w3.org/2000/svg">
<path d="M116.314 103.736C117.709 104.007 119.129 104.286 120.541 104.565C126.974 105.824 133.398 107.092 139.839 108.318C142.046 108.741 144.286 109.003 146.509 109.383C148.563 109.738 150.144 111.268 150.516 113.17C150.854 114.92 149.916 117.413 148.487 118.276C147.921 118.622 147.219 118.766 146.577 118.969C146.272 119.062 145.943 119.087 145.579 119.155C145.579 120.812 145.579 122.409 145.579 124.007C145.579 132.595 145.588 141.184 145.621 149.772C145.621 150.135 145.807 150.583 146.069 150.837C147.566 152.266 148.073 153.973 147.54 155.943C147.447 156.272 146.923 156.703 146.577 156.72C143.762 156.839 140.947 156.982 138.132 156.881C136.678 156.83 135.224 156.34 133.812 155.909C133.5 155.816 133.221 155.165 133.178 154.751C133.001 153.119 133.178 151.589 134.827 150.668C134.979 150.583 135.114 150.321 135.123 150.144C135.14 147.583 135.14 145.013 135.14 142.333C130.6 142.553 126.129 142.773 121.488 143.001C121.488 144.134 121.454 145.233 121.513 146.323C121.53 146.585 121.834 146.889 122.08 147.084C123.322 148.073 123.069 149.442 122.992 150.744C122.984 150.938 122.663 151.209 122.443 151.268C121.944 151.395 121.412 151.437 120.896 151.463C118.58 151.572 116.264 151.792 113.956 151.708C112.68 151.657 111.42 151.108 110.161 150.744C110.017 150.702 109.856 150.474 109.814 150.313C109.527 149.163 109.611 147.659 110.803 146.703C111.048 146.509 111.226 146.112 111.26 145.791C111.327 145.055 111.276 144.303 111.276 143.415C100.549 143.914 89.8732 144.404 79.104 144.903C79.104 146.239 79.1124 147.557 79.104 148.876C79.0955 149.949 79.104 151.031 79.0025 152.105C78.9011 153.069 79.1547 153.829 79.8732 154.446C81.3271 155.689 81.2933 157.337 81.0905 159.011C81.0651 159.214 80.7861 159.493 80.5748 159.552C80.1353 159.679 79.6534 159.721 79.1885 159.738C76.8724 159.848 74.5562 160.042 72.2485 159.992C70.989 159.966 69.7211 159.561 68.4784 159.239C67.6839 159.037 66.5765 159.189 66.399 158.005C66.1877 156.594 66.1116 155.123 67.4556 154.168C68.0558 153.736 68.2333 153.305 68.2333 152.604C68.2418 148.817 68.284 145.038 68.3601 141.251C68.3686 140.643 68.1826 140.397 67.5993 140.237C63.8039 139.189 60.0084 138.107 56.1369 137.008C56.1116 137.295 56.0862 137.523 56.0862 137.752C56.0862 141.015 56.0862 144.269 56.0778 147.532C56.0778 148.039 56.1707 148.419 56.5934 148.741C57.9966 149.772 57.8529 151.285 57.6754 152.739C57.6416 153.018 56.9991 153.415 56.6188 153.424C53.8884 153.542 51.1496 153.669 48.4277 153.584C47.2527 153.55 46.0693 153.077 44.945 152.663C44.5985 152.536 44.2519 151.953 44.2012 151.539C44.049 150.33 44.1589 149.155 45.4184 148.453C45.5537 148.377 45.6213 148.081 45.6213 147.887C45.6382 143.441 45.6551 138.994 45.6466 134.548C45.6466 134.328 45.4945 133.982 45.3339 133.922C44.5055 133.618 44.3364 132.976 44.3364 132.206C44.328 128.2 44.328 124.201 44.2942 120.195C44.2519 114.286 44.2181 108.377 44.1166 102.468C43.9898 94.624 43.8208 86.7879 43.6264 78.9519C43.5249 74.7592 43.339 70.5665 43.153 66.3737C43.0515 64.2013 42.874 62.0288 42.705 59.8564C42.6204 58.7152 42.5951 58.7152 43.4657 57.7347C41.792 57.1937 41.8005 54.7085 43.1699 53.7025C39.9324 50.3636 41.1073 46.1708 43.4996 44.3281C45.8664 42.5106 49.552 42.891 51.5384 45.241C53.6179 47.7008 53.3136 51.4287 50.8622 53.6096C51.0989 53.9477 51.3271 54.2773 51.5638 54.6155C63.2798 28.7913 95.4523 29.7296 107.802 50.2283C107.692 46.9063 108.563 44.2097 112.003 43.2968C114.37 42.6713 116.847 43.8631 118.107 45.9426C119.56 48.3517 119.214 50.9975 117.101 53.6772C118.724 54.607 118.648 56.7964 117.151 57.7178C117.304 58.4278 117.574 59.0533 117.557 59.6704C117.396 65.9933 117.177 72.3078 116.982 78.6307C116.898 81.3357 116.83 84.0407 116.754 86.7457C116.602 92.2909 116.441 97.8361 116.289 103.39C116.289 103.466 116.306 103.55 116.323 103.736H116.314ZM134.886 123.55V116.585C128.588 115.249 122.367 113.939 115.9 112.57C115.9 114.641 115.926 116.517 115.883 118.386C115.875 118.91 116.103 119.062 116.517 119.138C119.239 119.645 121.97 120.085 124.683 120.668C128.132 121.412 131.615 122.054 134.886 123.55Z" fill="#FFDA00"/>
<path d="M145.571 120.423L138.411 120.363L138.495 125.79C138.495 125.79 137.287 124.218 134.894 123.55L134.81 116.602L113.626 112.282C113.626 112.282 110.972 111.209 110.972 109.138C110.972 109.138 110.254 105.621 113.745 104.159C113.745 104.159 114.894 103.601 116.315 103.728L145.393 109.205C145.393 109.205 139.899 109.391 138.174 111.09C138.174 111.09 134.869 114.159 137.515 117.523C137.515 117.523 139.493 119.315 141.868 119.374C141.868 119.374 144.252 119.417 145.579 119.172V120.431L145.571 120.423Z" fill="#AD9000"/>
<path d="M115.774 100.262L112.773 108.292C118.098 108.504 128.521 113.246 128.521 113.246L129.07 114.345C129.273 114.742 129.873 114.675 130.034 114.218L130.719 112.333L132.866 112.857C133.271 112.959 133.66 112.544 133.533 112.147L132.747 109.763L134.489 109.146C134.894 109.003 135.013 108.478 134.7 108.225L132.739 106.644L133.145 104.582C133.221 104.193 132.866 103.888 132.494 104.024L130.161 104.844C130.161 104.844 121.116 100.211 117.042 100.634L115.774 100.279V100.262Z" fill="url(#paint0_linear_4610_39323)"/>
<path d="M138.309 136.399C137.954 136.611 137.616 136.805 137.202 136.915C135.19 137.456 133.119 137.363 131.074 137.507C128.884 137.659 126.686 137.752 124.497 137.845C121.555 137.971 118.622 138.048 115.68 138.191C113.483 138.293 111.293 138.403 109.095 138.512C105.917 138.665 102.739 138.867 99.5519 139.011C97.3034 139.113 95.0549 139.29 92.8064 139.332C89.9999 139.383 87.2104 139.696 84.404 139.679C83.0515 139.679 81.7159 139.899 80.3719 139.865L67.9205 140.288C66.196 139.899 64.5054 139.341 62.7979 138.851C60.6846 138.242 58.5629 137.642 56.4581 137.042L54.6406 132.037C53.5417 129.003 53.3727 125.698 54.2687 122.595C54.6237 121.361 54.8604 120.161 54.8182 119.544C54.6998 117.709 54.7928 115.867 54.7928 113.829C55.393 114.675 56.0439 115.182 56.83 115.444C57.8444 115.782 58.8756 116.095 59.9154 116.332C64.4885 117.388 69.0532 118.479 73.6517 119.425C75.9509 119.899 78.3009 120.152 80.6001 119.172C82.1301 118.512 83.6178 116.205 83.1698 114.472C82.5866 112.19 80.9467 111.201 78.901 110.727C77.2442 110.347 75.5282 110.288 73.863 109.983C69.4674 109.172 65.0802 108.318 60.7184 107.321C59.4336 107.025 58.098 107.16 56.8215 107.608C56.01 107.895 55.4352 108.496 54.8266 109.146C54.666 105.875 54.8604 102.705 54.666 99.5352C54.4885 96.6866 54.5054 93.821 54.311 90.9638C54.1757 89.0112 54.2941 87.0585 54.1673 85.0974C54.0067 82.5699 54.0912 80.034 53.9898 77.498C53.9052 75.351 53.9306 73.2039 54.0997 71.0568C54.2434 69.2732 54.4462 67.498 54.8942 65.7736C56.3735 60.1269 59.2983 55.2664 63.1191 50.9046C63.7531 50.1861 64.4885 49.569 65.1478 48.9012C67.4302 46.5851 70.1436 44.9283 72.9923 43.4828C74.8435 42.553 76.8047 41.8514 78.8672 41.4879C81.4623 41.0314 84.0574 40.9553 86.6694 41.2681C90.6424 41.733 94.1419 43.3983 97.3879 45.613C99.3237 46.9401 101.023 48.5716 102.392 50.5073C103.102 51.5132 103.922 52.46 104.548 53.5166C105.418 54.979 106.171 56.5175 106.872 58.0813C108.631 62.0289 109.577 66.1793 109.603 70.4651C109.636 76.6443 109.831 82.8235 109.476 89.0027C109.366 90.93 109.425 92.8573 109.349 94.7846C109.214 98.3687 109.146 101.953 109.011 105.528C108.943 107.253 108.943 110.076 108.986 111.809C109.011 112.824 108.986 113.846 108.893 114.827C108.783 115.892 108.935 116.881 109.062 117.963C110.262 117.946 111.395 118.149 112.527 118.318C113.685 118.496 114.835 118.715 116.12 118.944L117.253 119.299C119.729 119.51 122.147 120.051 124.565 120.55C126.568 120.964 128.554 121.42 130.533 121.987C132.02 122.409 133.525 122.688 134.852 123.517C134.852 123.517 135.934 123.889 137.177 124.641C138.106 125.207 138.791 126.078 139.374 126.999C139.451 127.118 139.544 127.236 139.653 127.346C140.118 127.811 140.44 128.411 140.448 129.037C140.49 131.251 140.778 133.525 139.307 135.478L138.309 136.382V136.399ZM69.0025 140.55H68.9433H69.0025ZM56.0861 137.109C56.0861 137.109 56.0354 137.084 56.01 137.075L56.0861 137.109Z" fill="#832F16"/>
<path d="M88.8335 36.2469C88.8335 36.2469 63.9053 30.203 51.437 60.1861L51.2848 57.498L43.1699 57.4642C43.1699 57.4642 41.8935 57.3374 41.9357 55.6975C41.9357 55.6975 41.9273 53.8547 43.3136 53.7364L50.2028 53.7195C50.2028 53.7195 51.2426 53.9393 51.2764 54.7592C51.2764 54.7592 60.9129 29.5859 88.8335 36.2469Z" fill="#AD9000"/>
<path d="M68.0474 140.397L44.8099 133.686C44.8099 133.686 44.0491 133.449 44.0491 132.502L43.5334 88.5123L42.443 58.6053L43.5842 57.4472H44.4548L45.503 124.556L68.1911 130.482L68.039 140.397H68.0474Z" fill="#AD9000"/>
<path d="M135.114 142.333L134.962 150.541C134.962 150.541 133.136 151.522 133.077 153.17V154.379C133.077 154.852 133.187 155.326 133.424 155.731C133.474 155.808 133.517 155.884 133.567 155.934L137.887 156.873V154.185C137.887 154.185 138.022 152.24 139.966 151.792L146.61 151.37L145.774 150.457L138.707 150.786L138.665 142.325H135.097L135.114 142.333Z" fill="#AD9000"/>
<path d="M45.1986 133.398L45.0464 147.261C45.0464 147.261 43.2205 148.242 43.1614 149.89V151.099C43.1614 151.572 43.2713 152.046 43.508 152.452C43.5587 152.528 43.6009 152.604 43.6517 152.654L47.9712 153.593V150.905C47.9712 150.905 48.1064 148.96 50.0506 148.512L56.1791 148.276L56.0439 147.337L48.7996 147.498L48.7573 133.381H45.1901L45.1986 133.398Z" fill="#AD9000"/>
<path d="M110.448 143.424L110.414 145.317C110.414 145.317 108.588 146.298 108.529 147.946V149.155C108.529 149.628 108.639 150.102 108.876 150.507C108.926 150.583 108.969 150.66 109.019 150.71L113.339 151.649V148.96C113.339 148.96 113.474 147.016 115.418 146.568L121.53 146.458L121.462 145.52L114.167 145.562L114.1 143.297L110.431 143.415L110.448 143.424Z" fill="#AD9000"/>
<path d="M111.564 57.4302L117.135 57.7176C117.135 57.7176 118.318 57.3373 118.276 55.7565V55.0718C118.276 55.0718 118.242 53.9645 116.999 53.6855L109.823 53.4235C109.823 53.4235 111.015 55.4691 111.564 57.4218V57.4302Z" fill="#68340B"/>
<path d="M79.1971 130.11C79.1971 130.11 86.7288 131.758 98.3687 130.972L120.364 129.738C120.364 129.738 135.207 128.893 139.924 127.659C139.924 127.659 140.541 128.115 140.693 130.803C140.693 130.803 141.116 135.757 136.999 137.067C136.517 137.219 136.01 137.278 135.503 137.304L79.1886 139.924V130.11H79.1971Z" fill="#7C2D16"/>
<path d="M79.2054 124.041C79.2054 124.041 67.1259 130.938 54.7168 121.733C54.7168 121.733 45.0971 113.626 43.06 106.179C43.06 106.179 34.666 109.924 27.371 104.43C27.371 104.43 15.7396 95.782 18.3938 82.536C21.0481 69.29 35.7565 60.8792 48.8503 65.7566C49.8816 66.1455 50.9467 66.6019 52.0287 67.1514C52.0287 67.1514 71.5553 74.962 76.1792 98.2503L79.1885 124.041H79.2054Z" fill="url(#paint1_linear_4610_39323)"/>
<path d="M76.4666 122.849C76.4666 122.849 70.5579 122.773 62.8064 106.982C62.8064 106.982 35.4522 58.0306 18.9602 80.3298C18.9602 80.3298 22.4175 65.2157 42.781 63.3476C59.907 62.9672 63.1107 76.3484 63.1107 76.3484C63.1107 76.3484 70.7523 104.607 73.9814 107.439L77.9966 122.739L76.4581 122.857L76.4666 122.849Z" fill="#687E07"/>
<path d="M115.047 122.646L115.131 122.494C116.12 120.051 116.67 116.932 116.67 112.908C116.67 102.883 106.839 94.7592 94.7084 94.7592C82.5783 94.7592 72.7473 102.883 72.7473 112.908C72.7473 121.31 75.0381 125.824 78.7744 128.25C78.7744 128.25 89.5098 133.255 102.113 130.981C102.113 130.981 111.691 129.442 115.055 122.638L115.047 122.646Z" fill="#9AB71A"/>
<path d="M110.211 101.615C110.211 101.615 118.309 116.027 107.329 123.88C107.329 123.88 100.499 129.138 92.5782 124.26C92.5782 124.26 82.5021 118.563 88.4785 102.815L110.211 101.606V101.615Z" fill="#F4FFB7"/>
<path d="M117.675 33.4405C117.675 33.4405 135.757 36.8218 139.493 60.6426C139.493 60.6426 146.45 64.0661 148.166 76.3907C148.673 85.0129 144.167 92.1642 137.388 96.8303C130.651 100.938 121.15 105.824 101.919 105.055C64.4379 103.559 46.3398 89.6198 45.8073 69.7212C45.2748 49.8226 62.629 36.7288 62.629 36.7288C62.629 36.7288 57.7938 31.3273 59.0617 23.8632C59.5436 21.0483 61.0567 18.4532 63.4743 16.9401C65.6298 15.5876 68.7405 14.886 72.5782 17.4642C72.5782 17.4642 78.8082 21.2935 79.4506 29.9663C79.4506 29.9663 90.2029 26.7711 102.502 29.1633C102.502 29.1633 100.262 24.8353 101.454 19.7634C101.919 17.8023 103.246 16.1117 105.106 15.3256C107.346 14.3704 110.786 14.1252 114.801 17.9883C121.936 24.8522 117.675 33.4152 117.675 33.4152V33.4405Z" fill="url(#paint2_linear_4610_39323)"/>
<path d="M134.675 59.7888C138.123 59.4507 140.642 60.8201 142.849 63.4913C145.368 66.5428 148.25 71.5386 148.166 78.3687C147.946 86.0441 143.914 92.0205 137.591 96.8472C132.172 100.195 123.888 104.514 110.964 105.03C82.7472 106.171 63.7024 98.5801 55.7903 90.9723C53.5502 88.8167 52.3245 86.3231 51.7159 83.8632C49.4843 74.8438 54.7337 65.4778 63.4657 62.7728C67.9289 61.3949 74.0152 61.1413 82.1555 63.6688C100.161 69.2563 109.814 67.9038 113.145 67.0585C113.855 66.881 114.539 66.602 115.19 66.2723C117.718 64.979 126.779 60.575 134.675 59.7973V59.7888Z" fill="url(#paint3_linear_4610_39323)"/>
<path d="M106.297 55.7143C105.478 50.2283 108.656 45.2156 113.381 44.514C118.115 43.8124 122.612 47.6839 123.432 53.1615C124.252 58.6475 121.073 63.6602 116.34 64.3618C111.606 65.0634 107.109 61.1919 106.289 55.7143H106.297Z" fill="white"/>
<path d="M82.4176 56.7373C81.5976 51.2513 84.776 46.2386 89.5013 45.537C94.235 44.8354 98.7321 48.7069 99.552 54.1845C100.372 59.6705 97.1936 64.6832 92.4683 65.3848C87.7346 66.0864 83.2375 62.2149 82.4176 56.7373Z" fill="white"/>
<path d="M100.423 28.4278C100.423 28.4278 105.249 39.7803 102.976 43.897C100.702 48.0136 97.5064 43.3306 97.5064 43.3306C97.5064 43.3306 88.0389 28.7659 85.3424 28.7659C85.3424 28.7659 92.3078 27.4304 100.414 28.4278H100.423Z" fill="#687E07"/>
<path d="M92.4682 62.9163C90.4733 62.9163 88.8588 61.3018 88.8588 59.3068C88.8588 57.3119 90.4733 55.6974 92.4682 55.6974C94.4632 55.6974 96.0777 57.3119 96.0777 59.3068C96.0777 61.3018 94.4632 62.9163 92.4682 62.9163Z" fill="#2E1A10"/>
<path d="M93.3053 62.0204C92.7051 62.0204 92.2148 61.5301 92.2148 60.9299C92.2148 60.3298 92.7051 59.8395 93.3053 59.8395C93.9055 59.8395 94.3957 60.3298 94.3957 60.9299C94.3957 61.5301 93.9055 62.0204 93.3053 62.0204Z" fill="white"/>
<path d="M70.9045 32.4177C70.82 32.4177 70.727 32.4008 70.6425 32.3754C70.2029 32.2317 69.9578 31.7583 70.1015 31.3103C70.186 31.0567 71.9443 25.3171 66.5427 23.1531C66.1116 22.9756 65.9003 22.4853 66.0694 22.0542C66.2469 21.6231 66.7372 21.4118 67.1683 21.5808C72.6712 23.7955 72.5444 29.2562 71.6991 31.8344C71.5808 32.1895 71.2511 32.4177 70.8961 32.4177H70.9045Z" fill="#687E07"/>
<path d="M110.11 30.5917C109.975 30.5917 109.839 30.5579 109.713 30.4903C109.298 30.2705 109.146 29.7549 109.366 29.3491C110.668 26.9316 109.738 23.787 109.73 23.7532C109.594 23.3052 109.848 22.8318 110.296 22.6966C110.744 22.5613 111.217 22.8149 111.353 23.2545C111.403 23.4066 112.502 27.1006 110.862 30.1437C110.71 30.4311 110.414 30.5917 110.118 30.5917H110.11Z" fill="#687E07"/>
<path d="M106.044 69.8817C102.612 69.8817 99.8309 67.7008 99.8309 65.0043C99.8309 62.3077 102.612 60.1268 106.044 60.1268C109.476 60.1268 112.257 62.3077 112.257 65.0043C112.257 67.7008 109.476 69.8817 106.044 69.8817Z" fill="#2A170C"/>
<path d="M119.053 42.35C119.053 42.35 113.5 38.0052 109.02 43.0094" stroke="#2E1A10" stroke-width="1.69062" stroke-miterlimit="10" stroke-linecap="round"/>
<path d="M119.603 58.0643C119.603 58.0643 115.435 54.9113 112.181 58.6729" stroke="#2E1A10" stroke-width="1.69062" stroke-miterlimit="10" stroke-linecap="round"/>
<path d="M93.5588 43.7108C93.5588 43.7108 88.0052 39.366 83.525 44.3702" stroke="#2E1A10" stroke-width="1.69062" stroke-miterlimit="10" stroke-linecap="round"/>
<path d="M53.9983 110.634C53.9983 110.634 54.6069 106.34 60.3889 107.27L78.918 110.913C78.918 110.913 83.4912 111.75 83.0685 115.858C83.0685 115.858 82.8487 120.212 76.7794 120.034C76.4666 120.026 76.1539 119.975 75.8496 119.916L57.6839 115.977C56.754 115.774 55.8749 115.359 55.1987 114.692C54.3787 113.889 53.6433 112.595 53.9899 110.634H53.9983Z" fill="#FFDA00"/>
<path d="M71.5217 153.787L79.0788 153.339L79.2986 119.155L71.5217 118.943V153.787Z" fill="#FFDA00"/>
<path d="M68.0473 140.398L68.1065 153.627C66.2214 154.472 66.1285 155.943 66.1285 155.943L66.0946 157.422C66.0777 158.284 66.8216 158.91 66.8216 158.91L70.8706 159.823C70.7354 159.747 70.6931 159.451 70.6931 159.451L70.71 157.447C70.9383 155.63 72.5021 154.937 72.5021 154.937L79.8478 154.438L79.104 153.398L71.5131 153.872L71.7667 121.471H79.2815V119.814C76.6272 120.533 71.3356 118.952 71.3356 118.952L68.191 118.25V130.482" fill="#AD9000"/>
<path d="M77.3965 101.733C77.3965 101.733 68.2756 103.542 67.3458 109.451C67.3458 109.451 67.0668 112.156 68.8082 114.556C71.3948 117.735 73.7363 117.523 73.7363 117.523L74.8098 119.755C74.9874 120.11 75.4523 120.152 75.6721 119.823L76.847 118.073L79.3492 118.335C79.7549 118.377 80.0339 117.921 79.8479 117.532L79.0448 115.867L81.2849 114.734C81.6569 114.548 81.6738 113.973 81.3187 113.762L79.4337 112.621L80.279 110.795C80.4819 110.364 80.1099 109.882 79.6788 110.026L78.5123 110.414C78.5123 110.414 77.4979 111.547 73.5757 107.946" fill="url(#paint4_linear_4610_39323)"/>
<path d="M132.621 122.257L129.721 122.993C127.735 120.693 124.894 117.921 123.255 116.365C121.775 114.954 119.789 114.134 117.743 114.261C116.061 114.37 114.125 115.089 112.443 117.244L111.107 127.194L121.361 133.948C121.809 134.252 122.401 134.277 122.857 133.99C127.633 131.057 131.581 126.044 133.44 123.441C133.855 122.857 133.314 122.08 132.621 122.249V122.257Z" fill="url(#paint5_linear_4610_39323)"/>
<path d="M107.371 125.14L104.472 125.875C102.485 123.576 99.645 120.803 98.0051 119.248C96.5258 117.836 94.5394 117.016 92.4937 117.143C90.8115 117.253 88.8758 117.972 87.1936 120.127L85.858 130.076L96.1116 136.83C96.5597 137.135 97.1514 137.16 97.6078 136.873C102.384 133.939 106.331 128.927 108.191 126.323C108.605 125.74 108.064 124.962 107.371 125.131V125.14Z" fill="url(#paint6_linear_4610_39323)"/>
<path d="M100.473 9.48452L94.7507 19.0957L89.2308 4.58172C89.028 4.04073 88.2334 4.0999 88.115 4.66625L84.9451 19.8649L77.7853 11.2681C77.388 10.7863 76.6188 11.192 76.7794 11.7922L82.0119 31.4118C82.0542 31.9866 86.0017 32.1473 90.82 31.7669C95.6383 31.3865 99.5098 30.6088 99.4675 30.034L101.555 9.83109C101.623 9.21402 100.795 8.93507 100.473 9.47606V9.48452Z" fill="url(#paint7_linear_4610_39323)"/>
<path d="M88.4277 3.19527C89.3101 3.19527 90.0253 2.47998 90.0253 1.59763C90.0253 0.715285 89.3101 0 88.4277 0C87.5454 0 86.8301 0.715285 86.8301 1.59763C86.8301 2.47998 87.5454 3.19527 88.4277 3.19527Z" fill="#FFDA00"/>
<path d="M75.6889 10.2453C76.5713 10.2453 77.2866 9.53002 77.2866 8.64767C77.2866 7.76532 76.5713 7.05003 75.6889 7.05003C74.8066 7.05003 74.0913 7.76532 74.0913 8.64767C74.0913 9.53002 74.8066 10.2453 75.6889 10.2453Z" fill="#FFDA00"/>
<path d="M102.029 8.16559C102.911 8.16559 103.626 7.4503 103.626 6.56796C103.626 5.68561 102.911 4.97032 102.029 4.97032C101.146 4.97032 100.431 5.68561 100.431 6.56796C100.431 7.4503 101.146 8.16559 102.029 8.16559Z" fill="#FFDA00"/>
<path d="M119.552 71.7161C119.552 71.7161 108.005 77.5065 92.4683 73.0855C92.4683 73.0855 92.0287 82.2402 99.0955 86.247C103.948 88.9942 111.014 87.9968 114.877 84.0999C117.261 81.6992 119.307 77.8531 119.552 71.7161Z" fill="#2A170C"/>
<mask id="mask0_4610_39323" style="mask-type:luminance" maskUnits="userSpaceOnUse" x="92" y="71" width="28" height="17">
<path d="M119.552 71.7161C119.552 71.7161 108.005 77.5065 92.4683 73.0855C92.4683 73.0855 92.0287 82.2402 99.0955 86.247C103.948 88.9942 111.014 87.9968 114.877 84.0999C117.261 81.6992 119.307 77.8531 119.552 71.7161Z" fill="white"/>
</mask>
<g mask="url(#mask0_4610_39323)">
<path d="M110.135 71.4201C110.135 71.4201 110.211 75.4522 110.034 77.5232C109.975 78.2333 109.518 78.8419 108.85 79.0955C107.87 79.4759 106.298 79.9239 104.751 79.6788C104.311 79.6111 103.905 79.3829 103.609 79.0532C102.882 78.2333 101.589 76.2468 101.209 72.333L110.135 71.4201Z" fill="white"/>
</g>
<path d="M138.487 22.3838L139.823 26.4582C139.907 26.7118 140.076 26.9062 140.304 26.9992L143.922 28.5038C144.632 28.7997 144.632 29.924 143.922 30.2198L140.304 31.7245C140.085 31.8174 139.907 32.0119 139.823 32.2655L138.487 36.3399C138.225 37.1344 137.227 37.1344 136.965 36.3399L135.63 32.2655C135.545 32.0119 135.376 31.8174 135.148 31.7245L131.53 30.2198C130.82 29.924 130.82 28.7997 131.53 28.5038L135.148 26.9992C135.368 26.9062 135.545 26.7118 135.63 26.4582L136.965 22.3838C137.227 21.5892 138.225 21.5892 138.487 22.3838Z" fill="#FFAF33"/>
<path d="M138.081 26.1539L138.698 28.022C138.732 28.1404 138.817 28.2249 138.918 28.2672L140.575 28.9603C140.896 29.0956 140.896 29.6112 140.575 29.7465L138.918 30.4396C138.817 30.4819 138.732 30.5749 138.698 30.6848L138.081 32.5529C137.963 32.9164 137.506 32.9164 137.38 32.5529L136.763 30.6848C136.729 30.5664 136.644 30.4819 136.543 30.4396L134.886 29.7465C134.565 29.6112 134.565 29.0956 134.886 28.9603L136.543 28.2672C136.644 28.2249 136.729 28.1319 136.763 28.022L137.38 26.1539C137.498 25.7904 137.954 25.7904 138.081 26.1539Z" fill="#FFDA00"/>
<path d="M59.1295 87.7855L60.465 91.8598C60.5496 92.1134 60.7186 92.3079 60.9469 92.4008L64.5648 93.9055C65.2749 94.2014 65.2749 95.3256 64.5648 95.6215L60.9469 97.1261C60.7271 97.2191 60.5496 97.4135 60.465 97.6671L59.1295 101.742C58.8674 102.536 57.8699 102.536 57.6079 101.742L56.2723 97.6671C56.1878 97.4135 56.0187 97.2191 55.7905 97.1261L52.1726 95.6215C51.4625 95.3256 51.4625 94.2014 52.1726 93.9055L55.7905 92.4008C56.0103 92.3079 56.1878 92.1134 56.2723 91.8598L57.6079 87.7855C57.8699 86.9909 58.8674 86.9909 59.1295 87.7855Z" fill="#FFAF33"/>
<path d="M22.5741 41.8262L24.4598 47.4746C24.5791 47.8262 24.8178 48.0957 25.1401 48.2246L30.2481 50.3105C31.2506 50.7207 31.2506 52.2793 30.2481 52.6894L25.1401 54.7754C24.8298 54.9043 24.5791 55.1738 24.4598 55.5254L22.5741 61.1738C22.2041 62.2754 20.7959 62.2754 20.4259 61.1738L18.5402 55.5254C18.4209 55.1738 18.1822 54.9043 17.8599 54.7754L12.7519 52.6894C11.7494 52.2793 11.7494 50.7207 12.7519 50.3105L17.8599 48.2246C18.1702 48.0957 18.4209 47.8262 18.5402 47.4746L20.4259 41.8262C20.7959 40.7246 22.2041 40.7246 22.5741 41.8262Z" fill="#FFAF33"/>
<path d="M36.0082 32.4316L36.9003 35.3943C36.9567 35.5779 37.0696 35.7248 37.2164 35.786L39.6443 36.8756C40.1186 37.0837 40.1186 37.904 39.6443 38.1244L37.2164 39.214C37.0696 39.2752 36.9454 39.4221 36.9003 39.6057L36.0082 42.5684C35.8275 43.1439 35.1612 43.1439 34.9918 42.5684L34.0997 39.6057C34.0433 39.4221 33.9304 39.2752 33.7836 39.214L31.3557 38.1244C30.8814 37.9162 30.8814 37.096 31.3557 36.8756L33.7836 35.786C33.9304 35.7248 34.0546 35.5779 34.0997 35.3943L34.9918 32.4316C35.1725 31.8561 35.8388 31.8561 36.0082 32.4316Z" fill="#FFAF33"/>
<path d="M22.0116 46.3926L22.9116 49.0828C22.961 49.2532 23.0842 49.3749 23.2322 49.4358L25.6486 50.434C26.1171 50.6287 26.1171 51.3713 25.6486 51.566L23.2322 52.5642C23.0842 52.6251 22.961 52.759 22.9116 52.9172L22.0116 55.6074C21.839 56.1309 21.1733 56.1309 20.9884 55.6074L20.0884 52.9172C20.039 52.7468 19.9158 52.6251 19.7678 52.5642L17.3514 51.566C16.8829 51.3713 16.8829 50.6287 17.3514 50.434L19.7678 49.4358C19.9158 49.3749 20.039 49.241 20.0884 49.0828L20.9884 46.3926C21.161 45.8691 21.8267 45.8691 22.0116 46.3926Z" fill="#FFDA00"/>
<path d="M58.7151 91.5555L59.3322 93.4237C59.366 93.542 59.4505 93.6265 59.552 93.6688L61.2088 94.362C61.53 94.4972 61.53 95.0129 61.2088 95.1481L59.552 95.8413C59.4505 95.8835 59.366 95.9765 59.3322 96.0864L58.7151 97.9545C58.5968 98.318 58.1403 98.318 58.0135 97.9545L57.3964 96.0864C57.3626 95.9681 57.2781 95.8835 57.1766 95.8413L55.5198 95.1481C55.1986 95.0129 55.1986 94.4972 55.5198 94.362L57.1766 93.6688C57.2781 93.6265 57.3626 93.5336 57.3964 93.4237L58.0135 91.5555C58.1318 91.1921 58.5883 91.1921 58.7151 91.5555Z" fill="#FFDA00"/>
<defs>
<linearGradient id="paint0_linear_4610_39323" x1="135.015" y1="111.183" x2="111.686" y2="101.517" gradientUnits="userSpaceOnUse">
<stop stop-color="#E3F389"/>
<stop offset="0.96" stop-color="#9AB71A"/>
</linearGradient>
<linearGradient id="paint1_linear_4610_39323" x1="26.8774" y1="69.7992" x2="73.4519" y2="120.149" gradientUnits="userSpaceOnUse">
<stop stop-color="#E3F389"/>
<stop offset="1" stop-color="#9AB71A"/>
</linearGradient>
<linearGradient id="paint2_linear_4610_39323" x1="97.3373" y1="14.6916" x2="96.94" y2="83.4321" gradientUnits="userSpaceOnUse">
<stop stop-color="#E3FD73"/>
<stop offset="1" stop-color="#9AB71A"/>
</linearGradient>
<linearGradient id="paint3_linear_4610_39323" x1="99.6788" y1="59.7381" x2="99.6788" y2="119.941" gradientUnits="userSpaceOnUse">
<stop stop-color="#F4FFB7"/>
<stop offset="1" stop-color="#E5FF53"/>
</linearGradient>
<linearGradient id="paint4_linear_4610_39323" x1="73.9804" y1="115.736" x2="75.5876" y2="104.247" gradientUnits="userSpaceOnUse">
<stop stop-color="#E3F389"/>
<stop offset="0.96" stop-color="#9AB71A"/>
</linearGradient>
<linearGradient id="paint5_linear_4610_39323" x1="133.55" y1="124.573" x2="111.353" y2="123.99" gradientUnits="userSpaceOnUse">
<stop stop-color="#E3F389"/>
<stop offset="1" stop-color="#9AB71A"/>
</linearGradient>
<linearGradient id="paint6_linear_4610_39323" x1="108.293" y1="127.456" x2="86.0947" y2="126.864" gradientUnits="userSpaceOnUse">
<stop stop-color="#E3F389"/>
<stop offset="1" stop-color="#9AB71A"/>
</linearGradient>
<linearGradient id="paint7_linear_4610_39323" x1="73.8547" y1="18.0982" x2="101.632" y2="18.0982" gradientUnits="userSpaceOnUse">
<stop stop-color="#F4FFB7"/>
<stop offset="1" stop-color="#FFDA00"/>
</linearGradient>
</defs>
</svg>
