<svg width="166" height="156" viewBox="0 0 166 156" fill="none" xmlns="http://www.w3.org/2000/svg">
<path d="M68.8827 145.08C68.8827 145.08 54.0127 152.12 40.2027 140.15C40.2027 140.15 29.5927 129.73 27.8527 120.75C27.8527 120.75 17.6127 124.41 9.50274 117.27C9.50274 117.27 -3.43726 106.02 0.882742 90.64C5.20274 75.26 23.3127 66.65 38.3127 73.59C39.5027 74.14 40.7027 74.78 41.9427 75.52C41.9427 75.52 64.2727 86.49 67.6327 114.38L68.8627 145.07L68.8827 145.08Z" fill="url(#paint0_linear_3138_14232)"/>
<path d="M65.7627 143.43C65.7627 143.43 58.8027 142.81 51.0827 123.48C51.0827 123.48 23.2227 63.28 1.7627 88.09C1.7627 88.09 7.20269 70.58 31.3927 70.2C51.6227 71.29 54.2027 87.36 54.2027 87.36C54.2027 87.36 60.6727 121.38 64.2327 125.01L67.5827 143.41H65.7627V143.43Z" fill="#687E07"/>
<path d="M105.753 123.51C105.753 123.51 121.683 118.2 128.813 111.28L127.133 100.76L103.953 109.64L105.763 123.51H105.753Z" fill="url(#paint1_linear_3138_14232)"/>
<path d="M67.5427 136.97C63.9427 133.93 61.7827 128.75 61.7827 119.93C61.7827 108.14 73.4227 98.58 87.7627 98.58C102.103 98.58 113.743 108.14 113.743 119.93C113.743 127.21 112.213 132.02 109.583 135.19C109.583 135.19 111.263 143.01 111.803 148.47L115.223 149.79C116.043 150.11 116.033 151.28 115.193 151.56C111.473 152.85 103.953 155.06 97.0727 154.6C96.4427 154.56 95.8927 154.16 95.6627 153.58L90.9327 141.25C89.8927 141.27 88.8227 141.28 87.7427 141.28H86.3627C85.6227 143.98 84.3427 148.4 83.0727 151.73L85.5627 154.42C86.1627 155.06 85.6227 156.1 84.7527 155.99C80.8627 155.51 73.1627 154.17 67.2127 150.76C66.6227 150.42 66.2827 149.78 66.3527 149.1L67.5227 136.96L67.5427 136.97Z" fill="url(#paint2_radial_3138_14232)"/>
<path d="M102.703 106.17C102.703 106.17 112.283 123.22 99.2927 132.51C99.2927 132.51 91.2127 138.73 81.8427 132.96C81.8427 132.96 69.9227 126.22 76.9927 107.59L102.703 106.16V106.17Z" fill="#F4FFB7"/>
<path d="M116.913 104.01C116.913 104.01 99.2928 129.08 80.1528 133.26L80.8628 129.29C80.8628 129.29 94.0228 127.04 112.153 104.57L116.913 104.02V104.01Z" fill="#903912"/>
<path d="M87.7028 126.32L86.6528 134.5C86.0728 139.01 81.8128 142.28 77.0228 141.89L69.3428 141.27C69.3428 141.27 56.3128 140.72 62.2428 123.98C62.6328 122.89 63.6228 122.08 64.8328 121.89C68.2928 121.35 76.0728 120.63 85.2728 122.92C86.8628 123.32 87.9028 124.78 87.7028 126.32Z" fill="#903912"/>
<path d="M85.5628 128.94L83.9428 130.49C82.6928 131.69 81.0128 132.29 79.3128 132.15L67.8928 131.24C66.0428 131.09 64.3528 130.09 63.3128 128.51L62.8628 127.84" stroke="#FFEED1" stroke-miterlimit="10" stroke-linecap="round"/>
<path d="M67.6229 105.1L76.9129 109.15C72.7229 113.85 68.9129 125.23 68.9129 125.23L69.3929 126.6C69.5729 127.1 69.0129 127.55 68.4929 127.32L66.3229 126.35L65.0029 128.6C64.7529 129.03 64.0829 129.02 63.8529 128.58L62.4729 125.95L60.5129 126.93C60.0629 127.16 59.5129 126.83 59.5529 126.35L59.8129 123.38L57.7229 122.03C57.3329 121.78 57.3629 121.23 57.7829 121.01L60.4029 119.7C60.4029 119.7 63.9029 108.2 67.6129 105.08L67.6229 105.1Z" fill="url(#paint3_linear_3138_14232)"/>
<path d="M112.692 26.59C112.692 26.59 134.082 30.59 138.502 58.77C138.502 58.77 146.732 62.82 148.762 77.4C149.362 87.6 144.032 96.06 136.012 101.58C128.042 106.44 116.802 112.22 94.0524 111.31C49.7124 109.54 28.3024 93.05 27.6724 69.51C27.0424 45.97 47.5724 30.48 47.5724 30.48C47.5724 30.48 39.9524 21.98 44.6124 11.03C44.6124 11.03 50.2824 1.59 59.3524 7.7C59.3524 7.7 66.7224 12.23 67.4824 22.49C67.4824 22.49 80.2024 18.71 94.7524 21.54C94.7524 21.54 92.1024 16.42 93.5124 10.42C94.0624 8.1 95.6324 6.1 97.8324 5.17C100.482 4.04 104.552 3.75 109.302 8.32C117.742 16.44 112.702 26.57 112.702 26.57L112.692 26.59Z" fill="url(#paint4_linear_3138_14232)"/>
<path d="M132.803 57.77C136.883 57.37 139.863 58.99 142.473 62.15C145.453 65.76 148.863 71.67 148.763 79.75C148.503 88.83 143.733 95.9 136.253 101.61C129.843 105.57 120.043 110.68 104.753 111.29C71.3725 112.64 48.8425 103.66 39.4825 94.66C36.8325 92.11 35.3825 89.16 34.6625 86.25C32.0225 75.58 38.2325 64.5 48.5625 61.3C53.8425 59.67 61.0425 59.37 70.6725 62.36C91.9725 68.97 103.393 67.37 107.333 66.37C108.173 66.16 108.983 65.83 109.753 65.44C112.743 63.91 123.463 58.7 132.803 57.78V57.77Z" fill="url(#paint5_linear_3138_14232)"/>
<path d="M99.2428 52.95C98.2728 46.46 102.033 40.53 107.623 39.7C113.223 38.87 118.543 43.45 119.513 49.93C120.483 56.42 116.723 62.35 111.123 63.18C105.523 64.01 100.203 59.43 99.2328 52.95H99.2428Z" fill="white"/>
<path d="M70.9826 54.16C70.0126 47.67 73.7726 41.74 79.3626 40.91C84.9626 40.08 90.2826 44.66 91.2526 51.14C92.2225 57.63 88.4626 63.56 82.8726 64.39C77.2726 65.22 71.9526 60.64 70.9826 54.16Z" fill="white"/>
<path d="M98.9428 69.7C94.8828 69.7 91.5928 67.12 91.5928 63.93C91.5928 60.74 94.8828 58.16 98.9428 58.16C103.003 58.16 106.293 60.74 106.293 63.93C106.293 67.12 103.003 69.7 98.9428 69.7Z" fill="#2A170C"/>
<path d="M82.4229 79.91C82.4229 83.81 88.4028 88.56 95.7828 88.56C103.163 88.56 109.143 83.81 109.143 79.91C109.143 76.01 103.163 74.42 95.7828 74.42C88.4028 74.42 82.4229 76 82.4229 79.91Z" fill="#2A170C"/>
<path d="M95.7832 74.4199C97.6287 74.4199 99.3866 74.5194 100.985 74.7295C100.896 76.3323 100.749 78.5841 100.542 80.0195C100.422 80.8495 99.8422 81.5398 99.0322 81.7998C97.8522 82.1798 95.9623 82.6002 94.1523 82.2002C93.6324 82.0902 93.1728 81.7998 92.8428 81.3799C92.1307 80.472 90.9526 78.4469 90.582 74.7266C92.1804 74.5174 93.9383 74.4199 95.7832 74.4199Z" fill="white"/>
<path d="M92.2926 20.66C92.2926 20.66 98.0026 34.09 95.3126 38.96C92.6226 43.83 88.8426 38.29 88.8426 38.29C88.8426 38.29 77.6426 21.06 74.4526 21.06C74.4526 21.06 82.6926 19.48 92.2826 20.66H92.2926Z" fill="#687E07"/>
<path d="M76.0928 40.38L86.7128 41.55" stroke="#2E1A10" stroke-width="2" stroke-miterlimit="10" stroke-linecap="round"/>
<path d="M82.8828 61.47C80.5228 61.47 78.6128 59.56 78.6128 57.2C78.6128 54.84 80.5228 52.93 82.8828 52.93C85.2428 52.93 87.1528 54.84 87.1528 57.2C87.1528 59.56 85.2428 61.47 82.8828 61.47Z" fill="#2E1A10"/>
<path d="M84.1728 59.24C83.4628 59.24 82.8828 58.66 82.8828 57.95C82.8828 57.24 83.4628 56.66 84.1728 56.66C84.8828 56.66 85.4628 57.24 85.4628 57.95C85.4628 58.66 84.8828 59.24 84.1728 59.24Z" fill="white"/>
<path d="M113.633 40L103.013 41.17" stroke="#2E1A10" stroke-width="2" stroke-miterlimit="10" stroke-linecap="round"/>
<path d="M105.053 56.56C105.053 58.92 106.963 60.83 109.323 60.83C111.683 60.83 113.593 58.92 113.593 56.56C113.593 54.2 111.683 52.29 109.323 52.29C106.963 52.29 105.053 54.2 105.053 56.56Z" fill="#2E1A10"/>
<path d="M110.263 58.61C109.553 58.61 108.973 58.03 108.973 57.32C108.973 56.61 109.553 56.03 110.263 56.03C110.973 56.03 111.553 56.61 111.553 57.32C111.553 58.03 110.973 58.61 110.263 58.61Z" fill="white"/>
<path d="M57.3625 24.39C57.3625 24.39 59.9425 16.46 52.5825 13.5" stroke="#687E07" stroke-width="2" stroke-miterlimit="10" stroke-linecap="round"/>
<path d="M104.243 14.84C104.243 14.84 105.503 18.95 103.743 22.23" stroke="#687E07" stroke-width="2" stroke-miterlimit="10" stroke-linecap="round"/>
<path d="M144.272 98.16C135.532 98.16 128.442 91.08 128.442 82.34C128.442 73.6 135.532 66.52 144.272 66.52C153.012 66.52 160.102 73.6 160.102 82.34C160.102 91.08 153.012 98.16 144.272 98.16Z" fill="white" fill-opacity="0.5"/>
<path d="M121.743 117.43L131.483 98.37C132.303 96.76 134.273 96.12 135.883 96.94C137.493 97.76 138.133 99.73 137.313 101.34L127.573 120.4C126.753 122.01 124.783 122.65 123.173 121.82C121.563 121 120.923 119.03 121.743 117.42V117.43Z" fill="#903912"/>
<mask id="mask0_3138_14232" style="mask-type:luminance" maskUnits="userSpaceOnUse" x="58" y="0" width="50" height="30">
<path d="M107.973 0H58.9727V30H107.973V0Z" fill="white"/>
</mask>
<g mask="url(#mask0_3138_14232)">
<path d="M107.963 24.89C107.963 24.89 107.973 24.85 107.973 24.82C107.973 24.77 107.963 24.72 107.953 24.67C107.823 20.96 105.903 17.79 103.143 16.27C103.143 7.27999 94.3327 -0.0100098 83.4727 -0.0100098C72.6127 -0.0100098 63.8027 7.27999 63.8027 16.28C61.0427 17.8 59.1227 20.97 58.9927 24.67C58.9927 24.72 58.9727 24.77 58.9727 24.82C58.9727 24.84 58.9727 24.87 58.9727 24.89C58.9727 24.95 58.9727 25.01 58.9727 25.07H59.0027C59.6127 27.82 70.3427 30 83.4727 30C96.6027 30 107.333 27.82 107.943 25.07H107.973C107.973 25.01 107.973 24.95 107.963 24.89Z" fill="#F3E4D2"/>
<path d="M83.4727 14.81C72.6127 14.81 63.8027 13.13 63.8027 11.05V16.02C63.8027 18.1 72.6127 19.78 83.4727 19.78C94.3327 19.78 103.143 18.1 103.143 16.02V11.05C103.143 13.13 94.3327 14.81 83.4727 14.81Z" fill="#903912"/>
</g>
<path d="M144.253 12.57C144.373 11.73 143.473 11.16 142.723 11.59L136.863 14.96C136.703 15.05 136.573 15.18 136.473 15.34C136.373 15.5 136.323 15.68 136.323 15.86L136.133 25.79C136.113 26.57 136.973 27.04 137.673 26.64L140.663 24.92L141.893 33.58C141.993 34.7 143.563 34.88 143.933 33.82L149.143 16.42L143.173 19.86L144.253 12.59V12.57Z" fill="#E3FD73"/>
<path d="M163.383 32.82C163.903 32.16 163.413 31.21 162.543 31.21H155.783C155.603 31.21 155.423 31.25 155.263 31.34C155.103 31.43 154.973 31.56 154.873 31.71L149.753 40.22C149.353 40.89 149.853 41.73 150.663 41.73H154.113L150.863 49.85C150.393 50.88 151.663 51.82 152.513 51.07L165.703 38.59H158.813L163.373 32.83L163.383 32.82Z" fill="#E3FD73"/>
<path d="M136.913 102.14C136.733 102.09 136.533 102.14 136.373 102.28L134.563 103.99L131.743 103.03C131.293 102.88 130.843 103.33 130.963 103.82L131.453 105.95L128.573 106.67C128.093 106.79 127.923 107.44 128.283 107.79L130.163 109.6L128.713 111.48C128.363 111.93 128.673 112.57 129.203 112.52L130.643 112.38C130.643 112.38 130.933 112.56 131.423 112.88C138.233 109.73 136.923 102.11 136.923 102.11L136.913 102.14Z" fill="url(#paint6_linear_3138_14232)"/>
<path d="M144.273 61.83C155.613 61.83 164.803 71.02 164.803 82.35C164.803 93.68 155.613 102.87 144.273 102.87C132.933 102.87 123.743 93.68 123.743 82.35C123.743 71.02 132.933 61.83 144.273 61.83ZM144.273 66.53C135.533 66.53 128.443 73.61 128.443 82.35C128.443 91.09 135.533 98.17 144.273 98.17C153.013 98.17 160.103 91.09 160.103 82.35C160.103 73.61 153.013 66.53 144.273 66.53Z" fill="#3E5671"/>
<defs>
<linearGradient id="paint0_linear_3138_14232" x1="12.0427" y1="76.39" x2="62.4427" y2="139.97" gradientUnits="userSpaceOnUse">
<stop stop-color="#E3F389"/>
<stop offset="1" stop-color="#9AB71A"/>
</linearGradient>
<linearGradient id="paint1_linear_3138_14232" x1="128.483" y1="104.03" x2="103.283" y2="118.51" gradientUnits="userSpaceOnUse">
<stop stop-color="#E3F389"/>
<stop offset="1" stop-color="#9AB71A"/>
</linearGradient>
<radialGradient id="paint2_radial_3138_14232" cx="0" cy="0" r="1" gradientUnits="userSpaceOnUse" gradientTransform="translate(87.2595 122.44) rotate(90) scale(33.5 31.54)">
<stop stop-color="#E3F389"/>
<stop offset="1" stop-color="#9AB71A"/>
</radialGradient>
<linearGradient id="paint3_linear_3138_14232" x1="61.7929" y1="128.97" x2="71.4029" y2="104.58" gradientUnits="userSpaceOnUse">
<stop stop-color="#E3F389"/>
<stop offset="1" stop-color="#9AB71A"/>
</linearGradient>
<linearGradient id="paint4_linear_3138_14232" x1="88.6424" y1="4.41" x2="88.1624" y2="85.74" gradientUnits="userSpaceOnUse">
<stop stop-color="#E3FD73"/>
<stop offset="1" stop-color="#9AB71A"/>
</linearGradient>
<linearGradient id="paint5_linear_3138_14232" x1="91.4125" y1="57.71" x2="91.4125" y2="128.93" gradientUnits="userSpaceOnUse">
<stop stop-color="#F4FFB7"/>
<stop offset="1" stop-color="#E5FF53"/>
</linearGradient>
<linearGradient id="paint6_linear_3138_14232" x1="131.023" y1="102.77" x2="134.803" y2="112.36" gradientUnits="userSpaceOnUse">
<stop stop-color="#E3F389"/>
<stop offset="1" stop-color="#9AB71A"/>
</linearGradient>
</defs>
</svg>
