<svg width="72" height="67" viewBox="0 0 72 67" fill="none" xmlns="http://www.w3.org/2000/svg">
<path d="M50.5361 15.7982C50.5361 15.7982 63.2483 18.1748 65.8751 34.9177C65.8751 34.9177 70.7662 37.324 71.9727 45.9866C72.3293 52.0469 69.1616 57.0733 64.3953 60.353C59.6587 63.2405 52.9787 66.6746 39.4583 66.134C13.1069 65.0823 0.382856 55.2849 0.00844415 41.2988C-0.365967 27.3127 11.8351 18.1095 11.8351 18.1095C11.8351 18.1095 7.30649 13.0592 10.0759 6.55339C10.0759 6.55339 13.4457 0.944687 18.836 4.5749C18.836 4.5749 23.216 7.26636 23.6677 13.3623C23.6677 13.3623 31.2272 11.1164 39.8743 12.7978C39.8743 12.7978 38.2994 9.75582 39.1374 6.19096C39.4643 4.81255 40.3973 3.62427 41.7048 3.07172C43.2797 2.40034 45.6985 2.22803 48.5215 4.94326C53.5374 9.7677 50.5421 15.7864 50.5421 15.7864L50.5361 15.7982Z" fill="url(#paint0_linear_4001_20053)"/>
<path d="M62.4879 34.3237C64.9127 34.086 66.6837 35.0485 68.2348 36.926C70.0059 39.0709 72.0324 42.5822 71.973 47.3829C71.8185 52.7777 68.9837 56.9783 64.5383 60.3709C60.7288 62.7237 54.9046 65.7597 45.8177 66.1222C25.9798 66.9242 12.5902 61.5889 7.0275 56.2416C5.4526 54.7265 4.59086 52.9738 4.16296 51.2448C2.594 44.9053 6.28462 38.3222 12.4238 36.421C15.5617 35.4525 19.8407 35.2743 25.5638 37.0508C38.2225 40.9781 45.0095 40.0274 47.351 39.4333C47.8502 39.3085 48.3316 39.1125 48.7892 38.8807C50.5662 37.9717 56.9371 34.8762 62.4879 34.3296V34.3237Z" fill="url(#paint1_linear_4001_20053)"/>
<path d="M42.5433 31.4599C41.9668 27.6039 44.2014 24.0806 47.5235 23.5875C50.8516 23.0944 54.0133 25.8155 54.5898 29.6656C55.1663 33.5216 52.9317 37.0448 49.6036 37.538C46.2755 38.0311 43.1138 35.3099 42.5373 31.4599H42.5433Z" fill="white"/>
<path d="M25.7477 32.1788C25.1712 28.3228 27.4058 24.7995 30.728 24.3064C34.0561 23.8132 37.2178 26.5344 37.7943 30.3845C38.3707 34.2404 36.1362 37.7637 32.814 38.2568C29.4859 38.75 26.3242 36.0288 25.7477 32.1788Z" fill="white"/>
<path d="M42.3648 41.4117C39.9519 41.4117 37.9966 39.8788 37.9966 37.9835C37.9966 36.0882 39.9519 34.5553 42.3648 34.5553C44.7776 34.5553 46.7329 36.0882 46.7329 37.9835C46.7329 39.8788 44.7776 41.4117 42.3648 41.4117Z" fill="#2A170C"/>
<path d="M32.5472 47.4779C32.5472 49.7951 36.1012 52.6172 40.4871 52.6172C44.8731 52.6172 48.427 49.7951 48.427 47.4779C48.427 45.1608 44.8731 44.2161 40.4871 44.2161C36.1012 44.2161 32.5472 45.1548 32.5472 47.4779Z" fill="#2A170C"/>
<path d="M40.4868 44.2164C41.5833 44.2164 42.6277 44.2753 43.5776 44.4C43.5248 45.3524 43.4388 46.6908 43.3159 47.5436C43.2445 48.0365 42.8996 48.4467 42.4185 48.6012C41.7172 48.827 40.5937 49.0761 39.5181 48.8385C39.2091 48.7732 38.9359 48.6007 38.7397 48.3512C38.3166 47.8118 37.6172 46.6085 37.397 44.3981C38.3466 44.2739 39.3908 44.2164 40.4868 44.2164Z" fill="white"/>
<path d="M38.4127 12.275C38.4127 12.275 41.8062 20.2544 40.2075 23.1478C38.6088 26.0413 36.3623 22.7498 36.3623 22.7498C36.3623 22.7498 29.7061 12.5127 27.8103 12.5127C27.8103 12.5127 32.7074 11.5739 38.4067 12.275H38.4127Z" fill="#687E07"/>
<path d="M28.7848 23.9916L35.0963 24.6867" stroke="#2E1A10" stroke-width="2" stroke-miterlimit="10" stroke-linecap="round"/>
<path d="M32.8202 36.5219C31.4177 36.5219 30.2825 35.387 30.2825 33.9849C30.2825 32.5827 31.4177 31.4479 32.8202 31.4479C34.2228 31.4479 35.3579 32.5827 35.3579 33.9849C35.3579 35.387 34.2228 36.5219 32.8202 36.5219Z" fill="#2E1A10"/>
<path d="M33.5871 35.197C33.1651 35.197 32.8204 34.8523 32.8204 34.4305C32.8204 34.0087 33.1651 33.6641 33.5871 33.6641C34.009 33.6641 34.3537 34.0087 34.3537 34.4305C34.3537 34.8523 34.009 35.197 33.5871 35.197Z" fill="white"/>
<path d="M51.0951 23.7656L44.7836 24.4608" stroke="#2E1A10" stroke-width="2" stroke-miterlimit="10" stroke-linecap="round"/>
<path d="M45.9958 33.6045C45.9958 35.0067 47.131 36.1415 48.5335 36.1415C49.9361 36.1415 51.0712 35.0067 51.0712 33.6045C51.0712 32.2023 49.9361 31.0675 48.5335 31.0675C47.131 31.0675 45.9958 32.2023 45.9958 33.6045Z" fill="#2E1A10"/>
<path d="M49.0923 34.8226C48.6704 34.8226 48.3257 34.478 48.3257 34.0561C48.3257 33.6343 48.6704 33.2897 49.0923 33.2897C49.5143 33.2897 49.859 33.6343 49.859 34.0561C49.859 34.478 49.5143 34.8226 49.0923 34.8226Z" fill="white"/>
<path d="M17.6533 14.4912C17.6533 14.4912 19.1866 9.77966 14.8126 8.021" stroke="#687E07" stroke-width="2" stroke-miterlimit="10" stroke-linecap="round"/>
<path d="M45.5147 8.81714C45.5147 8.81714 46.2635 11.2591 45.2175 13.2079" stroke="#687E07" stroke-width="2" stroke-miterlimit="10" stroke-linecap="round"/>
<mask id="mask0_4001_20053" style="mask-type:luminance" maskUnits="userSpaceOnUse" x="18" y="0" width="30" height="18">
<path d="M47.7313 0H18.6104V17.8243H47.7313V0Z" fill="white"/>
</mask>
<g mask="url(#mask0_4001_20053)">
<path d="M47.7254 14.7882C47.7254 14.7882 47.7314 14.7644 47.7314 14.7466C47.7314 14.7169 47.7254 14.6872 47.7195 14.6575C47.6422 12.4532 46.5011 10.5698 44.8609 9.66666C44.8609 4.32532 39.6251 -0.00598145 33.1709 -0.00598145C26.7168 -0.00598145 21.481 4.32532 21.481 9.6726C19.8407 10.5757 18.6996 12.4591 18.6224 14.6575C18.6224 14.6872 18.6105 14.7169 18.6105 14.7466C18.6105 14.7585 18.6105 14.7763 18.6105 14.7882C18.6105 14.8238 18.6105 14.8595 18.6105 14.8951H18.6283C18.9908 16.529 25.3677 17.8242 33.1709 17.8242C40.9741 17.8242 47.351 16.529 47.7135 14.8951H47.7314C47.7314 14.8595 47.7314 14.8238 47.7254 14.7882Z" fill="#F3E4D2"/>
<path d="M33.1708 8.79916C26.7167 8.79916 21.4808 7.801 21.4808 6.56519V9.51807C21.4808 10.7539 26.7167 11.752 33.1708 11.752C39.6249 11.752 44.8607 10.7539 44.8607 9.51807V6.56519C44.8607 7.801 39.6249 8.79916 33.1708 8.79916Z" fill="#903912"/>
</g>
<defs>
<linearGradient id="paint0_linear_4001_20053" x1="36.2431" y1="2.62017" x2="35.958" y2="50.9418" gradientUnits="userSpaceOnUse">
<stop stop-color="#E3FD73"/>
<stop offset="1" stop-color="#9AB71A"/>
</linearGradient>
<linearGradient id="paint1_linear_4001_20053" x1="37.8897" y1="34.288" x2="37.8897" y2="76.6028" gradientUnits="userSpaceOnUse">
<stop stop-color="#F4FFB7"/>
<stop offset="1" stop-color="#E5FF53"/>
</linearGradient>
</defs>
</svg>
