<svg width="72" height="70" viewBox="0 0 72 70" fill="none" xmlns="http://www.w3.org/2000/svg">
<path d="M50.5362 18.7908C50.5362 18.7908 63.2483 21.168 65.8751 37.9155C65.8751 37.9155 70.7663 40.3224 71.9727 48.9873C72.3293 55.0492 69.1616 60.077 64.3953 63.3576C59.6587 66.2459 52.9787 69.681 39.4583 69.1402C13.1069 68.0882 0.382856 58.2882 0.00844415 44.2983C-0.365967 30.3084 11.8351 21.1026 11.8351 21.1026C11.8351 21.1026 8.43567 17.305 9.32713 12.0573C9.66588 10.0783 10.7297 8.25378 12.4294 7.18998C13.9449 6.2391 16.1319 5.74582 18.83 7.55845C18.83 7.55845 23.2101 10.2506 23.6617 16.3482C23.6617 16.3482 31.2213 14.1017 39.8684 15.7836C39.8684 15.7836 38.2935 12.7408 39.1315 9.17495C39.4583 7.79617 40.3914 6.60756 41.6989 6.05486C43.2738 5.3833 45.6926 5.21095 48.5155 7.92692C53.5314 12.7527 50.5362 18.773 50.5362 18.773V18.7908Z" fill="url(#paint0_linear_4001_20217)"/>
<path d="M62.4879 37.3153C64.9126 37.0775 66.6837 38.0403 68.2348 39.9183C70.0058 42.0637 72.0324 45.5761 71.973 50.378C71.8184 55.7743 68.9836 59.976 64.5382 63.3695C60.7287 65.7229 54.9046 68.7598 45.8176 69.1224C25.9798 69.9247 12.5901 64.5878 7.02744 59.2391C5.45254 57.7236 4.5908 55.9704 4.1629 54.241C2.59394 47.8998 6.28456 41.3149 12.4237 39.4131C15.5616 38.4444 19.8406 38.2661 25.5638 40.0431C38.2224 43.9714 45.0094 43.0206 47.351 42.4263C47.8502 42.3015 48.3316 42.1053 48.7892 41.8736C50.5661 40.9643 56.9371 37.868 62.4879 37.3212V37.3153Z" fill="url(#paint1_linear_4001_20217)"/>
<path d="M42.5369 34.4506C41.9604 30.5935 44.195 27.0693 47.5172 26.576C50.8453 26.0828 54.007 28.8047 54.5834 32.6558C55.1599 36.5128 52.9253 40.037 49.5972 40.5303C46.2691 41.0236 43.1074 38.3017 42.531 34.4506H42.5369Z" fill="white"/>
<path d="M25.7481 35.1697C25.1716 31.3127 27.4062 27.7884 30.7284 27.2952C34.0565 26.8019 37.2182 29.5238 37.7946 33.3749C38.3711 37.2319 36.1365 40.7561 32.8144 41.2494C29.4863 41.7427 26.3246 39.0208 25.7481 35.1697Z" fill="white"/>
<path d="M38.4066 15.2664C38.4066 15.2664 41.8 23.2479 40.2014 26.1422C38.6027 29.0364 36.3562 25.744 36.3562 25.744C36.3562 25.744 29.7 15.5042 27.8042 15.5042C27.8042 15.5042 32.7013 14.5652 38.4006 15.2664H38.4066Z" fill="#687E07"/>
<path d="M32.8141 39.5141C31.4115 39.5141 30.2764 38.379 30.2764 36.9764C30.2764 35.5738 31.4115 34.4387 32.8141 34.4387C34.2167 34.4387 35.3518 35.5738 35.3518 36.9764C35.3518 38.379 34.2167 39.5141 32.8141 39.5141Z" fill="#2E1A10"/>
<path d="M33.4026 38.884C32.9806 38.884 32.6359 38.5393 32.6359 38.1174C32.6359 37.6954 32.9806 37.3507 33.4026 37.3507C33.8245 37.3507 34.1692 37.6954 34.1692 38.1174C34.1692 38.5393 33.8245 38.884 33.4026 38.884Z" fill="white"/>
<path d="M45.9959 36.6019C45.9959 38.0044 47.131 39.1396 48.5336 39.1396C49.9361 39.1396 51.0713 38.0044 51.0713 36.6019C51.0713 35.1993 49.9361 34.0642 48.5336 34.0642C47.131 34.0642 45.9959 35.1993 45.9959 36.6019Z" fill="#2E1A10"/>
<path d="M48.9139 38.5096C48.492 38.5096 48.1473 38.1649 48.1473 37.743C48.1473 37.321 48.492 36.9763 48.9139 36.9763C49.3359 36.9763 49.6806 37.321 49.6806 37.743C49.6806 38.1649 49.3359 38.5096 48.9139 38.5096Z" fill="white"/>
<path d="M17.6533 18.0717C17.5939 18.0717 17.5285 18.0598 17.4691 18.042C17.1601 17.9409 16.9877 17.6081 17.0887 17.2931C17.1482 17.1148 18.3843 13.0795 14.5867 11.5581C14.2836 11.4333 14.135 11.0886 14.2539 10.7855C14.3787 10.4824 14.7234 10.3338 15.0265 10.4527C18.8954 12.0098 18.8063 15.849 18.212 17.6616C18.1288 17.9112 17.897 18.0717 17.6474 18.0717H17.6533Z" fill="#687E07"/>
<path d="M45.2174 16.788C45.1223 16.788 45.0272 16.7642 44.9381 16.7166C44.6468 16.5621 44.5399 16.1996 44.6944 15.9143C45.6096 14.2146 44.9559 12.0038 44.9499 11.98C44.8549 11.6651 45.0331 11.3322 45.3481 11.2372C45.6631 11.1421 45.9959 11.3204 46.091 11.6294C46.1267 11.7364 46.8993 14.3335 45.7463 16.473C45.6393 16.675 45.4313 16.788 45.2233 16.788H45.2174Z" fill="#687E07"/>
<path d="M51.4336 40.6909H48.2065C45.865 40.6909 43.9573 38.7832 43.9573 36.4416V33.476C43.9573 32.3766 44.8487 31.4851 45.9482 31.4851H53.692C54.7914 31.4851 55.6829 32.3766 55.6829 33.476V36.4416C55.6829 38.7832 53.7752 40.6909 51.4336 40.6909ZM45.9482 32.6737C45.5025 32.6737 45.1459 33.0362 45.1459 33.476V36.4416C45.1459 38.1294 46.5187 39.5023 48.2065 39.5023H51.4336C53.1214 39.5023 54.4943 38.1294 54.4943 36.4416V33.476C54.4943 33.0303 54.1318 32.6737 53.692 32.6737H45.9482Z" fill="#015E75"/>
<path d="M34.1929 41.0413H29.9437C27.6021 41.0413 25.6944 39.1336 25.6944 36.7921V33.8265C25.6944 32.727 26.5859 31.8356 27.6853 31.8356H36.4513C37.5508 31.8356 38.4422 32.727 38.4422 33.8265V36.7921C38.4422 39.1336 36.5345 41.0413 34.1929 41.0413ZM27.6853 33.0242C27.2396 33.0242 26.883 33.3867 26.883 33.8265V36.7921C26.883 38.4799 28.2558 39.8527 29.9437 39.8527H34.1929C35.8808 39.8527 37.2536 38.4799 37.2536 36.7921V33.8265C37.2536 33.3808 36.8911 33.0242 36.4513 33.0242H27.6853Z" fill="#015E75"/>
<path d="M38.1691 36.5425L37.8839 36.0195C38.0681 35.9185 42.3946 33.571 44.5995 35.8887L44.1716 36.2988C42.2817 34.3079 38.2167 36.5187 38.1751 36.5365L38.1691 36.5425Z" fill="#015E75"/>
<path d="M42.3587 44.4114C39.9458 44.4114 37.9905 42.8781 37.9905 40.9822C37.9905 39.0864 39.9458 37.5531 42.3587 37.5531C44.7715 37.5531 46.7268 39.0864 46.7268 40.9822C46.7268 42.8781 44.7715 44.4114 42.3587 44.4114Z" fill="#2A170C"/>
<path d="M44.5399 25.2746C44.5399 25.2746 48.4444 28.3293 51.5942 24.811" stroke="#2E1A10" stroke-width="1.28564" stroke-miterlimit="10" stroke-linecap="round"/>
<path d="M42.448 49.0288C41.0098 49.0288 39.8509 49.3378 39.8509 50.0986C39.8509 50.8593 41.0157 51.7804 42.448 51.7804C43.8803 51.7804 45.0451 50.8593 45.0451 50.0986C45.0451 49.3378 43.8803 49.0288 42.448 49.0288Z" fill="#2A170C"/>
<path d="M18.913 24.9536C18.913 24.9536 28.5348 27.4972 45.4784 19.8782C45.4784 19.8782 46.2985 19.0343 45.7815 18.5113L37.2175 14.4285L18.1701 18.9987L18.907 24.9536H18.913Z" fill="url(#paint2_linear_4001_20217)"/>
<path d="M29.9909 3.45155C29.9909 3.45155 17.8017 4.64016 10.2719 15.4802C10.2719 15.4802 7.2885 19.4324 9.26159 22.8496C11.2347 26.2669 18.6694 25.0545 18.6694 25.0545C18.6694 25.0545 30.5198 20.0802 36.4748 19.0877C42.4297 18.0952 45.8885 18.6835 45.8885 18.6835C45.8885 18.6835 48.765 19.7117 48.6818 17.3285C48.6818 17.3285 49.7218 11.433 44.4028 7.57601C44.4028 7.57601 38.014 2.85725 29.9909 3.45155Z" fill="url(#paint3_linear_4001_20217)"/>
<path d="M26.2825 4.23617C26.2825 4.23617 25.4149 1.90056 27.9109 0.509888" stroke="url(#paint4_linear_4001_20217)" stroke-width="0.642819" stroke-miterlimit="10"/>
<path d="M26.027 5.08008C26.027 5.08008 18.4556 12.0929 22.5622 10.6606L26.027 5.08008Z" fill="#3D7C62"/>
<path d="M26.6927 5.12183C26.6927 5.12183 26.9839 11.3798 25.819 9.01451L26.6927 5.12183Z" fill="#3D7C62"/>
<path d="M33.5806 26.0117C33.5806 26.0117 29.6761 22.957 26.5262 26.4752" stroke="#2E1A10" stroke-width="1.28564" stroke-miterlimit="10" stroke-linecap="round"/>
<path d="M59.6678 29.4412L60.2728 31.2859C60.3123 31.3975 60.3912 31.4894 60.4898 31.5288L62.1338 32.2115C62.456 32.3428 62.456 32.8548 62.1338 32.9861L60.4898 33.6688C60.3912 33.7082 60.3123 33.8001 60.2728 33.9117L59.6678 35.7564C59.5494 36.1174 59.0957 36.1174 58.9773 35.7564L58.3723 33.9117C58.3329 33.8001 58.254 33.7082 58.1553 33.6688L56.5113 32.9861C56.1891 32.8548 56.1891 32.3428 56.5113 32.2115L58.1553 31.5288C58.254 31.4894 58.3329 31.3975 58.3723 31.2859L58.9773 29.4412C59.0957 29.0801 59.5494 29.0801 59.6678 29.4412Z" fill="white"/>
<defs>
<linearGradient id="paint0_linear_4001_20217" x1="36.2372" y1="5.60319" x2="35.9579" y2="53.9379" gradientUnits="userSpaceOnUse">
<stop stop-color="#E3FD73"/>
<stop offset="1" stop-color="#9AB71A"/>
</linearGradient>
<linearGradient id="paint1_linear_4001_20217" x1="37.8837" y1="37.2796" x2="37.8837" y2="79.6059" gradientUnits="userSpaceOnUse">
<stop stop-color="#F4FFB7"/>
<stop offset="1" stop-color="#E5FF53"/>
</linearGradient>
<linearGradient id="paint2_linear_4001_20217" x1="27.0715" y1="13.489" x2="42.0388" y2="36.8297" gradientUnits="userSpaceOnUse">
<stop stop-color="#6EBD6B"/>
<stop offset="1" stop-color="#015E75"/>
</linearGradient>
<linearGradient id="paint3_linear_4001_20217" x1="28.4663" y1="3.25941" x2="28.7969" y2="26.1566" gradientUnits="userSpaceOnUse">
<stop stop-color="#6EBD6B"/>
<stop offset="1" stop-color="#015E75"/>
</linearGradient>
<linearGradient id="paint4_linear_4001_20217" x1="25.8945" y1="2.2403" x2="27.9651" y2="2.36114" gradientUnits="userSpaceOnUse">
<stop stop-color="#6EBD6B"/>
<stop offset="1" stop-color="#015E75"/>
</linearGradient>
</defs>
</svg>
