<svg width="120" height="112" viewBox="0 0 120 112" fill="none" xmlns="http://www.w3.org/2000/svg">
<path d="M55.8369 92.1335C55.8369 92.1335 46.3958 97.5246 36.6971 90.3299C36.6971 90.3299 29.1786 83.994 27.5863 78.1734C27.5863 78.1734 21.0258 81.1002 15.3242 76.8058C15.3242 76.8058 6.23329 70.0471 8.30781 59.6943C10.3823 49.3415 21.8781 42.7678 32.112 46.5799C32.918 46.8838 33.7505 47.2406 34.5961 47.67C34.5961 47.67 49.8577 53.7747 53.4717 71.9763L55.8237 92.1335H55.8369Z" fill="url(#paint0_linear_4001_14293)"/>
<path d="M53.6958 91.2019C53.6958 91.2019 49.0777 91.1424 43.0193 78.801C43.0193 78.801 21.6398 40.5412 8.75 57.9699C8.75 57.9699 11.4522 46.157 27.3679 44.6969C40.7532 44.3996 43.2571 54.8581 43.2571 54.8581C43.2571 54.8581 49.2297 76.9445 51.7534 79.1578L54.8916 91.116L53.6892 91.2085L53.6958 91.2019Z" fill="#687E07"/>
<path d="M73.1464 101.515V101.158C73.1464 101.059 73.1398 100.967 73.12 100.874L72.532 97.5181C72.499 97.3199 72.499 97.115 72.532 96.9168L72.9152 94.9348H52.2558L51.9585 96.3421C51.9057 96.5865 51.9123 96.8442 51.9718 97.0886L52.203 98.0136C52.236 98.1457 52.2558 98.2844 52.2558 98.4166V99.5728C52.2558 99.6851 52.2426 99.7974 52.2228 99.9097L52.0709 100.643L50.5975 98.7403C50.4456 98.5421 50.3333 98.3241 50.2738 98.0928L49.7783 96.2099L48.0605 97.3066L48.2918 98.5685C48.3446 98.8526 48.4702 99.1301 48.6618 99.368L51.3904 102.764C51.8 103.273 51.8991 103.913 51.6678 104.495L51.3838 105.202C51.3838 105.882 56.2067 106.437 62.1528 106.437C68.0989 106.437 72.9218 105.882 72.9218 105.202L72.6179 103.709C72.532 103.273 72.6179 102.83 72.8623 102.44C73.0473 102.156 73.1398 101.832 73.1398 101.509L73.1464 101.515Z" fill="url(#paint1_linear_4001_14293)"/>
<path d="M62.5947 96.1704C68.3014 96.1704 72.9277 95.6173 72.9277 94.9349C72.9277 94.2526 68.3014 93.6995 62.5947 93.6995C56.888 93.6995 52.2617 94.2526 52.2617 94.9349C52.2617 95.6173 56.888 96.1704 62.5947 96.1704Z" fill="#8E5038"/>
<path d="M49.1159 97.0719C49.605 96.7879 49.9213 96.4195 49.8224 96.2491C49.7235 96.0787 49.2468 96.1708 48.7577 96.4548C48.2686 96.7388 47.9523 97.1071 48.0512 97.2775C48.1501 97.4479 48.6268 97.3558 49.1159 97.0719Z" fill="#8E5038"/>
<path d="M53.2465 96.6064C53.2465 96.6064 53.0747 97.723 53.5108 98.8197C53.8543 99.672 53.6627 100.59 53.557 100.947C53.524 101.073 53.5042 101.205 53.4976 101.337L53.4579 102.44C53.4579 102.506 53.4579 102.579 53.4579 102.645L53.524 103.491C53.557 103.887 53.4579 104.277 53.2399 104.607L53.0615 104.878" fill="#8B3922"/>
<path d="M53.2465 96.6064C53.2465 96.6064 53.0747 97.723 53.5108 98.8197C53.8543 99.672 53.6627 100.59 53.557 100.947C53.524 101.073 53.5042 101.205 53.4976 101.337L53.4579 102.44C53.4579 102.506 53.4579 102.579 53.4579 102.645L53.524 103.491C53.557 103.887 53.4579 104.277 53.2399 104.607L53.0615 104.878" stroke="url(#paint2_linear_4001_14293)" stroke-width="0.642819" stroke-miterlimit="10" stroke-linecap="round"/>
<path d="M54.4362 97.4189C54.4362 97.4189 54.2644 98.258 54.7005 99.0839C55.1365 99.9031 54.7005 100.802 54.7005 100.802L54.6542 101.74C54.6542 101.832 54.6542 101.925 54.6608 102.017L54.6873 102.275C54.7401 102.764 54.5882 103.259 54.2578 103.629" fill="#8B3922"/>
<path d="M54.4362 97.4189C54.4362 97.4189 54.2644 98.258 54.7005 99.0839C55.1365 99.9031 54.7005 100.802 54.7005 100.802L54.6542 101.74C54.6542 101.832 54.6542 101.925 54.6608 102.017L54.6873 102.275C54.7401 102.764 54.5882 103.259 54.2578 103.629" stroke="url(#paint3_linear_4001_14293)" stroke-width="0.642819" stroke-miterlimit="10" stroke-linecap="round"/>
<path d="M56.6823 99.0376C56.6823 99.0376 56.5105 99.8766 56.9466 100.702C57.3826 101.528 56.9466 102.42 56.9466 102.42L56.9003 103.358C56.9003 103.451 56.9003 103.543 56.9069 103.636L56.9333 103.894C56.9862 104.382 56.8342 104.878 56.5039 105.248" fill="#8B3922"/>
<path d="M56.6823 99.0376C56.6823 99.0376 56.5105 99.8766 56.9466 100.702C57.3826 101.528 56.9466 102.42 56.9466 102.42L56.9003 103.358C56.9003 103.451 56.9003 103.543 56.9069 103.636L56.9333 103.894C56.9862 104.382 56.8342 104.878 56.5039 105.248" stroke="url(#paint4_linear_4001_14293)" stroke-width="0.642819" stroke-miterlimit="10" stroke-linecap="round"/>
<path d="M88.845 100.075L86.493 99.487C85.6936 95.9259 83.9494 90.9048 83.9494 90.9048L83.9164 90.918C84.6894 89.0086 85.1188 86.5707 85.1188 83.4259C85.1188 75.5903 77.4351 69.2412 67.9544 69.2412C58.4737 69.2412 50.79 75.5903 50.79 83.4259C50.79 89.993 52.5805 93.521 55.5007 95.4172H55.4874C57.747 97.0623 59.0221 99.4473 59.0221 99.4473L62.1272 107.593C62.2858 108.01 62.6756 108.3 63.1249 108.327C67.6571 108.611 72.6056 107.151 75.0567 106.299C75.605 106.107 75.6183 105.334 75.0765 105.123L72.8104 104.244C72.599 102.083 72.1233 99.3746 71.7665 97.5313C72.1101 97.5115 72.4536 97.4917 72.7906 97.4653L76.345 104.158C76.5432 104.528 76.933 104.746 77.3492 104.72C81.8947 104.455 86.6449 102.387 88.9771 101.231C89.4991 100.973 89.4132 100.2 88.8516 100.062L88.845 100.075Z" fill="url(#paint5_radial_4001_14293)"/>
<path d="M80.0709 74.606C80.0709 74.606 86.4002 85.8705 77.818 92.0082C77.818 92.0082 72.4797 96.1176 66.2892 92.3055C66.2892 92.3055 58.4139 87.8525 63.0849 75.5441L80.0709 74.5994V74.606Z" fill="#F4FFB7"/>
<path d="M60.937 80.4066C60.6264 79.1381 59.8865 78.0084 58.9153 77.1297C57.3429 75.7092 54.6473 73.8659 53.174 76.2113C51.007 79.66 53.174 75.9603 53.174 75.9603C53.174 75.9603 53.174 75.9537 53.1872 75.9404C55.0305 73.6479 58.4066 73.159 60.7321 74.956C62.179 76.0726 63.6325 77.8432 64.4716 80.6312C64.4716 80.6312 66.3941 87.5485 64.4716 93.3294C64.4716 93.3294 60.4811 88.1365 51.7536 90.4357C51.7536 90.4357 50.4784 86.0818 50.789 82.9436C50.789 82.9436 52.2887 86.2074 55.5326 86.617C57.1843 86.8284 58.8823 86.1941 59.9724 84.9322C60.7916 83.9809 61.4523 82.5142 60.937 80.4V80.4066Z" fill="#015E75"/>
<mask id="mask0_4001_14293" style="mask-type:luminance" maskUnits="userSpaceOnUse" x="50" y="73" width="16" height="21">
<path d="M60.937 80.4066C60.6264 79.1381 59.8865 78.0084 58.9153 77.1297C57.3429 75.7092 54.6473 73.8659 53.174 76.2113C51.007 79.66 53.174 75.9603 53.174 75.9603C53.174 75.9603 53.174 75.9537 53.1872 75.9404C55.0305 73.6479 58.4066 73.159 60.7321 74.956C62.179 76.0726 63.6325 77.8432 64.4716 80.6312C64.4716 80.6312 66.3941 87.5485 64.4716 93.3294C64.4716 93.3294 60.4811 88.1365 51.7536 90.4357C51.7536 90.4357 50.4784 86.0818 50.789 82.9436C50.789 82.9436 52.2887 86.2074 55.5326 86.617C57.1843 86.8284 58.8823 86.1941 59.9724 84.9322C60.7916 83.9809 61.4523 82.5142 60.937 80.4V80.4066Z" fill="white"/>
</mask>
<g mask="url(#mask0_4001_14293)">
<path d="M44.5791 90.3765C44.5791 90.3765 54.1787 92.8936 67.934 90.3765" stroke="#6BB569" stroke-width="0.321409" stroke-miterlimit="10"/>
<path d="M44.5791 87.238C44.5791 87.238 54.1787 89.7552 67.934 87.238" stroke="#6BB569" stroke-width="0.321409" stroke-miterlimit="10"/>
<path d="M44.5791 84.1001C44.5791 84.1001 54.1787 86.6173 67.934 84.1001" stroke="#6BB569" stroke-width="0.321409" stroke-miterlimit="10"/>
<path d="M44.5791 80.9619C44.5791 80.9619 54.1787 83.4791 67.934 80.9619" stroke="#6BB569" stroke-width="0.321409" stroke-miterlimit="10"/>
<path d="M44.5791 77.8235C44.5791 77.8235 54.1787 80.3407 67.934 77.8235" stroke="#6BB569" stroke-width="0.321409" stroke-miterlimit="10"/>
<path d="M44.5791 74.6853C44.5791 74.6853 54.1787 77.2025 67.934 74.6853" stroke="#6BB569" stroke-width="0.321409" stroke-miterlimit="10"/>
<path d="M53.848 72.875C53.848 72.875 50.6371 81.7413 53.848 93.3097" stroke="#6BB569" stroke-width="1.28564" stroke-miterlimit="10"/>
<path d="M59.3187 72.875C59.3187 72.875 56.1078 81.7413 59.3187 93.3097" stroke="#6BB569" stroke-width="1.28564" stroke-miterlimit="10"/>
<path d="M64.7962 72.875C64.7962 72.875 61.5853 81.7413 64.7962 93.3097" stroke="#6BB569" stroke-width="1.28564" stroke-miterlimit="10"/>
</g>
<path d="M80.6185 73.866C80.6185 73.866 80.2816 81.1268 83.9351 88.1498C83.9351 88.1498 84.1928 87.0993 85.1111 87.1522C85.1111 87.1522 86.406 77.6582 80.6185 73.866Z" fill="#015E75"/>
<mask id="mask1_4001_14293" style="mask-type:luminance" maskUnits="userSpaceOnUse" x="80" y="73" width="6" height="16">
<path d="M80.6185 73.866C80.6185 73.866 80.2816 81.1268 83.9351 88.1498C83.9351 88.1498 84.1928 87.0993 85.1111 87.1522C85.1111 87.1522 86.406 77.6582 80.6185 73.866Z" fill="white"/>
</mask>
<g mask="url(#mask1_4001_14293)">
<path d="M93.2445 85.1899C93.2445 85.1899 84.7747 90.3564 70.874 91.8958" stroke="#6BB569" stroke-width="0.321409" stroke-miterlimit="10"/>
<path d="M92.3393 82.1838C92.3393 82.1838 83.8694 87.3503 69.9688 88.8897" stroke="#6BB569" stroke-width="0.321409" stroke-miterlimit="10"/>
<path d="M91.4408 79.1777C91.4408 79.1777 82.9709 84.3442 69.0703 85.8836" stroke="#6BB569" stroke-width="0.321409" stroke-miterlimit="10"/>
<path d="M90.5355 76.1716C90.5355 76.1716 82.0657 81.3381 68.165 82.8775" stroke="#6BB569" stroke-width="0.321409" stroke-miterlimit="10"/>
<path d="M89.6371 73.1658C89.6371 73.1658 81.1672 78.3323 67.2666 79.8716" stroke="#6BB569" stroke-width="0.321409" stroke-miterlimit="10"/>
<path d="M88.7318 70.1594C88.7318 70.1594 80.262 75.3259 66.3613 76.8653" stroke="#6BB569" stroke-width="0.321409" stroke-miterlimit="10"/>
<path d="M84.583 69.5122C84.583 69.5122 90.2054 77.0836 90.4498 89.088" stroke="#6BB569" stroke-width="1.28564" stroke-miterlimit="10"/>
<path d="M79.3369 71.0847C79.3369 71.0847 84.9593 78.6561 85.2037 90.6605" stroke="#6BB569" stroke-width="1.28564" stroke-miterlimit="10"/>
</g>
<path d="M75.585 93.3293L71.2773 111.828C71.2773 111.921 71.8257 112 72.4996 112C73.1735 112 73.7218 111.921 73.7218 111.828L79.5622 93.3293H75.5783H75.585Z" fill="url(#paint6_linear_4001_14293)"/>
<path d="M91.5534 93.8315L88.4482 93.8646L90.2717 107.659C90.2717 107.726 90.6549 107.778 91.124 107.778C91.5931 107.778 91.9763 107.726 91.9763 107.659L91.56 93.8315H91.5534Z" fill="url(#paint7_linear_4001_14293)"/>
<path d="M104.734 92.9133H101.629L105.415 110.474C105.415 110.534 105.771 110.586 106.214 110.586C106.657 110.586 107.013 110.534 107.013 110.474L104.727 92.9133H104.734Z" fill="url(#paint8_linear_4001_14293)"/>
<path d="M102.547 88.077C98.6226 87.6475 93.694 87.3965 88.3359 87.3965C82.9778 87.3965 78.0491 87.6541 74.1247 88.077H65.1924V90.6272C65.1924 92.411 75.5518 93.8579 88.3359 93.8579C101.12 93.8579 111.479 92.411 111.479 90.6272V88.077H102.547Z" fill="url(#paint9_linear_4001_14293)"/>
<path d="M88.3359 91.3804C101.118 91.3804 111.479 89.9339 111.479 88.1497C111.479 86.3654 101.118 84.9189 88.3359 84.9189C75.5541 84.9189 65.1924 86.3654 65.1924 88.1497C65.1924 89.9339 75.5541 91.3804 88.3359 91.3804Z" fill="#8E5038"/>
<path d="M85.9047 21.3224C85.9047 21.3224 100.037 23.9651 102.957 42.583C102.957 42.583 108.394 45.2587 109.735 54.8913C110.132 61.6302 106.61 67.2196 101.312 70.8665C96.0461 74.0774 88.6201 77.8961 73.5897 77.2949C44.2953 76.1255 30.1502 65.2309 29.734 49.6786C29.3178 34.1263 42.8815 23.8924 42.8815 23.8924C42.8815 23.8924 39.1024 19.6707 40.0934 13.8369C40.47 11.6369 41.6526 9.60862 43.5421 8.42601C45.2269 7.36893 47.6581 6.82057 50.6576 8.83563C50.6576 8.83563 55.5268 11.8285 56.0289 18.607C56.0289 18.607 64.4327 16.1097 74.0456 17.9794C74.0456 17.9794 72.2948 14.5967 73.2263 10.6327C73.5897 9.0999 74.627 7.77855 76.0805 7.16412C77.8312 6.41755 80.5202 6.22596 83.6584 9.24525C89.2345 14.6099 85.9047 21.3026 85.9047 21.3026V21.3224Z" fill="url(#paint10_linear_4001_14293)"/>
<path d="M99.1903 41.9158C101.886 41.6515 103.855 42.7218 105.579 44.8095C107.548 47.1946 109.801 51.0992 109.735 56.4374C109.563 62.4364 106.411 67.1074 101.47 70.8798C97.2347 73.4961 90.76 76.8721 80.6583 77.2752C58.6049 78.1671 43.7199 72.2342 37.5359 66.2881C35.7851 64.6034 34.8272 62.6544 34.3515 60.7318C32.6073 53.6824 36.7101 46.3621 43.5349 44.248C47.0232 43.1711 51.7801 42.9729 58.1424 44.9483C72.2148 49.3154 79.7598 48.2583 82.3628 47.5976C82.9178 47.4589 83.4529 47.2408 83.9617 46.9832C85.9371 45.9723 93.0195 42.5302 99.1903 41.9224V41.9158Z" fill="url(#paint11_linear_4001_14293)"/>
<path d="M77.0119 38.7312C76.371 34.4434 78.8552 30.5256 82.5483 29.9773C86.2481 29.4289 89.7629 32.4548 90.4038 36.736C91.0446 41.0238 88.5605 44.9416 84.8607 45.4899C81.1609 46.0383 77.6461 43.0124 77.0053 38.7312H77.0119Z" fill="white"/>
<path d="M58.3478 39.5305C57.707 35.2428 60.1911 31.3249 63.8843 30.7766C67.5841 30.2282 71.0989 33.2541 71.7397 37.5353C72.3806 41.8231 69.8964 45.7409 66.2032 46.2893C62.5035 46.8376 58.9887 43.8117 58.3478 39.5305Z" fill="white"/>
<path d="M72.4203 17.4044C72.4203 17.4044 76.1927 26.2772 74.4155 29.4947C72.6383 32.7122 70.1409 29.0521 70.1409 29.0521C70.1409 29.0521 62.7413 17.6686 60.6338 17.6686C60.6338 17.6686 66.0778 16.6248 72.4136 17.4044H72.4203Z" fill="#687E07"/>
<path d="M66.2029 44.3602C64.6437 44.3602 63.3818 43.0983 63.3818 41.5391C63.3818 39.9799 64.6437 38.718 66.2029 38.718C67.7621 38.718 69.024 39.9799 69.024 41.5391C69.024 43.0983 67.7621 44.3602 66.2029 44.3602Z" fill="#2E1A10"/>
<path d="M66.8572 43.6596C66.3881 43.6596 66.0049 43.2764 66.0049 42.8074C66.0049 42.3383 66.3881 41.9551 66.8572 41.9551C67.3262 41.9551 67.7094 42.3383 67.7094 42.8074C67.7094 43.2764 67.3262 43.6596 66.8572 43.6596Z" fill="white"/>
<path d="M80.8564 41.1228C80.8564 42.682 82.1183 43.9439 83.6775 43.9439C85.2367 43.9439 86.4986 42.682 86.4986 41.1228C86.4986 39.5636 85.2367 38.3018 83.6775 38.3018C82.1183 38.3018 80.8564 39.5636 80.8564 41.1228Z" fill="#2E1A10"/>
<path d="M84.1003 43.2436C83.6312 43.2436 83.248 42.8604 83.248 42.3913C83.248 41.9223 83.6312 41.5391 84.1003 41.5391C84.5694 41.5391 84.9526 41.9223 84.9526 42.3913C84.9526 42.8604 84.5694 43.2436 84.1003 43.2436Z" fill="white"/>
<path d="M49.349 20.523C49.2829 20.523 49.2103 20.5098 49.1442 20.4899C48.8007 20.3776 48.6091 20.0076 48.7214 19.6575C48.7874 19.4593 50.1616 14.9733 45.9399 13.282C45.603 13.1432 45.4378 12.76 45.5699 12.4231C45.7087 12.0861 46.0919 11.921 46.4288 12.0531C50.7298 13.7841 50.6307 18.052 49.97 20.0671C49.8776 20.3446 49.6199 20.523 49.3424 20.523H49.349Z" fill="#687E07"/>
<path d="M79.9919 19.0959C79.8862 19.0959 79.7805 19.0695 79.6814 19.0166C79.3577 18.8449 79.2388 18.4418 79.4105 18.1247C80.428 16.2352 79.7012 13.7775 79.6946 13.751C79.5889 13.4009 79.7871 13.0309 80.1373 12.9252C80.4874 12.8195 80.8574 13.0177 80.9631 13.3612C81.0028 13.4802 81.8616 16.3673 80.5799 18.7458C80.461 18.9704 80.2298 19.0959 79.9985 19.0959H79.9919Z" fill="#687E07"/>
<path d="M86.9021 45.6682H83.3147C80.7116 45.6682 78.5908 43.5474 78.5908 40.9444V37.6476C78.5908 36.4253 79.5818 35.4343 80.8041 35.4343H89.4127C90.635 35.4343 91.626 36.4253 91.626 37.6476V40.9444C91.626 43.5474 89.5052 45.6682 86.9021 45.6682ZM80.8041 36.7557C80.3086 36.7557 79.9122 37.1587 79.9122 37.6476V40.9444C79.9122 42.8207 81.4383 44.3468 83.3147 44.3468H86.9021C88.7785 44.3468 90.3046 42.8207 90.3046 40.9444V37.6476C90.3046 37.1521 89.9016 36.7557 89.4127 36.7557H80.8041Z" fill="#015E75"/>
<path d="M67.7358 46.0578H63.0119C60.4089 46.0578 58.2881 43.9371 58.2881 41.334V38.0372C58.2881 36.815 59.2791 35.824 60.5014 35.824H70.2463C71.4686 35.824 72.4596 36.815 72.4596 38.0372V41.334C72.4596 43.9371 70.3388 46.0578 67.7358 46.0578ZM60.5014 37.1453C60.0058 37.1453 59.6094 37.5483 59.6094 38.0372V41.334C59.6094 43.2103 61.1356 44.7365 63.0119 44.7365H67.7358C69.6121 44.7365 71.1382 43.2103 71.1382 41.334V38.0372C71.1382 37.5417 70.7352 37.1453 70.2463 37.1453H60.5014Z" fill="#015E75"/>
<path d="M72.156 41.0567L71.8389 40.4753C72.0437 40.363 76.8534 37.7533 79.3045 40.3299L78.8288 40.7858C76.7279 38.5725 72.2088 41.0302 72.1626 41.0501L72.156 41.0567Z" fill="#015E75"/>
<path d="M76.814 49.8041C74.1316 49.8041 71.958 48.0996 71.958 45.992C71.958 43.8845 74.1316 42.1799 76.814 42.1799C79.4963 42.1799 81.6699 43.8845 81.6699 45.992C81.6699 48.0996 79.4963 49.8041 76.814 49.8041Z" fill="#2A170C"/>
<path d="M79.2383 28.5305C79.2383 28.5305 83.5789 31.9263 87.0805 28.0151" stroke="#2E1A10" stroke-width="1.28564" stroke-miterlimit="10" stroke-linecap="round"/>
<path d="M76.9125 54.9375C75.3137 54.9375 74.0254 55.2811 74.0254 56.1267C74.0254 56.9724 75.3203 57.9964 76.9125 57.9964C78.5048 57.9964 79.7997 56.9724 79.7997 56.1267C79.7997 55.2811 78.5048 54.9375 76.9125 54.9375Z" fill="#2A170C"/>
<path d="M72.4395 85.0643C70.0412 85.0643 69.1031 81.3314 69.0634 81.1663C68.9247 80.2479 69.2352 79.7855 69.5193 79.5476C70.3518 78.8539 71.8383 79.3296 72.0101 79.3891L71.6995 80.314C71.3362 80.1885 70.4707 80.0233 70.1536 80.2942C70.0214 80.4065 69.9752 80.6377 70.028 80.9747C70.028 80.9747 70.9199 84.3706 72.7038 84.06L72.8755 85.0246C72.7302 85.0511 72.5848 85.0643 72.4461 85.0643H72.4395Z" fill="url(#paint12_linear_4001_14293)"/>
<path d="M56.2595 83.6108L56.755 76.9314C60.6002 78.5236 68.5283 78.4113 68.5283 78.4113L69.2815 77.8167C69.559 77.5987 69.9554 77.8497 69.9289 78.2197L69.8034 79.7855L71.4947 80.1159C71.8185 80.1819 71.9572 80.5981 71.7326 80.8426L70.3914 82.2763L71.4287 83.2871C71.6665 83.5183 71.5872 83.928 71.2767 84.0072L69.3674 84.4895L68.9776 86.0884C68.9049 86.3857 68.5547 86.4848 68.3301 86.2734L66.9427 84.9256C66.9427 84.9256 59.008 85.2559 56.2529 83.624L56.2595 83.6108Z" fill="url(#paint13_linear_4001_14293)"/>
<path d="M76.2978 77.7375H71.4551L72.5716 86.8879C72.5716 87.3504 74.2365 87.7336 76.2912 87.7336C78.3459 87.7336 80.0108 87.357 80.0108 86.8879L81.1274 77.7375H76.2846H76.2978Z" fill="url(#paint14_linear_4001_14293)"/>
<path d="M76.2978 78.5368C78.9724 78.5368 81.1406 78.1789 81.1406 77.7374C81.1406 77.2959 78.9724 76.938 76.2978 76.938C73.6233 76.938 71.4551 77.2959 71.4551 77.7374C71.4551 78.1789 73.6233 78.5368 76.2978 78.5368Z" fill="white"/>
<path d="M76.2983 78.5368C78.608 78.5368 80.4804 78.2736 80.4804 77.9488C80.4804 77.6241 78.608 77.3608 76.2983 77.3608C73.9886 77.3608 72.1162 77.6241 72.1162 77.9488C72.1162 78.2736 73.9886 78.5368 76.2983 78.5368Z" fill="#641C01"/>
<path d="M50.7497 28.1735C50.7497 28.1735 61.446 31.0012 80.2819 22.5313C80.2819 22.5313 81.1936 21.5931 80.6189 21.0117L71.0985 16.4729L49.9238 21.5535L50.7431 28.1735H50.7497Z" fill="url(#paint15_linear_4001_14293)"/>
<path d="M63.0648 4.26995C63.0648 4.26995 49.5143 5.5913 41.1435 17.642C41.1435 17.642 37.827 22.0355 40.0204 25.8344C42.2138 29.6333 50.4789 28.2855 50.4789 28.2855C50.4789 28.2855 63.6528 22.7557 70.2728 21.6523C76.8927 20.549 80.7379 21.2031 80.7379 21.2031C80.7379 21.2031 83.9356 22.346 83.8431 19.6967C83.8431 19.6967 84.9992 13.1428 79.0862 8.85504C79.0862 8.85504 71.9839 3.60928 63.0648 4.26995Z" fill="url(#paint16_linear_4001_14293)"/>
<path d="M58.9425 5.14244C58.9425 5.14244 57.9779 2.54598 60.7528 1" stroke="url(#paint17_linear_4001_14293)" stroke-width="0.642819" stroke-miterlimit="10"/>
<path d="M58.658 6.08057C58.658 6.08057 50.241 13.8765 54.8062 12.2843L58.658 6.08057Z" fill="#3D7C62"/>
<path d="M59.398 6.12671C59.398 6.12671 59.7217 13.0836 58.4268 10.4541L59.398 6.12671Z" fill="#3D7C62"/>
<path d="M67.0551 29.3496C67.0551 29.3496 62.7145 25.9537 59.2129 29.8649" stroke="#2E1A10" stroke-width="1.28564" stroke-miterlimit="10" stroke-linecap="round"/>
<path d="M49.4745 98.9651C49.4745 98.9651 47.3471 95.1464 42.6299 97.505C42.6299 97.505 45.0414 100.808 49.4745 98.9651Z" fill="#66BA65"/>
<path d="M49.475 98.9651C49.475 98.9651 47.7374 97.3399 45.0947 97.7957C45.0947 97.7957 47.1626 97.809 49.475 98.9651Z" fill="#246023"/>
<path d="M108.762 70.7739C107.89 71.4214 107.23 71.9036 106.576 72.3859C105.921 72.8682 105.261 73.3505 104.389 73.998C104.389 73.998 104.607 73.5421 104.917 72.9673C105.228 72.3859 105.637 71.6592 106.199 70.7475C106.761 69.8357 107.467 68.7324 108.525 67.3318C108.994 66.7107 109.37 66.235 109.76 65.766C110.15 65.2969 110.559 64.8278 111.141 64.2134V66.9155C111.141 67.7216 111.59 68.6928 110.943 69.1751C110.295 69.6507 109.601 70.1661 108.769 70.7805L108.762 70.7739Z" fill="#FEFFFF"/>
<path d="M109.02 66.6912C108.954 66.7969 108.921 66.8563 108.862 66.962C108.505 67.4245 108.32 67.6624 107.917 68.1446C108.122 67.8539 108.234 67.7086 108.452 67.4113C108.67 67.1206 108.789 66.9753 109.02 66.6912Z" fill="#ECEFF2"/>
<path d="M109.213 66.4598C109.173 66.5259 109.153 66.5589 109.12 66.6316C109.279 66.4201 109.358 66.3144 109.51 66.103C109.391 66.2484 109.332 66.3144 109.219 66.4598H109.213Z" fill="#ECEFF2"/>
<path d="M107.416 68.8712C108.202 67.9925 108.73 67.3517 109.232 66.7306C109.734 66.1096 110.19 65.4952 110.712 64.7354C110.884 64.5504 110.963 64.4645 111.142 64.2795V67.3186C110.514 67.9727 110.012 68.4682 109.497 68.9637C108.981 69.4592 108.453 69.9547 107.719 70.6022C107.752 70.2653 107.779 70.0869 107.858 69.7037C107.858 69.7037 107.924 69.4658 107.647 69.7037C107.019 70.2983 106.689 70.5956 106.021 71.1902C106.134 70.9656 106.2 70.8533 106.332 70.6088C107.323 69.6773 107.792 69.2148 108.677 68.3031C108.677 68.3031 108.902 68.0586 108.968 67.834C108.968 67.834 109.067 67.5499 108.869 67.7547C108.023 68.6796 107.561 69.1553 106.596 70.1133C106.9 69.6376 107.065 69.3866 107.416 68.8778V68.8712Z" fill="#ECEFF2"/>
<path d="M105.526 71.8707C105.631 71.798 105.684 71.7584 105.79 71.6791C106.444 71.1374 106.761 70.8599 107.382 70.3115C107.118 71.514 107.006 71.8839 106.695 72.2473C105.883 72.8683 105.519 73.159 104.898 73.6149C104.693 73.7669 104.588 73.8461 104.383 73.9981C104.383 73.9981 104.634 73.4167 105.526 71.8707Z" fill="#ECEFF2"/>
<path d="M107.746 70.9523C107.746 71.58 107.382 71.646 107.145 71.9103C107.733 71.4676 108.208 71.1109 108.704 70.7607C109.199 70.404 109.708 70.0406 110.421 69.5583C111.089 69.0694 111.142 68.6862 111.142 67.8604C110.507 68.488 110.005 68.9571 109.497 69.4262C108.988 69.8952 108.466 70.3577 107.746 70.9589V70.9523Z" fill="#ECEFF2"/>
<path d="M106.853 72.1679C107.772 71.4742 108.3 71.0712 109.443 70.2585C109.166 70.4766 109.02 70.5889 108.696 70.8201C107.884 71.4147 107.481 71.712 106.675 72.3066C106.741 72.2538 106.781 72.2274 106.853 72.1679Z" fill="#ECEFF2"/>
<path d="M106.385 72.5248C106.424 72.4984 106.444 72.4786 106.484 72.4456C106.239 72.6305 106.12 72.7164 105.902 72.8816C106.094 72.7363 106.193 72.6702 106.385 72.5248Z" fill="#ECEFF2"/>
<path d="M104.997 73.093C105.447 72.7362 105.678 72.5578 106.154 72.201C106.154 72.201 106.893 71.6659 106.86 71.8773C106.86 71.8773 106.761 72.135 105.889 72.8353C105.572 73.0864 105.42 73.2053 105.136 73.4233C105.136 73.4233 104.475 73.9717 104.442 73.8858C104.502 73.7735 104.548 73.6744 104.674 73.4233C104.674 73.4233 104.76 73.2846 104.997 73.0864V73.093Z" fill="#A0E3F9"/>
<path d="M108.611 70.2058C108.611 70.2058 108.235 70.7475 108.03 70.9986C108.03 70.9986 107.554 71.5073 108.215 71.0448C109.166 70.3577 109.668 70.0076 110.725 69.3205C111.267 68.9241 111.135 68.5211 111.135 67.8472C110.659 68.3229 110.283 68.6796 109.906 69.0298C109.53 69.3799 109.14 69.7367 108.611 70.1992V70.2058Z" fill="#A0E3F9"/>
<path d="M92.1802 89.6365C92.1802 89.6365 90.1189 89.3062 89.1411 89.4581C88.1633 89.6101 87.1459 89.6365 86.3993 89.5903C85.6461 89.544 84.7608 89.4713 83.6905 89.3194C82.6202 89.1674 81.5169 88.956 80.3145 88.738C80.8826 87.5752 81.4112 86.4983 81.9133 85.4743C82.4154 84.4568 82.8845 83.4922 83.3404 82.5673C83.7962 81.6423 84.2323 80.7504 84.6617 79.8717C85.0911 78.993 85.514 78.1275 85.9434 77.2488C86.3729 76.3701 86.8089 75.4782 87.2648 74.5533C87.7206 73.6283 88.1897 72.6638 88.6918 71.6463C89.1939 70.6289 89.7225 69.5454 90.2907 68.3826C90.2907 68.3826 90.806 68.4288 91.4865 68.5147C92.167 68.6072 93.0259 68.7393 94.0037 68.9309C94.9815 69.1225 96.0782 69.3802 97.3269 69.7502C98.5756 70.1201 99.9762 70.609 101.483 71.3622C100.954 72.4061 100.458 73.3773 99.996 74.289C99.5269 75.2074 99.0909 76.0662 98.668 76.8987C98.2452 77.7311 97.8422 78.5306 97.4392 79.3168C97.0362 80.103 96.6398 80.8826 96.2434 81.6688C95.847 82.455 95.4373 83.2544 95.0145 84.0868C94.5917 84.9193 94.1556 85.7782 93.6865 86.6965C93.2241 87.6148 92.7286 88.5794 92.2 89.6233L92.1802 89.6365Z" fill="white"/>
<path d="M90.2051 68.5544C89.888 69.2019 89.7295 69.5256 89.4189 70.1665C89.6634 69.8295 89.8682 69.6578 90.4034 69.3473C90.5091 69.0499 90.5619 68.898 90.6742 68.6007C90.3241 68.561 90.2184 68.5544 90.2118 68.5544H90.2051Z" fill="#EAEEF2"/>
<path d="M90.8786 68.6204C90.8059 68.8318 90.7729 68.9375 90.7002 69.1489C91.09 68.9904 91.3212 68.9111 91.83 68.7723C91.7242 69.1886 91.6714 69.3934 91.5657 69.8096C92.3849 69.5784 92.8606 69.4793 93.8979 69.3339C93.9045 69.2414 93.9111 69.1886 93.9177 69.0961C92.3519 68.7855 91.6648 68.7063 90.8786 68.6138V68.6204Z" fill="#EAEEF2"/>
<path d="M91.3016 69.5386C90.0265 69.9878 89.5508 70.2653 89.0949 70.8137C88.6787 71.6593 88.3351 72.3663 88.018 73.0203C87.6943 73.681 87.397 74.2888 87.0798 74.9495C86.7561 75.6102 86.4125 76.3105 86.0029 77.1562C86.1813 77.1363 86.287 77.1297 86.5117 77.1165C86.5117 77.1165 87.2582 75.7952 87.8264 74.5531C88.4474 74.2492 88.8637 74.1105 89.7556 73.8396C89.9736 73.5026 90.0793 73.3309 90.2973 72.9939C90.4955 72.3002 90.6475 71.7849 90.7994 71.2695C90.9514 70.7542 91.1034 70.2323 91.3148 69.5452L91.3016 69.5386Z" fill="#EAEEF2"/>
<path d="M93.7921 70.0146C92.702 70.1732 92.1999 70.2855 91.3344 70.53C91.0503 71.5606 90.9049 72.076 90.6275 73.1C90.3037 73.6219 90.1452 73.8796 89.8214 74.4015C88.9097 74.6856 88.4604 74.831 87.7799 75.1415C87.3175 76.0664 87.0796 76.5355 86.6039 77.4605C86.2868 78.392 86.0556 79.0923 85.8376 79.7927C85.6129 80.493 85.4015 81.1933 85.124 82.1381C85.5865 82.0257 85.8772 81.9795 86.3991 81.8606C86.6039 81.0413 86.7096 80.6251 86.9211 79.8059C86.9211 79.8059 87.0928 79.0857 87.4628 78.3193C87.8262 77.553 88.3613 76.7337 89.1409 76.5421C89.7554 76.4166 90.2377 76.3307 90.7332 76.2514C91.2287 76.1722 91.7308 76.0995 92.4774 76.007C92.7416 74.8178 92.9398 73.9258 93.138 73.0273C93.3362 72.1288 93.5344 71.2303 93.7921 70.0213V70.0146Z" fill="#EAEEF2"/>
<path d="M85.6325 77.9029C85.8505 77.8435 85.9694 77.8104 86.2271 77.751C85.9034 78.6429 85.6787 79.3102 85.4541 79.9775C85.2295 80.6447 85.0115 81.3186 84.734 82.2171C84.2319 82.3691 83.9874 82.4418 83.5117 82.5937C83.8553 81.7282 84.0337 81.2988 84.4036 80.4333C84.8991 79.4225 85.1436 78.9138 85.6391 77.9029H85.6325Z" fill="#EAEEF2"/>
<path d="M83.2674 83.2743C84.3377 82.9902 84.9191 82.8647 86.1942 82.574C86.0158 83.2214 85.8837 83.7103 85.7582 84.1992C85.626 84.6881 85.5005 85.177 85.3287 85.8245C84.8266 85.8708 84.5689 85.8906 84.047 85.9236C83.7695 86.5512 83.5515 87.0137 83.3401 87.4828C83.1287 87.9519 82.9173 88.421 82.6266 89.042C82.4019 89.0618 82.316 89.075 82.1244 89.0948C81.7875 89.0354 81.6223 89.009 81.292 88.9495C81.6554 87.8131 81.9461 86.9609 82.2434 86.1086C82.5407 85.2563 82.8446 84.4107 83.2674 83.2809V83.2743Z" fill="#EAEEF2"/>
<path d="M86.6176 82.5278C87.4567 82.3627 87.8729 82.2702 88.6922 82.0918C88.4609 82.9903 88.2825 83.6576 88.1042 84.3315C87.9258 85.0054 87.7474 85.6727 87.503 86.5646C87.0933 86.6769 86.8819 86.7364 86.4459 86.8421C86.4459 86.8421 86.1816 86.9544 86.0627 87.4102C85.8645 88.2757 85.7588 88.7052 85.554 89.564C85.2633 89.5376 85.1113 89.5244 84.8008 89.4914C85.0386 88.5664 85.2368 87.7934 85.4218 87.0667C85.6068 86.3465 85.7786 85.6727 85.9702 84.9525C86.1618 84.2324 86.36 83.4528 86.611 82.5278H86.6176Z" fill="#EAEEF2"/>
<path d="M84.2187 86.5513C84.5953 86.5513 84.7803 86.5513 85.1437 86.5381C84.8398 87.7009 84.6878 88.2823 84.3905 89.4385C83.8752 89.379 83.6043 89.3394 83.0361 89.2469C83.5118 88.17 83.7497 87.6282 84.2187 86.5447V86.5513Z" fill="#EAEEF2"/>
<path d="M94.3077 70.0012C95.378 69.8955 95.9528 69.8691 97.142 69.8889C97.9414 70.1201 98.5558 70.3315 99.1637 70.5562C99.7715 70.7874 100.386 71.0319 101.172 71.4151C101.06 71.6991 101.007 71.8379 100.895 72.122C99.8177 71.8973 99.2628 71.7982 98.1132 71.719C98.1132 71.719 97.9414 71.7586 97.8886 71.9898C97.8886 71.9898 97.8357 72.2673 98.0273 72.2938C99.1769 72.3995 99.7252 72.5184 100.762 72.7628C100.247 73.7737 99.9895 74.2758 99.4808 75.2866C98.9126 75.2139 98.4303 75.1545 97.9282 75.1148C97.4261 75.0752 96.8975 75.0356 96.1246 75.095C96.2303 74.5004 96.3029 74.1965 96.4285 73.5887C96.4285 73.5887 96.5408 73.1923 96.2038 73.2121C95.0939 73.2914 94.5521 73.3574 93.5215 73.5226C93.68 72.8223 93.7924 72.2938 93.9113 71.7652C94.0302 71.2367 94.1425 70.7081 94.3011 69.9946L94.3077 70.0012Z" fill="#EAEEF2"/>
<path d="M93.3823 74.2296C94.3469 74.0512 94.8556 73.9719 95.8863 73.8662C95.6286 74.9894 95.4304 75.8152 95.2256 76.641C95.0208 77.4669 94.8622 78.2729 94.6376 79.3498C95.2785 79.8585 95.5559 80.2153 95.8995 80.8496C95.8731 80.9024 95.8599 80.9354 95.8334 80.9883C95.2124 80.8297 94.5517 80.7174 93.8052 80.7637C93.0586 80.8099 92.6159 80.8496 91.876 80.9024C92.0808 80.0303 92.2526 79.2904 92.4111 78.6033C92.5697 77.9162 92.715 77.2687 92.867 76.575C93.0189 75.8813 93.1841 75.1281 93.3823 74.223V74.2296Z" fill="#EAEEF2"/>
<path d="M99.1633 75.9078C98.0996 75.7955 97.472 75.6303 95.9855 75.7492C95.708 77.0375 95.5692 77.6718 95.2852 78.9535C95.8203 79.4886 96.0515 79.819 96.3224 80.4136C96.3224 80.4136 96.4347 80.5721 96.2762 80.9223C96.2365 80.995 96.2167 81.028 96.1771 81.0941C96.296 81.1668 96.3555 81.2064 96.4413 81.2659C96.9831 80.1956 97.3927 79.3895 97.8023 78.5901C98.212 77.7841 98.6216 76.9847 99.1633 75.9144V75.9078Z" fill="#EAEEF2"/>
<path d="M96.1379 81.8473C96.1379 81.8473 96.0718 81.55 95.1667 81.4641C95.1931 82.1842 95.1866 82.5542 95.0941 83.2545C95.0412 83.3735 95.0148 83.4329 94.9619 83.5518C95.1073 83.5518 95.1733 83.5518 95.279 83.5386C95.6226 82.8647 95.7944 82.5278 96.1379 81.8539V81.8473Z" fill="#EAEEF2"/>
<path d="M94.9614 84.1726C94.8887 84.1858 94.8425 84.1924 94.7434 84.1924C94.3536 85.2099 94.1422 85.712 93.6797 86.6898C94.195 85.6856 94.4461 85.1768 94.9614 84.1726Z" fill="#EAEEF2"/>
<path d="M89.1679 86.7826C89.5313 86.6769 89.7163 86.624 90.0863 86.5117C89.789 87.7075 89.6304 88.2955 89.3199 89.4583C88.9697 89.5178 88.7913 89.5442 88.4346 89.5839C88.7319 88.4739 88.8838 87.919 89.1679 86.7892V86.7826Z" fill="#EAEEF2"/>
<path d="M86.4717 87.4365C87.3438 87.2383 87.7468 87.1525 88.7114 86.8882C88.4471 87.9849 88.3084 88.5333 88.0309 89.6102C87.139 89.6762 86.7227 89.6432 85.9365 89.5837C86.1545 88.7249 86.2603 88.2954 86.4717 87.4299V87.4365Z" fill="#FFF8DD"/>
<path d="M89.095 82.0322C89.8548 81.9133 90.3305 81.8604 91.2158 81.7151C91.0242 82.5608 90.8788 83.1884 90.7269 83.816C90.5749 84.4437 90.4296 85.0647 90.2248 85.884C89.28 86.1416 88.8175 86.2671 87.8926 86.4389C88.1238 85.5602 88.3088 84.8995 88.4938 84.2389C88.6722 83.5782 88.8572 82.9175 89.0884 82.0322H89.095Z" fill="#BEEAB5"/>
<path d="M91.7311 81.5633C92.7419 81.4708 93.3894 81.2858 94.539 81.3981C94.6645 82.1381 94.7042 82.5213 94.6909 83.2811C94.4201 84.1532 94.202 84.8072 93.9708 85.4547C93.7396 86.1022 93.4951 86.743 93.1384 87.5821C93.1384 87.5821 92.9798 87.9587 92.9798 88.0181C92.9864 88.0181 92.9864 88.0181 92.993 88.0247C92.6561 88.6788 92.4909 89.0091 92.1605 89.6698C92.1605 89.6698 90.7665 89.1809 89.7227 89.3923C90.0067 88.3881 90.238 87.5358 90.4494 86.7364C90.6608 85.937 90.8524 85.1772 91.0572 84.358C91.262 83.5387 91.4734 82.6534 91.7245 81.5699L91.7311 81.5633Z" fill="#BEEAB5"/>
<path d="M92.3587 76.6543C91.5725 76.76 91.0373 76.8459 90.5154 76.9384C89.9935 77.0309 89.4847 77.13 88.8307 77.2687C88.8307 77.2687 88.1502 77.5396 87.7868 78.4712C87.7868 78.4712 87.3045 79.482 87.1129 80.7175C87.0072 81.1403 86.9543 81.3451 86.8486 81.7679C87.7273 81.6292 88.388 81.5169 89.0355 81.4046C89.6829 81.2922 90.3899 81.1931 91.3875 81.028C91.5857 80.1625 91.731 79.5084 91.8764 78.8543C92.0217 78.2003 92.1671 77.5396 92.3587 76.6543Z" fill="#EAEEF2"/>
<path d="M90.9445 76.8589C90.9445 76.8589 91.7835 76.7004 91.7835 77.8301C91.7835 77.8301 91.7439 79.8254 90.5877 80.453C89.2531 80.7437 88.751 80.8891 87.5618 81.1864C87.5618 81.1864 87.1191 81.2789 87.1191 80.7173C87.1191 80.7173 87.205 80.0038 87.4627 79.2175C87.727 78.4313 88.1498 77.5659 88.8369 77.2686C89.6495 77.0968 90.0724 77.0109 90.9445 76.8655V76.8589Z" fill="#A1E3F9"/>
<path d="M81.5039 86.3597C81.6162 86.3267 81.6691 86.3134 81.7814 86.287C82.1051 85.3951 82.2769 84.9524 82.6271 84.0671C82.1778 84.9855 81.9532 85.4413 81.5039 86.3597Z" fill="#EAEEF2"/>
<path d="M81.167 87.0532C81.3255 87.0135 81.4048 87.0003 81.5568 86.9607C81.2727 87.7205 81.1339 88.1037 80.863 88.87C80.645 88.8304 80.5393 88.8106 80.3213 88.7709C80.6582 88.0838 80.8234 87.7403 81.1604 87.0532H81.167Z" fill="#EAEEF2"/>
<path d="M102.005 84.1593C101.311 85.3155 100.505 86.9737 100.307 86.9209C100.109 86.8614 99.1902 86.6236 98.1463 86.5707C97.1025 86.5179 95.867 86.6104 94.9289 87.3371C93.9907 88.0639 93.1582 89.4249 92.1738 89.6627C92.7354 88.566 93.2441 87.5551 93.7264 86.6104C94.2087 85.6656 94.658 84.7803 95.094 83.928C95.5301 83.0758 95.9463 82.2499 96.3691 81.4241C96.7853 80.5982 97.2082 79.779 97.6442 78.9201C98.0803 78.0678 98.5295 77.1825 99.0118 76.2378C99.4941 75.293 100.003 74.2822 100.564 73.1854C101.225 71.8905 101.43 71.4214 101.516 71.0184C101.602 70.6154 101.912 70.0142 102.837 69.5914C103.762 69.1685 106.088 69.1025 107.27 69.0628C108.453 69.0166 109.721 68.9703 111.175 68.9175C110.567 69.9349 110.005 70.8665 109.477 71.7386C108.948 72.6107 108.46 73.4299 107.984 74.2227C107.508 75.0155 107.052 75.7753 106.596 76.5351C106.141 77.2949 105.678 78.0612 105.209 78.8474C104.733 79.6403 104.244 80.4529 103.716 81.3316C103.187 82.2103 102.632 83.1352 102.018 84.1527L102.005 84.1593Z" fill="white"/>
<path d="M100.69 72.9014C100.591 73.0996 100.544 73.1987 100.445 73.3969C100.782 72.7561 100.954 72.4257 101.284 71.7783C101.284 71.7783 101.311 71.732 101.232 71.9104C101.232 71.9104 101.179 72.0491 101.093 72.2143C100.756 72.8618 100.584 73.1987 100.234 73.833C99.8177 74.7051 99.4741 75.4318 99.1702 76.1189C98.8597 76.7994 98.5822 77.4403 98.2849 78.1208C97.9876 78.8079 97.6837 79.5412 97.3203 80.4265C97.9149 79.5809 97.9083 79.5016 98.166 79.0589C98.4302 78.6163 98.7276 78.2066 99.2495 77.7243C99.4873 76.8126 99.712 76.0594 99.93 75.3591C100.148 74.6588 100.366 74.0114 100.617 73.3044C100.868 72.6041 101.152 71.8509 101.516 70.9392C101.364 71.4942 101.377 71.5404 100.69 72.8948V72.9014Z" fill="#E9EFF1"/>
<path d="M101.581 70.754C101.211 71.7582 101.033 72.2603 100.716 73.2712C101.271 72.4651 101.621 72.0159 103.121 71.4147C103.524 70.536 103.735 70.0933 104.178 69.208C102.077 69.5582 101.846 70.1197 101.581 70.754Z" fill="#E9EFF1"/>
<path d="M104.957 69.109C104.396 70.1 104.138 70.5955 103.643 71.5865C103.643 71.5865 104.574 72.1415 105.116 73.4628C105.083 74.7115 104.964 75.4184 104.832 76.4821C105.407 76.2112 105.691 76.0725 106.265 75.8016C106.365 75.0617 106.404 74.3878 106.424 73.7337C106.444 73.073 106.431 72.4454 106.417 71.6724C106.404 70.906 106.437 70.0669 105.876 69.0759C105.479 69.0759 105.294 69.0825 104.957 69.109Z" fill="#E9EFF1"/>
<path d="M100.577 73.7536C101.178 72.9608 101.561 72.5313 103.054 71.9631C103.054 71.9631 102.942 72.1415 103.517 72.7626C103.88 73.1854 104.085 73.41 104.501 73.8989C104.812 74.9956 104.6 75.5242 104.442 76.5945C103.808 76.6407 102.645 76.5813 101.826 76.6804C101.006 76.7795 100.299 76.9512 99.6123 77.3212C99.7775 76.6011 99.9162 76.0593 100.062 75.5242C100.207 74.989 100.352 74.4539 100.57 73.747L100.577 73.7536Z" fill="#E9EFF1"/>
<path d="M99.9887 74.2822C99.5989 75.0618 99.4073 75.4582 99.0307 76.251C98.9449 76.3898 98.9052 76.4559 98.8193 76.5814C99.2884 75.663 99.5196 75.2006 99.9887 74.2822Z" fill="#E9EFF1"/>
<path d="M98.509 77.1958C98.6147 77.0372 98.6675 76.9579 98.7732 76.7861C98.39 77.6054 98.1126 78.2264 97.8417 78.8408C97.5708 79.4619 97.3065 80.0763 96.963 80.9021C96.7317 81.2193 96.6128 81.3778 96.3882 81.6619C96.2494 81.8139 96.1834 81.8799 96.0645 81.9989C96.5534 81.0409 96.9167 80.3141 97.2867 79.594C97.6501 78.8739 98.0201 78.1537 98.509 77.1891V77.1958Z" fill="#E9EFF1"/>
<path d="M95.7877 82.5338C95.8934 82.4479 95.9463 82.395 96.0718 82.2761C96.3955 81.8863 96.5805 81.6485 96.9109 81.186C97.1024 80.9349 97.2015 80.8028 97.3667 80.5649C97.1421 81.0671 97.0298 81.3181 96.7985 81.8268C96.7985 81.8268 96.6532 82.1572 96.4021 82.4875C95.8472 83.2076 95.4706 83.6569 94.9883 84.0929C95.3054 83.4719 95.464 83.1548 95.7811 82.5338H95.7877Z" fill="#E9EFF1"/>
<path d="M97.6099 80.2149C98.0592 79.5146 98.2574 78.986 99.0832 78.2593C98.852 79.1644 98.6868 79.9242 98.5414 80.6443C98.3961 81.3645 98.2706 82.0317 98.145 82.7651C98.0195 83.4984 97.9006 84.2912 97.7618 85.2624C97.0681 85.454 96.5396 85.6787 96.0507 85.9694C95.5618 86.2601 95.0861 86.6036 94.6236 87.3105C94.7888 86.8547 94.9606 86.4979 95.172 85.9694C95.172 85.9694 95.5089 85.236 95.2116 85.5862C94.6633 86.2601 93.996 87.0661 93.2891 87.588C93.4344 87.2445 93.5071 87.0727 93.6524 86.7225C94.0753 85.8967 94.2867 85.4805 94.7029 84.648C95.2315 84.1921 95.6609 83.6834 96.2489 82.917C96.2489 82.917 96.6321 82.4215 96.9426 81.7212C97.2069 81.1134 97.339 80.8161 97.6033 80.2083L97.6099 80.2149Z" fill="#E9EFF1"/>
<path d="M99.5265 77.8828C100.418 77.4533 101.006 77.3146 102.473 77.2617C102.143 77.9554 101.984 78.299 101.674 78.9861C101.231 79.5477 101.02 79.8251 100.603 80.3867C99.8899 80.5783 99.553 80.6906 98.9121 80.9813C99.1367 79.726 99.2557 79.105 99.5265 77.8828Z" fill="#E9EFF1"/>
<path d="M103.074 77.2354C104.052 77.2552 104.197 77.2948 104.653 77.057C105.109 76.8191 105.565 76.5813 106.173 76.2642C106.133 76.5615 106.113 76.7068 106.06 76.9843C105.472 77.5327 105.188 77.8101 104.627 78.3981C104.627 78.3981 104.382 78.7153 104.032 79.2438C103.682 79.7724 103.233 80.5123 102.81 81.3382C102.479 82.1772 102.228 82.7916 101.977 83.4061C101.72 84.0205 101.469 84.6349 101.118 85.4343C100.583 86.2866 100.517 86.3197 100.088 86.3395C99.6583 86.3593 99.0637 86.3395 98.1123 86.4386C98.2444 85.4343 98.3435 84.6944 98.4492 83.961C98.555 83.2277 98.6607 82.5009 98.8192 81.543C98.8192 81.543 100.187 81.1928 100.735 80.8691C101.244 80.2745 101.502 79.9772 102.07 79.3892C102.46 78.5237 102.658 78.0942 103.081 77.2287L103.074 77.2354Z" fill="#E9EFF1"/>
<path d="M105.915 77.6516C105.948 77.5195 105.961 77.4534 105.994 77.3147C105.413 77.8631 105.135 78.1471 104.58 78.7418C103.966 79.6535 103.668 80.1226 103.094 81.1004C102.79 81.8271 102.558 82.3623 102.327 82.8974C102.096 83.4326 101.858 83.9611 101.541 84.6614C101.541 84.6614 101.733 84.3641 102.096 83.7893C102.459 83.2145 102.995 82.3755 103.708 81.3184C104.151 80.585 104.481 80.0367 104.811 79.4817C105.142 78.9334 105.472 78.3784 105.915 77.645V77.6516Z" fill="#E9EFF1"/>
<path d="M103.2 82.1638C103.2 82.1638 102.949 82.5404 102.592 83.102C102.236 83.6636 101.773 84.4167 101.331 85.1369C101.212 85.3945 101.152 85.5201 101.033 85.7777C101.132 85.6125 101.179 85.5333 101.278 85.3681C101.641 84.7405 101.826 84.4299 102.209 83.8221C102.606 83.1614 102.804 82.8311 103.207 82.1638H103.2Z" fill="#E9EFF1"/>
<path d="M106.794 69.0828C106.92 70.2324 106.939 71.2035 106.946 72.0228C106.953 72.842 106.926 73.5555 106.86 74.2757C106.794 74.9958 106.702 75.7226 106.517 76.5022C106.583 76.4493 106.609 76.4229 106.675 76.37C107.309 75.3196 107.778 74.5334 108.254 73.7405C108.73 72.9543 109.199 72.1615 109.833 71.1111C109.794 70.3248 109.747 69.8954 109.615 68.9705C108.485 69.0101 107.924 69.0299 106.794 69.0762V69.0828Z" fill="#FFF8DE"/>
<path d="M110.249 68.9505C110.308 69.5055 110.328 69.7631 110.348 70.2719C110.672 69.7301 110.837 69.4592 111.161 68.9175C110.797 68.9307 110.612 68.9373 110.249 68.9505Z" fill="#E9EFF1"/>
<path d="M94.4131 87.8459C94.9086 87.1324 95.4041 86.7888 95.9062 86.5047C96.4083 86.2206 96.9567 86.0026 97.6636 85.8176C97.6306 86.1149 97.6108 86.2603 97.5777 86.5576C96.8774 86.5708 96.3357 86.6633 95.8401 86.8417C95.3446 87.0201 94.8623 87.2579 94.4131 87.8459Z" fill="#E9EFF1"/>
<path d="M92.9199 88.1829C93.6335 87.76 94.4131 86.8417 94.9945 86.1348C94.8227 86.6105 94.7368 86.8483 94.5518 87.3372C94.4395 87.6081 94.38 87.7468 94.2677 88.0177C93.8647 88.4339 92.8803 89.4976 92.1602 89.6694C92.4641 89.0748 92.6094 88.7841 92.9133 88.1895L92.9199 88.1829Z" fill="#C0E9B4"/>
<path d="M98.1055 86.4451C99.0503 86.346 99.6515 86.3725 100.081 86.346C100.51 86.3262 100.576 86.2932 101.112 85.4409C100.986 85.7316 100.92 85.877 100.794 86.1677C99.8761 87.6938 99.9356 86.6433 98.0791 86.5575C98.0923 86.5112 98.0989 86.4848 98.1121 86.4385L98.1055 86.4451Z" fill="#A0E2F9"/>
<path d="M92.2266 89.6363C92.9335 89.4645 94.4266 87.8855 94.4266 87.8855C96.0651 85.593 100.399 86.9011 100.399 86.9011L111.221 68.8977L106.609 69.0695C101.245 68.8515 101.535 71.3554 101.535 71.3554L92.2332 89.6429L92.2266 89.6363Z" fill="url(#paint18_linear_4001_14293)" fill-opacity="0.5"/>
<path d="M92.2134 89.6759C92.2134 89.6759 91.3876 89.068 89.8878 89.372C88.8307 89.59 87.7538 89.7023 86.6703 89.6494C85.5868 89.5966 84.1201 89.4578 82.4949 89.1671L80.3477 88.784L90.3305 68.4021C90.3305 68.4021 96.488 68.8778 101.516 71.3884L92.2134 89.6759Z" fill="url(#paint19_linear_4001_14293)" fill-opacity="0.5"/>
<path d="M107.799 74.4473C107.68 74.4143 107.548 74.4473 107.442 74.5398L106.246 75.6696L104.383 75.0353C104.086 74.9362 103.789 75.2335 103.868 75.5572L104.192 76.9645L102.289 77.4402C101.972 77.5195 101.859 77.9489 102.097 78.1801L103.339 79.376L102.381 80.618C102.15 80.9153 102.355 81.3382 102.705 81.3051L103.656 81.2126C103.656 81.2126 103.848 81.3316 104.172 81.543C108.671 79.4618 107.806 74.4275 107.806 74.4275L107.799 74.4473Z" fill="url(#paint20_linear_4001_14293)"/>
<path d="M96.056 33.1621L96.7286 35.2128C96.7724 35.3369 96.8601 35.439 96.9698 35.4828L98.7974 36.2418C99.1556 36.3877 99.1556 36.957 98.7974 37.1029L96.9698 37.8619C96.8601 37.9057 96.7724 38.0078 96.7286 38.1319L96.056 40.1826C95.9244 40.584 95.42 40.584 95.2884 40.1826L94.6158 38.1319C94.572 38.0078 94.4842 37.9057 94.3746 37.8619L92.547 37.1029C92.1888 36.957 92.1888 36.3877 92.547 36.2418L94.3746 35.4828C94.4842 35.439 94.572 35.3369 94.6158 35.2128L95.2884 33.1621C95.42 32.7607 95.9244 32.7607 96.056 33.1621Z" fill="white"/>
<defs>
<linearGradient id="paint0_linear_4001_14293" x1="14.9341" y1="49.7432" x2="51.3287" y2="89.0894" gradientUnits="userSpaceOnUse">
<stop stop-color="#E3F389"/>
<stop offset="1" stop-color="#9AB71A"/>
</linearGradient>
<linearGradient id="paint1_linear_4001_14293" x1="48.0672" y1="100.689" x2="73.1464" y2="100.689" gradientUnits="userSpaceOnUse">
<stop stop-color="#903912"/>
<stop offset="1" stop-color="#66331F"/>
</linearGradient>
<linearGradient id="paint2_linear_4001_14293" x1="52.7973" y1="100.808" x2="54.0393" y2="100.808" gradientUnits="userSpaceOnUse">
<stop stop-color="#903912"/>
<stop offset="1" stop-color="#66331F"/>
</linearGradient>
<linearGradient id="paint3_linear_4001_14293" x1="54.02" y1="100.597" x2="55.229" y2="100.597" gradientUnits="userSpaceOnUse">
<stop stop-color="#903912"/>
<stop offset="1" stop-color="#66331F"/>
</linearGradient>
<linearGradient id="paint4_linear_4001_14293" x1="56.2595" y1="102.215" x2="57.4751" y2="102.215" gradientUnits="userSpaceOnUse">
<stop stop-color="#903912"/>
<stop offset="1" stop-color="#66331F"/>
</linearGradient>
<radialGradient id="paint5_radial_4001_14293" cx="0" cy="0" r="1" gradientUnits="userSpaceOnUse" gradientTransform="translate(70.0554 88.8104) scale(19.4173 19.4173)">
<stop stop-color="#E3F389"/>
<stop offset="1" stop-color="#9AB71A"/>
</radialGradient>
<linearGradient id="paint6_linear_4001_14293" x1="71.2773" y1="102.665" x2="79.5688" y2="102.665" gradientUnits="userSpaceOnUse">
<stop stop-color="#903912"/>
<stop offset="1" stop-color="#66331F"/>
</linearGradient>
<linearGradient id="paint7_linear_4001_14293" x1="88.4482" y1="100.808" x2="91.9696" y2="100.808" gradientUnits="userSpaceOnUse">
<stop stop-color="#903912"/>
<stop offset="1" stop-color="#66331F"/>
</linearGradient>
<linearGradient id="paint8_linear_4001_14293" x1="101.629" y1="101.753" x2="107.02" y2="101.753" gradientUnits="userSpaceOnUse">
<stop stop-color="#903912"/>
<stop offset="1" stop-color="#66331F"/>
</linearGradient>
<linearGradient id="paint9_linear_4001_14293" x1="65.1924" y1="90.6272" x2="111.479" y2="90.6272" gradientUnits="userSpaceOnUse">
<stop stop-color="#903912"/>
<stop offset="1" stop-color="#66331F"/>
</linearGradient>
<linearGradient id="paint10_linear_4001_14293" x1="70.0088" y1="6.662" x2="69.6983" y2="60.3948" gradientUnits="userSpaceOnUse">
<stop stop-color="#E3FD73"/>
<stop offset="1" stop-color="#9AB71A"/>
</linearGradient>
<linearGradient id="paint11_linear_4001_14293" x1="71.8383" y1="41.8761" x2="71.8383" y2="88.9295" gradientUnits="userSpaceOnUse">
<stop stop-color="#F4FFB7"/>
<stop offset="1" stop-color="#E5FF53"/>
</linearGradient>
<linearGradient id="paint12_linear_4001_14293" x1="69.0304" y1="82.1177" x2="72.8689" y2="82.1177" gradientUnits="userSpaceOnUse">
<stop stop-color="white"/>
<stop offset="1" stop-color="#C1C1C1"/>
</linearGradient>
<linearGradient id="paint13_linear_4001_14293" x1="72.4308" y1="82.0355" x2="53.9365" y2="81.3127" gradientUnits="userSpaceOnUse">
<stop stop-color="#E3F389"/>
<stop offset="0.96" stop-color="#9AB71A"/>
</linearGradient>
<linearGradient id="paint14_linear_4001_14293" x1="71.4551" y1="82.7323" x2="81.1406" y2="82.7323" gradientUnits="userSpaceOnUse">
<stop stop-color="white"/>
<stop offset="1" stop-color="#C1C1C1"/>
</linearGradient>
<linearGradient id="paint15_linear_4001_14293" x1="59.8193" y1="15.4285" x2="76.4582" y2="41.3759" gradientUnits="userSpaceOnUse">
<stop stop-color="#6EBD6B"/>
<stop offset="1" stop-color="#015E75"/>
</linearGradient>
<linearGradient id="paint16_linear_4001_14293" x1="61.3699" y1="4.05635" x2="61.7374" y2="29.5108" gradientUnits="userSpaceOnUse">
<stop stop-color="#6EBD6B"/>
<stop offset="1" stop-color="#015E75"/>
</linearGradient>
<linearGradient id="paint17_linear_4001_14293" x1="58.5112" y1="2.92366" x2="60.813" y2="3.058" gradientUnits="userSpaceOnUse">
<stop stop-color="#6EBD6B"/>
<stop offset="1" stop-color="#015E75"/>
</linearGradient>
<linearGradient id="paint18_linear_4001_14293" x1="98.4998" y1="78" x2="111.221" y2="79.2703" gradientUnits="userSpaceOnUse">
<stop stop-opacity="0"/>
<stop offset="1"/>
</linearGradient>
<linearGradient id="paint19_linear_4001_14293" x1="87.9995" y1="74.9999" x2="110.5" y2="81.9999" gradientUnits="userSpaceOnUse">
<stop stop-opacity="0"/>
<stop offset="1"/>
</linearGradient>
<linearGradient id="paint20_linear_4001_14293" x1="103.908" y1="74.8635" x2="106.405" y2="81.1994" gradientUnits="userSpaceOnUse">
<stop stop-color="#E3F389"/>
<stop offset="1" stop-color="#9AB71A"/>
</linearGradient>
</defs>
</svg>
