<svg width="76" height="76" viewBox="0 0 76 76" fill="none" xmlns="http://www.w3.org/2000/svg">
<g filter="url(#filter0_d_846_13440)">
<rect x="10" y="10" width="56" height="56" rx="28" fill="#6970F3" shape-rendering="crispEdges"/>
<path d="M30 39C30.5523 39 31 38.5523 31 38C31 37.4477 30.5523 37 30 37C29.4477 37 29 37.4477 29 38C29 38.5523 29.4477 39 30 39Z" fill="white"/>
<path d="M30 33C30.5523 33 31 32.5523 31 32C31 31.4477 30.5523 31 30 31C29.4477 31 29 31.4477 29 32C29 32.5523 29.4477 33 30 33Z" fill="white"/>
<path d="M30 45C30.5523 45 31 44.5523 31 44C31 43.4477 30.5523 43 30 43C29.4477 43 29 43.4477 29 44C29 44.5523 29.4477 45 30 45Z" fill="white"/>
<path d="M47 38L35 38M47 32L35 32M47 44L35 44M31 38C31 38.5523 30.5523 39 30 39C29.4477 39 29 38.5523 29 38C29 37.4477 29.4477 37 30 37C30.5523 37 31 37.4477 31 38ZM31 32C31 32.5523 30.5523 33 30 33C29.4477 33 29 32.5523 29 32C29 31.4477 29.4477 31 30 31C30.5523 31 31 31.4477 31 32ZM31 44C31 44.5523 30.5523 45 30 45C29.4477 45 29 44.5523 29 44C29 43.4477 29.4477 43 30 43C30.5523 43 31 43.4477 31 44Z" stroke="white" stroke-width="1.5" stroke-linecap="round" stroke-linejoin="round"/>
</g>
<defs>
<filter id="filter0_d_846_13440" x="0" y="0" width="76" height="76" filterUnits="userSpaceOnUse" color-interpolation-filters="sRGB">
<feFlood flood-opacity="0" result="BackgroundImageFix"/>
<feColorMatrix in="SourceAlpha" type="matrix" values="0 0 0 0 0 0 0 0 0 0 0 0 0 0 0 0 0 0 127 0" result="hardAlpha"/>
<feOffset/>
<feGaussianBlur stdDeviation="5"/>
<feComposite in2="hardAlpha" operator="out"/>
<feColorMatrix type="matrix" values="0 0 0 0 0 0 0 0 0 0 0 0 0 0 0 0 0 0 0.2 0"/>
<feBlend mode="normal" in2="BackgroundImageFix" result="effect1_dropShadow_846_13440"/>
<feBlend mode="normal" in="SourceGraphic" in2="effect1_dropShadow_846_13440" result="shape"/>
</filter>
</defs>
</svg>
