<svg width="84" height="84" viewBox="0 0 84 84" fill="none" xmlns="http://www.w3.org/2000/svg">
<g filter="url(#filter0_d_846_13448)">
<rect x="10" y="10" width="64" height="64" rx="32" fill="#6970F3" shape-rendering="crispEdges"/>
<path d="M34 43C34.5523 43 35 42.5523 35 42C35 41.4477 34.5523 41 34 41C33.4477 41 33 41.4477 33 42C33 42.5523 33.4477 43 34 43Z" fill="white"/>
<path d="M34 37C34.5523 37 35 36.5523 35 36C35 35.4477 34.5523 35 34 35C33.4477 35 33 35.4477 33 36C33 36.5523 33.4477 37 34 37Z" fill="white"/>
<path d="M34 49C34.5523 49 35 48.5523 35 48C35 47.4477 34.5523 47 34 47C33.4477 47 33 47.4477 33 48C33 48.5523 33.4477 49 34 49Z" fill="white"/>
<path d="M51 42L39 42M51 36L39 36M51 48L39 48M35 42C35 42.5523 34.5523 43 34 43C33.4477 43 33 42.5523 33 42C33 41.4477 33.4477 41 34 41C34.5523 41 35 41.4477 35 42ZM35 36C35 36.5523 34.5523 37 34 37C33.4477 37 33 36.5523 33 36C33 35.4477 33.4477 35 34 35C34.5523 35 35 35.4477 35 36ZM35 48C35 48.5523 34.5523 49 34 49C33.4477 49 33 48.5523 33 48C33 47.4477 33.4477 47 34 47C34.5523 47 35 47.4477 35 48Z" stroke="white" stroke-width="1.5" stroke-linecap="round" stroke-linejoin="round"/>
</g>
<defs>
<filter id="filter0_d_846_13448" x="0" y="0" width="84" height="84" filterUnits="userSpaceOnUse" color-interpolation-filters="sRGB">
<feFlood flood-opacity="0" result="BackgroundImageFix"/>
<feColorMatrix in="SourceAlpha" type="matrix" values="0 0 0 0 0 0 0 0 0 0 0 0 0 0 0 0 0 0 127 0" result="hardAlpha"/>
<feOffset/>
<feGaussianBlur stdDeviation="5"/>
<feComposite in2="hardAlpha" operator="out"/>
<feColorMatrix type="matrix" values="0 0 0 0 0 0 0 0 0 0 0 0 0 0 0 0 0 0 0.2 0"/>
<feBlend mode="normal" in2="BackgroundImageFix" result="effect1_dropShadow_846_13448"/>
<feBlend mode="normal" in="SourceGraphic" in2="effect1_dropShadow_846_13448" result="shape"/>
</filter>
</defs>
</svg>