<svg width="20" height="16" viewBox="0 0 20 16" fill="none" xmlns="http://www.w3.org/2000/svg">
<path d="M2 9C2.55228 9 3 8.55229 3 8C3 7.44772 2.55228 7 2 7C1.44772 7 1 7.44772 1 8C1 8.55229 1.44772 9 2 9Z" fill="white"/>
<path d="M2 3C2.55228 3 3 2.55228 3 2C3 1.44772 2.55228 1 2 1C1.44772 1 1 1.44772 1 2C1 2.55228 1.44772 3 2 3Z" fill="white"/>
<path d="M2 15C2.55228 15 3 14.5523 3 14C3 13.4477 2.55228 13 2 13C1.44772 13 1 13.4477 1 14C1 14.5523 1.44772 15 2 15Z" fill="white"/>
<path d="M19 8L7 8M19 2L7 2M19 14L7 14M3 8C3 8.55229 2.55228 9 2 9C1.44772 9 1 8.55229 1 8C1 7.44772 1.44772 7 2 7C2.55228 7 3 7.44772 3 8ZM3 2C3 2.55228 2.55228 3 2 3C1.44772 3 1 2.55228 1 2C1 1.44772 1.44772 1 2 1C2.55228 1 3 1.44772 3 2ZM3 14C3 14.5523 2.55228 15 2 15C1.44772 15 1 14.5523 1 14C1 13.4477 1.44772 13 2 13C2.55228 13 3 13.4477 3 14Z" stroke="white" stroke-width="1.5" stroke-linecap="round" stroke-linejoin="round"/>
</svg>
