<svg width="135" height="41" viewBox="0 0 135 41" fill="none" xmlns="http://www.w3.org/2000/svg">
<path d="M8.53524 0.0671387V25.4701H18.9154V33.2147H0V2.70272C2.51394 1.06055 5.43336 0.148234 8.43387 0.0671387H8.53524Z" fill="#E3F389"/>
<path d="M34.5046 33.9845C32.6192 33.9845 30.8756 33.6398 29.2335 32.991C27.6116 32.322 26.1924 31.3894 24.9963 30.173C23.8001 28.9566 22.8675 27.5374 22.1985 25.9155C21.5295 24.2936 21.2051 22.5298 21.2051 20.6038C21.2051 18.6778 21.5295 16.914 22.1985 15.2921C22.8675 13.6702 23.8001 12.251 24.9963 11.0549C26.1924 9.85871 27.6116 8.92612 29.2335 8.25709C30.8554 7.58805 32.6192 7.26367 34.5046 7.26367C36.3901 7.26367 38.1945 7.58805 39.7961 8.25709C41.3977 8.92612 42.8169 9.85871 44.013 11.0549C45.2092 12.251 46.1418 13.6702 46.8108 15.2921C47.4798 16.914 47.8042 18.6778 47.8042 20.6038C47.8042 22.5298 47.4798 24.2936 46.8108 25.9155C46.1418 27.5374 45.2092 28.9566 44.013 30.173C42.8169 31.3894 41.3977 32.3423 39.7961 32.991C38.1945 33.6601 36.4306 33.9845 34.5046 33.9845ZM34.5046 26.7265C36.1063 26.7265 37.3632 26.1588 38.3364 25.0032C39.2892 23.8476 39.7758 22.3879 39.7758 20.5835C39.7758 18.7792 39.2892 17.2992 38.3364 16.1638C37.3835 15.0285 36.1063 14.4811 34.5046 14.4811C32.903 14.4811 31.646 15.0488 30.6729 16.1638C29.6998 17.2789 29.2335 18.7589 29.2335 20.5835C29.2335 22.4082 29.72 23.8476 30.6729 25.0032C31.6258 26.1588 32.903 26.7265 34.5046 26.7265Z" fill="#E3F389"/>
<path d="M63.74 33.9845C61.8545 33.9845 60.111 33.6398 58.4688 32.991C56.8469 32.322 55.4278 31.3894 54.2316 30.173C53.0355 28.9566 52.1029 27.5374 51.4338 25.9155C50.7648 24.2936 50.4404 22.5298 50.4404 20.6038C50.4404 18.6778 50.7648 16.914 51.4338 15.2921C52.1029 13.6702 53.0355 12.251 54.2316 11.0549C55.4278 9.85871 56.8469 8.92612 58.4688 8.25709C60.0907 7.58805 61.8545 7.26367 63.74 7.26367C65.6254 7.26367 67.4298 7.58805 69.0314 8.25709C70.6331 8.92612 72.0522 9.85871 73.2484 11.0549C74.4445 12.251 75.3771 13.6702 76.0461 15.2921C76.7152 16.914 77.0396 18.6778 77.0396 20.6038C77.0396 22.5298 76.7152 24.2936 76.0461 25.9155C75.3771 27.5374 74.4445 28.9566 73.2484 30.173C72.0522 31.3894 70.6331 32.3423 69.0314 32.991C67.4298 33.6601 65.666 33.9845 63.74 33.9845ZM63.74 26.7265C65.3416 26.7265 66.5986 26.1588 67.5717 25.0032C68.5246 23.8476 69.0112 22.3879 69.0112 20.5835C69.0112 18.7792 68.5246 17.2992 67.5717 16.1638C66.6189 15.0285 65.3416 14.4811 63.74 14.4811C62.1384 14.4811 60.8814 15.0488 59.9083 16.1638C58.9351 17.2789 58.4688 18.7589 58.4688 20.5835C58.4688 22.4082 58.9554 23.8476 59.9083 25.0032C60.8611 26.1588 62.1384 26.7265 63.74 26.7265Z" fill="#E3F389"/>
<path d="M89.1031 5.31763V9.4332C89.9141 8.78444 90.8467 8.27759 91.8806 7.89239C92.9146 7.52746 94.0296 7.32473 95.1852 7.32473C96.8071 7.32473 98.3479 7.64911 99.8076 8.27759C101.267 8.90608 102.565 9.8184 103.68 10.974C104.795 12.1499 105.687 13.5488 106.316 15.1707C106.944 16.7926 107.268 18.5969 107.268 20.5838C107.268 22.5706 106.944 24.3141 106.316 25.936C105.687 27.5579 104.795 28.9771 103.68 30.153C102.565 31.3491 101.267 32.2614 99.8076 32.9102C98.3479 33.5589 96.7869 33.8833 95.1244 33.8833C93.9485 33.8833 92.8538 33.7009 91.8401 33.3157C90.8264 32.9507 89.8938 32.4033 89.0828 31.7343V40.9994H81.0342V7.66938L81.541 7.32473C83.7509 5.78392 86.3864 5.50009 89.0828 5.50009V5.31763H89.1031ZM94.0702 26.7875C95.6515 26.7875 96.9288 26.2199 97.8411 25.1048C98.7737 23.9897 99.24 22.4895 99.24 20.604C99.24 18.7186 98.7737 17.2183 97.8411 16.1235C96.9085 15.0287 95.6515 14.4611 94.0702 14.4611C92.4888 14.4611 91.2521 15.0287 90.3195 16.1438C89.3869 17.2589 88.9004 18.7591 88.9004 20.604C88.9004 22.4489 89.3667 23.9492 90.3195 25.0845C91.2521 26.2199 92.5091 26.7875 94.0702 26.7875Z" fill="#E3F389"/>
<path d="M113.127 41C113.775 39.2768 114.444 37.5535 115.154 35.81C115.864 34.0664 116.533 32.3634 117.181 30.6604C115.661 26.9301 114.1 23.1389 112.518 19.3274C110.937 15.5159 109.396 11.7248 107.855 7.99438H116.391C117.242 10.0826 118.094 12.1911 118.945 14.3198C119.797 16.4688 120.668 18.5976 121.5 20.706C122.27 18.5976 123.081 16.4688 123.892 14.3198C124.703 12.1708 125.494 10.0623 126.284 7.99438H134.657C132.488 13.4277 130.298 18.9219 128.109 24.4972C125.919 30.0725 123.73 35.5667 121.561 41H113.127Z" fill="#E3F389"/>
</svg>
