<svg width="100" height="33" viewBox="0 0 100 33" fill="none" xmlns="http://www.w3.org/2000/svg">
<path d="M98.5936 4.76172H94.1169C93.2972 4.76172 92.5676 5.28699 92.2986 6.06968L89.5191 14.1827L86.5286 6.03068C86.2494 5.26878 85.5301 4.76302 84.7245 4.76302H80.1616C79.1476 4.76302 78.4669 5.81485 78.8748 6.75357L85.6716 22.418L81.0417 32.2342C85.8505 32.2342 90.1999 29.3478 92.1107 24.8883L99.883 6.74707C100.284 5.80965 99.6038 4.76302 98.5936 4.76302V4.76172Z" fill="#E3F389"/>
<path d="M32.2725 5.89326C30.7947 5.13933 29.133 4.76172 27.2875 4.76172C25.4419 4.76172 23.7789 5.13933 22.3025 5.89326C20.826 6.6472 19.6634 7.73537 18.8158 9.15777C18.0493 10.4577 17.639 11.9732 17.585 13.7005H24.9223C24.975 12.8649 25.1988 12.2233 25.5936 11.7755C26.0502 11.2372 26.6148 10.968 27.2875 10.968C27.9601 10.968 28.526 11.2372 28.9813 11.7755C29.4379 12.2922 29.6655 13.0678 29.6655 14.1024C29.6655 15.137 29.4379 15.9228 28.9813 16.4611C28.5247 16.9778 27.9601 17.2367 27.2875 17.2367C26.6148 17.2367 26.0168 16.9778 25.5602 16.4611C25.1782 15.9878 24.9647 15.3219 24.9184 14.4659H17.5824C17.6326 16.2111 18.0429 17.7496 18.8158 19.0801C19.6634 20.4808 20.8247 21.5575 22.3025 22.3115C23.7802 23.0654 25.4419 23.443 27.2875 23.443C29.133 23.443 30.796 23.0654 32.2725 22.3115C33.7489 21.5575 34.9013 20.4796 35.7257 19.0801C36.5732 17.6577 36.9964 15.9993 36.9964 14.1024C36.9964 12.2054 36.5732 10.5585 35.7257 9.15777C34.9 7.73537 33.7489 6.6472 32.2725 5.89326Z" fill="#E3F389"/>
<path d="M52.7853 5.89326C51.3076 5.13933 49.6459 4.76172 47.8003 4.76172C45.9547 4.76172 44.2918 5.13933 42.8153 5.89326C41.3389 6.6472 40.1762 7.73537 39.3287 9.15777C38.5621 10.4577 38.1519 11.9732 38.0978 13.7005H45.4351C45.4879 12.8649 45.7117 12.2233 46.1065 11.7755C46.5631 11.2372 47.1277 10.968 47.8003 10.968C48.473 10.968 49.0388 11.2372 49.4941 11.7755C49.9507 12.2922 50.1783 13.0678 50.1783 14.1024C50.1783 15.137 49.9507 15.9228 49.4941 16.4611C49.0376 16.9778 48.473 17.2367 47.8003 17.2367C47.1277 17.2367 46.5296 16.9778 46.0731 16.4611C45.6911 15.9878 45.4776 15.3219 45.4313 14.4659H38.0953C38.1454 16.2111 38.5557 17.7496 39.3287 19.0801C40.1762 20.4808 41.3376 21.5575 42.8153 22.3115C44.2931 23.0654 45.9547 23.443 47.8003 23.443C49.6459 23.443 51.3088 23.0654 52.7853 22.3115C54.2618 21.5575 55.4141 20.4796 56.2385 19.0801C57.0861 17.6577 57.5092 15.9993 57.5092 14.1024C57.5092 12.2054 57.0861 10.5585 56.2385 9.15777C55.4128 7.73537 54.2618 6.6472 52.7853 5.89326Z" fill="#E3F389"/>
<path d="M75.0607 5.89014C73.9151 5.13828 72.6288 4.76172 71.2017 4.76172C70.0126 4.76172 68.9861 5.00852 68.1208 5.5034C67.6421 5.77182 67.3273 6.10004 66.997 6.48679V11.8439C67.0034 11.8363 67.0098 11.8274 67.0162 11.8197C67.5129 11.2829 68.0236 11.0144 68.8018 11.0144C69.58 11.0144 70.2174 11.2829 70.7153 11.8197C71.2119 12.3566 71.4615 13.1084 71.4615 14.0753C71.4615 15.0421 71.2132 15.794 70.7153 16.3309C70.2174 16.8677 69.58 17.1361 68.8018 17.1361C68.0236 17.1361 67.3861 16.8677 66.8882 16.3309C66.3916 15.794 66.142 15.0421 66.142 14.0753C66.142 13.9786 66.1446 13.8857 66.151 13.7941C66.1638 13.5855 66.174 13.3756 66.174 13.167V4.98689H61.9515C60.3081 4.98689 58.9744 6.31123 58.9744 7.94597V31.8679C62.9499 31.8679 66.1728 28.6646 66.1728 24.7132V20.6842C66.6271 21.5226 67.2748 22.1879 68.1183 22.6828C68.9835 23.1561 70.01 23.3914 71.1991 23.3914C72.6262 23.3914 73.9126 23.0263 75.0581 22.2961C76.2037 21.5442 77.1009 20.4692 77.7498 19.0737C78.4205 17.6552 78.7546 15.9899 78.7546 14.0778C78.7546 12.1658 78.4193 10.5107 77.7498 9.11382C77.1009 7.69535 76.2037 6.62164 75.0581 5.89141L75.0607 5.89014Z" fill="#E3F389"/>
<path d="M7.20192 0H2.75194C1.23191 0 0 1.23766 0 2.7648V23.0769H10.1511C13.446 23.0769 16.1172 20.3931 16.1172 17.0828H7.20192V0Z" fill="#E3F389"/>
</svg>
