<svg width="33" height="37" viewBox="0 0 33 37" fill="none" xmlns="http://www.w3.org/2000/svg">
<circle cx="16.5" cy="32.5" r="4.5" fill="url(#paint0_linear_4608_21499)"/>
<path d="M16.7544 6.38597C15.786 6.38597 15 5.6 15 4.63158V1.75439C15 1.28909 15.1848 0.842859 15.5138 0.513848C15.8429 0.184837 16.2891 0 16.7544 0C17.2197 0 17.6659 0.184837 17.9949 0.513848C18.3239 0.842859 18.5088 1.28909 18.5088 1.75439V4.63158C18.5088 5.6 17.7228 6.38597 16.7544 6.38597Z" fill="url(#paint1_linear_4608_21499)"/>
<path d="M31.2231 25.9835C30.0046 25.0817 29.2685 23.7353 28.9639 22.3085L26.7681 11.9252C25.7908 7.325 21.5008 4.01167 16.5 4C11.4993 4.01167 7.20925 7.325 6.23195 11.9252L4.03618 22.3085C3.73156 23.7353 2.99541 25.0817 1.77695 25.9835C1.21973 26.3986 0.770845 26.9233 0.463333 27.5189C0.15582 28.1145 -0.00249692 28.7659 2.97746e-05 29.4252V30.8648C2.97746e-05 31.4972 0.545799 32 1.2058 32H31.7942C32.4669 32 33 31.4972 33 30.8648V29.4252C33 28.0205 32.3019 26.7908 31.2231 25.9835Z" fill="url(#paint2_linear_4608_21499)"/>
<defs>
<linearGradient id="paint0_linear_4608_21499" x1="14.9249" y1="28" x2="20.9868" y2="34.1123" gradientUnits="userSpaceOnUse">
<stop stop-color="#6970F3"/>
<stop offset="1" stop-color="#4C51B0"/>
</linearGradient>
<linearGradient id="paint1_linear_4608_21499" x1="16.1403" y1="1.1402e-07" x2="19.7871" y2="2.02037" gradientUnits="userSpaceOnUse">
<stop stop-color="#6970F3"/>
<stop offset="1" stop-color="#4C51B0"/>
</linearGradient>
<linearGradient id="paint2_linear_4608_21499" x1="-11.4231" y1="24.0895" x2="29.9768" y2="31.0722" gradientUnits="userSpaceOnUse">
<stop stop-color="#DEE0FF"/>
<stop offset="0.969969" stop-color="#6970F3"/>
</linearGradient>
</defs>
</svg>
