<svg width="44" height="35" viewBox="0 0 44 35" fill="none" xmlns="http://www.w3.org/2000/svg">
<path d="M0.199219 15.4534L4.05371 8.09302C4.21872 7.77245 4.5371 7.57739 4.87891 7.57739H39.3125C39.6543 7.57739 39.9727 7.77873 40.1377 8.09302L43.9922 15.4534H43.998V26.0764H0.199219V15.4534Z" fill="url(#paint0_linear_4606_21477)"/>
<path d="M25.7275 0C26.205 0.000109306 26.5912 0.368689 26.6289 0.831055C26.6666 0.368684 27.0528 0.000100166 27.5303 0H36.9209C37.9077 0 38.706 0.798316 38.7061 1.78516V17.6445C38.7058 18.6312 37.9076 19.4287 36.9209 19.4287H27.5303C27.0596 19.4286 26.6683 19.0675 26.6289 18.6016C26.5925 19.0705 26.2003 19.4354 25.7275 19.4355H6.73145C5.73863 19.4353 4.92793 18.6309 4.92773 17.6318V13.8848C4.92794 13.6524 5.0977 13.4451 5.33008 13.4199C7.19693 13.2251 8.65527 11.6412 8.65527 9.71777C8.65527 7.79434 7.19694 6.21677 5.33008 6.01562C5.0977 5.99046 4.92795 5.78314 4.92773 5.55078V1.80371C4.92792 0.810873 5.73234 0.000244299 6.73145 0H25.7275Z" fill="url(#paint1_linear_4606_21477)"/>
<path d="M12.2861 10.7382C12.2861 10.263 12.421 9.8963 12.6909 9.63817C12.9666 9.38004 13.3215 9.25097 13.7557 9.25097C14.1898 9.25097 14.5418 9.38004 14.8117 9.63817C15.0815 9.8963 15.2165 10.263 15.2165 10.7382C15.2165 11.2134 15.0815 11.58 14.8117 11.8382C14.5418 12.0963 14.1898 12.2254 13.7557 12.2254C13.3215 12.2254 12.9666 12.0963 12.6909 11.8382C12.421 11.58 12.2861 11.2134 12.2861 10.7382ZM18.2613 9.34777L14.8733 15.543H13.4213L16.8093 9.34777H18.2613ZM13.7469 10.131C13.4653 10.131 13.3245 10.3334 13.3245 10.7382C13.3245 11.1371 13.4653 11.3366 13.7469 11.3366C13.8818 11.3366 13.9874 11.2867 14.0637 11.187C14.1399 11.0872 14.1781 10.9376 14.1781 10.7382C14.1781 10.3334 14.0343 10.131 13.7469 10.131ZM16.4749 14.1526C16.4749 13.6774 16.6098 13.3107 16.8797 13.0526C17.1495 12.7944 17.5015 12.6654 17.9357 12.6654C18.3698 12.6654 18.7218 12.7944 18.9917 13.0526C19.2615 13.3107 19.3965 13.6774 19.3965 14.1526C19.3965 14.6278 19.2615 14.9944 18.9917 15.2526C18.7218 15.5107 18.3698 15.6398 17.9357 15.6398C17.5015 15.6398 17.1495 15.5107 16.8797 15.2526C16.6098 14.9944 16.4749 14.6278 16.4749 14.1526ZM17.9269 13.5454C17.7919 13.5454 17.6863 13.5952 17.6101 13.695C17.5397 13.7947 17.5045 13.9472 17.5045 14.1526C17.5045 14.5515 17.6453 14.751 17.9269 14.751C18.0618 14.751 18.1674 14.7011 18.2437 14.6014C18.3199 14.5016 18.3581 14.352 18.3581 14.1526C18.3581 13.9531 18.3199 13.8035 18.2437 13.7038C18.1674 13.5982 18.0618 13.5454 17.9269 13.5454Z" fill="#4C51B0"/>
<path d="M7.58661 4.03852C7.58661 3.78626 7.63794 3.56626 7.74061 3.37852C7.84327 3.18786 7.98554 3.04119 8.16741 2.93852C8.34927 2.83292 8.55754 2.78012 8.79221 2.78012C9.09434 2.78012 9.34367 2.85639 9.54021 3.00892C9.73967 3.15852 9.87314 3.36972 9.94061 3.64252H9.27621C9.24101 3.53692 9.18087 3.45479 9.09581 3.39612C9.01367 3.33452 8.91101 3.30372 8.78781 3.30372C8.61181 3.30372 8.47247 3.36826 8.36981 3.49732C8.26714 3.62346 8.21581 3.80386 8.21581 4.03852C8.21581 4.27026 8.26714 4.45066 8.36981 4.57972C8.47247 4.70586 8.61181 4.76892 8.78781 4.76892C9.03714 4.76892 9.19994 4.65746 9.27621 4.43452H9.94061C9.87314 4.69852 9.73967 4.90826 9.54021 5.06372C9.34074 5.21919 9.09141 5.29692 8.79221 5.29692C8.55754 5.29692 8.34927 5.24559 8.16741 5.14292C7.98554 5.03732 7.84327 4.89066 7.74061 4.70292C7.63794 4.51226 7.58661 4.29079 7.58661 4.03852ZM11.4743 5.29692C11.2396 5.29692 11.0284 5.24559 10.8407 5.14292C10.6529 5.03732 10.5048 4.88919 10.3963 4.69852C10.2907 4.50786 10.2379 4.28786 10.2379 4.03852C10.2379 3.78919 10.2921 3.56919 10.4007 3.37852C10.5121 3.18786 10.6632 3.04119 10.8539 2.93852C11.0445 2.83292 11.2572 2.78012 11.4919 2.78012C11.7265 2.78012 11.9392 2.83292 12.1299 2.93852C12.3205 3.04119 12.4701 3.18786 12.5787 3.37852C12.6901 3.56919 12.7459 3.78919 12.7459 4.03852C12.7459 4.28786 12.6887 4.50786 12.5743 4.69852C12.4628 4.88919 12.3103 5.03732 12.1167 5.14292C11.926 5.24559 11.7119 5.29692 11.4743 5.29692ZM11.4743 4.76012C11.5857 4.76012 11.6899 4.73372 11.7867 4.68092C11.8864 4.62519 11.9656 4.54306 12.0243 4.43452C12.0829 4.32599 12.1123 4.19399 12.1123 4.03852C12.1123 3.80679 12.0507 3.62932 11.9275 3.50612C11.8072 3.37999 11.6591 3.31692 11.4831 3.31692C11.3071 3.31692 11.1589 3.37999 11.0387 3.50612C10.9213 3.62932 10.8627 3.80679 10.8627 4.03852C10.8627 4.27026 10.9199 4.44919 11.0343 4.57532C11.1516 4.69852 11.2983 4.76012 11.4743 4.76012ZM15.4989 2.81972V5.25732H14.8785V4.94932C14.7993 5.05492 14.6952 5.13852 14.5661 5.20012C14.44 5.25879 14.3021 5.28812 14.1525 5.28812C13.9619 5.28812 13.7932 5.24852 13.6465 5.16932C13.4999 5.08719 13.384 4.96839 13.2989 4.81292C13.2168 4.65452 13.1757 4.46679 13.1757 4.24972V2.81972H13.7917V4.16172C13.7917 4.35532 13.8401 4.50492 13.9369 4.61052C14.0337 4.71319 14.1657 4.76452 14.3329 4.76452C14.5031 4.76452 14.6365 4.71319 14.7333 4.61052C14.8301 4.50492 14.8785 4.35532 14.8785 4.16172V2.81972H15.4989ZM16.7227 3.17172C16.8019 3.06026 16.9105 2.96786 17.0483 2.89452C17.1891 2.81826 17.349 2.78012 17.5279 2.78012C17.7362 2.78012 17.9239 2.83146 18.0911 2.93412C18.2613 3.03679 18.3947 3.18346 18.4915 3.37412C18.5913 3.56186 18.6411 3.78039 18.6411 4.02972C18.6411 4.27906 18.5913 4.50052 18.4915 4.69412C18.3947 4.88479 18.2613 5.03292 18.0911 5.13852C17.9239 5.24412 17.7362 5.29692 17.5279 5.29692C17.349 5.29692 17.1906 5.26026 17.0527 5.18692C16.9178 5.11359 16.8078 5.02119 16.7227 4.90972V6.41892H16.1067V2.81972H16.7227V3.17172ZM18.0119 4.02972C18.0119 3.88306 17.9811 3.75692 17.9195 3.65132C17.8609 3.54279 17.7817 3.46066 17.6819 3.40492C17.5851 3.34919 17.4795 3.32132 17.3651 3.32132C17.2537 3.32132 17.1481 3.35066 17.0483 3.40932C16.9515 3.46506 16.8723 3.54719 16.8107 3.65572C16.7521 3.76426 16.7227 3.89186 16.7227 4.03852C16.7227 4.18519 16.7521 4.31279 16.8107 4.42132C16.8723 4.52986 16.9515 4.61346 17.0483 4.67212C17.1481 4.72786 17.2537 4.75572 17.3651 4.75572C17.4795 4.75572 17.5851 4.72639 17.6819 4.66772C17.7817 4.60906 17.8609 4.52546 17.9195 4.41692C17.9811 4.30839 18.0119 4.17932 18.0119 4.02972ZM20.1712 5.29692C19.9365 5.29692 19.7253 5.24559 19.5376 5.14292C19.3498 5.03732 19.2017 4.88919 19.0932 4.69852C18.9876 4.50786 18.9348 4.28786 18.9348 4.03852C18.9348 3.78919 18.989 3.56919 19.0976 3.37852C19.209 3.18786 19.3601 3.04119 19.5508 2.93852C19.7414 2.83292 19.9541 2.78012 20.1888 2.78012C20.4234 2.78012 20.6361 2.83292 20.8268 2.93852C21.0174 3.04119 21.167 3.18786 21.2756 3.37852C21.387 3.56919 21.4428 3.78919 21.4428 4.03852C21.4428 4.28786 21.3856 4.50786 21.2712 4.69852C21.1597 4.88919 21.0072 5.03732 20.8136 5.14292C20.6229 5.24559 20.4088 5.29692 20.1712 5.29692ZM20.1712 4.76012C20.2826 4.76012 20.3868 4.73372 20.4836 4.68092C20.5833 4.62519 20.6625 4.54306 20.7212 4.43452C20.7798 4.32599 20.8092 4.19399 20.8092 4.03852C20.8092 3.80679 20.7476 3.62932 20.6244 3.50612C20.5041 3.37999 20.356 3.31692 20.18 3.31692C20.004 3.31692 19.8558 3.37999 19.7356 3.50612C19.6182 3.62932 19.5596 3.80679 19.5596 4.03852C19.5596 4.27026 19.6168 4.44919 19.7312 4.57532C19.8485 4.69852 19.9952 4.76012 20.1712 4.76012ZM23.2454 2.78452C23.5358 2.78452 23.7705 2.87692 23.9494 3.06172C24.1283 3.24359 24.2178 3.49879 24.2178 3.82732V5.25732H23.6018V3.91092C23.6018 3.71732 23.5534 3.56919 23.4566 3.46652C23.3598 3.36092 23.2278 3.30812 23.0606 3.30812C22.8905 3.30812 22.7555 3.36092 22.6558 3.46652C22.559 3.56919 22.5106 3.71732 22.5106 3.91092V5.25732H21.8946V2.81972H22.5106V3.12332C22.5927 3.01772 22.6969 2.93559 22.823 2.87692C22.9521 2.81532 23.0929 2.78452 23.2454 2.78452Z" fill="#4C51B0"/>
<path d="M31.2061 15.749C30.7917 15.749 30.4543 16.0687 30.3832 16.4868C29.8741 19.475 26.3159 21.7869 22 21.7869C17.6841 21.7869 14.1259 19.475 13.6168 16.4868C13.5457 16.0626 13.2083 15.749 12.7939 15.749H0V32.5417C0 33.5132 0.763724 34.3064 1.69914 34.3064H42.3009C43.2422 34.3064 44 33.5132 44 32.5417V15.749H31.2061Z" fill="url(#paint2_linear_4606_21477)"/>
<path d="M26.6133 0.942871V18.5429" stroke="#4C51B0" stroke-width="0.314286" stroke-dasharray="1.26 1.26"/>
<defs>
<linearGradient id="paint0_linear_4606_21477" x1="22.0986" y1="7.57739" x2="22.0986" y2="26.0764" gradientUnits="userSpaceOnUse">
<stop stop-color="#6970F3"/>
<stop offset="0.598342" stop-color="#3D418D"/>
</linearGradient>
<linearGradient id="paint1_linear_4606_21477" x1="21.8169" y1="0" x2="21.8169" y2="41.7089" gradientUnits="userSpaceOnUse">
<stop stop-color="#E3F389"/>
<stop offset="1" stop-color="#848D4F"/>
</linearGradient>
<linearGradient id="paint2_linear_4606_21477" x1="22" y1="-12" x2="22" y2="34" gradientUnits="userSpaceOnUse">
<stop stop-color="#F0F1FE"/>
<stop offset="1" stop-color="#6970F3"/>
</linearGradient>
</defs>
</svg>
