<svg width="43" height="42" viewBox="0 0 43 42" fill="none" xmlns="http://www.w3.org/2000/svg">
<path d="M29.5833 27.8352L15.9664 34.5415L2.3527 27.8352C2.3527 27.8352 0.928419 28.4452 0.896484 35.1578C0.896484 35.5889 1.02103 36.0072 1.27331 36.3553C2.28883 37.7541 5.73776 40.9635 15.9664 40.89C26.195 40.9635 29.6439 37.7541 30.6594 36.3553C30.9117 36.0072 31.0395 35.5857 31.0363 35.1578C31.0043 28.4452 29.5801 27.8352 29.5801 27.8352H29.5833Z" fill="url(#paint0_linear_4606_21396)"/>
<path d="M15.9648 34.5446C23.8856 34.5446 30.3066 32.2599 30.3066 29.4415C30.3066 26.6231 23.8856 24.3384 15.9648 24.3384C8.04408 24.3384 1.62305 26.6231 1.62305 29.4415C1.62305 32.2599 8.04408 34.5446 15.9648 34.5446Z" fill="url(#paint1_linear_4606_21396)"/>
<path d="M24.0959 5.2382C24.0959 5.2382 23.1538 2.85908 19.6762 1.55934C17.2907 0.66837 14.6433 0.66837 12.2578 1.55934C8.78011 2.85908 7.83804 5.2382 7.83804 5.2382C6.2509 7.92708 6.38822 10.5936 6.92152 12.5895C7.29196 13.9787 7.96259 15.2688 8.79608 16.4408C11.8905 20.7935 10.0064 26.3118 9.5657 27.455C9.48586 27.6562 9.4667 27.8798 9.5178 28.0905C10.0543 30.3515 15.9686 30.3834 15.9686 30.3834C15.9686 30.3834 21.8828 30.3515 22.4193 28.0905C22.4704 27.8798 22.4481 27.6562 22.3714 27.455C21.9275 26.315 20.0434 20.7935 23.1411 16.4408C23.9745 15.2688 24.6452 13.9787 25.0156 12.5895C25.5489 10.5936 25.6862 7.92708 24.0991 5.2382H24.0959Z" fill="url(#paint2_linear_4606_21396)"/>
<circle cx="32.639" cy="31.2247" r="9.15054" fill="#E3F389" stroke="#6970F3" stroke-width="1.37077"/>
<path d="M31.6455 27.1146C31.8487 26.8287 32.1271 26.5917 32.4808 26.4035C32.8419 26.2079 33.252 26.1101 33.711 26.1101C34.2453 26.1101 34.7269 26.2418 35.1558 26.5051C35.5922 26.7685 35.9345 27.1447 36.1829 27.6338C36.4387 28.1154 36.5666 28.676 36.5666 29.3156C36.5666 29.9552 36.4387 30.5233 36.1829 31.0199C35.9345 31.509 35.5922 31.889 35.1558 32.1599C34.7269 32.4307 34.2453 32.5662 33.711 32.5662C33.252 32.5662 32.8457 32.4721 32.492 32.284C32.1459 32.0959 31.8637 31.8589 31.6455 31.5729V35.4443H30.0654V26.2117H31.6455V27.1146ZM34.9526 29.3156C34.9526 28.9393 34.8736 28.6158 34.7156 28.3449C34.5651 28.0665 34.3619 27.8558 34.1061 27.7128C33.8578 27.5699 33.5869 27.4984 33.2934 27.4984C33.0075 27.4984 32.7366 27.5736 32.4808 27.7241C32.2325 27.8671 32.0293 28.0778 31.8713 28.3562C31.7208 28.6346 31.6455 28.9619 31.6455 29.3381C31.6455 29.7144 31.7208 30.0417 31.8713 30.3201C32.0293 30.5985 32.2325 30.813 32.4808 30.9634C32.7366 31.1064 33.0075 31.1779 33.2934 31.1779C33.5869 31.1779 33.8578 31.1027 34.1061 30.9522C34.3619 30.8017 34.5651 30.5872 34.7156 30.3088C34.8736 30.0304 34.9526 29.6993 34.9526 29.3156Z" fill="#6970F3"/>
<path d="M30.5246 6.2668C33.1969 6.76426 38.0667 9.59995 36.168 16.9631" stroke="#6970F3" stroke-width="1.41086" stroke-linecap="round"/>
<path d="M36.2719 17.9736C36.1083 18.1903 35.7715 18.1487 35.6656 17.8987L33.7597 13.3982C33.6539 13.1482 33.8584 12.8773 34.1278 12.9106L38.9782 13.5104C39.2477 13.5437 39.3801 13.8562 39.2165 14.0729L36.2719 17.9736Z" fill="#6970F3"/>
<defs>
<linearGradient id="paint0_linear_4606_21396" x1="10.6916" y1="27.8352" x2="17.0704" y2="42.6831" gradientUnits="userSpaceOnUse">
<stop stop-color="#6970F3"/>
<stop offset="1" stop-color="#4C51B0"/>
</linearGradient>
<linearGradient id="paint1_linear_4606_21396" x1="1.62305" y1="25.9156" x2="29.7801" y2="24.2206" gradientUnits="userSpaceOnUse">
<stop stop-color="white"/>
<stop offset="1" stop-color="#6970F3"/>
</linearGradient>
<linearGradient id="paint2_linear_4606_21396" x1="6.55664" y1="4.54914" x2="27.391" y2="24.6405" gradientUnits="userSpaceOnUse">
<stop stop-color="#DEE0FF"/>
<stop offset="0.570771" stop-color="#6970F3"/>
<stop offset="1" stop-color="#4C51B0"/>
</linearGradient>
</defs>
</svg>
