<svg width="110" height="110" viewBox="0 0 110 110" fill="none" xmlns="http://www.w3.org/2000/svg">
<rect x="0.5" y="0.5" width="109" height="109" rx="7.5" fill="#F3F3F3"/>
<rect x="0.5" y="0.5" width="109" height="109" rx="7.5" stroke="#DFDFDF" stroke-dasharray="3 3"/>
<path d="M67.5 54.375V58.25C67.5 61.0503 67.5 62.4504 66.955 63.52C66.4757 64.4608 65.7108 65.2257 64.77 65.705C63.7004 66.25 62.3003 66.25 59.5 66.25H50.5C47.6997 66.25 46.2996 66.25 45.23 65.705C44.2892 65.2257 43.5243 64.4608 43.045 63.52C42.5 62.4504 42.5 61.0503 42.5 58.25V51.75C42.5 48.9497 42.5 47.5496 43.045 46.48C43.5243 45.5392 44.2892 44.7743 45.23 44.295C46.2996 43.75 47.6997 43.75 50.5 43.75H55.625M63.75 50V42.5M60 46.25H67.5M60 55C60 57.7614 57.7614 60 55 60C52.2386 60 50 57.7614 50 55C50 52.2386 52.2386 50 55 50C57.7614 50 60 52.2386 60 55Z" stroke="#7F7F7F" stroke-width="1.8" stroke-linecap="round" stroke-linejoin="round"/>
</svg>
