<svg width="16" height="17" viewBox="0 0 16 17" fill="none" xmlns="http://www.w3.org/2000/svg">
<path d="M7.99963 1.1665C12.0496 1.1665 15.3334 4.44957 15.3336 8.49951C15.3336 12.5496 12.0497 15.8335 7.99963 15.8335C3.9497 15.8333 0.666626 12.5495 0.666626 8.49951C0.666802 4.44968 3.9498 1.16668 7.99963 1.1665ZM7.99963 11.6675C7.72366 11.6677 7.49963 11.8915 7.49963 12.1675C7.50006 12.4431 7.72393 12.6673 7.99963 12.6675H8.00745L8.10803 12.6567C8.33556 12.6101 8.50707 12.4087 8.50745 12.1675C8.50745 11.9259 8.33584 11.7239 8.10803 11.6772L8.00745 11.6675H7.99963ZM8.39807 4.36963C7.76964 4.26186 7.12258 4.37957 6.57288 4.70264C6.02346 5.02568 5.60573 5.53306 5.39417 6.13428C5.30289 6.39459 5.43959 6.68034 5.69983 6.77197C5.96016 6.86355 6.24571 6.72649 6.33752 6.46631C6.47071 6.08779 6.73383 5.76835 7.07971 5.56494C7.42569 5.36161 7.83262 5.28726 8.22815 5.35498C8.62384 5.42285 8.98327 5.6289 9.24182 5.93604C9.50007 6.24301 9.64174 6.63156 9.64124 7.03271V7.03369C9.64099 7.50134 9.28379 7.92168 8.76428 8.26807C8.51971 8.43108 8.27062 8.55518 8.08167 8.63916C7.98825 8.68067 7.91081 8.71182 7.85803 8.73193C7.83179 8.74193 7.81123 8.74985 7.79846 8.75439C7.79221 8.75662 7.78735 8.7584 7.78479 8.75928H7.78284C7.52114 8.84677 7.37916 9.13026 7.46643 9.39209C7.55387 9.65371 7.83846 9.7946 8.10022 9.70752H8.1012L8.10315 9.70654C8.10485 9.70597 8.10739 9.70545 8.10999 9.70459C8.11563 9.70265 8.12389 9.70016 8.13342 9.69678C8.15275 9.68991 8.17992 9.6793 8.2135 9.6665C8.28088 9.64083 8.37564 9.60311 8.48792 9.55322C8.71129 9.45395 9.01377 9.30353 9.31897 9.1001C9.86279 8.73751 10.5486 8.11608 10.6324 7.21729L10.6412 7.03369C10.642 6.39647 10.4168 5.77905 10.0065 5.2915C9.59595 4.80398 9.02622 4.47748 8.39807 4.36963Z" fill="#A8A8A8"/>
</svg>
