<svg width="37" height="20" viewBox="0 0 37 20" fill="none" xmlns="http://www.w3.org/2000/svg">
<rect x="0.25" y="0.25" width="36.5" height="19.5" rx="1.75" stroke="#A8A8A8" stroke-width="0.5"/>
<path d="M16.292 4.28H17.54V14.972H16.292V9.536H15.104V14.432H13.892V4.496H15.104V8.468H16.292V4.28ZM8.756 12.464V5.564H12.704V6.608H10.04V11.384C11.192 11.372 12.14 11.312 13.22 11.096L13.34 12.164C12.044 12.428 10.928 12.464 9.476 12.464H8.756ZM18.8963 12.704H21.4043V10.472H19.7243V9.44H21.2243V6.236H19.6883V5.18H27.7283V6.236H26.1803V9.44H27.7043V10.472H26.0123V12.704H28.5683V13.748H18.8963V12.704ZM22.5203 9.44H24.8843V6.236H22.5203V9.44ZM22.6883 12.704H24.7283V10.472H22.6883V12.704Z" fill="#252525"/>
</svg>
