<svg width="88" height="88" viewBox="0 0 88 88" fill="none" xmlns="http://www.w3.org/2000/svg">
<g filter="url(#filter0_d_1329_10930)">
<rect x="12" y="12" width="64" height="64" rx="32" fill="#6970F3" shape-rendering="crispEdges"/>
<path d="M51.2857 52.9998H43.2857M32.7856 53.4998L38.3349 51.3655C38.6899 51.229 38.8673 51.1607 39.0334 51.0716C39.1808 50.9924 39.3214 50.901 39.4537 50.7984C39.6026 50.6829 39.737 50.5484 40.0059 50.2795L51.2857 38.9998C52.3902 37.8952 52.3902 36.1044 51.2857 34.9998C50.1811 33.8952 48.3902 33.8952 47.2857 34.9998L36.0059 46.2795C35.737 46.5484 35.6026 46.6829 35.487 46.8318C35.3844 46.964 35.293 47.1046 35.2139 47.2521C35.1248 47.4181 35.0565 47.5956 34.92 47.9506L32.7856 53.4998ZM32.7856 53.4998L34.8438 48.1488C34.991 47.7659 35.0647 47.5744 35.191 47.4867C35.3014 47.4101 35.4379 47.3811 35.5699 47.4063C35.721 47.4351 35.866 47.5802 36.1561 47.8703L38.4152 50.1294C38.7053 50.4195 38.8504 50.5645 38.8792 50.7155C38.9044 50.8475 38.8754 50.9841 38.7988 51.0945C38.7111 51.2208 38.5196 51.2944 38.1367 51.4417L32.7856 53.4998Z" stroke="white" stroke-width="1.5" stroke-linecap="round" stroke-linejoin="round"/>
</g>
<defs>
<filter id="filter0_d_1329_10930" x="0.571429" y="0.571429" width="86.8571" height="86.8571" filterUnits="userSpaceOnUse" color-interpolation-filters="sRGB">
<feFlood flood-opacity="0" result="BackgroundImageFix"/>
<feColorMatrix in="SourceAlpha" type="matrix" values="0 0 0 0 0 0 0 0 0 0 0 0 0 0 0 0 0 0 127 0" result="hardAlpha"/>
<feOffset/>
<feGaussianBlur stdDeviation="5.71429"/>
<feComposite in2="hardAlpha" operator="out"/>
<feColorMatrix type="matrix" values="0 0 0 0 0 0 0 0 0 0 0 0 0 0 0 0 0 0 0.2 0"/>
<feBlend mode="normal" in2="BackgroundImageFix" result="effect1_dropShadow_1329_10930"/>
<feBlend mode="normal" in="SourceGraphic" in2="effect1_dropShadow_1329_10930" result="shape"/>
</filter>
</defs>
</svg>
