<svg width="21" height="22" viewBox="0 0 21 22" fill="none" xmlns="http://www.w3.org/2000/svg">
<path d="M19.2857 19.9998H11.2857M0.785645 20.4998L6.33491 18.3655C6.68986 18.229 6.86733 18.1607 7.03336 18.0716C7.18085 17.9924 7.32144 17.901 7.45369 17.7984C7.60257 17.6829 7.73702 17.5484 8.00592 17.2795L19.2857 5.99982C20.3902 4.89525 20.3902 3.10438 19.2857 1.99981C18.1811 0.895245 16.3902 0.895244 15.2857 1.99981L4.00593 13.2795C3.73702 13.5484 3.60257 13.6829 3.48704 13.8318C3.38442 13.964 3.29305 14.1046 3.21388 14.2521C3.12475 14.4181 3.05649 14.5956 2.91998 14.9506L0.785645 20.4998ZM0.785645 20.4998L2.84377 15.1488C2.99104 14.7659 3.06468 14.5744 3.19099 14.4867C3.30136 14.4101 3.43795 14.3811 3.56994 14.4063C3.72098 14.4351 3.86603 14.5802 4.15613 14.8703L6.41522 17.1294C6.70532 17.4195 6.85037 17.5645 6.87921 17.7155C6.90442 17.8475 6.87543 17.9841 6.79879 18.0945C6.71109 18.2208 6.51963 18.2944 6.13672 18.4417L0.785645 20.4998Z" stroke="white" stroke-width="1.5" stroke-linecap="round" stroke-linejoin="round"/>
</svg>
