<svg width="85" height="85" viewBox="0 0 85 85" fill="none" xmlns="http://www.w3.org/2000/svg">
<path d="M50.9033 8.76953L51.4248 9.19336L52.0879 9.08691L62.7832 7.36816L66.6426 17.4902L66.8818 18.1182L67.5098 18.3574L77.6309 22.2158L75.9131 32.9121L75.8066 33.5752L76.2305 34.0967L83.0654 42.5L76.2305 50.9033L75.8066 51.4248L75.9131 52.0879L77.6309 62.7832L67.5098 66.6426L66.8818 66.8818L66.6426 67.5098L62.7832 77.6309L52.0879 75.9131L51.4248 75.8066L50.9033 76.2305L42.5 83.0654L34.0967 76.2305L33.5752 75.8066L32.9121 75.9131L22.2158 77.6309L18.3574 67.5098L18.1182 66.8818L17.4902 66.6426L7.36816 62.7832L9.08691 52.0879L9.19336 51.4248L8.76953 50.9033L1.93359 42.5L8.76953 34.0967L9.19336 33.5752L9.08691 32.9121L7.36816 22.2158L17.4902 18.3574L18.1182 18.1182L18.3574 17.4902L22.2158 7.36816L32.9121 9.08691L33.5752 9.19336L34.0967 8.76953L42.5 1.93359L50.9033 8.76953Z" fill="white" stroke="#6970F3" stroke-width="3"/>
<path d="M49.9941 13.7412L50.168 13.8828L50.3896 13.8467L59.9277 12.3135L63.3701 21.3408L63.4492 21.5508L63.6592 21.6299L72.6855 25.0713L71.1533 34.6104L71.1172 34.832L71.2588 35.0059L77.3555 42.5L71.2588 49.9941L71.1172 50.168L71.1533 50.3896L72.6855 59.9277L63.6592 63.3701L63.4492 63.4492L63.3701 63.6592L59.9277 72.6855L50.3896 71.1533L50.168 71.1172L49.9941 71.2588L42.5 77.3555L35.0059 71.2588L34.832 71.1172L34.6104 71.1533L25.0713 72.6855L21.6299 63.6592L21.5508 63.4492L21.3408 63.3701L12.3135 59.9277L13.8467 50.3896L13.8828 50.168L13.7412 49.9941L7.64355 42.5L13.7412 35.0059L13.8828 34.832L13.8467 34.6104L12.3135 25.0713L21.3408 21.6299L21.5508 21.5508L21.6299 21.3408L25.0713 12.3135L34.6104 13.8467L34.832 13.8828L35.0059 13.7412L42.5 7.64355L49.9941 13.7412Z" stroke="#6970F3"/>
<path d="M28.4848 47.1709C26.9236 47.673 25.5232 47.7173 24.2837 47.3036C23.0401 46.8773 22.1577 45.9846 21.6365 44.6255L25.6158 43.3456C25.8049 43.803 26.0548 44.1008 26.3653 44.239C26.6759 44.3772 27.0216 44.3851 27.4024 44.2626C27.7451 44.1524 27.9978 43.9801 28.1605 43.7457C28.3318 43.4945 28.3685 43.2166 28.2705 42.9119C28.1439 42.5185 27.8619 42.273 27.4244 42.1757C26.9869 42.0783 26.3128 42.029 25.402 42.0278C24.4323 42.0176 23.6317 41.9669 23.0001 41.8759C22.3772 41.7682 21.779 41.5194 21.2054 41.1296C20.6405 40.7231 20.2212 40.0946 19.9477 39.2442C19.6701 38.3811 19.649 37.5755 19.8846 36.8274C20.1162 36.0666 20.5617 35.4051 21.2212 34.8428C21.8807 34.2806 22.6928 33.8443 23.6574 33.534C25.2187 33.0318 26.581 32.9998 27.7443 33.438C28.9163 33.8594 29.7463 34.7199 30.2344 36.0196L26.179 37.3239C26.0357 36.9219 25.8108 36.6581 25.5043 36.5325C25.2105 36.4029 24.8795 36.3973 24.5114 36.5157C24.2322 36.6055 24.0303 36.7615 23.9056 36.9837C23.781 37.2059 23.7677 37.4693 23.8657 37.7739C23.9473 38.0277 24.114 38.2193 24.3656 38.3484C24.6258 38.4608 24.9244 38.5398 25.2612 38.5856C25.594 38.6186 26.0786 38.6448 26.7151 38.6642C27.6595 38.6826 28.4515 38.75 29.0912 38.8663C29.7395 38.966 30.344 39.2127 30.9049 39.6065C31.4744 39.9836 31.8857 40.5656 32.1388 41.3526C32.396 42.1522 32.4236 42.9347 32.2216 43.7C32.0322 44.4612 31.6159 45.1483 30.9728 45.7614C30.3423 46.3704 29.513 46.8402 28.4848 47.1709ZM34.5985 30.246L38.9159 43.6687L35.1841 44.869L30.8668 31.4463L34.5985 30.246ZM44.1417 38.6474L49.7202 36.8531L50.6939 39.8804L40.9267 43.022L40.0143 40.1851L43.0984 30.8315L37.577 32.6074L36.6094 29.5992L46.3766 26.4576L47.2891 29.2945L44.1417 38.6474ZM53.0933 27.5957L53.7975 29.7852L58.0814 28.4073L58.9939 31.2442L54.71 32.6221L55.4877 35.0401L60.3428 33.4785L61.3042 36.4677L52.7175 39.2295L48.4001 25.8068L56.9869 23.0449L57.9483 26.0341L53.0933 27.5957ZM35.8957 50.8378L38.4004 58.6249C38.6331 59.3484 38.9777 59.8539 39.4343 60.1412C39.9036 60.4244 40.4809 60.4558 41.1663 60.2354C41.8517 60.0149 42.3025 59.6528 42.5187 59.1491C42.7434 58.6286 42.7415 58.013 42.5129 57.3022L40.0082 49.5151L43.7399 48.3148L46.2446 56.1019C46.6406 57.3331 46.7193 58.4703 46.4805 59.5135C46.2378 60.544 45.7372 61.4263 44.9789 62.1604C44.2292 62.8778 43.3086 63.412 42.217 63.7631C41.1254 64.1142 40.0786 64.2128 39.0767 64.0589C38.0834 63.8881 37.2004 63.4508 36.4278 62.7469C35.6678 62.0389 35.0878 61.063 34.6877 59.8191L32.183 52.032L35.8957 50.8378ZM57.8386 48.7172C58.0999 49.5295 58.1483 50.3333 57.9839 51.1285C57.8281 51.9069 57.4347 52.6217 56.8038 53.2728C56.1815 53.9072 55.3245 54.3999 54.2329 54.751L52.3861 55.345L53.8436 59.8764L50.1119 61.0767L45.7945 47.6539L51.3731 45.8596C52.452 45.5126 53.4271 45.4091 54.2985 45.549C55.1825 45.6848 55.9231 46.0279 56.5203 46.5781C57.1175 47.1283 57.5569 47.8414 57.8386 48.7172ZM52.9159 51.8972C53.9694 51.5584 54.341 50.9066 54.0307 49.942C53.7164 48.9646 53.0324 48.6454 51.9789 48.9842L50.4938 49.4619L51.4308 52.3749L52.9159 51.8972Z" fill="#FF4A4A"/>
</svg>
