<svg width="16" height="16" viewBox="0 0 16 16" fill="none" xmlns="http://www.w3.org/2000/svg">
<g clip-path="url(#clip0_2360_7656)">
<g clip-path="url(#clip1_2360_7656)">
<path d="M15.1788 10.1242C15.0903 9.97106 14.9447 9.85932 14.7739 9.81356C14.6032 9.7678 14.4212 9.79176 14.2681 9.88016L6.18517 14.5468C6.03204 14.6352 5.92031 14.7808 5.87455 14.9516C5.82879 15.1224 5.85274 15.3044 5.94115 15.4575C6.02955 15.6106 6.17517 15.7224 6.34595 15.7681C6.51674 15.8139 6.69871 15.7899 6.85183 15.7015L14.9347 11.0349C15.0879 10.9465 15.1996 10.8008 15.2454 10.6301C15.2911 10.4593 15.2672 10.2773 15.1788 10.1242ZM7.65803 1.76457C7.4137 1.34151 7.06976 0.984526 6.65608 0.724633C6.24241 0.464741 5.77153 0.309807 5.28435 0.273296C4.79718 0.236785 4.30846 0.319802 3.86067 0.515131C3.41288 0.710461 3.01957 1.01219 2.71492 1.3941C2.41026 1.77602 2.20349 2.22655 2.11256 2.70655C2.02164 3.18656 2.04931 3.6815 2.19318 4.14838C2.33705 4.61525 2.59276 5.03992 2.93809 5.38549C3.28342 5.73106 3.70792 5.98707 4.1747 6.13126C4.49231 6.44671 4.78923 6.79567 4.99457 7.15132C5.27923 7.64437 5.52838 8.18257 5.72744 8.65269L4.38452 9.42803C3.69547 9.82585 3.19268 10.4811 2.98675 11.2496C2.78082 12.0182 2.88862 12.8371 3.28645 13.5261C3.41906 13.7558 3.63748 13.9234 3.89366 13.992C4.14983 14.0607 4.42279 14.0247 4.65247 13.8921L14.4674 8.22546C14.6971 8.09285 14.8647 7.87443 14.9334 7.61825C15.002 7.36208 14.9661 7.08912 14.8335 6.85944C14.4356 6.17038 13.7804 5.66759 13.0118 5.46166C12.2433 5.25573 11.4244 5.36354 10.7354 5.76136L9.39246 6.53669C9.08486 6.12924 8.74333 5.64437 8.45867 5.15132C8.25333 4.79567 8.09959 4.36405 7.98521 3.93126C8.1546 3.19366 8.03766 2.41926 7.65803 1.76457Z" fill="#6970F3"/>
</g>
</g>
<defs>
<clipPath id="clip0_2360_7656">
<rect width="16" height="16" fill="white" transform="matrix(-1 0 0 1 16 0)"/>
</clipPath>
<clipPath id="clip1_2360_7656">
<rect width="16" height="16" fill="white" transform="matrix(-1 0 0 1 16 0)"/>
</clipPath>
</defs>
</svg>
