<svg width="16" height="16" viewBox="0 0 16 16" fill="none" xmlns="http://www.w3.org/2000/svg">
<g clip-path="url(#clip0_2387_13354)">
<path d="M15.1786 10.1242C15.0902 9.97106 14.9446 9.85932 14.7738 9.81356C14.603 9.7678 14.421 9.79176 14.2679 9.88016L6.18501 14.5468C6.03189 14.6352 5.92016 14.7808 5.8744 14.9516C5.82863 15.1224 5.85259 15.3044 5.941 15.4575C6.0294 15.6106 6.17501 15.7224 6.3458 15.7681C6.51659 15.8139 6.69856 15.7899 6.85168 15.7015L14.9346 11.0349C15.0877 10.9465 15.1994 10.8008 15.2452 10.6301C15.291 10.4593 15.267 10.2773 15.1786 10.1242ZM7.65787 1.76457C7.41355 1.34151 7.0696 0.984526 6.65593 0.724633C6.24226 0.464741 5.77137 0.309807 5.2842 0.273296C4.79703 0.236785 4.30831 0.319802 3.86052 0.515131C3.41273 0.710461 3.01942 1.01219 2.71476 1.3941C2.41011 1.77602 2.20334 2.22655 2.11241 2.70655C2.02149 3.18656 2.04916 3.6815 2.19303 4.14838C2.3369 4.61525 2.59261 5.03992 2.93794 5.38549C3.28327 5.73106 3.70777 5.98707 4.17454 6.13126C4.49216 6.44671 4.78908 6.79567 4.99441 7.15132C5.27908 7.64437 5.52823 8.18257 5.72729 8.65269L4.38437 9.42803C3.69532 9.82585 3.19252 10.4811 2.98659 11.2496C2.78067 12.0182 2.88847 12.8371 3.2863 13.5261C3.4189 13.7558 3.63732 13.9234 3.8935 13.992C4.14968 14.0607 4.42264 14.0247 4.65232 13.8921L14.4673 8.22546C14.697 8.09285 14.8646 7.87443 14.9332 7.61825C15.0018 7.36208 14.9659 7.08912 14.8333 6.85944C14.4355 6.17038 13.7802 5.66759 13.0117 5.46166C12.2431 5.25573 11.4243 5.36354 10.7352 5.76136L9.39231 6.53669C9.0847 6.12924 8.74318 5.64437 8.45852 5.15132C8.25318 4.79567 8.09944 4.36405 7.98505 3.93126C8.15444 3.19366 8.03751 2.41926 7.65787 1.76457Z" fill="#6970F3"/>
</g>
<defs>
<clipPath id="clip0_2387_13354">
<rect width="16" height="16" fill="white" transform="matrix(-1 0 0 1 16 0)"/>
</clipPath>
</defs>
</svg>
