<svg width="293" height="436" viewBox="0 0 293 436" fill="none" xmlns="http://www.w3.org/2000/svg">
<path d="M132.617 55.4179L213.127 20.3236C233.138 11.6038 256.461 20.2807 265.93 39.9713L267.912 44.095C277.905 64.8852 268.649 89.8335 247.523 99.0431L41.0345 189.051C23.4933 196.697 13.6634 215.563 17.4204 234.343C22.5069 259.764 49.715 273.99 73.4492 263.647L219.165 200.133C240.995 190.615 266.273 201.86 273.865 224.463L274.371 225.958C281.096 245.966 271.411 267.805 252.086 276.233L104.063 340.751C84.2656 349.376 74.6758 372.014 82.2155 392.271L82.5672 393.216C90.7073 415.063 115.479 425.604 136.829 416.292L193.698 391.507" stroke="#6970F3" stroke-width="32" stroke-miterlimit="10"/>
</svg>
