<svg width="81" height="80" viewBox="0 0 81 80" fill="none" xmlns="http://www.w3.org/2000/svg">
<path d="M40.5 80C62.5914 80 80.5 62.0914 80.5 40C80.5 17.9086 62.5914 0 40.5 0C18.4086 0 0.5 17.9086 0.5 40C0.5 62.0914 18.4086 80 40.5 80Z" fill="#E3F389"/>
<path d="M40.5 75.7698C60.255 75.7698 76.2695 59.7552 76.2695 40.0002C76.2695 20.2453 60.255 4.23071 40.5 4.23071C20.745 4.23071 4.73047 20.2453 4.73047 40.0002C4.73047 59.7552 20.745 75.7698 40.5 75.7698Z" fill="#6970F3"/>
<path d="M44.3669 24.4731L44.6096 24.6702L44.9128 24.6247L47.8848 24.1395C49.022 23.9576 50.1289 24.5944 50.5383 25.671L51.6149 28.4913L51.721 28.7794L52.0091 28.8855L54.8294 29.9621C55.906 30.3715 56.5428 31.4784 56.3609 32.6156L55.8757 35.5876L55.8302 35.8908L56.0273 36.1335L57.9227 38.4686C58.6505 39.3632 58.6505 40.6369 57.9227 41.5315L56.0273 43.8666L55.8302 44.1092L55.8757 44.4125L56.3609 47.3844C56.5428 48.5216 55.906 49.6285 54.8294 50.0379L52.0091 51.1145L51.721 51.2206L51.6149 51.5087L50.5383 54.3291C50.1289 55.4056 49.022 56.0425 47.8848 55.8605L44.9128 55.3753L44.6096 55.3298L44.3669 55.5269L42.0318 57.4223C41.1372 58.1501 39.8635 58.1501 38.9689 57.4223L36.6338 55.5269L36.3912 55.3298L36.0879 55.3753L33.116 55.8605C31.9788 56.0425 30.8719 55.4056 30.4625 54.3291L29.3859 51.5087L29.2798 51.2206L28.9917 51.1145L26.1713 50.0379C25.0948 49.6285 24.4579 48.5216 24.6399 47.3844L25.1251 44.4125L25.1706 44.1092L24.9735 43.8666L23.0781 41.5315C22.3503 40.6369 22.3503 39.3632 23.0781 38.4686L24.9735 36.1335L25.1706 35.8908L25.1251 35.5876L24.6399 32.6156C24.4579 31.4784 25.0948 30.3715 26.1713 29.9621L28.9917 28.8855L29.2798 28.7794L29.3859 28.4913L30.4625 25.671C30.8719 24.5944 31.9788 23.9576 33.116 24.1395L36.0879 24.6247L36.3912 24.6702L36.6338 24.4731L38.9689 22.5777C39.8635 21.8499 41.1372 21.8499 42.0318 22.5777L44.3669 24.4731Z" fill="#E3F389"/>
<path d="M43.5931 27.551L43.7902 27.7026L44.0328 27.6572L46.4134 27.2781C47.3232 27.1264 48.2027 27.642 48.5363 28.5063L49.4005 30.7656L49.4915 30.993L49.719 31.084L51.9783 31.9483C52.8425 32.2819 53.3581 33.1613 53.2065 34.0711L52.8274 36.4517L52.7819 36.6943L52.9335 36.8914L54.465 38.7716C55.0412 39.4843 55.0412 40.5154 54.465 41.228L52.9335 43.1083L52.7819 43.3054L52.8274 43.548L53.2065 45.9286C53.3581 46.8384 52.8425 47.7178 51.9783 48.0514L49.719 48.9157L49.4915 49.0067L49.4005 49.2341L48.5363 51.4934C48.2027 52.3577 47.3232 52.8732 46.4134 52.7216L44.0328 52.3425L43.7902 52.297L43.5931 52.4487L41.7129 53.9801C41.0002 54.5563 39.9692 54.5563 39.2565 53.9801L37.3763 52.4487L37.1792 52.297L36.9366 52.3425L34.556 52.7216C33.6462 52.8732 32.7667 52.3577 32.4331 51.4934L31.5689 49.2341L31.4779 49.0067L31.2504 48.9157L28.9911 48.0514C28.1269 47.7178 27.6113 46.8384 27.7629 45.9286L28.142 43.548L28.1875 43.3054L28.0359 43.1083L26.5044 41.228C25.9282 40.5154 25.9282 39.4843 26.5044 38.7716L28.0359 36.8914L28.1875 36.6943L28.142 36.4517L27.7629 34.0711C27.6113 33.1613 28.1269 32.2819 28.9911 31.9483L31.2504 31.084L31.4779 30.993L31.5689 30.7656L32.4331 28.5063C32.7667 27.642 33.6462 27.1264 34.556 27.2781L36.9366 27.6572L37.1792 27.7026L37.3763 27.551L39.2565 26.0195C39.9692 25.4434 41.0002 25.4434 41.7129 26.0195L43.5931 27.551Z" fill="#ED5E11"/>
<path d="M14.0972 24.1368L15.8809 25.3705C15.742 25.4733 15.6472 25.5613 15.5964 25.6347C15.4992 25.7753 15.4676 25.932 15.5018 26.1047C15.536 26.2775 15.6264 26.4146 15.7731 26.5161C15.8985 26.6028 16.0955 26.6577 16.3642 26.6809L16.7101 26.71C17.3339 26.7619 17.8538 26.9316 18.2695 27.2191C18.8778 27.6399 19.2427 28.2132 19.3643 28.939C19.4881 29.6618 19.3343 30.3349 18.903 30.9585C18.6958 31.2581 18.4219 31.507 18.0814 31.7053L16.2703 30.4526C16.506 30.3536 16.6714 30.2353 16.7666 30.0977C16.8786 29.9357 16.9258 29.7695 16.9081 29.5991C16.8894 29.4235 16.8098 29.2871 16.6692 29.1898C16.5775 29.1264 16.317 29.075 15.8878 29.0357C15.2063 28.9756 14.621 28.7764 14.1319 28.4381C13.542 28.0301 13.1794 27.4697 13.0441 26.7571C12.9079 26.0392 13.0418 25.3884 13.4456 24.8046C13.6232 24.5478 13.8404 24.3252 14.0972 24.1368Z" fill="white"/>
<path d="M19.3361 18.6905L22.7617 22.2414C23.3655 22.8674 23.6608 23.5482 23.6476 24.284C23.637 25.0171 23.3214 25.6831 22.7009 26.2817C22.083 26.8778 21.434 27.1526 20.7541 27.1062C20.0768 27.0573 19.4091 26.6917 18.7511 26.0096L15.3759 22.5108L17.0049 20.9393L20.3763 24.4341C20.6988 24.7685 20.9791 24.8208 21.2172 24.5912C21.4473 24.3693 21.401 24.0911 21.0784 23.7567L17.7071 20.262L19.3361 18.6905Z" fill="white"/>
<path d="M27.9358 17.9421L30.0518 16.8743C30.4951 18.0285 30.569 19.0648 30.2735 19.9832C29.9814 20.8997 29.3442 21.622 28.3621 22.1499C27.3637 22.6867 26.3477 22.8024 25.3143 22.497C24.2825 22.1867 23.4999 21.5355 22.9667 20.5436C22.43 19.5451 22.3207 18.5215 22.6389 17.4728C22.9604 16.4223 23.6236 15.6269 24.6286 15.0867C25.6173 14.5552 26.6218 14.4457 27.642 14.7581C28.3485 14.9733 29.0184 15.4424 29.6517 16.1653L27.5922 17.4559C26.959 16.8511 26.3085 16.7281 25.6407 17.0871C25.2151 17.3159 24.9423 17.6524 24.8225 18.0966C24.7058 18.5391 24.7698 18.9878 25.0144 19.4429C25.2503 19.8815 25.5814 20.1719 26.008 20.3139C26.4328 20.4527 26.8531 20.4103 27.2689 20.1868C27.6912 19.9598 27.959 19.6534 28.0723 19.2676C28.1889 18.88 28.1434 18.4382 27.9358 17.9421Z" fill="white"/>
<path d="M35.1677 14.6507L35.5748 16.2959L34.1407 16.6508C33.9459 16.6991 33.8141 16.7623 33.7454 16.8406C33.6803 16.9179 33.6648 17.0252 33.6987 17.1623C33.7371 17.3174 33.804 17.4099 33.8995 17.4399C33.9941 17.4663 34.1695 17.4478 34.4256 17.3844L35.903 17.0188L36.4254 19.1294L34.699 19.5566C33.8872 19.7575 33.2189 19.718 32.694 19.4382C32.1683 19.1548 31.8148 18.6469 31.6335 17.9146L30.917 15.0192C30.742 14.3121 30.8083 13.7137 31.116 13.224C31.4272 12.7335 31.9509 12.3972 32.6869 12.215L34.5972 11.7422L35.1222 13.8637L33.7206 14.2105C33.3418 14.3043 33.1827 14.4738 33.2434 14.7192C33.2791 14.8635 33.3492 14.9534 33.4537 14.9888C33.5573 15.0206 33.7245 15.0079 33.9554 14.9507L35.1677 14.6507Z" fill="white"/>
<path d="M40.3733 11.2128L40.5075 13.3774C40.3409 13.3319 40.213 13.3119 40.124 13.3174C39.9533 13.328 39.8107 13.4001 39.6961 13.5338C39.5815 13.6676 39.5298 13.8234 39.5408 14.0015C39.5503 14.1536 39.629 14.3424 39.777 14.5678L39.9682 14.8576C40.3134 15.3798 40.5016 15.8932 40.5329 16.3977C40.5787 17.1359 40.3541 17.7773 39.8591 18.3219C39.3678 18.8663 38.7438 19.1619 37.9871 19.2089C37.6235 19.2315 37.2585 19.1703 36.892 19.0255L36.7557 16.8275C36.9793 16.9515 37.1746 17.0082 37.3416 16.9979C37.5382 16.9857 37.698 16.9199 37.8209 16.8006C37.9473 16.6773 38.0052 16.5303 37.9946 16.3597C37.9877 16.2484 37.8669 16.012 37.6322 15.6504C37.2578 15.0778 37.0522 14.4948 37.0154 13.9012C36.971 13.1853 37.1869 12.5537 37.6631 12.0066C38.1428 11.4555 38.7369 11.1579 39.4455 11.114C39.7571 11.0947 40.0663 11.1276 40.3733 11.2128Z" fill="white"/>
<path d="M45.9741 11.6663L45.7432 13.8227C45.5866 13.7498 45.4639 13.7087 45.3752 13.6992C45.2052 13.681 45.0525 13.7282 44.9171 13.8408C44.7817 13.9534 44.7045 14.0984 44.6855 14.2758C44.6693 14.4273 44.7152 14.6266 44.8233 14.8736L44.9631 15.1914C45.2158 15.7642 45.3152 16.3018 45.2614 16.8045C45.1827 17.5399 44.8537 18.1345 44.2743 18.5883C43.6986 19.0425 43.0338 19.2293 42.2799 19.1486C41.9178 19.1098 41.5682 18.9883 41.2312 18.784L41.4656 16.5944C41.6653 16.754 41.8483 16.8428 42.0146 16.8606C42.2105 16.8816 42.379 16.8435 42.5203 16.7465C42.6656 16.6462 42.7473 16.511 42.7655 16.341C42.7774 16.2302 42.698 15.9768 42.5273 15.581C42.2543 14.9537 42.1494 14.3444 42.2127 13.7531C42.2891 13.0399 42.6079 12.4535 43.1692 11.994C43.7345 11.5312 44.3702 11.3376 45.076 11.4132C45.3864 11.4464 45.6858 11.5308 45.9741 11.6663Z" fill="white"/>
<path d="M49.7806 16.375L49.196 18.33L48.4749 18.1143L47.9062 20.0158L45.7377 19.3673L47.0907 14.8432C47.3452 13.9921 47.8172 13.3671 48.5068 12.9682C49.201 12.5667 49.9469 12.4853 50.7446 12.7238C51.6241 12.9869 52.246 13.586 52.6103 14.5212L50.4435 15.2873C50.4268 14.9797 50.2921 14.7881 50.0393 14.7125C49.7045 14.6124 49.468 14.7938 49.3295 15.2567L49.0596 16.1594L49.7806 16.375Z" fill="white"/>
<path d="M59.009 16.8355L56.6072 21.1453C56.1838 21.905 55.6182 22.3855 54.9104 22.5867C54.2058 22.7898 53.4769 22.6814 52.7237 22.2617C51.9737 21.8437 51.5221 21.3027 51.3688 20.6386C51.2188 19.9764 51.3745 19.2313 51.8359 18.4034L54.2024 14.1568L56.1796 15.2587L53.8158 19.5004C53.5896 19.9062 53.621 20.1896 53.9099 20.3507C54.1892 20.5062 54.4418 20.3811 54.668 19.9753L57.0318 15.7336L59.009 16.8355Z" fill="white"/>
<path d="M60.7131 18.1677L62.4539 19.6145L59.564 23.0917C59.3383 23.3632 59.2303 23.5804 59.24 23.7431C59.255 23.9054 59.3911 24.0934 59.6484 24.3072L59.7384 24.382L58.3273 26.0799L57.8642 25.6951C57.2297 25.1677 56.8884 24.5723 56.8404 23.909C56.7948 23.2429 57.0452 22.5811 57.5916 21.9236L60.7131 18.1677Z" fill="white"/>
<path d="M64.147 21.2026L65.6721 22.8752L62.3311 25.9216C62.0702 26.1595 61.9334 26.3597 61.9206 26.5223C61.9131 26.685 62.0221 26.89 62.2474 27.1372L62.3263 27.2237L60.695 28.7112L60.2893 28.2663C59.7333 27.6566 59.4772 27.02 59.521 26.3564C59.5675 25.6903 59.9066 25.0692 60.5382 24.4932L64.147 21.2026Z" fill="white"/>
<path d="M70.2204 29.4078L66.2101 29.4132L62.6472 31.6856L61.43 29.7773L64.9929 27.5048L66.6798 23.8566L67.915 25.7932L67.1218 27.4629L69.0092 27.5088L70.2204 29.4078Z" fill="white"/>
<path d="M26.7716 58.3377L17.8298 61.0258L22.2933 52.8351L24.068 55.0157L22.5635 57.2042L25.0611 56.2359L26.7716 58.3377Z" fill="white"/>
<path d="M28.6819 63.4127L27.6257 64.893L26.3353 63.9723C26.16 63.8472 26.0164 63.784 25.9047 63.7826C25.7962 63.7836 25.698 63.8458 25.61 63.9691C25.5104 64.1087 25.4817 64.2279 25.5239 64.3266C25.5685 64.4221 25.706 64.5521 25.9365 64.7165L27.2658 65.6651L25.9107 67.5642L24.3574 66.4558C23.627 65.9346 23.1925 65.3625 23.0541 64.7395C22.9179 64.1132 23.085 63.4706 23.5552 62.8116L25.4141 60.2065C25.8681 59.5702 26.402 59.2065 27.0158 59.1153C27.6328 59.0265 28.2724 59.2183 28.9346 59.6909L30.6536 60.9174L29.2915 62.8262L28.0303 61.9263C27.6895 61.6831 27.4403 61.6718 27.2828 61.8926C27.1901 62.0224 27.1658 62.1423 27.2099 62.2521C27.2563 62.3587 27.3834 62.4862 27.5912 62.6344L28.6819 63.4127Z" fill="white"/>
<path d="M33.0529 64.2974L31.1142 69.9439L28.8171 69.1552L31.4688 61.4323L34.4165 62.4444C35.3142 62.7527 35.9337 63.2141 36.275 63.8289C36.6547 64.5158 36.7131 65.2422 36.4502 66.0078C36.1822 66.7886 35.6148 67.3296 34.7482 67.6308L34.9784 71.2707L32.5682 70.4431L32.3084 67.571L32.9903 65.5851L33.1713 65.6473C33.6541 65.8131 33.9667 65.6885 34.1092 65.2736C34.2348 64.9077 34.0185 64.629 33.4603 64.4373L33.0529 64.2974Z" fill="white"/>
<path d="M40.5772 63.525L39.9579 71.6669L37.5362 71.4827L38.1556 63.3408L40.5772 63.525Z" fill="white"/>
<path d="M45.447 66.9217L45.7766 69.0862L44.9783 69.2078L45.2989 71.3131L42.8979 71.6788L42.135 66.6698C41.9915 65.7275 42.1627 64.9048 42.6486 64.2015C43.1378 63.4936 43.824 63.0724 44.7071 62.9379C45.6809 62.7896 46.559 63.0855 47.3413 63.8256L45.5909 65.5626C45.4337 65.2719 45.2151 65.1478 44.9352 65.1905C44.5646 65.2469 44.4183 65.5314 44.4964 66.0439L44.6486 67.0433L45.447 66.9217Z" fill="white"/>
<path d="M49.5161 61.6027L52.5432 69.1863L50.2875 70.0866L47.2604 62.5031L49.5161 61.6027Z" fill="white"/>
<path d="M56.0744 61.2501L57.1089 62.7458L55.8051 63.6475C55.628 63.77 55.5199 63.8836 55.4808 63.9882C55.4449 64.0906 55.4701 64.2041 55.5563 64.3288C55.6538 64.4698 55.7562 64.5372 55.8634 64.5309C55.9683 64.5214 56.1372 64.4361 56.3701 64.275L57.7132 63.3461L59.0403 65.2648L57.4709 66.3503C56.7329 66.8607 56.0474 67.0754 55.4144 66.9945C54.7791 66.9102 54.2311 66.5351 53.7706 65.8693L51.9501 63.2372C51.5055 62.5944 51.3443 61.9688 51.4667 61.3605C51.5923 60.7499 51.9896 60.2132 52.6587 59.7504L54.3954 58.5492L55.7294 60.4778L54.4551 61.3591C54.1107 61.5973 54.0157 61.8279 54.1699 62.051C54.2607 62.1822 54.3652 62.2457 54.4835 62.2414C54.5995 62.2339 54.7625 62.1575 54.9724 62.0124L56.0744 61.2501Z" fill="white"/>
<path d="M58.5056 57.487L63.227 60.8909L61.8067 62.8609L55.1832 58.0857L57.0338 55.5188C57.8454 54.393 58.7365 53.6957 59.7071 53.4269C60.8642 53.1108 61.9668 53.3305 63.015 54.0861C64.0178 54.8091 64.603 55.7227 64.7706 56.8268C64.9382 57.9309 64.6547 58.9925 63.92 60.0115C63.8337 60.1311 63.6861 60.3222 63.4773 60.5846L61.5315 59.1818L61.7589 58.8663C62.5868 57.718 62.5204 56.7974 61.5596 56.1047C60.6571 55.454 59.7989 55.6932 58.9849 56.8222L58.5056 57.487Z" fill="white"/>
<path d="M38.226 46.323C37.8317 46.323 37.4527 46.1714 37.1494 45.8833L32.464 41.1979C31.8727 40.6065 31.8727 39.6513 32.464 39.0599C33.0554 38.4686 34.0107 38.4686 34.602 39.0599L38.226 42.6839L46.3988 34.511C46.9902 33.9197 47.9455 33.9197 48.5368 34.511C49.1282 35.1024 49.1282 36.0576 48.5368 36.649L39.3025 45.8833C38.9993 46.1865 38.6202 46.323 38.226 46.323Z" fill="white"/>
<path d="M15.4205 39.6057L15.9512 41.2282C16.027 41.4859 16.2696 41.6527 16.5425 41.6527H18.2559C18.8473 41.6527 19.1051 42.426 18.6198 42.7748L17.24 43.7756C17.0277 43.9272 16.9368 44.2153 17.0126 44.4731L17.5433 46.0955C17.7252 46.6717 17.0732 47.1417 16.588 46.793L15.2082 45.7922C14.9959 45.6406 14.6926 45.6406 14.4803 45.7922L13.1005 46.793C12.6153 47.1417 11.9633 46.6717 12.1452 46.0955L12.6759 44.4731C12.7518 44.2153 12.6759 43.9423 12.4485 43.7756L11.0687 42.7748C10.5835 42.426 10.8261 41.6527 11.4326 41.6527H13.146C13.4189 41.6527 13.6464 41.4859 13.7374 41.2282L14.2681 39.6057C14.45 39.0295 15.2537 39.0295 15.4508 39.6057H15.4205Z" fill="#FFAF33"/>
<path d="M66.7622 39.6057L67.2929 41.2282C67.3688 41.4859 67.6114 41.6527 67.8843 41.6527H69.5977C70.1891 41.6527 70.4469 42.426 69.9616 42.7748L68.5818 43.7756C68.3695 43.9272 68.2785 44.2153 68.3544 44.4731L68.8851 46.0955C69.067 46.6717 68.415 47.1417 67.9298 46.793L66.55 45.7922C66.3377 45.6406 66.0344 45.6406 65.8221 45.7922L64.4423 46.793C63.9571 47.1417 63.3051 46.6717 63.487 46.0955L64.0177 44.4731C64.0936 44.2153 64.0177 43.9423 63.7903 43.7756L62.4105 42.7748C61.9253 42.426 62.1679 41.6527 62.7744 41.6527H64.4878C64.7607 41.6527 64.9882 41.4859 65.0792 41.2282L65.6099 39.6057C65.7918 39.0295 66.5955 39.0295 66.7926 39.6057H66.7622Z" fill="#FFAF33"/>
</svg>
