<svg width="110" height="110" viewBox="0 0 110 110" fill="none" xmlns="http://www.w3.org/2000/svg">
<path d="M55.0301 110C85.3891 110 109.987 85.3757 109.97 55C109.953 24.6243 85.3289 0 54.9699 0C24.6108 0 0.0134804 24.6243 0.0301092 55C0.0467381 85.3757 24.6711 110 55.0301 110Z" fill="#E3F389"/>
<path d="M65.5408 10.1409L66.2285 10.7038L67.1037 10.5579L75.6892 9.18189C78.9609 8.66068 82.17 10.4953 83.337 13.6017L86.4419 21.7325L86.7545 22.5664L87.5881 22.8792L95.7151 25.9855C98.8201 27.1739 100.654 30.3637 100.133 33.6368L98.7576 42.2263L98.6117 43.1019L99.1744 43.7899L104.676 50.5447C106.76 53.1299 106.76 56.82 104.676 59.3844L99.1744 66.1392L98.6117 66.8272L98.7576 67.7028L100.133 76.2923C100.654 79.5654 98.8201 82.776 95.7151 83.9435L87.5881 87.0499L86.7545 87.3626L86.4419 88.1966L83.337 96.3274C82.1492 99.4338 78.9609 101.268 75.6892 100.747L67.1037 99.3712L66.2285 99.2253L65.5408 99.7882L58.7891 105.292C56.2051 107.377 52.5166 107.377 49.9535 105.292L43.2018 99.7882L42.5141 99.2253L41.6389 99.3712L33.0533 100.747C29.7817 101.268 26.5725 99.4338 25.4056 96.3274L22.3006 88.1966L21.988 87.3626L21.1545 87.0499L13.0274 83.9435C9.92246 82.7552 8.08865 79.5654 8.60962 76.2923L9.98497 67.7028L10.1308 66.8272L9.5682 66.1392L4.0668 59.3844C1.98294 56.7992 1.98294 53.1091 4.0668 50.5447L9.5682 43.7899L10.1308 43.1019L9.98497 42.2263L8.60962 33.6368C8.08865 30.3637 9.92246 27.153 13.0274 25.9855L21.1545 22.8792L21.988 22.5664L22.3006 21.7325L25.4056 13.6017C26.5934 10.4953 29.7817 8.66068 33.0533 9.18189L41.6389 10.5579L42.5141 10.7038L43.2018 10.1409L49.9535 4.63698C52.5375 2.55216 56.2259 2.55216 58.7891 4.63698L65.5408 10.1409Z" fill="#6970F3"/>
<path d="M32.1374 27.9758L33.6042 30.422L32.8094 30.899L34.1336 33.1073L31.3756 34.7627L27.8389 28.8647C27.1544 27.7232 26.9336 26.6514 27.1765 25.6494C27.4212 24.6401 28.1074 23.797 29.2351 23.1202C30.322 22.4679 31.2983 22.273 32.1641 22.5358C33.0272 22.7939 33.8173 23.521 34.5344 24.7169L38.128 30.71L35.37 32.3653L31.8863 26.5557C31.669 26.1933 31.4752 25.9677 31.305 25.8789C31.1347 25.7901 30.9387 25.8123 30.7167 25.9455C30.2865 26.2038 30.2642 26.6545 30.65 27.2977L31.3426 28.4529L32.1374 27.9758Z" fill="#E3F389"/>
<path d="M44.9359 22.9705L48.205 22.1588C48.4544 23.8981 48.2294 25.3575 47.5299 26.5367C46.8356 27.7146 45.7247 28.5143 44.1972 28.9358C42.6443 29.3643 41.2002 29.2039 39.8649 28.4546C38.5334 27.6988 37.6549 26.5495 37.2295 25.0066C36.8014 23.4536 36.9734 22.0007 37.7455 20.6479C38.5228 19.2937 39.6929 18.401 41.2561 17.9696C42.7937 17.5453 44.22 17.7106 45.5349 18.4656C46.4456 18.9868 47.2256 19.8483 47.8746 21.05L44.6134 22.1883C43.9273 21.1502 43.0649 20.7745 42.0262 21.0612C41.3643 21.2438 40.8801 21.624 40.5737 22.2017C40.2723 22.778 40.2192 23.42 40.4143 24.1278C40.6024 24.8101 40.9696 25.317 41.5157 25.6485C42.0604 25.9749 42.6561 26.0488 43.3028 25.8704C43.9596 25.6891 44.4274 25.3491 44.7063 24.8502C44.9902 24.35 45.0668 23.7234 44.9359 22.9705Z" fill="#E3F389"/>
<path d="M53.8771 19.36L53.8371 27.2669L50.6205 27.2506L50.6752 16.4361L54.803 16.457C56.06 16.4634 57.033 16.7799 57.7217 17.4067C58.4893 18.1078 58.8704 18.9945 58.865 20.0667C58.8595 21.16 58.3768 22.0793 57.417 22.8244L59.2484 27.2943L55.8733 27.2772L54.3301 23.7833L54.3442 21.0025L54.5977 21.0037C55.2738 21.0072 55.6133 20.7184 55.6163 20.1374C55.6188 19.625 55.2293 19.3669 54.4476 19.3629L53.8771 19.36Z" fill="#E3F389"/>
<path d="M67.7243 18.039C69.1978 18.4575 70.3083 19.3522 71.0557 20.7231C71.8083 22.0955 71.9726 23.5286 71.5487 25.0224C71.1175 26.5417 70.2203 27.6816 68.857 28.4419C67.4938 29.2023 66.0525 29.3667 64.5333 28.9352C63.0243 28.5065 61.8877 27.6072 61.1235 26.237C60.3594 24.8669 60.1914 23.4273 60.6197 21.9181C61.0523 20.3937 61.9546 19.2554 63.3266 18.503C64.7036 17.752 66.1696 17.5974 67.7243 18.039ZM66.7634 21.077C66.1282 20.8966 65.5208 20.9767 64.941 21.3171C64.3612 21.6576 63.9776 22.1581 63.7902 22.8187C63.6027 23.4792 63.6662 24.1068 63.9807 24.7012C64.3002 25.2972 64.775 25.6846 65.405 25.8636C66.0452 26.0454 66.6519 25.9679 67.2252 25.6311C67.805 25.2906 68.1893 24.7875 68.3782 24.1219C68.5671 23.4562 68.5036 22.8287 68.1877 22.2393C67.8783 21.6463 67.4035 21.2589 66.7634 21.077Z" fill="#E3F389"/>
<path d="M70.7767 30.7576L74.4401 24.7697C75.0823 23.7199 75.9095 23.0713 76.9215 22.8239C77.938 22.5793 78.9688 22.777 80.0138 23.4169C81.0544 24.0541 81.6619 24.8473 81.8366 25.7966C82.0158 26.7486 81.7539 27.7991 81.051 28.948L77.4455 34.8413L74.7023 33.1615L78.3078 27.2682C78.6523 26.705 78.6242 26.3007 78.2233 26.0552C77.8359 25.8179 77.4699 25.9809 77.1254 26.5441L73.5199 32.4374L70.7767 30.7576Z" fill="#E3F389"/>
<path d="M24.1014 69.8497L25.2179 73.0631C23.4917 73.4745 22.0036 73.3829 20.7535 72.7881C19.5053 72.1984 18.5991 71.1547 18.0349 69.6571C17.4614 68.1345 17.49 66.6671 18.1209 65.2548C18.7587 63.8456 19.8337 62.8559 21.3461 62.2857C22.8685 61.7117 24.3453 61.7506 25.7766 62.4025C27.2097 63.0594 28.2149 64.1541 28.7922 65.6866C29.3601 67.1942 29.3249 68.6441 28.6865 70.0365C28.246 71.0007 27.4513 71.8647 26.3025 72.6285L24.8584 69.4531C25.8392 68.6671 26.1378 67.7649 25.7542 66.7466C25.5097 66.0976 25.083 65.6457 24.4739 65.3907C23.8667 65.1408 23.2162 65.1466 22.5224 65.4082C21.8535 65.6604 21.3775 66.0765 21.0944 66.6564C20.8162 67.2345 20.7965 67.8405 21.0353 68.4745C21.2779 69.1185 21.6628 69.5577 22.1901 69.7922C22.7192 70.0316 23.3563 70.0508 24.1014 69.8497Z" fill="#E3F389"/>
<path d="M34.8256 75.3672C35.8935 76.4865 36.4017 77.8342 36.35 79.4105C36.302 80.9907 35.7109 82.3223 34.5767 83.4055C33.4233 84.5072 32.0586 85.0397 30.4827 85.0031C28.9067 84.9665 27.5682 84.3712 26.4671 83.2173C25.3734 82.071 24.8449 80.7058 24.8817 79.1216C24.9185 77.5374 25.5098 76.1982 26.6555 75.104C27.8128 73.9987 29.1812 73.47 30.7606 73.518C32.3437 73.5698 33.6987 74.1863 34.8256 75.3672ZM32.4331 77.5194C31.9728 77.037 31.4031 76.7955 30.7241 76.7948C30.0452 76.7941 29.4549 77.0333 28.9534 77.5122C28.4519 77.9912 28.1858 78.57 28.1549 79.2486C28.1277 79.931 28.3425 80.5115 28.7991 80.9901C29.2631 81.4764 29.8309 81.7198 30.5023 81.7202C31.1813 81.7209 31.7734 81.4799 32.2788 80.9973C32.7842 80.5146 33.0503 79.9358 33.0773 79.2609C33.1118 78.5862 32.8971 78.0057 32.4331 77.5194Z" fill="#E3F389"/>
<path d="M39.5585 79.7877L42.3882 81.3835L39.2026 87.0372C38.9539 87.4787 38.8573 87.8132 38.9129 88.0405C38.9758 88.2658 39.2163 88.4964 39.6345 88.7322L39.7808 88.8148L38.2254 91.5754L37.4726 91.1509C36.4411 90.5691 35.8062 89.816 35.5678 88.8916C35.3321 87.9625 35.5153 86.9634 36.1176 85.8945L39.5585 79.7877Z" fill="#E3F389"/>
<path d="M44.0539 82.2111L47.1304 83.2547L45.0474 89.4006C44.8848 89.8806 44.8518 90.2271 44.9486 90.4402C45.0521 90.6499 45.3312 90.8319 45.7858 90.9862L45.945 91.0401L44.9279 94.0411L44.1095 93.7635C42.988 93.3831 42.2245 92.7608 41.819 91.8965C41.4152 91.0273 41.4102 90.0116 41.804 88.8496L44.0539 82.2111Z" fill="#E3F389"/>
<path d="M54.45 88.6663L54.2174 91.0876L52.1067 90.8847C51.8199 90.8571 51.6114 90.8799 51.4811 90.9531C51.3562 91.0269 51.284 91.1646 51.2646 91.3664C51.2427 91.5947 51.2892 91.7519 51.4042 91.838C51.5197 91.9188 51.7659 91.9773 52.1429 92.0135L54.3173 92.2226L54.0189 95.329L51.4781 95.0847C50.2834 94.9698 49.3973 94.5979 48.82 93.9689C48.2433 93.3347 48.0066 92.4786 48.1102 91.4007L48.5196 87.1394C48.6196 86.0987 48.9945 85.3201 49.6443 84.8038C50.2994 84.288 51.1686 84.0822 52.2518 84.1864L55.0634 84.4568L54.7635 87.579L52.7005 87.3807C52.143 87.3271 51.8469 87.4808 51.8122 87.8419C51.7918 88.0543 51.8439 88.2093 51.9685 88.3071C52.0936 88.3995 52.326 88.462 52.6659 88.4947L54.45 88.6663Z" fill="#E3F389"/>
<path d="M64.7688 88.3697L68.0879 87.6239C68.3005 89.3858 68.0403 90.8542 67.3075 92.0291C66.5799 93.2027 65.4401 93.9851 63.8883 94.3762C62.3107 94.7738 60.8562 94.5793 59.5249 93.7926C58.1975 92.9994 57.3364 91.8191 56.9417 90.2517C56.5444 88.6739 56.7508 87.2108 57.561 85.8624C58.3763 84.5126 59.578 83.6376 61.166 83.2374C62.7281 82.8436 64.1645 83.0427 65.4751 83.8347C66.383 84.3815 67.151 85.269 67.7793 86.4969L64.4608 87.5726C63.7914 86.5091 62.9291 86.1103 61.8739 86.3762C61.2014 86.5457 60.704 86.9186 60.3815 87.495C60.0643 88.0701 59.9962 88.7172 60.1772 89.4362C60.3518 90.1294 60.711 90.6495 61.255 90.9965C61.7976 91.3383 62.3974 91.4265 63.0544 91.2609C63.7216 91.0927 64.2017 90.7599 64.4945 90.2625C64.7925 89.7638 64.8839 89.1329 64.7688 88.3697Z" fill="#E3F389"/>
<path d="M73.1412 81.2347L77.5474 87.6536L74.8699 89.4933L70.4636 83.0744L68.4126 84.4837L66.6374 81.8977L73.4105 77.244L75.1857 79.83L73.1412 81.2347Z" fill="#E3F389"/>
<path d="M80.8455 74.9348L82.7078 76.4998L81.3443 78.1237C81.159 78.3443 81.0597 78.5291 81.0461 78.6779C81.036 78.8227 81.1085 78.9603 81.2637 79.0908C81.4393 79.2383 81.5951 79.2892 81.7312 79.2432C81.8632 79.1939 82.051 79.0242 82.2945 78.7341L83.6991 77.0612L86.0882 79.0689L84.4469 81.0237C83.6751 81.9429 82.8666 82.462 82.0215 82.581C81.1722 82.6965 80.3331 82.4059 79.5041 81.7092L76.2268 78.955C75.4263 78.2824 74.9977 77.5319 74.9408 76.7037C74.8874 75.8714 75.2105 75.0385 75.9102 74.2051L77.7265 72.0419L80.1278 74.0599L78.7952 75.6471C78.435 76.076 78.3938 76.4072 78.6715 76.6406C78.8349 76.7779 78.9921 76.8229 79.1432 76.7757C79.2902 76.725 79.4735 76.5689 79.693 76.3075L80.8455 74.9348Z" fill="#E3F389"/>
<path d="M82.7372 69.2902L89.9827 72.1397L88.7946 75.1633L78.6302 71.1658L80.1782 67.2261C80.857 65.4983 81.7808 64.2996 82.9495 63.63C84.3443 62.8372 85.8459 62.7571 87.4543 63.3897C88.9932 63.9949 90.0541 64.9854 90.637 66.361C91.2198 67.7367 91.204 69.2065 90.5895 70.7704C90.5173 70.9541 90.3893 71.2506 90.2056 71.6599L87.2196 70.4855L87.4098 70.0014C88.1023 68.2389 87.7114 67.0677 86.237 66.4878C84.8519 65.9431 83.819 66.5371 83.1381 68.2699L82.7372 69.2902Z" fill="#E3F389"/>
<path d="M21.5922 41.0593L22.8217 44.3741C22.8217 44.3741 22.905 44.5201 22.9884 44.5409L26.3017 45.771C26.5518 45.8752 26.5518 46.2296 26.3017 46.313L22.9884 47.5431C22.9884 47.5431 22.8425 47.6265 22.8217 47.7099L21.5922 51.0247C21.488 51.2749 21.1338 51.2749 21.0504 51.0247L19.8209 47.7099C19.8209 47.7099 19.7376 47.5639 19.6542 47.5431L16.3409 46.313C16.0908 46.2088 16.0908 45.8544 16.3409 45.771L19.6542 44.5409C19.6542 44.5409 19.8001 44.4575 19.8209 44.3741L21.0504 41.0593C21.1546 40.8091 21.5089 40.8091 21.5922 41.0593Z" fill="#ED5E11"/>
<path d="M87.7553 41.0593L88.9848 44.3741C88.9848 44.3741 89.0681 44.5201 89.1515 44.5409L92.4648 45.771C92.7149 45.8752 92.7149 46.2296 92.4648 46.313L89.1515 47.5431C89.1515 47.5431 89.0056 47.6265 88.9848 47.7099L87.7553 51.0247C87.6511 51.2749 87.2968 51.2749 87.2135 51.0247L85.984 47.7099C85.984 47.7099 85.9006 47.5639 85.8173 47.5431L82.504 46.313C82.2539 46.2088 82.2539 45.8544 82.504 45.771L85.8173 44.5409C85.8173 44.5409 85.9632 44.4575 85.984 44.3741L87.2135 41.0593C87.3177 40.8091 87.6719 40.8091 87.7553 41.0593Z" fill="#ED5E11"/>
<path d="M58.6332 77.3898C70.9931 75.3826 79.3863 63.7312 77.38 51.3657C75.3737 39.0001 63.7277 30.603 51.3678 32.6103C39.0079 34.6175 30.6147 46.2689 32.621 58.6344C34.6273 71 46.2733 79.397 58.6332 77.3898Z" fill="white"/>
<path d="M47.5992 66.7023L47.2242 67.432C46.8907 68.0783 47.2242 68.9122 47.9118 69.2666C48.6203 69.6419 49.4747 69.3917 49.8081 68.7454L50.1832 68.0157L47.5784 66.6815L47.5992 66.7023Z" fill="#975415"/>
<path d="M65.6241 57.7171L56.2675 52.9428L46.911 48.1686C46.911 48.1686 41.6388 56.1326 44.3895 62.0118C44.3895 62.0118 45.8066 65.6185 48.0571 67.1821C48.0571 67.1821 48.1405 67.4949 48.7031 67.7867C49.2658 68.0786 49.5575 67.9744 49.5575 67.9744C52.1415 68.8917 55.8924 67.9118 55.8924 67.9118C62.2691 66.6818 65.6241 57.7379 65.6241 57.7379V57.7171Z" fill="#975415"/>
<path d="M62.8105 40.1002L62.1854 39.7875C61.7686 39.579 61.2893 39.7041 61.1018 40.1002L59.9765 42.3309C59.9765 42.3309 53.7874 41.3511 49.5363 42.9355C45.2852 44.52 46.8273 48.2518 46.8273 48.2518C49.8281 50.7745 52.8705 52.7342 55.642 54.1936C58.4761 55.5904 61.8311 56.9038 65.6446 57.842C65.6446 57.842 69.5831 56.883 68.3536 52.5257C67.1241 48.1684 62.7063 43.7069 62.7063 43.7069L63.8316 41.4762C64.0192 41.1009 63.8316 40.6214 63.4357 40.4129L62.8105 40.1002Z" fill="#492A1A"/>
<path d="M53.5726 55.3746L54.2149 57.2815C54.2863 57.5085 54.5004 57.6674 54.7621 57.6674H56.8556C57.4027 57.6674 57.6406 58.3484 57.1886 58.6662L55.4758 59.8467C55.2854 59.9829 55.1903 60.2326 55.2617 60.4596L55.904 62.3665C56.0705 62.8659 55.4758 63.2972 55.0238 62.9794L53.3109 61.799C53.1206 61.6628 52.8351 61.6628 52.6448 61.799L50.9319 62.9794C50.4799 63.2972 49.8851 62.8659 50.0517 62.3665L50.694 60.4596C50.7654 60.2326 50.694 59.9829 50.4799 59.8467L48.767 58.6662C48.315 58.3484 48.5529 57.6674 49.1001 57.6674H51.1936C51.4315 57.6674 51.6694 57.5085 51.7408 57.2815L52.3831 55.3746C52.5496 54.8751 53.3109 54.8751 53.4774 55.3746H53.5726Z" fill="#FFAF33"/>
</svg>
