<svg width="85" height="85" viewBox="0 0 85 85" fill="none" xmlns="http://www.w3.org/2000/svg">
<path d="M50.9033 8.76953L51.4248 9.19336L52.0879 9.08691L62.7832 7.36816L66.6426 17.4902L66.8818 18.1182L67.5098 18.3574L77.6309 22.2158L75.9131 32.9121L75.8066 33.5752L76.2305 34.0967L83.0654 42.5L76.2305 50.9033L75.8066 51.4248L75.9131 52.0879L77.6309 62.7832L67.5098 66.6426L66.8818 66.8818L66.6426 67.5098L62.7832 77.6309L52.0879 75.9131L51.4248 75.8066L50.9033 76.2305L42.5 83.0654L34.0967 76.2305L33.5752 75.8066L32.9121 75.9131L22.2158 77.6309L18.3574 67.5098L18.1182 66.8818L17.4902 66.6426L7.36816 62.7832L9.08691 52.0879L9.19336 51.4248L8.76953 50.9033L1.93359 42.5L8.76953 34.0967L9.19336 33.5752L9.08691 32.9121L7.36816 22.2158L17.4902 18.3574L18.1182 18.1182L18.3574 17.4902L22.2158 7.36816L32.9121 9.08691L33.5752 9.19336L34.0967 8.76953L42.5 1.93359L50.9033 8.76953Z" fill="white" stroke="#6970F3" stroke-width="3"/>
<path d="M49.9941 13.7412L50.168 13.8828L50.3896 13.8467L59.9277 12.3135L63.3701 21.3408L63.4492 21.5508L63.6592 21.6299L72.6855 25.0713L71.1533 34.6104L71.1172 34.832L71.2588 35.0059L77.3555 42.5L71.2588 49.9941L71.1172 50.168L71.1533 50.3896L72.6855 59.9277L63.6592 63.3701L63.4492 63.4492L63.3701 63.6592L59.9277 72.6855L50.3896 71.1533L50.168 71.1172L49.9941 71.2588L42.5 77.3555L35.0059 71.2588L34.832 71.1172L34.6104 71.1533L25.0713 72.6855L21.6299 63.6592L21.5508 63.4492L21.3408 63.3701L12.3135 59.9277L13.8467 50.3896L13.8828 50.168L13.7412 49.9941L7.64355 42.5L13.7412 35.0059L13.8828 34.832L13.8467 34.6104L12.3135 25.0713L21.3408 21.6299L21.5508 21.5508L21.6299 21.3408L25.0713 12.3135L34.6104 13.8467L34.832 13.8828L35.0059 13.7412L42.5 7.64355L49.9941 13.7412Z" stroke="#6970F3"/>
<path d="M30.3097 26.9642C31.2959 26.647 32.2221 26.5697 33.0881 26.7324C33.9602 26.8832 34.7105 27.2498 35.339 27.832C35.9674 28.4142 36.4288 29.1629 36.7232 30.078C37.0147 30.9843 37.0704 31.8586 36.8903 32.7008C36.7191 33.5402 36.326 34.2843 35.7112 34.9331C35.1023 35.5701 34.3092 36.0458 33.3318 36.3602L29.6134 37.5562L26.5913 28.1602L30.3097 26.9642ZM32.3903 34.1188C33.1544 33.873 33.687 33.4713 33.9881 32.9137C34.2891 32.3561 34.3168 31.6952 34.071 30.9311C33.8223 30.1581 33.4132 29.6328 32.8435 29.3552C32.271 29.0688 31.6026 29.0485 30.8385 29.2942L29.9322 29.5857L31.484 34.4103L32.3903 34.1188ZM39.004 24.1678L42.0261 33.5637L39.4139 34.4039L36.3917 25.008L39.004 24.1678ZM47.0888 32.0383C45.996 32.3898 45.0157 32.4208 44.148 32.1312C43.2775 31.8327 42.6598 31.2079 42.295 30.2565L45.0805 29.3606C45.2129 29.6808 45.3878 29.8892 45.6052 29.986C45.8226 30.0827 46.0645 30.0882 46.3311 30.0025C46.571 29.9253 46.7479 29.8047 46.8618 29.6406C46.9817 29.4648 47.0074 29.2703 46.9388 29.057C46.8502 28.7816 46.6528 28.6098 46.3465 28.5416C46.0403 28.4735 45.5684 28.439 44.9308 28.4381C44.252 28.431 43.6916 28.3955 43.2495 28.3318C42.8135 28.2564 42.3947 28.0822 41.9932 27.8094C41.5977 27.5248 41.3043 27.0849 41.1128 26.4896C40.9185 25.8854 40.9038 25.3215 41.0687 24.7978C41.2307 24.2653 41.5426 23.8022 42.0043 23.4087C42.4659 23.0151 43.0344 22.7097 43.7096 22.4925C44.8025 22.141 45.7561 22.1186 46.5705 22.4253C47.3909 22.7202 47.9719 23.3226 48.3135 24.2324L45.4747 25.1454C45.3744 24.864 45.217 24.6793 45.0024 24.5914C44.7968 24.5007 44.5651 24.4968 44.3074 24.5797C44.112 24.6425 43.9706 24.7517 43.8834 24.9073C43.7961 25.0628 43.7868 25.2471 43.8554 25.4604C43.9126 25.6381 44.0292 25.7721 44.2053 25.8626C44.3875 25.9412 44.5965 25.9966 44.8323 26.0286C45.0652 26.0517 45.4045 26.07 45.85 26.0836C46.511 26.0965 47.0655 26.1436 47.5132 26.2251C47.9671 26.2948 48.3903 26.4675 48.7829 26.7432C49.1815 27.0072 49.4694 27.4146 49.6466 27.9655C49.8266 28.5252 49.846 29.073 49.7045 29.6087C49.572 30.1415 49.2806 30.6225 48.8304 31.0516C48.389 31.4779 47.8085 31.8068 47.0888 32.0383ZM18.989 50.4738C18.6918 49.5497 18.6185 48.6664 18.7691 47.8238C18.9257 46.9695 19.2951 46.2281 19.8773 45.5997C20.4566 44.9623 21.2083 44.4951 22.1324 44.1978C23.3052 43.8206 24.3929 43.8188 25.3954 44.1924C26.3951 44.5572 27.1834 45.24 27.7602 46.2408L24.9481 47.1453C24.665 46.8441 24.3423 46.6489 23.9802 46.5595C23.627 46.4672 23.2549 46.4839 22.864 46.6097C22.2598 46.804 21.8456 47.1774 21.6213 47.73C21.4031 48.2708 21.4097 48.901 21.6412 49.6207C21.8756 50.3493 22.2405 50.8741 22.7359 51.1951C23.2373 51.5044 23.7902 51.5619 24.3944 51.3676C24.7853 51.2419 25.0974 51.0385 25.3306 50.7576C25.5726 50.4739 25.7209 50.1272 25.7754 49.7175L28.5875 48.813C28.7023 49.9624 28.4613 50.9811 27.8646 51.8691C27.265 52.7483 26.3788 53.3765 25.2059 53.7537C24.2819 54.0509 23.4002 54.1139 22.5608 53.9427C21.7185 53.7626 20.9862 53.3756 20.3637 52.7817C19.7473 52.176 19.2891 51.4067 18.989 50.4738ZM35.4609 50.4847C34.5813 50.7676 33.707 50.8233 32.8381 50.6518C31.9663 50.4714 31.1956 50.0869 30.5259 49.4984C29.8622 48.8981 29.3818 48.1359 29.0845 47.2119C28.7873 46.2878 28.7348 45.393 28.9269 44.5272C29.1251 43.6497 29.5272 42.888 30.1332 42.2421C30.7392 41.5962 31.482 41.1318 32.3616 40.8488C33.2501 40.5631 34.1244 40.5074 34.9844 40.6817C35.8533 40.8532 36.6196 41.2391 37.2833 41.8394C37.9441 42.4308 38.4232 43.1885 38.7204 44.1126C39.0176 45.0366 39.0716 45.936 38.8823 46.8106C38.6901 47.6764 38.2925 48.4366 37.6893 49.0914C37.0833 49.7373 36.3405 50.2018 35.4609 50.4847ZM34.6807 48.0591C35.3471 47.8447 35.8013 47.4584 36.0433 46.9002C36.2942 46.3391 36.3025 45.6942 36.0682 44.9656C35.8281 44.2193 35.444 43.6958 34.9159 43.395C34.3938 43.0825 33.7996 43.0335 33.1332 43.2478C32.458 43.465 31.9993 43.8527 31.7573 44.411C31.5124 44.9603 31.51 45.6082 31.7501 46.3545C31.9873 47.092 32.3669 47.617 32.889 47.9295C33.4082 48.2331 34.0055 48.2763 34.6807 48.0591ZM40.9532 38.2472L42.7065 43.6982C42.8694 44.2046 43.1106 44.5584 43.4302 44.7595C43.7587 44.9578 44.1628 44.9798 44.6426 44.8255C45.1224 44.6711 45.438 44.4177 45.5893 44.0651C45.7466 43.7007 45.7453 43.2698 45.5852 42.7722L43.832 37.3213L46.4442 36.4811L48.1974 41.932C48.4746 42.7939 48.5297 43.5899 48.3626 44.3202C48.1926 45.0415 47.8423 45.6591 47.3114 46.173C46.7866 46.6752 46.1422 47.0491 45.3781 47.2949C44.614 47.5407 43.8812 47.6097 43.1799 47.5019C42.4846 47.3824 41.8665 47.0763 41.3256 46.5836C40.7937 46.088 40.3877 45.4048 40.1076 44.5341L38.3543 39.0831L40.9532 38.2472ZM59.6074 42.6152L56.9952 43.4554L51.8278 39.3231L53.5167 44.5742L50.9045 45.4144L47.8824 36.0185L50.4946 35.1783L55.6835 39.3771L53.9731 34.0594L56.5853 33.2192L59.6074 42.6152ZM65.1502 30.4644L65.819 32.5435L63.3134 33.3494L65.6668 40.6662L63.0546 41.5064L60.7012 34.1896L58.2222 34.9869L57.5535 32.9078L65.1502 30.4644ZM40.5158 55.4767C40.2729 54.7214 40.3003 54.0753 40.5982 53.5383C40.8961 53.0013 41.3916 52.6214 42.0846 52.3985C42.7687 52.1784 43.3884 52.1997 43.9434 52.4624C44.4985 52.725 44.8975 53.234 45.1404 53.9892C45.3805 54.7355 45.353 55.3816 45.058 55.9275C44.7601 56.4645 44.2691 56.8431 43.585 57.0631C42.9008 57.2832 42.2767 57.2633 41.7128 57.0035C41.1548 56.732 40.7558 56.223 40.5158 55.4767ZM49.2753 50.2474L47.2549 61.2946L44.7493 62.1005L46.7697 51.0533L49.2753 50.2474ZM42.5642 53.9354C42.2 54.0526 42.1035 54.3777 42.275 54.9108C42.4465 55.4439 42.7144 55.6519 43.0787 55.5347C43.2564 55.4776 43.3726 55.3666 43.4275 55.2019C43.4913 55.0344 43.4803 54.8173 43.3945 54.5507C43.3088 54.2842 43.1912 54.1014 43.0417 54.0024C42.9011 53.9006 42.7419 53.8783 42.5642 53.9354ZM48.8799 58.3454C48.6399 57.5991 48.6688 56.9574 48.9666 56.4204C49.2706 55.8717 49.7646 55.4873 50.4487 55.2672C51.1329 55.0471 51.7495 55.0743 52.2985 55.3487C52.8536 55.6114 53.2512 56.1159 53.4912 56.8622C53.7342 57.6174 53.7081 58.268 53.4131 58.8139C53.1241 59.348 52.6375 59.7251 51.9534 59.9452C51.2692 60.1652 50.6452 60.1454 50.0812 59.8856C49.5233 59.614 49.1228 59.1006 48.8799 58.3454ZM50.9284 56.8042C50.5552 56.9242 50.4544 57.2508 50.6258 57.7839C50.8001 58.3258 51.0739 58.5368 51.4471 58.4168C51.6159 58.3625 51.7277 58.253 51.7826 58.0883C51.8435 57.9118 51.8311 57.6903 51.7453 57.4238C51.6625 57.1661 51.5463 56.9878 51.3968 56.8888C51.2533 56.7781 51.0972 56.7499 50.9284 56.8042Z" fill="#FF4A4A"/>
</svg>
