<svg width="307" height="442" viewBox="0 0 307 442" fill="none" xmlns="http://www.w3.org/2000/svg">
<path d="M139.617 61.4179L220.127 26.3236C240.138 17.6038 263.461 26.2807 272.93 45.9713L274.912 50.095C284.905 70.8852 275.649 95.8335 254.523 105.043L48.0345 195.051C30.4933 202.697 20.6634 221.563 24.4204 240.343C29.5069 265.764 56.715 279.99 80.4492 269.647L226.165 206.133C247.995 196.615 273.273 207.86 280.865 230.463L281.371 231.958C288.096 251.966 278.411 273.805 259.086 282.233L111.063 346.751C91.2656 355.376 81.6758 378.014 89.2155 398.271L89.5672 399.216C97.7074 421.063 122.479 431.604 143.829 422.292L200.698 397.507" stroke="#DFDFDF" stroke-width="32" stroke-miterlimit="10"/>
<rect x="178.5" y="370.938" width="51" height="51" rx="25.5" fill="#A8A8A8"/>
<rect x="178.5" y="370.938" width="51" height="51" rx="25.5" stroke="#DFDFDF" stroke-width="5"/>
<path d="M206.301 388.997V403.438H203.961V391.617L201.861 392.657L200.901 390.577L203.961 388.997H206.301Z" fill="white"/>
<rect x="64.5" y="372.938" width="51" height="51" rx="25.5" fill="#A8A8A8"/>
<rect x="64.5" y="372.938" width="51" height="51" rx="25.5" stroke="#DFDFDF" stroke-width="5"/>
<path d="M85.4224 405.237V403.057L91.5024 397.357C91.7024 397.157 91.9424 396.877 92.0424 396.657C92.5824 395.477 92.1624 394.017 90.8624 393.457C89.5824 392.897 87.9624 393.417 87.5424 394.757L85.3424 394.317C86.2024 391.217 89.4424 390.397 91.7424 391.417C94.1024 392.357 95.1824 395.158 94.1224 397.597C93.9024 398.057 93.5424 398.617 93.0424 399.037L88.8624 402.938H94.6624V405.237H85.4224Z" fill="white"/>
<rect x="151.5" y="292.938" width="51" height="51" rx="25.5" fill="#A8A8A8"/>
<rect x="151.5" y="292.938" width="51" height="51" rx="25.5" stroke="#DFDFDF" stroke-width="5"/>
<path d="M179.731 317.957C180.991 318.697 182.051 319.897 182.051 321.357C182.051 323.777 180.051 325.538 176.991 325.538C173.951 325.538 171.971 323.777 171.971 321.177H174.211C174.211 322.237 175.131 323.317 176.991 323.317C178.871 323.317 179.831 322.257 179.831 321.177C179.831 320.097 179.051 319.037 177.031 319.037H176.011V316.917H177.071C178.731 316.917 179.611 315.957 179.611 314.977C179.611 314.057 178.771 313.117 177.131 313.117C175.471 313.117 174.651 314.037 174.651 314.997H172.411C172.411 312.557 174.331 310.897 177.131 310.897C179.891 310.897 181.811 312.557 181.811 314.817C181.811 316.137 180.891 317.257 179.731 317.957Z" fill="white"/>
<rect x="253.5" y="198.938" width="51" height="51" rx="25.5" fill="#A8A8A8"/>
<rect x="253.5" y="198.938" width="51" height="51" rx="25.5" stroke="#DFDFDF" stroke-width="5"/>
<path d="M282.702 216.997V225.997H284.482V228.257H282.702V231.438H280.482V228.257H273.542V226.097L280.482 216.997H282.702ZM276.242 225.997H280.482V220.418L276.242 225.997Z" fill="white"/>
<rect x="119.5" y="217.938" width="51" height="51" rx="25.5" fill="#A8A8A8"/>
<rect x="119.5" y="217.938" width="51" height="51" rx="25.5" stroke="#DFDFDF" stroke-width="5"/>
<path d="M145.261 241.097C148.061 241.097 150.001 243.217 150.001 245.877C150.001 248.537 147.861 250.598 145.021 250.598C143.261 250.598 141.301 249.757 140.321 248.357C140.261 248.257 140.101 248.077 140.001 247.897L142.081 246.837L142.261 247.097C142.801 247.757 143.921 248.277 145.021 248.277C146.641 248.277 147.741 247.197 147.741 245.877C147.741 244.477 146.621 243.417 145.021 243.417C144.121 243.417 143.121 243.697 142.541 244.237L140.861 243.297L141.041 236.017H149.161V238.297H143.201L143.101 241.617C143.801 241.257 144.401 241.097 145.261 241.097Z" fill="white"/>
<rect x="2.5" y="221.938" width="51" height="51" rx="25.5" fill="#A8A8A8"/>
<rect x="2.5" y="221.938" width="51" height="51" rx="25.5" stroke="#DFDFDF" stroke-width="5"/>
<path d="M27.9983 252.277C29.5783 252.277 30.6583 251.217 30.6583 250.077C30.6583 248.937 29.5783 247.897 27.9983 247.897C26.4183 247.897 25.3383 248.937 25.3383 250.077C25.3383 251.217 26.4183 252.277 27.9983 252.277ZM23.0983 250.077C23.0983 249.397 23.2783 248.737 23.5783 248.137L28.9783 239.917L30.9983 241.197L27.9983 245.657C28.5183 245.637 28.7583 245.677 29.1183 245.737C31.2583 246.037 32.8983 247.677 32.8983 250.077C32.8983 252.657 30.7383 254.578 27.9983 254.578C25.2383 254.578 23.0983 252.657 23.0983 250.077Z" fill="white"/>
<rect x="88.5" y="140.938" width="51" height="51" rx="25.5" fill="#A8A8A8"/>
<rect x="88.5" y="140.938" width="51" height="51" rx="25.5" stroke="#DFDFDF" stroke-width="5"/>
<path d="M119.001 159.217V161.537L112.041 173.518L109.941 172.437L116.161 161.557H109.001V159.217H119.001Z" fill="white"/>
<rect x="193.5" y="95.9375" width="51" height="51" rx="25.5" fill="#A8A8A8"/>
<rect x="193.5" y="95.9375" width="51" height="51" rx="25.5" stroke="#DFDFDF" stroke-width="5"/>
<path d="M219.012 126.457C220.632 126.457 221.752 125.397 221.752 124.277C221.752 123.197 220.632 122.137 219.012 122.137C217.412 122.137 216.272 123.197 216.272 124.277C216.272 125.397 217.392 126.457 219.012 126.457ZM213.952 124.357C213.952 122.877 214.832 121.617 216.172 120.877C215.112 120.177 214.352 119.097 214.352 117.817C214.352 115.557 216.592 113.917 219.012 113.917C221.452 113.917 223.672 115.557 223.672 117.817C223.672 119.097 222.952 120.177 221.852 120.877C223.172 121.617 224.072 122.877 224.072 124.357C224.072 126.817 221.672 128.598 219.012 128.598C216.352 128.598 213.952 126.817 213.952 124.357ZM216.752 117.837C216.752 118.737 217.672 119.597 219.012 119.597C220.352 119.597 221.272 118.737 221.272 117.837C221.272 116.957 220.352 116.077 219.012 116.077C217.672 116.077 216.752 116.957 216.752 117.837Z" fill="white"/>
<rect x="206.812" y="2.5" width="51" height="51" rx="25.5" fill="#A8A8A8"/>
<rect x="206.812" y="2.5" width="51" height="51" rx="25.5" stroke="#DFDFDF" stroke-width="5"/>
<path d="M232.321 27.18C233.901 27.18 234.961 26.12 234.961 24.94C234.961 23.74 233.901 22.68 232.321 22.68C230.741 22.68 229.661 23.74 229.661 24.94C229.661 26.12 230.741 27.18 232.321 27.18ZM227.421 24.94C227.421 22.36 229.581 20.44 232.321 20.44C235.061 20.44 237.221 22.36 237.221 24.94C237.221 25.64 237.081 26.28 236.741 26.86L231.361 35.04L229.321 33.8L232.281 29.38C231.921 29.4 231.301 29.26 230.961 29.16C228.561 28.7 227.421 26.82 227.421 24.94Z" fill="white"/>
<path d="M136.903 27.207L137.425 27.6309L138.088 27.5244L148.783 25.8057L152.643 35.9277L152.882 36.5557L153.51 36.7949L163.631 40.6533L161.913 51.3496L161.807 52.0127L162.23 52.5342L169.065 60.9375L162.23 69.3408L161.807 69.8623L161.913 70.5254L163.631 81.2207L153.51 85.0801L152.882 85.3193L152.643 85.9473L148.783 96.0684L138.088 94.3506L137.425 94.2441L136.903 94.668L128.5 101.503L120.097 94.668L119.575 94.2441L118.912 94.3506L108.216 96.0684L104.357 85.9473L104.118 85.3193L103.49 85.0801L93.3682 81.2207L95.0869 70.5254L95.1934 69.8623L94.7695 69.3408L87.9336 60.9375L94.7695 52.5342L95.1934 52.0127L95.0869 51.3496L93.3682 40.6533L103.49 36.7949L104.118 36.5557L104.357 35.9277L108.216 25.8057L118.912 27.5244L119.575 27.6309L120.097 27.207L128.5 20.3711L136.903 27.207Z" fill="white" stroke="#DFDFDF" stroke-width="3"/>
<circle cx="129" cy="61.4375" r="20" fill="#FF0000"/>
</svg>
