<svg width="85" height="86" viewBox="0 0 85 86" fill="none" xmlns="http://www.w3.org/2000/svg">
<path d="M50.9033 9.20703L51.4248 9.63086L52.0879 9.52441L62.7832 7.80566L66.6426 17.9277L66.8818 18.5557L67.5098 18.7949L77.6309 22.6533L75.9131 33.3496L75.8066 34.0127L76.2305 34.5342L83.0654 42.9375L76.2305 51.3408L75.8066 51.8623L75.9131 52.5254L77.6309 63.2207L67.5098 67.0801L66.8818 67.3193L66.6426 67.9473L62.7832 78.0684L52.0879 76.3506L51.4248 76.2441L50.9033 76.668L42.5 83.5029L34.0967 76.668L33.5752 76.2441L32.9121 76.3506L22.2158 78.0684L18.3574 67.9473L18.1182 67.3193L17.4902 67.0801L7.36816 63.2207L9.08691 52.5254L9.19336 51.8623L8.76953 51.3408L1.93359 42.9375L8.76953 34.5342L9.19336 34.0127L9.08691 33.3496L7.36816 22.6533L17.4902 18.7949L18.1182 18.5557L18.3574 17.9277L22.2158 7.80566L32.9121 9.52441L33.5752 9.63086L34.0967 9.20703L42.5 2.37109L50.9033 9.20703Z" fill="white" stroke="#DFDFDF" stroke-width="3"/>
</svg>
