<svg width="56" height="56" viewBox="0 0 56 56" fill="none" xmlns="http://www.w3.org/2000/svg">
<path opacity="0.07" d="M27.999 56C25.8457 56 23.6952 55.1823 22.0515 53.5498L20.0074 51.5057C19.215 50.716 18.1538 50.2792 17.0281 50.2764H14.1524C9.50427 50.2764 5.72133 46.4934 5.72133 41.845V38.9664C5.71853 37.8436 5.28172 36.7823 4.48929 35.9842L2.47882 33.9765C-0.8141 30.7031 -0.828101 25.3519 2.44802 22.0561L4.49209 20.0091C5.28172 19.2167 5.71853 18.1554 5.72133 17.0297V14.1567C5.72133 9.50563 9.50427 5.72257 14.1524 5.72257H17.0309C18.1538 5.72257 19.2122 5.28574 20.0102 4.48769L22.0235 2.47995C25.2969 -0.813073 30.6451 -0.829874 33.9436 2.44915L35.9877 4.49329C36.7829 5.28574 37.8413 5.72257 38.9642 5.72257H41.8427C46.4908 5.72257 50.2738 9.50563 50.2738 14.1567V17.0325C50.2766 18.1554 50.7134 19.2167 51.5058 20.0147L53.5163 22.0253C55.1095 23.6102 55.9916 25.7215 56 27.9757C56.0056 30.2158 55.1431 32.3244 53.5723 33.9177C53.5443 33.9457 53.5191 33.9765 53.4911 34.0017L51.503 35.9898C50.7134 36.7823 50.2766 37.8436 50.2738 38.9692V41.845C50.2738 46.4934 46.4908 50.2764 41.8427 50.2764H38.9642C37.8413 50.2792 36.7801 50.716 35.9849 51.5085L33.9716 53.519C32.3307 55.1711 30.1635 56 27.999 56Z" fill="url(#paint0_linear_2098_12159)"/>
<path d="M27.9991 51.5773C26.1859 51.5773 24.375 50.8888 22.9909 49.5142L21.2696 47.7929C20.6024 47.128 19.7087 46.7601 18.7608 46.7578H16.3393C12.4252 46.7578 9.23967 43.5723 9.23967 39.6582V37.2342C9.23731 36.2887 8.86948 35.3951 8.20219 34.7231L6.50923 33.0325C3.73634 30.2761 3.72455 25.7702 6.48329 22.9949L8.20455 21.2713C8.86948 20.604 9.23731 19.7104 9.23967 18.7625V16.3433C9.23967 12.4268 12.4252 9.24132 16.3393 9.24132H18.7632C19.7087 9.24132 20.6 8.87349 21.272 8.20149L22.9673 6.51088C25.7238 3.73799 30.2273 3.72384 33.0049 6.48494L34.7262 8.2062C35.3958 8.87349 36.2871 9.24132 37.2326 9.24132H39.6566C43.5707 9.24132 46.7562 12.4268 46.7562 16.3433V18.7649C46.7585 19.7104 47.1264 20.604 47.7937 21.276L49.4866 22.969C50.8283 24.3036 51.571 26.0814 51.5781 27.9795C51.5828 29.8658 50.8566 31.6413 49.5338 32.983C49.5102 33.0065 49.489 33.0325 49.4654 33.0537L47.7913 34.7278C47.1264 35.3951 46.7585 36.2887 46.7562 37.2366V39.6582C46.7562 43.5723 43.5707 46.7578 39.6566 46.7578H37.2326C36.2871 46.7601 35.3935 47.128 34.7238 47.7953L33.0285 49.4882C31.6468 50.8794 29.8218 51.5773 27.9991 51.5773Z" fill="url(#paint1_linear_2098_12159)"/>
<path d="M25.6353 34.3876C25.1887 34.3876 24.7421 34.2205 24.4012 33.8843L19.6701 29.219C18.9882 28.5467 18.9882 27.4575 19.6701 26.7871C20.3519 26.1148 21.4544 26.1128 22.1363 26.7852L25.6353 30.2354L33.8653 22.1199C34.5471 21.4475 35.6497 21.4475 36.3315 22.1199C37.0134 22.7923 37.0134 23.8814 36.3315 24.5538L26.8694 33.8843C26.5285 34.2205 26.0819 34.3876 25.6353 34.3876Z" fill="white"/>
<defs>
<linearGradient id="paint0_linear_2098_12159" x1="-2.33455" y1="53.96" x2="164.217" y2="-75.8352" gradientUnits="userSpaceOnUse">
<stop offset="0.0677083" stop-color="#6970F3"/>
<stop offset="1" stop-color="#000343"/>
</linearGradient>
<linearGradient id="paint1_linear_2098_12159" x1="2.45601" y1="49.8596" x2="142.702" y2="-59.4387" gradientUnits="userSpaceOnUse">
<stop offset="0.0677083" stop-color="#6970F3"/>
<stop offset="1" stop-color="#000343"/>
</linearGradient>
</defs>
</svg>
