<svg width="73" height="72" viewBox="0 0 73 72" fill="none" xmlns="http://www.w3.org/2000/svg">
<g clip-path="url(#clip0_3994_12404)">
<path d="M33.7343 20.8764L28.8223 19.0283L24.5424 34.4206C24.3814 35.0085 24.6914 35.6204 25.2591 35.8338L27.7473 36.7719L30.2355 37.7101C30.8032 37.9235 31.4434 37.6698 31.7051 37.1222L38.6383 22.7284L33.7263 20.8804L33.7343 20.8764Z" fill="url(#paint0_linear_3994_12404)"/>
<path d="M34.427 19.0483L29.4425 17.1721C29.2291 17.0916 28.9915 17.2003 28.911 17.4137L28.5124 18.4766C28.4319 18.69 28.5406 18.9275 28.754 19.008L33.7385 20.8843L38.723 22.7605C38.9363 22.841 39.1739 22.7323 39.2544 22.5189L39.653 21.456C39.7335 21.2426 39.6248 21.0051 39.4114 20.9245L34.427 19.0483Z" fill="url(#paint1_linear_3994_12404)"/>
<path d="M38.719 18.956C38.6425 18.6299 38.4089 18.3602 38.0949 18.2434L35.1437 17.1322L32.1924 16.0209C31.8784 15.9041 31.5241 15.9484 31.2543 16.1457L29.7002 17.269L34.423 19.0486L39.1458 20.8282L38.719 18.9601V18.956Z" fill="url(#paint2_linear_3994_12404)"/>
<path d="M35.9568 17.4383L35.0348 15.8358C34.9986 15.7754 34.9422 15.7271 34.8778 15.6989L32.1158 14.6119C31.9547 14.5474 31.8742 14.3663 31.9346 14.2052C31.995 14.0401 32.1802 13.9596 32.3413 14.02L35.7193 15.2923C35.7877 15.3165 35.8441 15.3648 35.8803 15.4252L37.3942 17.9738L35.9568 17.4343V17.4383Z" fill="#FF7F8A"/>
<path d="M32.6518 14.8252L32.2007 16.0234L33.9604 16.6859L34.4115 15.4877L32.6518 14.8252Z" fill="#EFDAE2"/>
<path d="M40.88 42.8893C40.88 42.8893 40.0224 40.1725 40.1316 38.7549C40.1316 38.7549 40.5136 34.9048 41.1139 33.1871C41.1139 33.1871 43.0358 26.2847 37.9563 23.8799L36.2332 27.343C36.2332 27.343 33.1341 35.0194 32.8183 36.5278C32.8183 36.5278 31.7853 39.9593 34.8143 44.4648L41.0126 42.8656" fill="url(#paint3_linear_3994_12404)"/>
<path d="M31.4885 26.3181C31.4885 26.3181 31.3697 24.9982 32.6025 24.6682C33.8353 24.3382 34.1384 25.6581 34.1384 25.6581C34.1384 25.6581 36.7023 30.7259 37.3658 31.6262L33.139 35.6429C33.139 35.6429 33.7411 33.5693 32.4919 30.5507C32.1069 29.6178 31.7875 28.6564 31.6154 27.6624C31.5376 27.2143 31.4844 26.7458 31.4844 26.3181H31.4885Z" fill="#FFD9C0"/>
<path d="M33.6818 72.401L33.3833 44.3575C33.3833 44.3575 38.8484 42.3182 42.3494 42.2588L54.7034 72.401H33.6818Z" fill="url(#paint4_linear_3994_12404)"/>
<path d="M17.6906 24.9904L18.0771 23.7181C18.1496 23.4765 18.0328 23.2148 17.8034 23.1101L17.6222 23.0256L17.441 22.941C17.2115 22.8363 16.9377 22.9128 16.8008 23.1262L16.0801 24.2455L13.8093 23.7946C13.5637 23.7463 13.3141 23.8711 13.2094 24.1006L12.7826 25.0226C12.7142 25.1675 12.7826 25.3407 12.9236 25.4051L15.8909 26.778L18.8582 28.151C19.0032 28.2194 19.1763 28.151 19.2407 28.0101L19.6675 27.088C19.7722 26.8586 19.7078 26.5888 19.5105 26.4358L17.6946 24.9944L17.6906 24.9904Z" fill="url(#paint5_linear_3994_12404)"/>
<path d="M10.5282 48.6728L17.9687 32.592C18.4719 31.5009 17.4453 30.1199 17.4453 30.1199L17.9405 29.1013C18.5605 29.1214 18.8746 28.7349 19.0155 28.4812C19.0759 28.3685 19.0276 28.2316 18.9148 28.1793L15.8831 26.7741L12.8513 25.3689C12.7346 25.3166 12.6017 25.3689 12.5534 25.4857C12.4527 25.7555 12.3601 26.2467 12.7788 26.7057L12.3239 27.7444C12.3239 27.7444 10.6047 27.8572 10.1014 28.9442L2.66091 45.0291C2.66091 45.0291 2.08515 46.1 3.11184 46.8409L5.98255 48.1695L8.85326 49.4982C10.0813 49.8042 10.5241 48.6728 10.5241 48.6728H10.5282Z" fill="url(#paint6_linear_3994_12404)"/>
<path d="M19.9826 53.8602C19.9826 53.8602 19.125 51.0464 19.2341 49.5781C19.2341 49.5781 19.6161 45.5906 20.2165 43.8115C20.2165 43.8115 22.1384 36.6626 17.0588 34.1719L15.3358 37.7586C15.3358 37.7586 12.2366 45.7092 11.9208 47.2715C11.9208 47.2715 10.8878 50.8255 13.9168 55.492L20.1151 53.8356" fill="url(#paint7_linear_3994_12404)"/>
<path d="M10.3703 37.7575C10.3703 37.7575 10.2515 36.4376 11.4843 36.1076C12.7171 35.7777 13.0202 37.0976 13.0202 37.0976C13.0202 37.0976 15.5841 42.1653 16.2476 43.0656L12.0209 47.0823C12.0209 47.0823 12.6229 45.0088 11.3738 41.9901C10.9888 41.0573 10.6693 40.0958 10.4973 39.1019C10.4195 38.6537 10.3662 38.1853 10.3662 37.7575H10.3703Z" fill="#FFD9C0"/>
<path d="M13.5094 84.1645L13.2212 55.437C13.2212 55.437 18.4979 53.348 21.8781 53.2871L33.8061 84.1645H13.5094Z" fill="url(#paint8_linear_3994_12404)"/>
<path d="M60.9431 29.045L58.2777 27.7687L55.6124 26.4924C55.1131 26.2549 54.5172 26.4642 54.2797 26.9635L45.6072 45.0614C45.3696 45.5607 45.579 46.1565 46.0782 46.3941L48.7436 47.6704L51.409 48.9467C51.9082 49.1843 52.5041 48.9749 52.7416 48.4757L61.4142 30.3777C61.6517 29.8785 61.4423 29.2826 60.9431 29.045Z" fill="url(#paint9_linear_3994_12404)"/>
<path d="M60.5083 28.3008C60.5083 28.3008 61.7484 28.7074 62.4369 30.0884C62.4369 30.0884 64.1641 32.9793 62.0866 34.4891C62.0866 34.4891 60.8707 35.1897 60.315 33.9697C59.7594 32.7498 60.8868 29.8066 60.8868 29.8066C60.8868 29.8066 61.1243 29.0658 60.3915 28.5504L60.5123 28.3008H60.5083Z" stroke="#6C574D" stroke-miterlimit="10"/>
<path d="M61.9739 24.9226L60.0735 24.0126L58.1731 23.1027C57.6497 22.8531 57.0257 23.0745 56.776 23.5939L56.0876 25.0313C55.8379 25.5547 56.0594 26.1787 56.5788 26.4284L58.4791 27.3383L60.3795 28.2482C60.9029 28.4979 61.527 28.2764 61.7766 27.757L62.4651 26.3197C62.7147 25.7962 62.4933 25.1722 61.9739 24.9226Z" fill="url(#paint10_linear_3994_12404)"/>
<path d="M60.508 28.3001L56.4595 26.3604L56.2507 26.7961L60.2993 28.7358L60.508 28.3001Z" fill="#6C574D"/>
<path d="M63.0929 51.6764C63.0929 51.6764 62.2353 48.9596 62.3445 47.542C62.3445 47.542 62.7265 43.692 63.3268 41.9742C63.3268 41.9742 65.2487 35.0718 60.1692 32.667L58.4461 36.1301C58.4461 36.1301 55.347 43.8065 55.0312 45.3149C55.0312 45.3149 53.9981 48.7464 57.0271 53.2519L63.2255 51.6527" fill="url(#paint11_linear_3994_12404)"/>
<path d="M53.3952 35.8405C53.3952 35.8405 53.2764 34.5206 54.5092 34.1907C55.742 33.8607 56.0451 35.1806 56.0451 35.1806C56.0451 35.1806 58.609 40.2483 59.2725 41.1486L55.0458 45.1653C55.0458 45.1653 55.6478 43.0918 54.3987 40.0731C54.0137 39.1403 53.6942 38.1789 53.5222 37.1849C53.4444 36.7367 53.3911 36.2683 53.3911 35.8405H53.3952Z" fill="#FFD9C0"/>
<path d="M56.6202 82.1362L56.332 53.4087C56.332 53.4087 61.6087 51.3196 64.9889 51.2588L76.917 82.1362H56.6202Z" fill="url(#paint12_linear_3994_12404)"/>
</g>
<defs>
<linearGradient id="paint0_linear_3994_12404" x1="26.7055" y1="26.1301" x2="35.4493" y2="29.9837" gradientUnits="userSpaceOnUse">
<stop stop-color="#F7D8DF"/>
<stop offset="1" stop-color="#FEA9BC"/>
</linearGradient>
<linearGradient id="paint1_linear_3994_12404" x1="28.4858" y1="17.7501" x2="39.6796" y2="22.1825" gradientUnits="userSpaceOnUse">
<stop stop-color="#F98083"/>
<stop offset="1" stop-color="#F1565A"/>
</linearGradient>
<linearGradient id="paint2_linear_3994_12404" x1="29.7002" y1="16.5224" x2="39.1458" y2="20.2629" gradientUnits="userSpaceOnUse">
<stop stop-color="#DF4C5B"/>
<stop offset="1" stop-color="#CC2E3E"/>
</linearGradient>
<linearGradient id="paint3_linear_3994_12404" x1="32.6484" y1="32.5522" x2="41.4705" y2="35.7925" gradientUnits="userSpaceOnUse">
<stop offset="0.4" stop-color="#FFD9C0"/>
<stop offset="1" stop-color="#FFC8A3"/>
</linearGradient>
<linearGradient id="paint4_linear_3994_12404" x1="44.0434" y1="42.2588" x2="44.0434" y2="98.5448" gradientUnits="userSpaceOnUse">
<stop stop-color="#A369F3"/>
<stop offset="1" stop-color="#5E3D8D"/>
</linearGradient>
<linearGradient id="paint5_linear_3994_12404" x1="12.7559" y1="24.0571" x2="19.7172" y2="27.0152" gradientUnits="userSpaceOnUse">
<stop stop-color="#ED5E11"/>
<stop offset="1" stop-color="#D24A00"/>
</linearGradient>
<linearGradient id="paint6_linear_3994_12404" x1="6.91115" y1="36.0551" x2="15.3657" y2="39.731" gradientUnits="userSpaceOnUse">
<stop stop-color="#FFAF33"/>
<stop offset="1" stop-color="#E38A00"/>
</linearGradient>
<linearGradient id="paint7_linear_3994_12404" x1="11.751" y1="43.4176" x2="20.5731" y2="46.2462" gradientUnits="userSpaceOnUse">
<stop offset="0.4" stop-color="#FFD9C0"/>
<stop offset="1" stop-color="#FFC8A3"/>
</linearGradient>
<linearGradient id="paint8_linear_3994_12404" x1="23.5137" y1="53.2871" x2="23.5137" y2="84.1645" gradientUnits="userSpaceOnUse">
<stop stop-color="#A369F3"/>
<stop offset="1" stop-color="#5E3D8D"/>
</linearGradient>
<linearGradient id="paint9_linear_3994_12404" x1="49.2864" y1="35.4976" x2="57.7485" y2="39.8941" gradientUnits="userSpaceOnUse">
<stop stop-color="#6970F3"/>
<stop offset="1" stop-color="#3D418D"/>
</linearGradient>
<linearGradient id="paint10_linear_3994_12404" x1="55.9849" y1="24.229" x2="62.5678" y2="27.1219" gradientUnits="userSpaceOnUse">
<stop stop-color="#DFDFDF"/>
<stop offset="1" stop-color="#797979"/>
</linearGradient>
<linearGradient id="paint11_linear_3994_12404" x1="54.8613" y1="41.4391" x2="63.6834" y2="44.4798" gradientUnits="userSpaceOnUse">
<stop offset="0.4" stop-color="#FFD9C0"/>
<stop offset="1" stop-color="#FFC8A3"/>
</linearGradient>
<linearGradient id="paint12_linear_3994_12404" x1="66.6245" y1="51.2588" x2="66.6245" y2="82.1362" gradientUnits="userSpaceOnUse">
<stop stop-color="#A369F3"/>
<stop offset="1" stop-color="#5E3D8D"/>
</linearGradient>
<clipPath id="clip0_3994_12404">
<rect width="72" height="72" fill="white" transform="translate(0.5)"/>
</clipPath>
</defs>
</svg>
