<svg width="24" height="24" viewBox="0 0 24 24" fill="none" xmlns="http://www.w3.org/2000/svg">
<path d="M17.3581 14.6898C17.3581 14.6898 19.4775 15.0729 14.8341 18.3667L10.0293 19.3041L12.6225 19.6359C12.6225 19.6359 25.7833 15.4012 23.7959 11.5301C23.6806 11.3041 23.4626 11.0111 23.167 10.8787L21.4313 10.1815L16.4881 13.4365L17.3581 14.6898Z" fill="#E3F389"/>
<path d="M7.4662 12.7634C7.4662 12.7634 4.36322 18.3295 7.4662 18.252C7.4662 18.252 8.56543 18.1745 9.85939 16.9023C9.85939 16.9023 19.0301 6.39554 23.5778 11.1952C23.5778 11.1952 20.1859 10.3265 16.5804 15.9685C16.5804 15.9685 13.4816 20.8985 11.1931 22.59C11.1931 22.59 8.7099 24.4172 5.30332 23.9115L1.16602 18.0053L3.98634 12.337L7.4662 12.7634Z" fill="url(#paint0_linear_868_9158)"/>
<path d="M6.83768 1.69617C6.83768 1.69617 -2.12132 12.6808 0.470645 19.934C1.13327 21.7883 2.79714 23.3007 5.01285 23.8153C5.78208 23.9934 6.66209 24.0674 7.62363 23.9246C7.62363 23.9246 3.33017 22.7102 6.74571 14.5774C10.1612 6.44468 19.2101 0.0604516 19.2101 0.0604516C19.2101 0.0604516 12.7469 -0.4842 6.83768 1.69617Z" fill="#E3F389"/>
<defs>
<linearGradient id="paint0_linear_868_9158" x1="12.3719" y1="9.93951" x2="12.3719" y2="33.5318" gradientUnits="userSpaceOnUse">
<stop stop-color="white"/>
<stop offset="1" stop-color="#E3FD73"/>
</linearGradient>
</defs>
</svg>
