<svg width="85" height="86" viewBox="0 0 85 86" fill="none" xmlns="http://www.w3.org/2000/svg">
<path d="M61.6667 52.6606C61.6667 52.6606 69.0516 54.0141 52.872 65.653L36.1299 68.965L45.1656 70.1376C45.1656 70.1376 91.0237 55.1742 84.099 41.4958C83.6973 40.6974 82.9376 39.662 81.9076 39.1942L75.8595 36.7305L58.6353 48.2321L61.6667 52.6606Z" fill="#FA9820"/>
<path d="M27.2002 45.8519C27.2002 45.8519 16.388 65.5197 27.2002 65.2458C27.2002 65.2458 31.0305 64.9718 35.5392 60.4767C35.5392 60.4767 67.4942 23.3512 83.3404 40.3108C83.3404 40.3108 71.5214 37.2414 58.9583 57.1769C58.9583 57.1769 48.1607 74.5972 40.1865 80.5741C40.1865 80.5741 31.5339 87.0304 19.6638 85.2436L5.24756 64.3741L15.0748 44.3452L27.2002 45.8519Z" fill="url(#paint0_linear_791_10166)"/>
<path d="M24.0023 6.74703C24.0023 6.74703 -7.21487 45.5611 1.8167 71.1901C4.12557 77.7422 9.92326 83.086 17.6438 84.9046C20.3241 85.5337 23.3905 85.7952 26.7409 85.2908C26.7409 85.2908 11.7806 80.9995 23.6818 52.2627C35.5831 23.5258 67.1135 0.967266 67.1135 0.967266C67.1135 0.967266 44.5928 -0.957245 24.0023 6.74703Z" fill="#FA9820"/>
<defs>
<linearGradient id="paint0_linear_791_10166" x1="44.294" y1="35.8738" x2="44.294" y2="85.5562" gradientUnits="userSpaceOnUse">
<stop stop-color="#FFE0C0"/>
<stop offset="1" stop-color="#FFBB67"/>
</linearGradient>
</defs>
</svg>
